<svg xmlns="http://www.w3.org/2000/svg" width="254" height="87.77" viewBox="0 0 254 87.77">
  <g id="_404" data-name="404" transform="translate(0)">
    <ellipse id="Ellipse_299" data-name="Ellipse 299" cx="127" cy="5.572" rx="127" ry="5.572" transform="translate(0 76.627)" fill="#bcbec0" opacity="0.27"/>
    <g id="Group_55344" data-name="Group 55344" transform="translate(13.031)">
      <path id="Path_10486" data-name="Path 10486" d="M113.9,74.339H76.81V61.63l38.243-51.414h20.219V58.164h11.438V74.339H135.271V90.976H113.9V74.339Zm3.12-16.175V35.057L100.033,58.164h16.984Z" transform="translate(-76.81 -8.483)" fill="#d1d3d4"/>
      <path id="Path_10487" data-name="Path 10487" d="M526.144,79.2a33.113,33.113,0,0,1-13-14.5q-4.566-9.472-4.564-22.53t4.506-22.53A33.251,33.251,0,0,1,525.97,5.084Q534.346,0,545.785,0T565.6,5.084a33.259,33.259,0,0,1,12.882,14.557q4.506,9.475,4.506,22.53T578.424,64.7a33.139,33.139,0,0,1-13,14.5,40.893,40.893,0,0,1-39.283,0ZM557.8,59.039q4.274-6.006,4.275-16.637,0-10.745-4.217-16.926a14.882,14.882,0,0,0-24.147,0q-4.219,6.182-4.217,16.926,0,10.631,4.275,16.637a15.02,15.02,0,0,0,24.032,0Z" transform="translate(-435.332)" fill="#d1d3d4"/>
      <path id="Path_10488" data-name="Path 10488" d="M1004,74.339H966.911V61.63l38.243-51.414h20.219V58.164h11.438V74.339h-11.438V90.976H1004V74.339Zm3.12-16.175V35.057L990.134,58.164h16.984Z" transform="translate(-815.904 -8.483)" fill="#d1d3d4"/>
    </g>
  </g>
</svg>
