<svg id="Group_54286" data-name="Group 54286" xmlns="http://www.w3.org/2000/svg" width="87.476" height="90.637" viewBox="0 0 87.476 90.637">
  <circle id="Ellipse_129" data-name="Ellipse 129" cx="43.738" cy="43.738" r="43.738" transform="translate(0 3.16)" fill="#8dde34"/>
  <g id="cap" transform="translate(3.834)">
    <path id="Path_8823" data-name="Path 8823" d="M80.779,13.4a4.535,4.535,0,0,0-5.319,3.582l8.9,1.737A4.534,4.534,0,0,0,80.779,13.4Z" transform="translate(-31.271 -13.32)" fill="#5081d1"/>
    <path id="Path_8824" data-name="Path 8824" d="M20,69.167S6.357,78.895,3.587,82.28a4.745,4.745,0,0,0,.871,6.73c5.119,3.687,10.163-1.678,13.5-5.084,9.178,2.366,15.779,9.642,20.02,11.878,8.6,4.533,14.078-9.242,17.748-13.837C40.5,72.713,30.8,70.315,20,69.167Z" transform="translate(-2.546 -35.327)" fill="#ffe0d7"/>
    <path id="Path_8825" data-name="Path 8825" d="M76.438,55.081a7.046,7.046,0,0,1-6.89,6.09c-1.545.012-3.205.006-4.732-.061a3.786,3.786,0,0,0-3.127,1.412c-2.921,3.66-10.8,12.7-18.239,13.925a8.532,8.532,0,0,1-5.508-.8C33.7,73.411,27.1,66.133,17.922,63.764,11.063,62,5.949,62.958,2.64,66.1a4.826,4.826,0,0,1,.915-3.981C6.324,58.735,16.25,47.077,16.25,47.077c1.485-20.45,15.5-31.606,34.9-28.576,9.41,1.466,16.821,6.484,20.554,11.931C77.123,38.333,77.741,45.859,76.438,55.081Z" transform="translate(-2.533 -15.168)" fill="#5b9ee8"/>
    <path id="Path_8826" data-name="Path 8826" d="M63.24,79.511a3.7,3.7,0,0,0-1.551,1.145c-2.921,3.66-10.8,12.7-18.239,13.925a8.532,8.532,0,0,1-5.508-.8C33.7,91.545,27.1,84.268,17.922,81.9c-6.859-1.763-11.973-.806-15.282,2.339a4.826,4.826,0,0,1,.915-3.981C6.324,76.869,16.25,65.211,16.25,65.211a28.766,28.766,0,0,1,14.827-.4C42.893,67.586,49.728,74.979,63.24,79.511Z" transform="translate(-2.533 -33.302)" fill="#5081d1"/>
    <path id="Path_8827" data-name="Path 8827" d="M71.571,79.825a.892.892,0,0,1-.289-.047,87.007,87.007,0,0,1-16.051-7.612c-5.1-2.895-9.917-5.629-16.029-7.065a28.016,28.016,0,0,0-14.316.373.909.909,0,0,1-.606-1.714,29.463,29.463,0,0,1,15.339-.428c6.369,1.5,11.3,4.292,16.513,7.254a85.582,85.582,0,0,0,15.732,7.469.909.909,0,0,1-.289,1.771Z" transform="translate(-10.864 -32.707)" fill="#345aad"/>
  </g>
</svg>
