<svg xmlns="http://www.w3.org/2000/svg" width="14.787" height="18" viewBox="0 0 14.787 18">
  <g id="address" transform="translate(-12.41 -4.782)">
    <path id="Path_8545" data-name="Path 8545" d="M19.8,5.662a4.611,4.611,0,0,1,4.624,4.6,5.881,5.881,0,0,1-1.321,3.526l-3.3,3.824-3.3-3.823a5.876,5.876,0,0,1-1.322-3.527A4.611,4.611,0,0,1,19.8,5.662Zm0-.88A5.5,5.5,0,0,0,14.3,10.259a6.563,6.563,0,0,0,1.533,4.1h0l1.54,1.782H14.724a.443.443,0,0,0-.42.3l-1.872,5.763a.439.439,0,0,0,.421.574h13.9a.44.44,0,0,0,.422-.574L25.3,16.445a.441.441,0,0,0-.421-.3H23.2a.44.44,0,1,0,0,.879H24.56L26.145,21.9H13.462l1.584-4.881h3.082l1.185,1.372h-.778a.427.427,0,1,0,0,.855h2.531a.427.427,0,1,0,0-.855h-.774l3.483-4.033h0a6.557,6.557,0,0,0,1.535-4.1A5.5,5.5,0,0,0,19.8,4.782Z" transform="translate(0)" fill="#00aeef"/>
    <path id="Path_8546" data-name="Path 8546" d="M38.368,22.33a1.343,1.343,0,0,1-1.9,0,1.329,1.329,0,0,1,0-1.893,1.343,1.343,0,0,1,1.9,0,1.322,1.322,0,0,1,0,1.89Zm.627.622a2.216,2.216,0,0,0,0-3.135,2.244,2.244,0,0,0-3.152,0,2.214,2.214,0,0,0,0,3.135A2.244,2.244,0,0,0,38.995,22.952Z" transform="translate(-17.615 -11.125)" fill="#00aeef"/>
  </g>
</svg>
