<svg xmlns="http://www.w3.org/2000/svg" width="19.799" height="19.799" viewBox="0 0 19.799 19.799">
  <g id="surface1" transform="translate(0)">
    <path id="Path_8481" data-name="Path 8481" d="M16.5,3.5V1.65A1.652,1.652,0,0,0,14.849,0H1.65A1.652,1.652,0,0,0,0,1.65V8.91a1.647,1.647,0,0,0,1.48,1.633l1.24,3.22a1.65,1.65,0,0,0,2.133.946L12.6,11.725a4.77,4.77,0,0,0,.411,4.235l.19.3v3.205a.33.33,0,0,0,.33.33h5.94a.33.33,0,0,0,.33-.33V8.577a4.318,4.318,0,0,0-1.264-3.042Zm0,1.973,1,2.6a.99.99,0,0,1-.568,1.279l-.572.221a1.65,1.65,0,0,0,.139-.66ZM.66,8.91V1.65A.99.99,0,0,1,1.65.66h13.2a.99.99,0,0,1,.99.99v2.1h0l0,.007V8.91a1,1,0,0,1-.022.171L12.794,6.058a1.76,1.76,0,0,0-2.541,2.435L11.542,9.9H1.65A.99.99,0,0,1,.66,8.91Zm4.227,1.65-2.347.9-.347-.9Zm-.272,3.533a.99.99,0,0,1-1.28-.568l-.557-1.448,3.939-1.518v0h5.429l.429.468Zm14.524,5.046h-5.28V16.5h5.28Zm0-3.3H13.713l-.143-.229a4.115,4.115,0,0,1-.084-4.226A.33.33,0,0,0,13.443,11l-2.7-2.95a1.1,1.1,0,0,1,1.589-1.522l5.258,5.257.467-.467L16.832,10.1l.339-.132a1.65,1.65,0,0,0,.946-2.132L17,4.931,18.068,6a3.654,3.654,0,0,1,1.071,2.574Zm0,0" transform="translate(0)" fill="#009efa"/>
    <path id="Path_8482" data-name="Path 8482" d="M64.942,65.8a.858.858,0,0,0,.858-.858V63.358a.858.858,0,0,0-.858-.858H63.358a.858.858,0,0,0-.858.858v1.584a.858.858,0,0,0,.858.858Zm-1.782-.858V64.48h.66v-.66h-.66v-.462a.2.2,0,0,1,.2-.2h1.584a.2.2,0,0,1,.2.2v.462h-.66v.66h.66v.462a.2.2,0,0,1-.2.2H63.358A.2.2,0,0,1,63.16,64.942Zm0,0" transform="translate(-61.18 -61.18)" fill="#009efa"/>
    <path id="Path_8483" data-name="Path 8483" d="M78.125,265.625h1.32v.66h-1.32Zm0,0" transform="translate(-76.475 -260.015)" fill="#009efa"/>
    <path id="Path_8484" data-name="Path 8484" d="M78.125,359.375h1.32v.66h-1.32Zm0,0" transform="translate(-76.475 -351.785)" fill="#009efa"/>
    <path id="Path_8485" data-name="Path 8485" d="M359.375,359.375h1.32v.66h-1.32Zm0,0" transform="translate(-351.785 -351.785)" fill="#009efa"/>
    <path id="Path_8486" data-name="Path 8486" d="M171.875,265.625h1.32v.66h-1.32Zm0,0" transform="translate(-168.245 -260.015)" fill="#009efa"/>
    <path id="Path_8487" data-name="Path 8487" d="M265.625,265.625h1.32v.66h-1.32Zm0,0" transform="translate(-260.015 -260.015)" fill="#009efa"/>
    <path id="Path_8488" data-name="Path 8488" d="M359.375,265.625h1.32v.66h-1.32Zm0,0" transform="translate(-351.785 -260.015)" fill="#009efa"/>
    <path id="Path_8489" data-name="Path 8489" d="M656.25,78.125h.66v.99h-.66Zm0,0" transform="translate(-642.391 -76.475)" fill="#009efa"/>
    <path id="Path_8490" data-name="Path 8490" d="M593.75,78.125h.66v.99h-.66Zm0,0" transform="translate(-581.211 -76.475)" fill="#009efa"/>
    <path id="Path_8491" data-name="Path 8491" d="M531.25,78.125h.66v.99h-.66Zm0,0" transform="translate(-520.031 -76.475)" fill="#009efa"/>
    <path id="Path_8492" data-name="Path 8492" d="M468.75,78.125h.66v.99h-.66Zm0,0" transform="translate(-458.85 -76.475)" fill="#009efa"/>
    <path id="Path_8493" data-name="Path 8493" d="M687.5,812.5h.66v.66h-.66Zm0,0" transform="translate(-672.981 -795.341)" fill="#009efa"/>
  </g>
</svg>
