<svg id="teamwork" xmlns="http://www.w3.org/2000/svg" width="90.419" height="90.42" viewBox="0 0 90.419 90.42">
  <path id="Path_1002" data-name="Path 1002" d="M90.419,45.209A45.179,45.179,0,0,1,58.918,88.3,44.3,44.3,0,0,1,52.4,89.848a.139.139,0,0,1-.03,0q-1.643.263-3.321.4-.358.03-.718.055c-.338.022-.677.042-1.019.057q-1.046.05-2.1.05-1.085,0-2.155-.052-.484-.022-.969-.057c-.241-.017-.482-.033-.722-.053q-1.719-.144-3.4-.417c-.535-.087-1.069-.181-1.6-.286A44.656,44.656,0,0,1,29.7,87.688q-1.869-.681-3.658-1.52-.608-.286-1.211-.593-1.544-.78-3.017-1.676a45.211,45.211,0,1,1,68.6-38.69Zm0,0" transform="translate(0 0.001)" fill="#8dde34"/>
  <path id="Path_1003" data-name="Path 1003" d="M54.453,275.085V305.97a44.652,44.652,0,0,1-6.665-1.865q-1.869-.681-3.658-1.52-.608-.286-1.211-.593-1.544-.78-3.017-1.676a45.341,45.341,0,0,1-17.938-20.344v-4.886a12.254,12.254,0,0,1,9.077-11.836c.192-.052.384-.1.579-.14a11.833,11.833,0,0,1,1.594-.237c.33-.026.664-.041,1-.041H42.2a12.182,12.182,0,0,1,2.6.277c.048.009.1.02.143.031.141.032.283.066.421.1l.011,0a12.266,12.266,0,0,1,9.081,11.838Zm0,0" transform="translate(-18.086 -216.416)" fill="#2ba1cf"/>
  <path id="Path_1004" data-name="Path 1004" d="M78.972,275.085V305.97a44.66,44.66,0,0,1-6.665-1.865q-1.869-.681-3.658-1.52-.608-.286-1.211-.593-1.544-.78-3.017-1.676a45.446,45.446,0,0,1-12.679-11.435v-13.8A12.254,12.254,0,0,1,60.82,263.25c.192-.052.384-.1.579-.14a11.865,11.865,0,0,1,1.594-.237c.33-.026.664-.041,1-.041h2.721a12.182,12.182,0,0,1,2.6.277c.048.009.1.02.143.031.141.032.283.066.421.1l.011,0a12.266,12.266,0,0,1,9.081,11.838Zm0,0" transform="translate(-42.605 -216.416)" fill="#66baed"/>
  <path id="Path_1005" data-name="Path 1005" d="M87.592,264.4l-.029.139L83.9,281.586a3.566,3.566,0,0,1-3.469,2.828h-.062a3.566,3.566,0,0,1-3.469-2.828l-3.666-17.048-.029-.14Zm0,0" transform="translate(-60.276 -217.705)" fill="#f2f0ec"/>
  <path id="Path_1006" data-name="Path 1006" d="M80.4,259.727l-5.517,3.066L73.2,254.987l3.428-2.018" transform="translate(-60.275 -208.294)" fill="#d8d5d0"/>
  <path id="Path_1007" data-name="Path 1007" d="M113.941,259.727l5.517,3.066,1.678-7.806-3.428-2.018" transform="translate(-93.819 -208.294)" fill="#d8d5d0"/>
  <path id="Path_1008" data-name="Path 1008" d="M20.676,83.143V64.663a16.472,16.472,0,1,1,32.944,0v18.48" transform="translate(-17.024 -39.68)" fill="#cc7a3b"/>
  <path id="Path_1009" data-name="Path 1009" d="M27.448,65.393c0,6.536,3.828,14.1,5.93,17.758H20.672V64.671A16.462,16.462,0,0,1,37.024,48.2c-5.064.126-9.576,8.251-9.576,17.193Zm0,0" transform="translate(-17.021 -39.687)" fill="#a35418"/>
  <path id="Path_1010" data-name="Path 1010" d="M97.938,236.1v5.366a4.372,4.372,0,0,1-8.743,0V236.1Zm0,0" transform="translate(-73.443 -194.409)" fill="#eab599"/>
  <path id="Path_1011" data-name="Path 1011" d="M110.161,264.563v.34a4.371,4.371,0,0,1-3.079,4.176,4.37,4.37,0,0,1-3.043-3.606q.438.027.88.027a15.1,15.1,0,0,0,5.241-.936Zm0,0" transform="translate(-85.666 -217.841)" fill="#f6caae"/>
  <path id="Path_1012" data-name="Path 1012" d="M8.131,167.362a4.065,4.065,0,1,1-3.415-4.013,4.066,4.066,0,0,1,3.415,4.013Zm0,0" transform="translate(0 -134.458)" fill="#f6caae"/>
  <path id="Path_1013" data-name="Path 1013" d="M27.607,167.606a4.066,4.066,0,0,1-3.415,4.014,15.2,15.2,0,0,1,0-8.026,4.065,4.065,0,0,1,3.415,4.013Zm0,0" transform="translate(-19.475 -134.703)" fill="#eab599"/>
  <path id="Path_1014" data-name="Path 1014" d="M17.7,179.542a1.453,1.453,0,1,1-1.454-1.453A1.453,1.453,0,0,1,17.7,179.542Zm0,0" transform="translate(-12.18 -146.639)" fill="#eab599"/>
  <path id="Path_1015" data-name="Path 1015" d="M53.862,113.9v13.975a15.069,15.069,0,0,1-8.011,3.987l-.075.012a14.937,14.937,0,0,1-2.354.183A15.126,15.126,0,0,1,28.3,116.927v-5.76a15.243,15.243,0,0,1,.155-2.172A9.586,9.586,0,0,0,40.5,108.22a8.567,8.567,0,0,0,2.273-3.552,9.982,9.982,0,0,0,3.122,6.231,11.164,11.164,0,0,0,7.968,3Zm0,0" transform="translate(-23.3 -86.184)" fill="#eab599"/>
  <path id="Path_1016" data-name="Path 1016" d="M75.824,113.9v13.975a15.069,15.069,0,0,1-8.011,3.987l-.075.012a15.128,15.128,0,0,1-12.769-14.943v-5.76q0-.23.008-.457a9.478,9.478,0,0,0,7.483-2.49,8.565,8.565,0,0,0,2.273-3.551,9.982,9.982,0,0,0,3.122,6.231A11.164,11.164,0,0,0,75.824,113.9Zm0,0" transform="translate(-45.262 -86.183)" fill="#f6caae"/>
  <path id="Path_1021" data-name="Path 1021" d="M104.219,190.469h-3.432a.74.74,0,1,1,0-1.48h3.432a.74.74,0,0,1,0,1.48Zm0,0" transform="translate(-82.379 -155.613)" fill="#eab599"/>
  <path id="Path_1022" data-name="Path 1022" d="M95.132,213.563a7.64,7.64,0,0,1-3.688-.953.673.673,0,1,1,.648-1.179,6.278,6.278,0,0,0,6.079,0,.673.673,0,1,1,.648,1.179,7.64,7.64,0,0,1-3.688.953Zm0,0" transform="translate(-75.008 -174.024)" fill="#eab599"/>
  <path id="Path_1025" data-name="Path 1025" d="M154.679,187.787a1.884,1.884,0,1,1-1.885-1.885A1.884,1.884,0,0,1,154.679,187.787Zm0,0" transform="translate(-124.259 -153.072)" fill="#eab599"/>
  <path id="Path_1026" data-name="Path 1026" d="M59.42,187.787a1.884,1.884,0,1,1-1.884-1.885A1.884,1.884,0,0,1,59.42,187.787Zm0,0" transform="translate(-45.824 -153.072)" fill="#eab599"/>
  <path id="Path_1027" data-name="Path 1027" d="M330.541,270.344V276a45.389,45.389,0,0,1-21.989,22.214A45.114,45.114,0,0,1,296.58,301.9a.136.136,0,0,1-.03,0V270.344a12.817,12.817,0,0,1,11.772-12.775c.347-.03.7-.042,1.048-.042h8.349a12.8,12.8,0,0,1,12.823,12.817Zm0,0" transform="translate(-244.179 -212.047)" fill="#bfd5de"/>
  <path id="Path_1028" data-name="Path 1028" d="M361.068,270.345V276a45.389,45.389,0,0,1-21.989,22.214,44.716,44.716,0,0,1-5.455,2.131v-30a12.82,12.82,0,0,1,12.821-12.817h1.8A12.819,12.819,0,0,1,361.068,270.345Zm0,0" transform="translate(-274.706 -212.048)" fill="#dde8ed"/>
  <path id="Path_1029" data-name="Path 1029" d="M282.069,157.633a4.25,4.25,0,1,1-3.572-4.2A4.253,4.253,0,0,1,282.069,157.633Zm0,0" transform="translate(-225.251 -126.292)" fill="#d3a489"/>
  <path id="Path_1030" data-name="Path 1030" d="M380.18,283.711l-3.442,5.52-3.442-5.52" transform="translate(-307.372 -233.607)" fill="#f74f4f"/>
  <path id="Path_1031" data-name="Path 1031" d="M375.824,323.866l-4.63,5.843-4.631-5.843,4.632-17.03Zm0,0" transform="translate(-301.828 -252.649)" fill="#f74f4f"/>
  <path id="Path_1032" data-name="Path 1032" d="M302.448,157.887a4.253,4.253,0,0,1-3.572,4.2,15.908,15.908,0,0,1,0-8.4A4.254,4.254,0,0,1,302.448,157.887Zm0,0" transform="translate(-245.63 -126.546)" fill="#bf8e75"/>
  <path id="Path_1033" data-name="Path 1033" d="M292.083,170.379a1.52,1.52,0,1,1-1.52-1.52A1.521,1.521,0,0,1,292.083,170.379Zm0,0" transform="translate(-237.998 -139.039)" fill="#bf8e75"/>
  <path id="Path_1034" data-name="Path 1034" d="M357.683,254.267l-5.771,3.208-1.756-8.167,3.586-2.112" transform="translate(-288.318 -203.54)" fill="#bfd5de"/>
  <path id="Path_1035" data-name="Path 1035" d="M392.777,254.267l5.772,3.208,1.756-8.167-3.587-2.112" transform="translate(-323.413 -203.54)" fill="#bfd5de"/>
  <path id="Path_1036" data-name="Path 1036" d="M463.828,157.633a4.251,4.251,0,1,0,3.572-4.2A4.253,4.253,0,0,0,463.828,157.633Zm0,0" transform="translate(-381.916 -126.292)" fill="#d3a489"/>
  <g id="Group_54023" data-name="Group 54023" transform="translate(53.539 13.228)">
    <path id="Path_1037" data-name="Path 1037" d="M463.828,157.887a4.253,4.253,0,0,0,3.572,4.2,15.9,15.9,0,0,0,0-8.4A4.254,4.254,0,0,0,463.828,157.887Zm0,0" transform="translate(-435.455 -139.774)" fill="#bf8e75"/>
    <path id="Path_1038" data-name="Path 1038" d="M482.345,170.379a1.52,1.52,0,1,1-1.52-1.52A1.521,1.521,0,0,1,482.345,170.379Zm0,0" transform="translate(-448.198 -152.266)" fill="#bf8e75"/>
    <path id="Path_1039" data-name="Path 1039" d="M334.82,90.753a15.827,15.827,0,0,1-13.286,15.622,15.634,15.634,0,0,1-2.54.2,15.825,15.825,0,0,1-15.826-15.826c0-4.136,1.436-10.344,4.034-13.164,2.892-3.139,7.187-2.663,11.792-2.663a15.639,15.639,0,0,1,2.54.2A15.826,15.826,0,0,1,334.82,90.753Zm0,0" transform="translate(-303.168 -74.9)" fill="#bf8e75"/>
    <path id="Path_1040" data-name="Path 1040" d="M376.031,229.559v5.613a4.574,4.574,0,0,1-9.148,0v-5.613Zm0,0" transform="translate(-355.631 -202.246)" fill="#bf8e75"/>
  </g>
  <path id="Path_1041" data-name="Path 1041" d="M388.82,259.328v.356a3.307,3.307,0,1,1-6.405.6q.458.028.922.028a15.719,15.719,0,0,0,2.54-.2A15.557,15.557,0,0,0,388.82,259.328Zm0,0" transform="translate(-314.88 -213.53)" fill="#d3a489"/>
  <path id="Path_1042" data-name="Path 1042" d="M358.505,91.825a15.827,15.827,0,0,1-13.286,15.622,15.827,15.827,0,0,1,0-31.244,15.831,15.831,0,0,1,13.209,14.044c.052.519.078,1.046.078,1.578Zm0,0" transform="translate(-273.314 -62.745)" fill="#d3a489"/>
  <path id="Path_1043" data-name="Path 1043" d="M373.092,198a7.994,7.994,0,0,1-3.858-1,.7.7,0,1,1,.678-1.233,6.573,6.573,0,0,0,6.36,0A.7.7,0,0,1,376.95,197,8,8,0,0,1,373.092,198Zm0,0" transform="translate(-303.726 -161.123)" fill="#bf8e75"/>
  <path id="Path_1048" data-name="Path 1048" d="M382.6,177.822H379a.774.774,0,1,1,0-1.549H382.6a.774.774,0,1,1,0,1.549Zm0,0" transform="translate(-311.435 -145.143)" fill="#bf8e75"/>
  <path id="Path_1049" data-name="Path 1049" d="M422.289,327.727h6.9v2.112h-6.9Zm0,0" transform="translate(-347.713 -269.85)" fill="#bfd5de"/>
  <path id="Path_1050" data-name="Path 1050" d="M387.539,49.333a9.591,9.591,0,0,1,8.887,9.09l.046.915h2.758l1.485,9.877,3.6-1.113-.483-9.679a9.592,9.592,0,0,0-9.616-9.116Zm0,0" transform="translate(-319.1 -40.6)" fill="#2a2f4f"/>
  <path id="Path_1051" data-name="Path 1051" d="M413.6,27.816a9.776,9.776,0,0,1-13.825,13.825Zm0,0" transform="translate(-329.174 -22.904)" fill="#3d4159"/>
  <path id="Path_1052" data-name="Path 1052" d="M320.132,59.335h-12l-1.486,9.878-3.6-1.113.482-9.679A9.593,9.593,0,0,1,313.15,49.3l17.328.066,2.291,4.123" transform="translate(-249.532 -40.597)" fill="#3d4159"/>
  <path id="Path_1053" data-name="Path 1053" d="M319.82,49.333a9.592,9.592,0,0,0-8.887,9.09l-.046.915H308.13l-1.486,9.877-3.6-1.113.483-9.679a9.592,9.592,0,0,1,9.616-9.116Zm0,0" transform="translate(-249.528 -40.6)" fill="#2a2f4f"/>
  <path id="Path_1054" data-name="Path 1054" d="M185.805,401.339v3.39a45.327,45.327,0,0,1-38.328,0v-3.388a14.459,14.459,0,0,1,10.71-13.965c.226-.061.453-.116.683-.166a14.279,14.279,0,0,1,1.88-.277c.391-.032.784-.048,1.183-.048h9.414a14.485,14.485,0,0,1,3.067.325c.057.011.115.024.17.037.166.039.332.079.5.123l.013,0a14.471,14.471,0,0,1,10.712,13.967Zm0,0" transform="translate(-121.432 -318.559)" fill="#3d4159"/>
  <path id="Path_1055" data-name="Path 1055" d="M224.9,388.723l-.035.164-4.611,21.445q-.358.03-.718.055c-.338.022-.677.042-1.019.057q-1.046.05-2.1.05-1.085,0-2.155-.052-.484-.022-.969-.057c-.241-.017-.482-.033-.722-.053l-4.61-21.443-.034-.166Zm0,0" transform="translate(-171.206 -320.074)" fill="#66baed"/>
  <path id="Path_1056" data-name="Path 1056" d="M241.781,416.422l-3.881,6.224-3.88-6.224" transform="translate(-192.692 -342.882)" fill="#3d4159"/>
  <path id="Path_1057" data-name="Path 1057" d="M244.555,454.661c-.338.022-.677.042-1.019.057q-1.046.05-2.1.05-1.085,0-2.155-.052-.484-.022-.969-.057l3.124-12.166Zm0,0" transform="translate(-196.224 -364.348)" fill="#3d4159"/>
  <path id="Path_1058" data-name="Path 1058" d="M216.41,383.217l-6.509,3.617-1.98-9.209,4.044-2.382" transform="translate(-171.203 -308.975)" fill="#2ba1cf"/>
  <path id="Path_1059" data-name="Path 1059" d="M255.988,383.217l6.508,3.617,1.98-9.209-4.044-2.382" transform="translate(-210.78 -308.975)" fill="#2ba1cf"/>
  <path id="Path_1060" data-name="Path 1060" d="M274.539,401.151H276.6L273,409.923a44.931,44.931,0,0,1-5.088.521l6.335-21.56.048-.161,4.453,1.454Zm0,0" transform="translate(-220.597 -320.074)" fill="#2a2f4f"/>
  <path id="Path_1061" data-name="Path 1061" d="M193.267,410.442a44.764,44.764,0,0,1-5.091-.528l-3.6-8.763h2.065l-4.209-10.974,4.454-1.454.048.161Zm0,0" transform="translate(-150.213 -320.074)" fill="#2a2f4f"/>
  <path id="Path_1062" data-name="Path 1062" d="M237.1,355.352v6.329a5.158,5.158,0,0,1-10.316,0v-6.329Zm0,0" transform="translate(-186.735 -292.596)" fill="#eab599"/>
  <path id="Path_1063" data-name="Path 1063" d="M251.52,388.922v.4a5.158,5.158,0,0,1-3.633,4.927,5.157,5.157,0,0,1-3.591-4.256q.517.032,1.039.032a17.781,17.781,0,0,0,6.184-1.1Zm0,0" transform="translate(-201.154 -320.238)" fill="#f6caae"/>
  <path id="Path_1064" data-name="Path 1064" d="M131.144,274.242a4.8,4.8,0,0,1-4.029,4.735,4.849,4.849,0,0,1-.768.061,4.8,4.8,0,1,1,4.8-4.8Zm0,0" transform="translate(-100.085 -221.861)" fill="#f6caae"/>
  <path id="Path_1065" data-name="Path 1065" d="M154.126,274.532a4.8,4.8,0,0,1-4.029,4.735,17.943,17.943,0,0,1,0-9.47A4.8,4.8,0,0,1,154.126,274.532Zm0,0" transform="translate(-123.066 -222.15)" fill="#eab599"/>
  <path id="Path_1066" data-name="Path 1066" d="M142.437,288.616a1.714,1.714,0,1,1-1.714-1.714A1.715,1.715,0,0,1,142.437,288.616Zm0,0" transform="translate(-114.459 -236.235)" fill="#eab599"/>
  <path id="Path_1067" data-name="Path 1067" d="M336.105,274.242a4.8,4.8,0,1,0,4.029-4.735A4.8,4.8,0,0,0,336.105,274.242Zm0,0" transform="translate(-276.749 -221.861)" fill="#f6caae"/>
  <path id="Path_1068" data-name="Path 1068" d="M336.105,274.532a4.8,4.8,0,0,0,4.029,4.735,17.947,17.947,0,0,0,0-9.47A4.8,4.8,0,0,0,336.105,274.532Zm0,0" transform="translate(-276.749 -222.15)" fill="#eab599"/>
  <path id="Path_1069" data-name="Path 1069" d="M190.633,160.483v6.8a17.846,17.846,0,0,1-14.983,17.615l-.087.014a17.535,17.535,0,0,1-2.777.216,17.845,17.845,0,0,1-17.845-17.845v-6.8a17.835,17.835,0,0,1,17.845-17.847h0a17.834,17.834,0,0,1,17.846,17.847Zm0,0" transform="translate(-127.579 -117.447)" fill="#eab599"/>
  <path id="Path_1070" data-name="Path 1070" d="M356.988,288.616a1.714,1.714,0,1,1-1.714-1.714A1.714,1.714,0,0,1,356.988,288.616Zm0,0" transform="translate(-291.12 -236.235)" fill="#eab599"/>
  <path id="Path_1071" data-name="Path 1071" d="M216.541,161.49v6.8A17.846,17.846,0,0,1,201.559,185.9l-.088.014a17.849,17.849,0,0,1-15.065-17.63v-6.8a17.85,17.85,0,0,1,15.068-17.631A17.849,17.849,0,0,1,216.541,161.49Zm0,0" transform="translate(-153.487 -118.453)" fill="#f6caae"/>
  <path id="Path_1076" data-name="Path 1076" d="M244.5,292.516h-4.049a.873.873,0,0,1,0-1.747H244.5a.873.873,0,0,1,0,1.747Zm0,0" transform="translate(-197.272 -239.419)" fill="#eab599"/>
  <path id="Path_1077" data-name="Path 1077" d="M233.786,319.76a9.015,9.015,0,0,1-4.351-1.124.794.794,0,0,1,.765-1.391,7.4,7.4,0,0,0,7.172,0,.794.794,0,0,1,.765,1.391A9.017,9.017,0,0,1,233.786,319.76Zm0,0" transform="translate(-188.578 -261.138)" fill="#eab599"/>
  <path id="Path_1078" data-name="Path 1078" d="M190.63,141.778v6.961h-3.322v-5.452l-23.976-4.455-5.073-.943v10.85h-3.322v-6.962A14.367,14.367,0,0,1,169.3,127.41h6.959c.189,0,.378,0,.567.013a14.365,14.365,0,0,1,13.8,14.356Zm0,0" transform="translate(-127.575 -104.909)" fill="#2a2f4f"/>
  <path id="Path_1079" data-name="Path 1079" d="M229.77,141.84V148.8h-3.322v-5.452l-23.976-4.455a13.756,13.756,0,0,1,27.3,2.946Zm0,0" transform="translate(-166.716 -104.97)" fill="#3d4159"/>
</svg>
