<svg id="_1" data-name="1" xmlns="http://www.w3.org/2000/svg" width="111.467" height="98.179" viewBox="0 0 111.467 98.179">
  <g id="Group_54632" data-name="Group 54632" transform="translate(0 2.786)">
    <path id="Path_9485" data-name="Path 9485" d="M99.428,139.5a55.734,55.734,0,1,0-87.388,0Z" transform="translate(0 -44.345)" fill="#e1f5fc"/>
    <g id="Group_54631" data-name="Group 54631" transform="translate(73.447 62.914)">
      <g id="Group_54628" data-name="Group 54628" transform="translate(0 9.718)">
        <g id="Group_54627" data-name="Group 54627" transform="translate(2.86)">
          <g id="Group_54623" data-name="Group 54623" transform="translate(11.676 9.883)">
            <g id="Group_54622" data-name="Group 54622">
              <rect id="Rectangle_9849" data-name="Rectangle 9849" width="9.867" height="12.669" fill="#ffa305"/>
              <path id="Path_9486" data-name="Path 9486" d="M631.686,563.346V550.677h5.794l-.09,12.669Z" transform="translate(-621.819 -550.677)" fill="#de7f04"/>
            </g>
            <rect id="Rectangle_9850" data-name="Rectangle 9850" width="1.475" height="2.883" transform="translate(3.686)" fill="#ffc766"/>
          </g>
          <path id="Path_9487" data-name="Path 9487" d="M538.586,563.346V550.677h4.554l-.071,12.669Z" transform="translate(-531.465 -540.794)" fill="#de7f04"/>
          <g id="Group_54625" data-name="Group 54625">
            <g id="Group_54624" data-name="Group 54624">
              <rect id="Rectangle_9851" data-name="Rectangle 9851" width="7.31" height="9.883" transform="translate(4.906)" fill="#de7f04"/>
              <path id="Path_9488" data-name="Path 9488" d="M498.372,496.761v-9.883h-5.76l.076,9.883Z" transform="translate(-492.612 -486.878)" fill="#ffa305"/>
            </g>
            <rect id="Rectangle_9852" data-name="Rectangle 9852" width="1.15" height="2.249" transform="translate(8.191)" fill="#ffc766"/>
          </g>
          <g id="Group_54626" data-name="Group 54626" transform="translate(12.17)">
            <rect id="Rectangle_9853" data-name="Rectangle 9853" width="7.31" height="9.883" transform="translate(4.906)" fill="#ffa305"/>
            <path id="Path_9489" data-name="Path 9489" d="M576.084,496.761v-9.883h-4.906l.077,9.883Z" transform="translate(-571.178 -486.878)" fill="#ffa305"/>
          </g>
          <rect id="Rectangle_9854" data-name="Rectangle 9854" width="4.385" height="9.883" transform="translate(20.001)" fill="#de7f04"/>
        </g>
        <rect id="Rectangle_9855" data-name="Rectangle 9855" width="10.221" height="12.669" transform="translate(0 9.883)" fill="#ffa305"/>
        <rect id="Rectangle_9856" data-name="Rectangle 9856" width="1.475" height="2.883" transform="translate(4.373 9.883)" fill="#ffc766"/>
      </g>
      <rect id="Rectangle_9857" data-name="Rectangle 9857" width="1.15" height="2.249" transform="translate(18.319 9.718)" fill="#ffc766"/>
      <g id="Group_54630" data-name="Group 54630" transform="translate(8.29)">
        <g id="Group_54629" data-name="Group 54629">
          <rect id="Rectangle_9858" data-name="Rectangle 9858" width="7.31" height="9.883" transform="translate(4.906)" fill="#de7f04"/>
          <path id="Path_9490" data-name="Path 9490" d="M533.428,434.023V424.14h-5.76l.077,9.883Z" transform="translate(-527.668 -424.14)" fill="#ffa305"/>
        </g>
        <rect id="Rectangle_9859" data-name="Rectangle 9859" width="1.15" height="2.249" transform="translate(8.191)" fill="#ffc766"/>
      </g>
    </g>
    <ellipse id="Ellipse_178" data-name="Ellipse 178" cx="4.816" cy="4.816" rx="4.816" ry="4.816" transform="translate(91.091 9.631) rotate(-89.821)" fill="#e1f5fc"/>
  </g>
  <g id="Group_54655" data-name="Group 54655" transform="translate(18.833 0)">
    <g id="Group_54634" data-name="Group 54634" transform="translate(12.275)">
      <path id="Path_9491" data-name="Path 9491" d="M268.715,4.825c-.738-4.369-7.467-6.342-7.335-3.49l-30.847.181a4.117,4.117,0,0,0-3.871,4.295L226.6,86.931a4.247,4.247,0,0,0,3.938,4.463l31.49.27a2.521,2.521,0,0,0,1.138,1.1c3.611.077,5.344-1.706,5.976-3.722a4.856,4.856,0,0,0,.313-1.77c-.126-1.056-.51-81.419-.738-82.443Z" transform="translate(-222.605 0)" fill="#4d4d4d"/>
      <g id="Group_54633" data-name="Group 54633" transform="translate(0 0.012)">
        <path id="Path_9492" data-name="Path 9492" d="M241.044,92.836,204.9,92.6a4.366,4.366,0,0,1-4.076-4.584l.136-83.425a4.235,4.235,0,0,1,4.012-4.4L240.413.074a4.259,4.259,0,0,1,4.071,4.4l.642,83.811a4.3,4.3,0,0,1-4.083,4.553Z" transform="translate(-200.822 -0.074)" fill="#4d4d4d"/>
        <path id="Path_9493" data-name="Path 9493" d="M244.872,95.264a3.264,3.264,0,0,1-.457.029l-36.135-.273a3.812,3.812,0,0,1-3.519-4.011l.125-83.334A3.7,3.7,0,0,1,208.35,3.82l35.442-.154c.055,0,.111,0,.167,0a3.354,3.354,0,0,1,2.348,1.143,4.005,4.005,0,0,1,1,2.653l.634,83.9a3.768,3.768,0,0,1-3.066,3.9Z" transform="translate(-204.151 -3.109)" fill="#0d0d0d"/>
        <path id="Path_9494" data-name="Path 9494" d="M252.62,30.916l.508,83.6-40.606-.244.1-83.36Z" transform="translate(-210.71 -26.139)" fill="#fff"/>
      </g>
    </g>
    <g id="Group_54636" data-name="Group 54636" transform="translate(0 4.419)">
      <g id="Group_54635" data-name="Group 54635">
        <path id="Path_9495" data-name="Path 9495" d="M292.43,46.8l4.486-.037,14.419-17.753-4.506.037Z" transform="translate(-265.965 -28.932)" fill="#8dde34"/>
        <path id="Path_9496" data-name="Path 9496" d="M321.392,46.557l4.483-.037,14.442-17.753-4.507.037Z" transform="translate(-290.44 -28.731)" fill="#f1e3e0"/>
        <path id="Path_9497" data-name="Path 9497" d="M350.335,46.319l4.486-.037L369.28,28.529l-4.5.037Z" transform="translate(-314.9 -28.529)" fill="#ff3bab"/>
        <path id="Path_9498" data-name="Path 9498" d="M263.489,47.034,267.972,47l14.4-17.752-4.5.037Z" transform="translate(-241.507 -29.134)" fill="#f1e3e0"/>
        <path id="Path_9499" data-name="Path 9499" d="M205.587,47.511l4.483-.037,14.359-17.752-4.5.037Z" transform="translate(-192.574 -29.537)" fill="#f1e3e0"/>
        <path id="Path_9500" data-name="Path 9500" d="M121.577,48.222l4.045-.033,14.3-17.751-4.059.033Z" transform="translate(-121.577 -30.142)" fill="#ff3bab"/>
        <path id="Path_9501" data-name="Path 9501" d="M147.688,47.987l4.483-.037L166.489,30.2l-4.5.037Z" transform="translate(-143.643 -29.94)" fill="#f1e3e0"/>
        <path id="Path_9502" data-name="Path 9502" d="M234.528,47.272l4.486-.037,14.379-17.752-4.506.037Z" transform="translate(-217.032 -29.335)" fill="#ffc800"/>
        <path id="Path_9503" data-name="Path 9503" d="M176.627,47.749l4.486-.037L195.451,29.96,190.945,30Z" transform="translate(-168.1 -29.739)" fill="#12b5ff"/>
      </g>
      <path id="Path_9504" data-name="Path 9504" d="M350.326,143.176l0,2.7c0,2.864,4.479,2.827,4.483-.037l0-2.7Z" transform="translate(-314.891 -125.386)" fill="#e23196"/>
      <path id="Path_9505" data-name="Path 9505" d="M321.392,143.413v2.7c0,2.864,4.479,2.827,4.48-.037l0-2.7-4.483.037Z" transform="translate(-290.44 -125.586)" fill="#f1c5bc"/>
      <path id="Path_9506" data-name="Path 9506" d="M292.43,143.649l0,2.7c0,2.863,4.485,2.827,4.483-.037v-2.7Z" transform="translate(-265.965 -125.786)" fill="#7fc92d"/>
      <path id="Path_9507" data-name="Path 9507" d="M263.489,143.886l.007,2.7c.008,2.863,4.485,2.827,4.48-.037l0-2.7Z" transform="translate(-241.507 -125.986)" fill="#f1c5bc"/>
      <path id="Path_9508" data-name="Path 9508" d="M234.528,144.122l.011,2.7c.011,2.863,4.491,2.827,4.483-.037l-.007-2.7Z" transform="translate(-217.032 -126.185)" fill="#dbb428"/>
      <path id="Path_9509" data-name="Path 9509" d="M205.587,144.359l.014,2.7c.014,2.863,4.491,2.827,4.48-.037l-.01-2.7Z" transform="translate(-192.574 -126.386)" fill="#f1c5bc"/>
      <path id="Path_9510" data-name="Path 9510" d="M176.627,144.6l.017,2.7c.018,2.863,4.5,2.827,4.483-.037l-.014-2.7Z" transform="translate(-168.1 -126.585)" fill="#129ad8"/>
      <path id="Path_9511" data-name="Path 9511" d="M147.688,144.832l.02,2.7c.021,2.863,4.5,2.827,4.48-.037l-.017-2.7-4.483.037Z" transform="translate(-143.643 -126.786)" fill="#f1c5bc"/>
      <path id="Path_9512" data-name="Path 9512" d="M121.577,145.065l.022,2.7a2.025,2.025,0,1,0,4.042-.033l-.02-2.7-4.045.033Z" transform="translate(-121.577 -126.985)" fill="#e23196"/>
      <path id="Path_9513" data-name="Path 9513" d="M377.381,46.282l-.351.049,14.83-.131-.02-17.671Z" transform="translate(-337.46 -28.529)" fill="#f1e3e0"/>
    </g>
    <g id="Group_54654" data-name="Group 54654" transform="translate(14.088 29.161)">
      <path id="Path_9514" data-name="Path 9514" d="M263.526,408.247l-35.515-.036v-.47l35.515.038Z" transform="translate(-225.612 -373.742)" fill="#04f2f5"/>
      <path id="Path_9515" data-name="Path 9515" d="M263.526,493.011l-35.515-.036v-.47l35.515.038Z" transform="translate(-225.612 -445.377)" fill="#04f2f5"/>
      <path id="Path_9516" data-name="Path 9516" d="M263.526,321.945l-35.515-.044v-.387l35.515.046Z" transform="translate(-225.612 -300.872)" fill="#04f2f5"/>
      <g id="Group_54638" data-name="Group 54638" transform="translate(3.732)">
        <path id="Path_9517" data-name="Path 9517" d="M267.622,192.3l-29.109-.171a1.935,1.935,0,0,1-1.9-1.948,1.906,1.906,0,0,1,1.9-1.925l29.109.191a1.92,1.92,0,0,1,1.879,1.938A1.891,1.891,0,0,1,267.622,192.3Zm-29.109-3.915a1.78,1.78,0,0,0-1.774,1.8A1.807,1.807,0,0,0,238.514,192l29.109.171a1.765,1.765,0,0,0,1.754-1.787,1.792,1.792,0,0,0-1.754-1.809l-29.109-.191Z" transform="translate(-236.613 -188.255)" fill="#04f2f5"/>
        <path id="Path_9518" data-name="Path 9518" d="M420.276,189.795l-3.029-.02V193.5l3.029.018a1.826,1.826,0,0,0,1.817-1.851A1.854,1.854,0,0,0,420.276,189.795Z" transform="translate(-389.267 -189.539)" fill="#04f2f5"/>
        <g id="Group_54637" data-name="Group 54637" transform="translate(28.946 0.722)">
          <path id="Path_9519" data-name="Path 9519" d="M424.421,194.844a.93.93,0,0,1-.666-.287.982.982,0,0,1,0-1.364.918.918,0,0,1,.666-.278.93.93,0,0,1,.666.287h0a.982.982,0,0,1,0,1.364A.918.918,0,0,1,424.421,194.844Zm0-1.7a.7.7,0,0,0-.505.211.745.745,0,0,0,0,1.035.706.706,0,0,0,.505.217.7.7,0,0,0,.505-.211.746.746,0,0,0,0-1.035A.706.706,0,0,0,424.421,193.147Z" transform="translate(-423.48 -192.915)" fill="#4489c8"/>
          <path id="Path_9520" data-name="Path 9520" d="M433.53,203.413l-.714-.742.161-.164.714.742Z" transform="translate(-431.37 -201.022)" fill="#4489c8"/>
          <path id="Path_9521" data-name="Path 9521" d="M434.641,204.433h0a.2.2,0,0,1-.289,0l-.6-.616.289-.294.6.616A.213.213,0,0,1,434.641,204.433Z" transform="translate(-432.163 -201.878)" fill="#4489c8"/>
        </g>
      </g>
      <path id="Path_9522" data-name="Path 9522" d="M246.574,254.973l-9.961-.047V244.753l9.961.058Z" transform="translate(-232.881 -236.001)" fill="#04f2f5"/>
      <path id="Path_9523" data-name="Path 9523" d="M321.556,255.4l-9.935-.047V245.192l9.935.058Z" transform="translate(-296.27 -236.372)" fill="#f1e3e0"/>
      <path id="Path_9524" data-name="Path 9524" d="M394.677,255.812l-9.911-.047V245.619l9.911.058Z" transform="translate(-358.085 -236.733)" fill="#f1e3e0"/>
      <path id="Path_9525" data-name="Path 9525" d="M246.574,343.118l-9.961-.032V332.913l9.961.043Z" transform="translate(-232.881 -310.505)" fill="#f1e3e0"/>
      <path id="Path_9526" data-name="Path 9526" d="M321.556,343.43l-9.935-.032V333.239l9.935.043Z" transform="translate(-296.27 -310.781)" fill="#f1e3e0"/>
      <path id="Path_9527" data-name="Path 9527" d="M394.677,343.734l-9.911-.032V333.556l9.911.043Z" transform="translate(-358.085 -311.048)" fill="#f1e3e0"/>
      <path id="Path_9528" data-name="Path 9528" d="M246.574,429.727l-9.961-.017V419.537l9.961.028Z" transform="translate(-232.881 -383.711)" fill="#f1e3e0"/>
      <path id="Path_9529" data-name="Path 9529" d="M321.556,429.928l-9.935-.017V419.751l9.935.028Z" transform="translate(-296.27 -383.892)" fill="#f1e3e0"/>
      <path id="Path_9530" data-name="Path 9530" d="M394.677,430.124l-9.911-.017V419.96l9.911.028Z" transform="translate(-358.085 -384.068)" fill="#f1e3e0"/>
      <g id="Group_54643" data-name="Group 54643" transform="translate(5.553 10.886)">
        <path id="Path_9531" data-name="Path 9531" d="M254.257,264.1l-.222-.068a21.461,21.461,0,0,0,.42-2.341,2.645,2.645,0,0,0-.683-1.976,3.164,3.164,0,0,0-2.312-.946,2.917,2.917,0,0,0-2.194.857,2.685,2.685,0,0,0-.661,2.034c.035.647.359,2.274.362,2.29l-.227.046c-.013-.068-.33-1.66-.367-2.324a2.917,2.917,0,0,1,.724-2.209,3.141,3.141,0,0,1,2.362-.93,3.394,3.394,0,0,1,2.479,1.02,2.88,2.88,0,0,1,.747,2.151A20.4,20.4,0,0,1,254.257,264.1Z" transform="translate(-248.368 -258.532)" fill="#03abb0"/>
        <g id="Group_54640" data-name="Group 54640" transform="translate(0.381 3.55)">
          <g id="Group_54639" data-name="Group 54639" transform="translate(0 0.284)">
            <path id="Path_9532" data-name="Path 9532" d="M250.832,284.523l.3,1.647a.349.349,0,0,0,.363.289l-.426-2.338A.352.352,0,0,0,250.832,284.523Z" transform="translate(-250.826 -283.991)" fill="#03abb0"/>
            <path id="Path_9533" data-name="Path 9533" d="M252.882,285.744l.651-.121-.43-2.341-.651.121-.036.009.426,2.337A.325.325,0,0,0,252.882,285.744Z" transform="translate(-252.169 -283.281)" fill="#03abb0"/>
          </g>
          <path id="Path_9534" data-name="Path 9534" d="M256.255,284.3h0a.369.369,0,0,1-.427-.3l-.389-2.115a.371.371,0,0,1,.292-.435h0a.369.369,0,0,1,.427.3l.388,2.115A.371.371,0,0,1,256.255,284.3Z" transform="translate(-254.719 -281.448)" fill="#fff"/>
        </g>
        <g id="Group_54642" data-name="Group 54642" transform="translate(4.032 3.564)">
          <g id="Group_54641" data-name="Group 54641" transform="translate(0.467 0.289)">
            <path id="Path_9535" data-name="Path 9535" d="M282.568,284.812l-.343,1.634a.345.345,0,0,1-.37.276l.482-2.32A.356.356,0,0,1,282.568,284.812Z" transform="translate(-281.168 -284.247)" fill="#03abb0"/>
            <path id="Path_9536" data-name="Path 9536" d="M278.062,285.872l-.647-.144.487-2.324.647.145.036.01-.482,2.32Z" transform="translate(-277.415 -283.404)" fill="#03abb0"/>
          </g>
          <path id="Path_9537" data-name="Path 9537" d="M274.688,284.375h0a.364.364,0,0,0,.434-.285l.44-2.1a.376.376,0,0,0-.281-.445h0a.364.364,0,0,0-.434.285l-.44,2.1A.376.376,0,0,0,274.688,284.375Z" transform="translate(-274.398 -281.537)" fill="#fff"/>
        </g>
      </g>
      <g id="Group_54644" data-name="Group 54644" transform="translate(5.572 38.765)">
        <path id="Path_9538" data-name="Path 9538" d="M255.49,443.637c-.051-1.023-2.34-1.668-2.34-1.668s-2.1-2.306-2.972-3.461c-1.492.582-1.847,1.3-1.625,2.558.727-.617,1.967.517,3.474,2.564Z" transform="translate(-248.492 -438.508)" fill="#7fc92d"/>
        <path id="Path_9539" data-name="Path 9539" d="M248.884,453.125l.5,2.668h.24c.067-1.2.216-2.561,1.011-2.126C250.632,452.6,248.884,452.593,248.884,453.125Z" transform="translate(-248.823 -450.567)" fill="#7fc92d"/>
      </g>
      <g id="Group_54646" data-name="Group 54646" transform="translate(28.762 23.589)">
        <g id="Group_54645" data-name="Group 54645">
          <path id="Path_9540" data-name="Path 9540" d="M408.419,340.955a1.8,1.8,0,0,1-.087-.414h-.111a1.551,1.551,0,0,1-.05.333.657.657,0,0,1-.558.525.664.664,0,0,1-.558-.53,1.558,1.558,0,0,1-.05-.333h-.111a1.8,1.8,0,0,1-.087.413,2.167,2.167,0,0,1-.532.827l.178,1.668,1.112,0h.1l1.112,0,.178-1.666A2.192,2.192,0,0,1,408.419,340.955Z" transform="translate(-405.024 -340.535)" fill="#129ad8"/>
          <path id="Path_9541" data-name="Path 9541" d="M403.377,363.685c-.495.506-4.561.544-5.177-.018a12.149,12.149,0,0,1,1.428-4.361l2.323.009A12.772,12.772,0,0,1,403.377,363.685Z" transform="translate(-398.2 -356.399)" fill="#129ad8"/>
        </g>
        <path id="Path_9542" data-name="Path 9542" d="M408.493,359.269a2.128,2.128,0,0,1-1.4-.423.036.036,0,0,1,0-.05.034.034,0,0,1,.049,0,2.1,2.1,0,0,0,1.358.4h0c.812,0,.924-.331.925-.335a.034.034,0,0,1,.043-.023.035.035,0,0,1,.023.044c0,.016-.121.388-.991.385Z" transform="translate(-405.703 -355.957)" fill="#4489c8"/>
        <path id="Path_9543" data-name="Path 9543" d="M414.973,361.838a.1.1,0,0,1-.075-.043c-.17-.213.254-.613.3-.658l.076-.07-.019.1c-.027.147-.124.629-.264.666Zm.194-.569c-.132.141-.3.37-.216.481.007.009.017.019.025.016C415.034,361.752,415.113,361.515,415.167,361.27Z" transform="translate(-412.277 -357.887)" fill="#4489c8"/>
        <path id="Path_9544" data-name="Path 9544" d="M416.983,357.724l0-.087c0-.021.014-.519.205-.686a.214.214,0,0,1,.176-.053.124.124,0,0,1,.113.081c.059.182-.352.6-.435.685Zm.352-.758a.146.146,0,0,0-.1.039.941.941,0,0,0-.175.542c.174-.184.385-.449.353-.545,0-.007-.009-.027-.057-.033Z" transform="translate(-414.074 -354.361)" fill="#4489c8"/>
        <path id="Path_9545" data-name="Path 9545" d="M417.688,362.1a.035.035,0,0,1-.031-.02,1.087,1.087,0,0,0-.636-.549.036.036,0,0,1-.025-.043.035.035,0,0,1,.042-.025,1.142,1.142,0,0,1,.68.586.036.036,0,0,1-.016.047A.035.035,0,0,1,417.688,362.1Z" transform="translate(-414.084 -358.219)" fill="#4489c8"/>
      </g>
      <g id="Group_54648" data-name="Group 54648" transform="translate(17.764 10.112)">
        <g id="Group_54647" data-name="Group 54647">
          <path id="Path_9546" data-name="Path 9546" d="M337.419,253.955a1.806,1.806,0,0,1-.087-.414h-.111a1.545,1.545,0,0,1-.05.333.656.656,0,0,1-.558.525.664.664,0,0,1-.558-.53,1.559,1.559,0,0,1-.05-.333h-.111a1.8,1.8,0,0,1-.087.413,2.168,2.168,0,0,1-.532.827l.178,1.668,1.112,0h.1l1.112,0,.178-1.666A2.191,2.191,0,0,1,337.419,253.955Z" transform="translate(-334.024 -253.535)" fill="#ffc800"/>
          <path id="Path_9547" data-name="Path 9547" d="M332.377,276.685c-.495.506-4.561.544-5.177-.018a12.151,12.151,0,0,1,1.428-4.361l2.323.009A12.772,12.772,0,0,1,332.377,276.685Z" transform="translate(-327.2 -269.399)" fill="#ffc800"/>
        </g>
        <path id="Path_9548" data-name="Path 9548" d="M337.493,272.269a2.127,2.127,0,0,1-1.4-.423.036.036,0,0,1,0-.05.034.034,0,0,1,.049,0,2.106,2.106,0,0,0,1.358.4h0c.812,0,.924-.331.925-.334a.034.034,0,0,1,.043-.023.035.035,0,0,1,.023.044c0,.016-.121.388-.991.385Z" transform="translate(-334.703 -268.957)" fill="#4489c8"/>
        <path id="Path_9549" data-name="Path 9549" d="M343.973,274.838a.1.1,0,0,1-.075-.043c-.17-.213.254-.613.3-.658l.076-.07-.019.1c-.027.147-.125.629-.264.666Zm.194-.569c-.132.141-.3.37-.216.481.007.009.017.019.025.016C344.034,274.752,344.114,274.515,344.167,274.27Z" transform="translate(-341.277 -270.887)" fill="#4489c8"/>
        <path id="Path_9550" data-name="Path 9550" d="M345.983,270.724l0-.087c0-.021.014-.52.205-.686a.214.214,0,0,1,.176-.053.123.123,0,0,1,.113.081c.059.182-.352.6-.435.685Zm.352-.758a.146.146,0,0,0-.1.039.942.942,0,0,0-.175.542c.174-.184.385-.449.353-.545,0-.007-.009-.027-.056-.033Z" transform="translate(-343.074 -267.361)" fill="#4489c8"/>
        <path id="Path_9551" data-name="Path 9551" d="M346.688,275.1a.035.035,0,0,1-.031-.02,1.087,1.087,0,0,0-.636-.549.036.036,0,0,1-.025-.043.035.035,0,0,1,.042-.025,1.142,1.142,0,0,1,.68.586.036.036,0,0,1-.016.047A.032.032,0,0,1,346.688,275.1Z" transform="translate(-343.084 -271.219)" fill="#4489c8"/>
      </g>
      <g id="Group_54649" data-name="Group 54649" transform="translate(16.54 25.077)">
        <path id="Path_9552" data-name="Path 9552" d="M336.135,350.169a3.277,3.277,0,0,0,1.722-.028c.655.81-.5,1.2-1.22,1.02S336.135,350.169,336.135,350.169Z" transform="translate(-333.5 -350.141)" fill="#fff"/>
        <path id="Path_9553" data-name="Path 9553" d="M332.723,350.141a.831.831,0,0,1-.379.537.99.99,0,0,1-1.343-.509,4.689,4.689,0,0,0-.972.216v5.587l3.858.013V350.4A4.483,4.483,0,0,0,332.723,350.141Z" transform="translate(-328.366 -350.141)" fill="#7fc92d"/>
        <path id="Path_9554" data-name="Path 9554" d="M320.958,351.722l-1.662,1.309,1.093,1.465,1.627-1.233Z" transform="translate(-319.296 -351.477)" fill="#7fc92d"/>
        <path id="Path_9555" data-name="Path 9555" d="M349.246,351.822l1.662,1.321-1.092,1.455-1.628-1.245Z" transform="translate(-343.713 -351.562)" fill="#7fc92d"/>
      </g>
      <g id="Group_54650" data-name="Group 54650" transform="translate(28.002 10.98)">
        <path id="Path_9556" data-name="Path 9556" d="M410.135,259.169a3.277,3.277,0,0,0,1.722-.028c.655.81-.5,1.2-1.22,1.02S410.135,259.169,410.135,259.169Z" transform="translate(-407.5 -259.141)" fill="#fff"/>
        <path id="Path_9557" data-name="Path 9557" d="M406.723,259.141a.831.831,0,0,1-.379.537.99.99,0,0,1-1.343-.509,4.694,4.694,0,0,0-.972.216v5.587l3.858.013V259.4A4.486,4.486,0,0,0,406.723,259.141Z" transform="translate(-402.366 -259.141)" fill="#ff3bab"/>
        <path id="Path_9558" data-name="Path 9558" d="M394.958,260.722l-1.662,1.309,1.093,1.465,1.627-1.233Z" transform="translate(-393.296 -260.477)" fill="#ff3bab"/>
        <path id="Path_9559" data-name="Path 9559" d="M423.246,260.822l1.662,1.321-1.092,1.455-1.628-1.245Z" transform="translate(-417.713 -260.562)" fill="#ff3bab"/>
      </g>
      <g id="Group_54651" data-name="Group 54651" transform="translate(15.883 38.583)">
        <path id="Path_9560" data-name="Path 9560" d="M320.414,441.266a7.915,7.915,0,0,0,1.409.258,21.371,21.371,0,0,0,3.018.1,5.222,5.222,0,0,0,2.045-.345s.635-3.851-3.107-3.946l-.128,0C319.765,437.322,320.414,441.266,320.414,441.266Z" transform="translate(-319.55 -437.332)" fill="#ffc800"/>
        <path id="Path_9561" data-name="Path 9561" d="M329.633,441.523a21.363,21.363,0,0,0,3.019.1c.528-3.5-.981-4.252-1.062-4.29l0,0h-.124C329.49,438.452,329.586,440.965,329.633,441.523Z" transform="translate(-327.361 -437.331)" fill="#fff"/>
        <path id="Path_9562" data-name="Path 9562" d="M321.991,462.889s-1.058,1.8-5.971,1.38c-2.1-.178-.1-1.541-.1-1.541A18.284,18.284,0,0,0,321.991,462.889Z" transform="translate(-315.06 -458.794)" fill="#129ad8"/>
      </g>
      <g id="Group_54653" data-name="Group 54653" transform="translate(28.095 38.612)">
        <g id="Group_54652" data-name="Group 54652">
          <path id="Path_9563" data-name="Path 9563" d="M396.258,444.3l2.263.006a2.372,2.372,0,0,1,2.356,2.382,1.382,1.382,0,0,1-.563,1.236l-5.968-.012c-.377-.18-.522-.805-.422-1.554A2.36,2.36,0,0,1,396.258,444.3Z" transform="translate(-393.894 -443.251)" fill="#ff3bab"/>
          <path id="Path_9564" data-name="Path 9564" d="M409.775,438.636l0-.02a.86.86,0,0,1,1.716,0l0,.02h.292l0-.045a1.151,1.151,0,0,0-2.3-.006l0,.045Z" transform="translate(-407.068 -437.525)" fill="#ff3bab"/>
        </g>
        <path id="Path_9565" data-name="Path 9565" d="M412.1,455.421h-.56v-2.24h.56Z" transform="translate(-408.803 -450.754)" fill="#fff"/>
        <path id="Path_9566" data-name="Path 9566" d="M419.251,455.437h-.56V453.2h.56Z" transform="translate(-414.85 -450.768)" fill="#fff"/>
      </g>
      <rect id="Rectangle_9860" data-name="Rectangle 9860" width="40.606" height="4.459" transform="translate(0 54.773)" fill="#e4e4e4"/>
      <path id="Path_9567" data-name="Path 9567" d="M343.02,550.228h-2.447V548.46l1.223-.932,1.223.932Z" transform="translate(-320.738 -491.876)" fill="#fff"/>
      <rect id="Rectangle_9861" data-name="Rectangle 9861" width="3.031" height="1.615" transform="translate(4.763 56.195)" fill="#fff"/>
      <rect id="Rectangle_9862" data-name="Rectangle 9862" width="3.031" height="1.615" transform="translate(34.655 56.195)" fill="#fff"/>
    </g>
  </g>
  <rect id="Rectangle_9863" data-name="Rectangle 9863" width="41.964" height="3.284" transform="translate(38.732 91.611)" fill="#0d0d0d"/>
  <rect id="Rectangle_9864" data-name="Rectangle 9864" width="47.895" height="3.284" transform="translate(20.412 91.611)" fill="#4d4d4d"/>
  <rect id="Rectangle_9865" data-name="Rectangle 9865" width="54.943" height="3.284" transform="translate(10.779 94.895)" fill="#4d4d4d"/>
  <rect id="Rectangle_9866" data-name="Rectangle 9866" width="19.264" height="3.284" transform="translate(61.432 94.895)" fill="#0d0d0d"/>
  <g id="Group_54668" data-name="Group 54668" transform="translate(16.407 34.311)">
    <g id="Group_54666" data-name="Group 54666" transform="translate(0 2.545)">
      <g id="Group_54658" data-name="Group 54658" transform="translate(16.914 17.602)">
        <path id="Path_9568" data-name="Path 9568" d="M222.95,382.4c-1.05,3.076-.4,9.6-1.9,13.9-2.323,6.675-1.169,9.617-2.229,14.765l2.446.185c2.272-10.106,7.36-24.416,7.987-27.671S223.935,379.893,222.95,382.4Z" transform="translate(-218.245 -376.262)" fill="#014a91"/>
        <path id="Path_9569" data-name="Path 9569" d="M269.729,386.147c.1,1.2,1.733,8.093.795,11.384-1.483,5.2-.709,14.278-.709,14.278l1.97-.013c1.918-8.429,4.534-20.718,4.326-28.482-.289-3.264-6.994-4.4-6.381,2.832Z" transform="translate(-261.17 -376.244)" fill="#014a91"/>
        <ellipse id="Ellipse_179" data-name="Ellipse 179" cx="5.226" cy="3.969" rx="5.226" ry="3.969" transform="translate(4.489 3.21)" fill="#014a91"/>
        <g id="Group_54656" data-name="Group 54656" transform="translate(8.031 27.09)">
          <path id="Path_9570" data-name="Path 9570" d="M270.309,539.132a3.452,3.452,0,0,0-.643-.22l-.424-1.87,2.2-10.2-4.2-.4.011,9.9-.309,1.144s1.432,2.133,1.76,2.133,1.6.025,1.8.025C270.51,539.517,270.49,539.233,270.309,539.132Z" transform="translate(-266.951 -526.445)" fill="#a64b30"/>
          <path id="Path_9571" data-name="Path 9571" d="M266.951,597.23l.3,2.261h.135l1-2.351Z" transform="translate(-266.951 -586.19)" fill="#a64b30"/>
        </g>
        <g id="Group_54657" data-name="Group 54657" transform="translate(0 26.596)">
          <path id="Path_9572" data-name="Path 9572" d="M218.405,536.44a3.262,3.262,0,0,0-.629-.22l-.308-1.87,2.805-10.661-3.886-.43-.859,10.39-.42,1.054s1.341,2.223,1.669,2.223,1.594.025,1.795.025c.011-.127.009-.411-.166-.511Z" transform="translate(-215.108 -523.259)" fill="#a64b30"/>
          <path id="Path_9573" data-name="Path 9573" d="M215.108,597.141l.2,2.351h.135l1.143-2.351Z" transform="translate(-215.108 -585.697)" fill="#a64b30"/>
        </g>
        <path id="Path_9574" data-name="Path 9574" d="M246.611,353.735a9.471,9.471,0,0,0-2.182,4.648,8.322,8.322,0,0,0,4.764,1.315c1.542.006,4.816-.388,5.618-1.287a24.053,24.053,0,0,0-1.251-5.161C252.769,351.028,247.767,350.814,246.611,353.735Z" transform="translate(-239.887 -351.563)" fill="#014a91"/>
        <path id="Path_9575" data-name="Path 9575" d="M253.872,387.534a11.079,11.079,0,0,0,.369-2.258L251.094,385a21.379,21.379,0,0,0-.226,2.175l1.342,1.011,1.662-.656Z" transform="translate(-245.328 -379.823)" fill="#0d64b8"/>
        <path id="Path_9576" data-name="Path 9576" d="M283.64,389.631a11.08,11.08,0,0,0,.248-2.274l-3.157-.1a21.409,21.409,0,0,0-.11,2.184l1.394.938Z" transform="translate(-270.471 -381.724)" fill="#0d64b8"/>
      </g>
      <g id="Group_54665" data-name="Group 54665">
        <path id="Path_9577" data-name="Path 9577" d="M203.529,301.132s-2.715-2-8.105,6.93c-.685,1.134-3.015,6.562-3.015,6.562l1.4.914,4.182-5.926S206.367,302.6,203.529,301.132Z" transform="translate(-179.011 -291.181)" fill="#f7a58e"/>
        <g id="Group_54663" data-name="Group 54663" transform="translate(0 24.204)">
          <g id="Group_54660" data-name="Group 54660">
            <path id="Path_9578" data-name="Path 9578" d="M174.314,398.517a.038.038,0,0,1-.019-.064c.015-.016,1.494-1.563,1.426-2.447a.536.536,0,0,0-.213-.4c-.882-.67-3.14,1.669-3.162,1.692a.038.038,0,0,1-.055-.053c.095-.1,2.328-2.412,3.264-1.7a.611.611,0,0,1,.243.459c.071.919-1.385,2.442-1.447,2.506A.038.038,0,0,1,174.314,398.517Z" transform="translate(-162 -395.216)" fill="#103558"/>
            <path id="Path_9579" data-name="Path 9579" d="M169.382,396.955a.038.038,0,0,1-.013-.069c.019-.013,1.891-1.332,1.907-2.134a.414.414,0,0,0-.179-.355c-.887-.674-3.66,1.321-3.688,1.341a.038.038,0,0,1-.045-.062c.116-.084,2.848-2.048,3.78-1.34a.492.492,0,0,1,.209.418c-.016.841-1.861,2.141-1.939,2.2A.038.038,0,0,1,169.382,396.955Z" transform="translate(-157.832 -394.182)" fill="#103558"/>
            <g id="Group_54659" data-name="Group 54659" transform="translate(0.014 0.286)">
              <path id="Path_9580" data-name="Path 9580" d="M113.916,396.031l-7.908,9.388,2.743,1.816,6.606-10.251Z" transform="translate(-106.008 -396.031)" fill="#f05b5b"/>
              <path id="Path_9581" data-name="Path 9581" d="M130.582,403.632l-6.957,10.018,4.5,2.982,6.109-10.58Z" transform="translate(-120.896 -402.455)" fill="#e54547"/>
              <path id="Path_9582" data-name="Path 9582" d="M128.7,400.577l-6.456,8.238.227,2.262,6.955-10.02Z" transform="translate(-119.733 -399.873)" fill="#f1696a"/>
            </g>
            <path id="Path_9583" data-name="Path 9583" d="M108.449,453.761l-2.53.437,2.743,1.816Z" transform="translate(-105.919 -444.532)" fill="#f05b5b"/>
          </g>
          <g id="Group_54662" data-name="Group 54662" transform="translate(4.161 2.374)">
            <g id="Group_54661" data-name="Group 54661" transform="translate(0.015)">
              <path id="Path_9584" data-name="Path 9584" d="M139.5,409.508l-6.615,10.641,3.036,1.434,5.174-11.322Z" transform="translate(-132.883 -409.508)" fill="#4cc3d1"/>
              <path id="Path_9585" data-name="Path 9585" d="M157.948,415.508l-5.562,11.138L157.371,429l4.623-11.582Z" transform="translate(-149.365 -414.579)" fill="#26bdc5"/>
              <path id="Path_9586" data-name="Path 9586" d="M154.184,413.1l-5.316,9.267.56,2.252,5.56-11.139Z" transform="translate(-146.392 -412.541)" fill="#6fcbd8"/>
            </g>
            <path id="Path_9587" data-name="Path 9587" d="M135.275,472.921l-2.491.811,3.036,1.434Z" transform="translate(-132.784 -463.098)" fill="#4cc3d1"/>
          </g>
        </g>
        <path id="Path_9588" data-name="Path 9588" d="M186.438,390.094l-.5.886s.432.43.244.714a2.022,2.022,0,0,1-2.151.146,1.3,1.3,0,0,1-.332-1.343,5.2,5.2,0,0,1,1.285-1.224S186.292,389.559,186.438,390.094Z" transform="translate(-171.582 -365.831)" fill="#f7a58e"/>
        <path id="Path_9589" data-name="Path 9589" d="M264.576,281.164l-3.84.118.8-6.453,3.072-.095Z" transform="translate(-236.755 -269.034)" fill="#f7a58e"/>
        <g id="Group_54664" data-name="Group 54664" transform="translate(23.108)">
          <path id="Path_9590" data-name="Path 9590" d="M261.926,241.185c.32,2.582-.223,4.522-2.1,4.718s-4.5-2.027-4.705-4.01a3.427,3.427,0,1,1,6.808-.708Z" transform="translate(-255.097 -237.931)" fill="#f7a58e"/>
          <path id="Path_9591" data-name="Path 9591" d="M287.625,259.741a.7.7,0,1,1-.821-.557A.7.7,0,0,1,287.625,259.741Z" transform="translate(-281.411 -255.881)" fill="#f7a58e"/>
        </g>
        <path id="Path_9592" data-name="Path 9592" d="M256.243,302.448c-.016.724-.073,6.046-.073,6.046s-4.461-.279-7.429-.33c-1.356-5.673-3.025-8.369.305-10.255C253.756,296.141,256.263,299.923,256.243,302.448Z" transform="translate(-225.231 -288.234)" fill="#0386c2"/>
        <path id="Path_9593" data-name="Path 9593" d="M264.424,296.459c-3.451,1.137-4.761.315-4.761.315A6.134,6.134,0,0,1,264.424,296.459Z" transform="translate(-235.847 -287.097)" fill="#f7a58e"/>
        <path id="Path_9594" data-name="Path 9594" d="M199.8,403.876a.039.039,0,0,1-.029-.031,11.4,11.4,0,0,0-1.4-3.884.038.038,0,0,1,.06-.047,11.474,11.474,0,0,1,1.418,3.918.038.038,0,0,1-.031.044A.041.041,0,0,1,199.8,403.876Z" transform="translate(-184.042 -374.809)" fill="#103558"/>
        <path id="Path_9595" data-name="Path 9595" d="M184.846,402.009a.039.039,0,0,1-.018-.01,4.757,4.757,0,0,1-1.452-3.007.038.038,0,1,1,.077,0,4.674,4.674,0,0,0,1.428,2.949.038.038,0,0,1-.035.065Z" transform="translate(-171.377 -374.012)" fill="#103558"/>
      </g>
    </g>
    <g id="Group_54667" data-name="Group 54667" transform="translate(26.041 8.679)">
      <path id="Path_9596" data-name="Path 9596" d="M387.425,278.914c.605-.648,1-1.25.879-1.362s-.7.309-1.316.945C386.561,278.945,387.1,279.2,387.425,278.914Z" transform="translate(-369.357 -277.535)" fill="#f7a58e"/>
      <path id="Path_9597" data-name="Path 9597" d="M293.013,282.45l-1.481,1.194-1.858,1.225c-1.423.938-3.131,1.782-3.966,2.332,0,0-2.769-1.008-5.481-1.694-2.169-.548-4.327-.612-4.7.377-.765,2.034,1.618,3.09,5.462,3.729v0c1.951.335,4.277.609,4.976.2a21.644,21.644,0,0,0,4.76-3.636c.526-.549,1-1.059,1.365-1.471a.836.836,0,0,0,.194.056s1.161-.105,1.377-.772c.186-.724-.59-1.482-.649-1.539Z" transform="translate(-275.176 -281.689)" fill="#f7a58e"/>
      <path id="Path_9598" data-name="Path 9598" d="M280.129,298.2a3.972,3.972,0,0,1,.1,2.385,3.762,3.762,0,0,1-.825,1.74c-1.964-.287-5.747-1.236-5.346-3.724S280.129,298.2,280.129,298.2Z" transform="translate(-274.031 -294.31)" fill="#0386c2"/>
    </g>
    <path id="Path_9599" data-name="Path 9599" d="M236.9,297.385a8.429,8.429,0,0,0-4.908,3.218,8.825,8.825,0,0,0,3.1,2.993s3.189-2.258,3.506-4.136S236.9,297.385,236.9,297.385Z" transform="translate(-212.464 -285.631)" fill="#0386c2"/>
    <path id="Path_9600" data-name="Path 9600" d="M222.984,225.768a1.938,1.938,0,0,0-1.184-1.985c.531-1.815-1.884-2.977-4.175-1.812,0,0-.926-.535-2.5.428a4.381,4.381,0,0,0-1.924,3.922,3.742,3.742,0,0,0-2.735,4.94,3.771,3.771,0,0,0-2.395,4.034,3.646,3.646,0,0,0,2.934,3.23s.672,4.368,3.985,4.011,3.468-3.058,3.468-3.058a3.073,3.073,0,0,0,3.895-2.045c1.184-2.994-1.685-4.652-1.685-4.652a3.018,3.018,0,0,0,1.712-2.663,2.98,2.98,0,0,0-1.176-2.334C222.3,227.186,222.969,226.651,222.984,225.768Z" transform="translate(-192.201 -221.503)" fill="#0d0d0d"/>
  </g>
  <g id="Group_54673" data-name="Group 54673" transform="translate(80.594 34.469)">
    <g id="Group_54669" data-name="Group 54669" transform="translate(0 16.244)">
      <path id="Path_9601" data-name="Path 9601" d="M522.154,327.384l.44,1.389h1.424l-1.152.858.44,1.389-1.152-.858L521,331.02l.44-1.389-1.153-.858h1.425Z" transform="translate(-520.289 -327.384)" fill="#fdda6d"/>
      <path id="Path_9602" data-name="Path 9602" d="M555.136,327.384l.44,1.389H557l-1.152.858.44,1.389-1.152-.858-1.153.858.44-1.389-1.153-.858H554.7Z" transform="translate(-548.162 -327.384)" fill="#fdda6d"/>
      <path id="Path_9603" data-name="Path 9603" d="M588.118,327.384l.44,1.389h1.425l-1.152.858.44,1.389-1.152-.858-1.152.858.44-1.389-1.152-.858h1.425Z" transform="translate(-576.035 -327.384)" fill="#fdda6d"/>
      <path id="Path_9604" data-name="Path 9604" d="M621.1,327.384l.44,1.389h1.425l-1.152.858.44,1.389-1.153-.858-1.153.858.44-1.389-1.152-.858h1.425Z" transform="translate(-603.908 -327.384)" fill="#fdda6d"/>
    </g>
    <g id="Group_54672" data-name="Group 54672" transform="translate(5.528)">
      <g id="Group_54670" data-name="Group 54670" transform="translate(1.07)">
        <ellipse id="Ellipse_180" data-name="Ellipse 180" cx="3.02" cy="3.026" rx="3.02" ry="3.026" fill="#029a65"/>
        <path id="Path_9605" data-name="Path 9605" d="M575.309,231.833a4.654,4.654,0,0,0-2.243,2.031,1.427,1.427,0,0,0-.866-.722l-.563.759a1.745,1.745,0,0,1,1.127,1.1h.682a5.654,5.654,0,0,1,2.046-2.919A1.09,1.09,0,0,0,575.309,231.833Z" transform="translate(-570.282 -230.39)" fill="#fff"/>
      </g>
      <g id="Group_54671" data-name="Group 54671" transform="translate(0 6.565)">
        <path id="Path_9606" data-name="Path 9606" d="M562.618,277.187H557.25a.246.246,0,0,1-.234-.172l-1.028-3.227a.249.249,0,0,1,.036-.222.245.245,0,0,1,.2-.1h7.423a.245.245,0,0,1,.2.1.25.25,0,0,1,.035.222l-1.028,3.227A.246.246,0,0,1,562.618,277.187Zm-5.188-.5h5.009l.87-2.732h-6.749Z" transform="translate(-555.977 -272.138)" fill="#0d0d0d"/>
        <path id="Path_9607" data-name="Path 9607" d="M569.69,271.315h-4.577a.248.248,0,0,1,0-.5h4.4a.447.447,0,0,0,.456-.43.436.436,0,0,0-.18-.441l1.545-4.877a.246.246,0,0,1,.234-.172h1.6a.248.248,0,0,1,0,.5h-1.419l-1.417,4.527A.934.934,0,0,1,569.69,271.315Z" transform="translate(-563.49 -264.9)" fill="#0d0d0d"/>
        <path id="Path_9608" data-name="Path 9608" d="M569.98,308.565a.565.565,0,1,1-.565-.569A.567.567,0,0,1,569.98,308.565Z" transform="translate(-566.855 -301.32)" fill="#0d0d0d"/>
        <path id="Path_9609" data-name="Path 9609" d="M588.343,308.565a.565.565,0,1,1-.565-.569A.567.567,0,0,1,588.343,308.565Z" transform="translate(-582.374 -301.32)" fill="#0d0d0d"/>
        <path id="Path_9610" data-name="Path 9610" d="M581.043,277.187a.247.247,0,0,1-.246-.248v-3.227a.246.246,0,1,1,.491,0v3.227A.247.247,0,0,1,581.043,277.187Z" transform="translate(-576.953 -272.138)" fill="#0d0d0d"/>
        <path id="Path_9611" data-name="Path 9611" d="M568.236,277.186a.246.246,0,0,1-.239-.193l-.727-3.227a.246.246,0,1,1,.479-.11l.727,3.227a.248.248,0,0,1-.185.3A.238.238,0,0,1,568.236,277.186Z" transform="translate(-565.515 -272.137)" fill="#0d0d0d"/>
        <path id="Path_9612" data-name="Path 9612" d="M589.521,277.186l-.036,0a.247.247,0,0,1-.208-.281l.466-3.227a.246.246,0,1,1,.486.071l-.466,3.227A.247.247,0,0,1,589.521,277.186Z" transform="translate(-584.117 -272.137)" fill="#0d0d0d"/>
        <path id="Path_9613" data-name="Path 9613" d="M565.97,284.505h-6.389a.248.248,0,0,1,0-.5h6.389a.248.248,0,0,1,0,.5Z" transform="translate(-558.815 -281.05)" fill="#0d0d0d"/>
      </g>
    </g>
  </g>
  <g id="Group_54675" data-name="Group 54675" transform="translate(13.527 38.282)">
    <g id="Group_54674" data-name="Group 54674">
      <path id="Path_9614" data-name="Path 9614" d="M100.747,253.834c-1.752-.014-5.207-.031-11.617-.031a1.8,1.8,0,0,1-1.8-1.8V248.94a1.8,1.8,0,0,1,1.8-1.8H100.55a1.8,1.8,0,0,1,1.8,1.8v3.3A1.594,1.594,0,0,1,100.747,253.834Z" transform="translate(-87.326 -247.137)" fill="#fff"/>
      <path id="Path_9615" data-name="Path 9615" d="M102.137,265.415a.612.612,0,1,1-.612-.612A.612.612,0,0,1,102.137,265.415Z" transform="translate(-98.808 -262.066)" fill="#b3b3b3"/>
      <path id="Path_9616" data-name="Path 9616" d="M122.782,265.415a.612.612,0,1,1-.612-.612A.612.612,0,0,1,122.782,265.415Z" transform="translate(-116.255 -262.066)" fill="#b3b3b3"/>
      <path id="Path_9617" data-name="Path 9617" d="M143.427,265.415a.612.612,0,1,1-.612-.612A.612.612,0,0,1,143.427,265.415Z" transform="translate(-133.702 -262.066)" fill="#b3b3b3"/>
      <path id="Path_9618" data-name="Path 9618" d="M164.072,265.415a.612.612,0,1,1-.612-.612A.612.612,0,0,1,164.072,265.415Z" transform="translate(-151.149 -262.066)" fill="#b3b3b3"/>
    </g>
    <path id="Path_9619" data-name="Path 9619" d="M125.1,282.628v2.783l-3.543-2.679Z" transform="translate(-116.254 -277.13)" fill="#fff"/>
  </g>
</svg>
