<svg xmlns="http://www.w3.org/2000/svg" width="29.5" height="33.714" viewBox="0 0 29.5 33.714">
  <path id="Icon_awesome-calendar-alt" data-name="Icon awesome-calendar-alt" d="M0,30.554a3.162,3.162,0,0,0,3.161,3.161H26.339A3.162,3.162,0,0,0,29.5,30.554V12.643H0ZM21.071,17.647a.793.793,0,0,1,.79-.79H24.5a.793.793,0,0,1,.79.79v2.634a.793.793,0,0,1-.79.79H21.862a.793.793,0,0,1-.79-.79Zm0,8.429a.793.793,0,0,1,.79-.79H24.5a.793.793,0,0,1,.79.79V28.71a.793.793,0,0,1-.79.79H21.862a.793.793,0,0,1-.79-.79Zm-8.429-8.429a.793.793,0,0,1,.79-.79h2.634a.793.793,0,0,1,.79.79v2.634a.793.793,0,0,1-.79.79H13.433a.793.793,0,0,1-.79-.79Zm0,8.429a.793.793,0,0,1,.79-.79h2.634a.793.793,0,0,1,.79.79V28.71a.793.793,0,0,1-.79.79H13.433a.793.793,0,0,1-.79-.79ZM4.214,17.647a.793.793,0,0,1,.79-.79H7.638a.793.793,0,0,1,.79.79v2.634a.793.793,0,0,1-.79.79H5a.793.793,0,0,1-.79-.79Zm0,8.429a.793.793,0,0,1,.79-.79H7.638a.793.793,0,0,1,.79.79V28.71a.793.793,0,0,1-.79.79H5a.793.793,0,0,1-.79-.79ZM26.339,4.214H23.179V1.054A1.057,1.057,0,0,0,22.125,0H20.018a1.057,1.057,0,0,0-1.054,1.054V4.214H10.536V1.054A1.057,1.057,0,0,0,9.482,0H7.375A1.057,1.057,0,0,0,6.321,1.054V4.214H3.161A3.162,3.162,0,0,0,0,7.375v3.161H29.5V7.375A3.162,3.162,0,0,0,26.339,4.214Z"/>
</svg>
