<svg xmlns="http://www.w3.org/2000/svg" width="16.667" height="14.583" viewBox="0 0 16.667 14.583">
  <path id="Icon_awesome-camera" data-name="Icon awesome-camera" d="M16.667,5.9v9.375A1.563,1.563,0,0,1,15.1,16.833H1.562A1.563,1.563,0,0,1,0,15.271V5.9A1.563,1.563,0,0,1,1.562,4.333H4.427l.4-1.071A1.56,1.56,0,0,1,6.289,2.25h4.085a1.56,1.56,0,0,1,1.462,1.012l.4,1.071H15.1A1.563,1.563,0,0,1,16.667,5.9Zm-4.427,4.687a3.906,3.906,0,1,0-3.906,3.906A3.909,3.909,0,0,0,12.239,10.583Zm-1.042,0A2.865,2.865,0,1,1,8.333,7.719,2.869,2.869,0,0,1,11.2,10.583Z" transform="translate(0 -2.25)" fill="#fff"/>
</svg>
