<svg xmlns="http://www.w3.org/2000/svg" width="45.81" height="40.269" viewBox="0 0 45.81 40.269">
  <g id="shopping-cart" transform="translate(0 -0.5)">
    <path id="Path_9049" data-name="Path 9049" d="M154.05,368.608a4.027,4.027,0,1,1,4.027-4.027A4.031,4.031,0,0,1,154.05,368.608Zm0,0" transform="translate(-136.6 -327.839)" fill="#697c86"/>
    <path id="Path_9050" data-name="Path 9050" d="M181.37,393.244a1.342,1.342,0,1,1,1.342-1.342A1.343,1.343,0,0,1,181.37,393.244Zm0,0" transform="translate(-163.919 -355.159)" fill="#465a61"/>
    <path id="Path_9051" data-name="Path 9051" d="M366.082,368.608a4.027,4.027,0,1,1,4.027-4.027A4.032,4.032,0,0,1,366.082,368.608Zm0,0" transform="translate(-329.661 -327.839)" fill="#596c76"/>
    <path id="Path_9052" data-name="Path 9052" d="M393.4,393.244a1.342,1.342,0,1,1,1.342-1.342A1.343,1.343,0,0,1,393.4,393.244Zm0,0" transform="translate(-356.98 -355.159)" fill="#3b4a51"/>
    <path id="Path_9053" data-name="Path 9053" d="M138.47,277.251a1.329,1.329,0,0,1-1.342,1.342H111.445a4.022,4.022,0,0,1-4.027-4.027,3.981,3.981,0,0,1,3.49-3.973,1.737,1.737,0,0,1,.537-.054,1.243,1.243,0,0,1,.859.349l-.806,2.336h-.053a1.342,1.342,0,1,0,0,2.685h25.683A1.329,1.329,0,0,1,138.47,277.251Zm0,0" transform="translate(-97.807 -245.878)" fill="#465a61"/>
    <path id="Path_9054" data-name="Path 9054" d="M8.908,5.872a32.339,32.339,0,0,0,2.986,1.4,1.3,1.3,0,0,0-.006-.348L10.707,1.554A1.341,1.341,0,0,0,9.4.5H1.343a1.342,1.342,0,1,0,0,2.685H8.317Zm0,0" transform="translate(0)" fill="#465a61"/>
    <path id="Path_9055" data-name="Path 9055" d="M312.313,331.893a1.329,1.329,0,0,1-1.342,1.342H298.344v-2.685h12.627A1.329,1.329,0,0,1,312.313,331.893Zm0,0" transform="translate(-271.65 -300.52)" fill="#3b4a51"/>
    <path id="Path_9056" data-name="Path 9056" d="M136.249,61.045a1.323,1.323,0,0,0-1.074-.537H99.613L103.8,79.354l.591,2.631h25.414a1.353,1.353,0,0,0,1.289-.967l5.369-18.792a1.409,1.409,0,0,0-.215-1.181Zm0,0" transform="translate(-90.7 -54.639)" fill="#fdbf00"/>
    <path id="Path_9057" data-name="Path 9057" d="M317.413,62.226l-5.369,18.792a1.353,1.353,0,0,1-1.289.967H298.344V60.508h17.781a1.323,1.323,0,0,1,1.074.537,1.409,1.409,0,0,1,.215,1.181Zm0,0" transform="translate(-271.65 -54.638)" fill="#ff9f00"/>
  </g>
</svg>
