<svg xmlns="http://www.w3.org/2000/svg" width="40.29" height="38.549" viewBox="0 0 40.29 38.549">
  <g id="Icon_feather-shopping-cart" data-name="Icon feather-shopping-cart" transform="translate(1 1)" opacity="0.49">
    <path id="Path_3" data-name="Path 3" d="M15.481,31.74A1.74,1.74,0,1,1,13.74,30,1.74,1.74,0,0,1,15.481,31.74Z" transform="translate(0.183 3.068)" fill="none" stroke="#000" stroke-linecap="round" stroke-linejoin="round" stroke-width="2"/>
    <path id="Path_4" data-name="Path 4" d="M31.981,31.74A1.74,1.74,0,1,1,30.24,30,1.74,1.74,0,0,1,31.981,31.74Z" transform="translate(2.828 3.068)" fill="none" stroke="#000" stroke-linecap="round" stroke-linejoin="round" stroke-width="2"/>
    <path id="Path_5" data-name="Path 5" d="M1.5,1.5H8.462l4.664,23.3a3.481,3.481,0,0,0,3.481,2.8H33.524A3.481,3.481,0,0,0,37,24.8L39.79,10.2H10.2" transform="translate(-1.5 -1.5)" fill="none" stroke="#000" stroke-linecap="round" stroke-linejoin="round" stroke-width="2"/>
  </g>
</svg>
