<svg id="Group_54565" data-name="Group 54565" xmlns="http://www.w3.org/2000/svg" width="79.983" height="79.982" viewBox="0 0 79.983 79.982">
  <path id="Path_9437" data-name="Path 9437" d="M49.271,21.993A38.278,38.278,0,0,0,32.825,94.834H65.718A38.278,38.278,0,0,0,49.271,21.993Z" transform="translate(-9.28 -18.558)" fill="#49b1f7"/>
  <path id="Path_9438" data-name="Path 9438" d="M.264,95.358c1.317-4.129,5.275-5.927,7.422-5.682,1.486.17,2.469,2.393,2.934,3.745a.991.991,0,0,0,1.267.613c1-.355,2.505-.627,2.991.649.622,1.634-2.277,4.342-2.806,6.56a9.1,9.1,0,0,1-2.508,2.178,1.951,1.951,0,0,0-.922,2.3c.758,2.309,2.262,6.417,3.827,7.982a3.227,3.227,0,0,1,.8,3.641,3.793,3.793,0,0,1-2.064,2.051,18.184,18.184,0,0,1-3.72-4.894,37.7,37.7,0,0,1-3.056-8.071,3.192,3.192,0,0,0-.686-1.318c-1.321-1.515-4.71-5.9-3.482-9.753Z" transform="translate(0 -75.649)" fill="#eab599"/>
  <path id="Path_9439" data-name="Path 9439" d="M57.2,172.667c-1.583-1.583-3.081-5.627-3.884-8.075a2.176,2.176,0,0,1,1.03-2.574,9.274,9.274,0,0,0,2.854-2.675h0a2.752,2.752,0,0,0-.2,2.029,26.9,26.9,0,0,0,4.834,9.07,2.249,2.249,0,0,0,.752.6c.814.394,1.693.775,2.64,1.134l-4.074,9.449q-.874-.452-1.784-.98a18.162,18.162,0,0,1-3.457-2.626A3.211,3.211,0,0,0,57.2,172.667Z" transform="translate(-44.894 -134.451)" fill="#f6caae"/>
  <path id="Path_9440" data-name="Path 9440" d="M430.91,95.358c-1.317-4.129-5.275-5.927-7.422-5.682-1.486.17-2.47,2.393-2.934,3.745a.991.991,0,0,1-1.267.613c-1-.355-2.505-.627-2.991.649-.622,1.634,2.277,4.342,2.806,6.56a9.094,9.094,0,0,0,2.508,2.178,1.951,1.951,0,0,1,.922,2.3c-.758,2.309-2.262,6.417-3.827,7.982a3.226,3.226,0,0,0-.8,3.641,3.793,3.793,0,0,0,2.064,2.051,18.183,18.183,0,0,0,3.72-4.894,37.7,37.7,0,0,0,3.056-8.071,3.189,3.189,0,0,1,.686-1.318c1.321-1.515,4.71-5.9,3.482-9.753Z" transform="translate(-351.191 -75.649)" fill="#eab599"/>
  <path id="Path_9441" data-name="Path 9441" d="M389.869,172.667c1.583-1.583,3.081-5.627,3.884-8.075a2.176,2.176,0,0,0-1.03-2.574,9.274,9.274,0,0,1-2.854-2.675h0a2.752,2.752,0,0,1,.2,2.029,26.9,26.9,0,0,1-4.834,9.07,2.25,2.25,0,0,1-.752.6c-.814.394-1.693.775-2.64,1.134l4.075,9.449q.874-.452,1.784-.98a18.169,18.169,0,0,0,3.457-2.626A3.211,3.211,0,0,1,389.869,172.667Z" transform="translate(-322.188 -134.45)" fill="#f6caae"/>
  <path id="Path_9442" data-name="Path 9442" d="M237.408,248.287A33.341,33.341,0,0,0,233.856,240a1.12,1.12,0,0,0-1.34-.459,44.221,44.221,0,0,1-15.664,2.575H209.7l1.575,6.536a8.9,8.9,0,0,0-3.036,1.721,9.787,9.787,0,0,0-3.245,7.794c0,.049,0,.1,0,.149h23.451c-.156-1.3-.337-2.614-.545-3.944a1.569,1.569,0,0,1,1.148-1.765,39.157,39.157,0,0,0,7.8-3.027A1.118,1.118,0,0,0,237.408,248.287Z" transform="translate(-172.971 -202.066)" fill="#ff4155"/>
  <path id="Path_9443" data-name="Path 9443" d="M122.328,248.82l-1.614-6.7h-.87a44.224,44.224,0,0,1-15.664-2.575,1.12,1.12,0,0,0-1.34.459,33.34,33.34,0,0,0-3.552,8.282,1.119,1.119,0,0,0,.563,1.3,39.146,39.146,0,0,0,7.8,3.027,1.569,1.569,0,0,1,1.148,1.765c-.209,1.33-.389,2.649-.546,3.944H116c0-.049,0-.1,0-.149C116,250.329,122.328,248.82,122.328,248.82Z" transform="translate(-83.743 -202.065)" fill="#e80054"/>
  <path id="Path_9444" data-name="Path 9444" d="M228.585,409.364H204.339a29.526,29.526,0,0,0,1.143,8.121,13.506,13.506,0,0,0,5.978,7.9c.316.008.632.013.949.013a38.121,38.121,0,0,0,16.446-3.706C228.862,417.878,228.813,413.068,228.585,409.364Z" transform="translate(-172.418 -345.415)" fill="#ff4155"/>
  <path id="Path_9445" data-name="Path 9445" d="M159.327,409.364h-8.338c-.227,3.7-.276,8.514-.27,12.327a38.107,38.107,0,0,0,15.987,3.7C160.642,421.98,159.46,415.421,159.327,409.364Z" transform="translate(-127.173 -345.415)" fill="#e80054"/>
  <path id="Path_9446" data-name="Path 9446" d="M204.308,362.049c-.043,1.58-.09,3.317-.044,5.1h24.251c-.149-2.469-.377-5.176-.72-7.991H204.363C204.363,360.052,204.336,361.022,204.308,362.049Z" transform="translate(-172.339 -303.055)" fill="#deeeff"/>
  <path id="Path_9447" data-name="Path 9447" d="M160.846,359.16h-7.732c-.343,2.816-.571,5.522-.72,7.991h8.35C160.672,364.245,160.846,361.447,160.846,359.16Z" transform="translate(-128.587 -303.054)" fill="#bec8f7"/>
  <path id="Path_9448" data-name="Path 9448" d="M222.169,196.826a6.282,6.282,0,0,1-6.263-6.263v-6.445a6.263,6.263,0,1,1,12.527,0v6.445A6.282,6.282,0,0,1,222.169,196.826Z" transform="translate(-182.178 -150.072)" fill="#7c382a"/>
  <path id="Path_9449" data-name="Path 9449" d="M231.456,5.219a5.558,5.558,0,0,1-1.431-1.083C228.479,2.5,223.77-1.394,215.43.52l.24.129.014.007c.027.012,2.66,1.232,2.706,2.9.028,1-.887,2-2.718,2.957-1.744.915-2.707,2.1-2.864,3.507-.3,2.713,2.475,5.352,3.051,5.867l-.941,6.358h20.945c.764-2.512,3.362-12.9-4.408-17.024Z" transform="translate(-179.545 -0.003)" fill="#45304c"/>
  <path id="Path_9450" data-name="Path 9450" d="M153.473,18.168s-6.728-5.716-.329-9.075,0-6.277,0-6.277a24.044,24.044,0,0,0-2.425.653c-10.712,3.478-15.152,9.607-10.062,21.148h11.861Z" transform="translate(-116.908 -2.377)" fill="#34243a"/>
  <path id="Path_9451" data-name="Path 9451" d="M345.587,136.8a2.607,2.607,0,0,0-3.4-.355,23.767,23.767,0,0,1-.522,2.555,7.294,7.294,0,0,0-.222,2.374,15.541,15.541,0,0,1-.225,3.96c2.044.93,2.69-.041,2.893-.81a6.089,6.089,0,0,1,.69-1.635C345.687,141.441,347.095,138.562,345.587,136.8Z" transform="translate(-287.913 -114.734)" fill="#eab599"/>
  <path id="Path_9452" data-name="Path 9452" d="M143.561,141.375a7.292,7.292,0,0,0-.222-2.374,23.726,23.726,0,0,1-.522-2.555,2.607,2.607,0,0,0-3.4.355c-1.508,1.76-.1,4.639.788,6.09a6.091,6.091,0,0,1,.69,1.635c.2.769.849,1.739,2.892.81A15.543,15.543,0,0,1,143.561,141.375Z" transform="translate(-117.076 -114.733)" fill="#eab599"/>
  <path id="Path_9453" data-name="Path 9453" d="M238.189,90.818a13.682,13.682,0,0,1-6.643-6.089,2.038,2.038,0,0,0-2.614-.825,36.589,36.589,0,0,1-8.366,2.611c-.032.029-.065.057-.1.088a6.606,6.606,0,0,0-1.729,2.792,3.639,3.639,0,0,0-.118,1.643,25.774,25.774,0,0,0,.542,2.611,7.909,7.909,0,0,1,.241,2.575c-.206,2.824.061,9.846,7.048,13.823a15.921,15.921,0,0,0,2.592,1.181A14.7,14.7,0,0,0,231.808,110c6.388-3.668,6.638-10.106,6.45-12.709a7.322,7.322,0,0,1,.22-2.377,23.677,23.677,0,0,0,.54-2.68A1.329,1.329,0,0,0,238.189,90.818Z" transform="translate(-184.432 -70.639)" fill="#f6caae"/>
  <path id="Path_9454" data-name="Path 9454" d="M179.4,124.55c-6.889-3.921-7.153-10.845-6.949-13.63a7.8,7.8,0,0,0-.237-2.539,25.42,25.42,0,0,1-.534-2.575,3.586,3.586,0,0,1,.117-1.62,6.514,6.514,0,0,1,1.7-2.753,4.7,4.7,0,0,1,.406-.348,38.618,38.618,0,0,1-6.413.732,4.488,4.488,0,0,0-2.983,1.248,6.092,6.092,0,0,0-1.594,2.575,3.354,3.354,0,0,0-.109,1.515,23.754,23.754,0,0,0,.5,2.408,7.293,7.293,0,0,1,.222,2.374c-.19,2.6.056,9.079,6.5,12.746A14.844,14.844,0,0,0,182.2,125.8,15.708,15.708,0,0,1,179.4,124.55Z" transform="translate(-137.337 -85.295)" fill="#eab599"/>
  <path id="Path_9455" data-name="Path 9455" d="M18.849,293.927a7.091,7.091,0,0,0-6.343-1.195,38.2,38.2,0,0,0,12.953,24.636,14.666,14.666,0,0,0,3.384-9.093C28.843,299.811,25.862,298.932,18.849,293.927Z" transform="translate(-10.552 -246.757)" fill="#73c3f9"/>
  <path id="Path_9456" data-name="Path 9456" d="M411.568,292.716a7.091,7.091,0,0,0-6.287,1.211c-7.012,5.005-9.994,5.883-9.994,14.349a14.652,14.652,0,0,0,3.361,9.063A38.194,38.194,0,0,0,411.568,292.716Z" transform="translate(-333.537 -246.757)" fill="#73c3f9"/>
  <path id="Path_9457" data-name="Path 9457" d="M282.476,148.283a1.075,1.075,0,0,1-.754-.308,1.178,1.178,0,0,0-1.842,0,1.079,1.079,0,0,1-1.509-1.541,3.312,3.312,0,0,1,4.859,0,1.079,1.079,0,0,1-.755,1.849Z" transform="translate(-234.611 -122.664)" fill="#e8ac8d"/>
  <path id="Path_9458" data-name="Path 9458" d="M203.127,148.283a1.075,1.075,0,0,1-.754-.308,1.178,1.178,0,0,0-1.842,0,1.078,1.078,0,1,1-1.509-1.541,3.312,3.312,0,0,1,4.859,0,1.079,1.079,0,0,1-.755,1.849Z" transform="translate(-167.658 -122.664)" fill="#e8ac8d"/>
  <path id="Path_9459" data-name="Path 9459" d="M219.927,206.325a1.8,1.8,0,0,0,.064.17,6.119,6.119,0,0,0,1.4,1.945h8.348a6.124,6.124,0,0,0,1.4-1.945,1.788,1.788,0,0,0,.064-.17Z" transform="translate(-185.571 -174.094)" fill="#f6caae"/>
  <path id="Path_9460" data-name="Path 9460" d="M233.454,209.183a6.086,6.086,0,0,0,4.174-1.653,4.958,4.958,0,0,0-8.348,0A6.086,6.086,0,0,0,233.454,209.183Z" transform="translate(-193.463 -173.185)" fill="#eab599"/>
  <path id="Path_9461" data-name="Path 9461" d="M228.993,191.325h-7.881a1.784,1.784,0,0,0-1.636,2.5h11.153A1.784,1.784,0,0,0,228.993,191.325Z" transform="translate(-185.061 -161.437)" fill="#e8ac8d"/>
</svg>
