<svg id="Group_54561" data-name="Group 54561" xmlns="http://www.w3.org/2000/svg" width="76.16" height="79.578" viewBox="0 0 76.16 79.578">
  <path id="Path_9301" data-name="Path 9301" d="M17.95,82.013H80.206a38.08,38.08,0,1,0-62.256,0Z" transform="translate(-10.998 -18.577)" fill="#ffc839"/>
  <path id="Path_9302" data-name="Path 9302" d="M185.666,347.7a11.834,11.834,0,0,0-8.418-6.423,53.438,53.438,0,0,1-9.123-2.624,1.745,1.745,0,0,1-.839,1.021,24.78,24.78,0,0,1-11.921,2.866,28.18,28.18,0,0,1-2.952-.155c.024.055.047.109.073.164A30.416,30.416,0,0,0,144.8,344.6c-5.288,2.268-8.083,5.821-8.083,10.276v5.9a38.1,38.1,0,0,0,49.667-11.33A14.256,14.256,0,0,0,185.666,347.7Z" transform="translate(-117.18 -286.017)" fill="#72aafc"/>
  <path id="Path_9303" data-name="Path 9303" d="M74.172,338.172a53.086,53.086,0,0,1-9.3,2.7,11.833,11.833,0,0,0-8.418,6.423,14.28,14.28,0,0,0-.722,1.754,38.27,38.27,0,0,0,12.822,11.461v-6.035c0-10.649,15.883-12.137,15.883-12.137-.056-.111-.108-.221-.158-.329a24.1,24.1,0,0,1-9.239-2.741A1.749,1.749,0,0,1,74.172,338.172Z" transform="translate(-48.774 -285.611)" fill="#548bed"/>
  <path id="Path_9304" data-name="Path 9304" d="M249.966,299.412l-2.984-4.794a1.825,1.825,0,0,0-2-.8,32.982,32.982,0,0,1-8.01,1.029c-.307,0-.611-.006-.914-.015v2.55a5.015,5.015,0,0,0-2.426,2.64,5.909,5.909,0,0,0,.46,4.614c-.16.02-.375.049-.635.09a28.934,28.934,0,0,0,3.515.212,25.6,25.6,0,0,0,12.315-2.96A1.82,1.82,0,0,0,249.966,299.412Z" transform="translate(-198.79 -248.103)" fill="#548bed"/>
  <path id="Path_9305" data-name="Path 9305" d="M176.544,293.807a1.825,1.825,0,0,0-2,.8l-2.984,4.793a1.82,1.82,0,0,0,.677,2.564,24.961,24.961,0,0,0,9.79,2.852c-2.714-5.4,1.847-7.3,1.847-7.3v-2.692A33.268,33.268,0,0,1,176.544,293.807Z" transform="translate(-146.372 -248.094)" fill="#3e7fdd"/>
  <path id="Path_9306" data-name="Path 9306" d="M302.153,235.026a38.183,38.183,0,0,1-1.578-8.758,31.956,31.956,0,0,1-3.106,7.591,14.467,14.467,0,0,1-2.695,3.346,28.494,28.494,0,0,0,3.69,19.9.964.964,0,0,0,1.778-.458C300.137,249.029,304.977,244.919,302.153,235.026Z" transform="translate(-250.292 -191.1)" fill="#45304c"/>
  <path id="Path_9307" data-name="Path 9307" d="M222.212,6.121a16.167,16.167,0,0,1,6.263,1.2,6.338,6.338,0,1,0-12.526,0A16.167,16.167,0,0,1,222.212,6.121Z" transform="translate(-184.031 0)" fill="#56415e"/>
  <path id="Path_9308" data-name="Path 9308" d="M222.212,4.778a3.194,3.194,0,0,1,0-4.778,6.342,6.342,0,0,0-6.263,7.316,16.167,16.167,0,0,1,6.263-1.2Z" transform="translate(-184.031 0)" fill="#45304c"/>
  <path id="Path_9309" data-name="Path 9309" d="M203.756,34.2a16.747,16.747,0,0,1,14.742,0c.347.179.683.374,1.008.581a10.708,10.708,0,0,0-16.757,0C203.073,34.573,203.408,34.379,203.756,34.2Z" transform="translate(-172.945 -25.962)" fill="#d3dcfb"/>
  <path id="Path_9310" data-name="Path 9310" d="M166.616,59.189a3.894,3.894,0,0,1,.748-1.452,1.877,1.877,0,0,0,.494-1.185c.077-2.573,1.066-10.91,10.563-7.269a1.63,1.63,0,0,0,1.163,0c9.5-3.641,10.487,4.7,10.563,7.269a1.877,1.877,0,0,0,.494,1.185,3.893,3.893,0,0,1,.748,1.452h0a3.522,3.522,0,0,1,1.9-.526V52.416a12.75,12.75,0,0,0-6.92-11.327,16.747,16.747,0,0,0-14.742,0,12.75,12.75,0,0,0-6.92,11.327v6.247A3.523,3.523,0,0,1,166.616,59.189Z" transform="translate(-140.821 -33.258)" fill="#56415e"/>
  <path id="Path_9311" data-name="Path 9311" d="M179,39.38a15.845,15.845,0,0,0-7.371,1.709,12.75,12.75,0,0,0-6.92,11.327v6.247a3.523,3.523,0,0,1,1.9.526,3.894,3.894,0,0,1,.748-1.452,1.877,1.877,0,0,0,.494-1.185c.075-2.524,1.029-10.59,10.027-7.464-.038-.049-.074-.1-.114-.147C173.548,43.917,179,39.38,179,39.38Z" transform="translate(-140.821 -33.259)" fill="#45304c"/>
  <path id="Path_9312" data-name="Path 9312" d="M156.153,169.168s-.775-4.905.118-7.827c-.81-.54-2.375-.8-3.079-.115-1.441,1.409-.385,3.536.12,4.88a5.1,5.1,0,0,1,.3,1.248,2.317,2.317,0,0,0,2.633,2.207C156.215,169.43,156.184,169.3,156.153,169.168Z" transform="translate(-130.476 -135.818)" fill="#fc9460"/>
  <path id="Path_9313" data-name="Path 9313" d="M339.429,161.225c-.7-.688-2.269-.424-3.079.115.893,2.921.118,7.827.118,7.827-.03.133-.062.262-.093.393a2.317,2.317,0,0,0,2.633-2.207,5.1,5.1,0,0,1,.3-1.248C339.814,164.762,340.87,162.634,339.429,161.225Z" transform="translate(-285.782 -135.817)" fill="#ffaa7b"/>
  <path id="Path_9314" data-name="Path 9314" d="M233.093,105.42a1.764,1.764,0,0,1-.468-1.12c-.046-1.528-.431-5.266-3.022-6.992-1.838-1.224-4.422-1.211-7.679.038a1.52,1.52,0,0,1-1.09,0q-.592-.227-1.155-.4c-2.637,1.768-3.031,5.581-3.077,7.141a1.8,1.8,0,0,1-.479,1.146c-1.659,1.87-1.3,7.332-.909,9.581a34.62,34.62,0,0,0,3.69,9.807,14.892,14.892,0,0,0,5.463,5.4,14.61,14.61,0,0,0,6.006-5.648,33.865,33.865,0,0,0,3.61-9.6C234.347,112.471,234.735,107.269,233.093,105.42Z" transform="translate(-183.197 -81.416)" fill="#ffc7ab"/>
  <path id="Path_9315" data-name="Path 9315" d="M184.083,124.385a33.845,33.845,0,0,1-3.609-9.59c-.379-2.2-.734-7.541.889-9.369a1.762,1.762,0,0,0,.468-1.12c.046-1.528.431-5.266,3.022-6.992q.167-.111.343-.209c-2.935-1-5.286-.927-6.992.209-2.591,1.725-2.977,5.464-3.022,6.992a1.762,1.762,0,0,1-.468,1.12c-1.622,1.828-1.267,7.17-.889,9.369a33.854,33.854,0,0,0,3.609,9.59,14.686,14.686,0,0,0,6.918,6.081,5.249,5.249,0,0,0,4.152,0c.429-.185.844-.39,1.248-.61A14.589,14.589,0,0,1,184.083,124.385Z" transform="translate(-148.248 -81.422)" fill="#ffaa7b"/>
  <path id="Path_9316" data-name="Path 9316" d="M384.6,73.383c-2.491,2.032-5,5.292-3.52,9.617,2.637,7.719-4.259,18.261,3.49,26.009,4.56,4.56,10.01,4.342,13.725,3.391A38.136,38.136,0,0,0,384.6,73.383Z" transform="translate(-323.19 -61.977)" fill="#ffdd40"/>
  <path id="Path_9317" data-name="Path 9317" d="M25.744,73.383c2.491,2.032,5,5.292,3.52,9.617-2.637,7.719,4.259,18.261-3.489,26.009-4.56,4.56-10.01,4.342-13.725,3.391A38.137,38.137,0,0,1,25.744,73.383Z" transform="translate(-10.998 -61.977)" fill="#ffdd40"/>
  <path id="Path_9318" data-name="Path 9318" d="M387.088,414.193a9.478,9.478,0,0,0-4.208-5.82,1.456,1.456,0,0,0-2.238,1.227v9.4A38.212,38.212,0,0,0,387.088,414.193Z" transform="translate(-323.189 -344.707)" fill="#548bed"/>
  <path id="Path_9319" data-name="Path 9319" d="M316.888,285.721c0,4.16.686,8.216,3.645,8.719,1.161-4.01,2.471-7.965.672-14.264-.043-.152-.084-.3-.125-.45C319.157,280.757,316.888,282.628,316.888,285.721Z" transform="translate(-269.345 -236.249)" fill="#56415e"/>
</svg>
