<svg id="Group_54564" data-name="Group 54564" xmlns="http://www.w3.org/2000/svg" width="78.526" height="83.62" viewBox="0 0 78.526 83.62">
  <ellipse id="Ellipse_169" data-name="Ellipse 169" cx="39.263" cy="39.263" rx="39.263" ry="39.263" transform="translate(0 5.093)" fill="#ff3bab"/>
  <path id="Path_9383" data-name="Path 9383" d="M43.122,143.05h-2.8l-.172.185v1.652c0,1.476-.871,2.316-2.183,2.993-1.8.929-2.342,6.2,1.044,7.916l.962.145,6.735-2.607v-3.818Z" transform="translate(-30.932 -124.661)" fill="#365e7d"/>
  <path id="Path_9384" data-name="Path 9384" d="M42.624,147.879a3.694,3.694,0,0,0,2.04-2.046l-1.542-2.783h-2.8l-.172.185v1.652c0,1.476-.871,2.316-2.183,2.993-1.8.929-2.342,6.2,1.044,7.916l.962.145,2.562-.992C40.448,152.763,41.06,148.685,42.624,147.879Z" transform="translate(-30.932 -124.661)" fill="#2b4d66"/>
  <path id="Path_9385" data-name="Path 9385" d="M161.705,147.319c-1.316-.678-2.182-1.519-2.182-2.992v-1.678l-.275-.26h-2.942l-3.378,6.83v3.456l6.952,2.706.647-.2C163.842,153.42,163.489,148.239,161.705,147.319Z" transform="translate(-129.473 -124.101)" fill="#365e7d"/>
  <path id="Path_9386" data-name="Path 9386" d="M35.108,218.366l-8.275-3.2-.738.327H13.323l-.912-.323-8.255,3.2A7.116,7.116,0,0,0,0,224.811V232.5H6.4v7.466H32.861V232.5h6.4v-7.691a7.093,7.093,0,0,0-4.155-6.445Z" transform="translate(0 -185.712)" fill="#ffafe2"/>
  <path id="Path_9387" data-name="Path 9387" d="M5.38,231.519a6.512,6.512,0,0,1,2.6-5.139l-3.828,1.484A7.116,7.116,0,0,0,0,234.309V242H5.38Z" transform="translate(0 -195.21)" fill="#ff94d5"/>
  <path id="Path_9388" data-name="Path 9388" d="M179.27,111.4l-.232-.233h-2.77v4.854l.153.316h2.091a2.526,2.526,0,0,0,.758-4.936Z" transform="translate(-149.234 -97.669)" fill="#ffcebe"/>
  <path id="Path_9389" data-name="Path 9389" d="M49.88,111.3v0a2.525,2.525,0,0,0,.679,4.957h2.183l.24-.28v-4.9H50.059Z" transform="translate(-40.666 -97.588)" fill="#ffcebe"/>
  <path id="Path_9390" data-name="Path 9390" d="M178.741,111.168h-2.474v4.854l.153.316h2.091c.078,0,.155,0,.231-.012Z" transform="translate(-149.233 -97.669)" fill="#ffb1a0"/>
  <path id="Path_9391" data-name="Path 9391" d="M50.507,113.729a2.525,2.525,0,0,1,1.847-2.431v0l.179-.225H50.059l-.179.225v0a2.525,2.525,0,0,0,.679,4.957h2.183l.014-.016A2.526,2.526,0,0,1,50.507,113.729Z" transform="translate(-40.666 -97.586)" fill="#ffb1a0"/>
  <path id="Path_9392" data-name="Path 9392" d="M6.4,327.194H0v6.239a1.385,1.385,0,0,0,1.385,1.385H6.4Z" transform="translate(0 -280.562)" fill="#ffb1a0"/>
  <path id="Path_9393" data-name="Path 9393" d="M214.255,327.194v7.624h5.018a1.385,1.385,0,0,0,1.385-1.385v-6.239Z" transform="translate(-181.394 -280.562)" fill="#ffcebe"/>
  <path id="Path_9394" data-name="Path 9394" d="M92.879,188.843a.769.769,0,0,1-.491-.715l0-2.574-.338-.353H84.279l-.394.368v2.554c0,.588-.525.73-.748.816l-2.22.861a7.578,7.578,0,0,0,14.422,0Z" transform="translate(-68.507 -160.347)" fill="#ffcebe"/>
  <path id="Path_9395" data-name="Path 9395" d="M88.14,185.2H84.28l-.394.368v2.554c0,.588-.525.73-.748.816l-2.22.861a7.465,7.465,0,0,0,7.221,5.243Z" transform="translate(-68.508 -160.347)" fill="#ffb1a0"/>
  <path id="Path_9396" data-name="Path 9396" d="M36.389,290.753V276.332a1.185,1.185,0,1,0-2.37,0v14.422Z" transform="translate(-28.801 -236.498)" fill="#ff94d5"/>
  <path id="Path_9397" data-name="Path 9397" d="M208.9,290.753V276.332a1.185,1.185,0,1,0-2.37,0v14.422Z" transform="translate(-174.854 -236.498)" fill="#ff636e"/>
  <path id="Path_9398" data-name="Path 9398" d="M117.576,89.887h-3.318l-2.607-3.239H110.1l-2.417,2.618v6.679a7.648,7.648,0,0,0,5.077,7.217,7.565,7.565,0,0,0,5.6-7.281V90.526Z" transform="translate(-91.166 -76.909)" fill="#ffdecf"/>
  <path id="Path_9399" data-name="Path 9399" d="M83.353,109.346v-6.881l-.921,1H79.071l-.335.455v5.428a7.454,7.454,0,0,0,7.633,7.448,7.287,7.287,0,0,0,2.25-.348A7.4,7.4,0,0,1,83.353,109.346Z" transform="translate(-66.66 -90.3)" fill="#ffcebe"/>
  <path id="Path_9400" data-name="Path 9400" d="M70.355,23.151a10.518,10.518,0,0,0-10.28,10.572v3.139a2.52,2.52,0,0,1,.679-.1h4.158c.258,0,1.707-.118,1.6-.11a4.392,4.392,0,0,0,3.857-3.326.127.127,0,0,1,.247,0,4.385,4.385,0,0,0,3.815,3.318c1.312.111,1.33.117,1.567.117h4.141a2.526,2.526,0,0,1,.772.121V33.568A10.418,10.418,0,0,0,70.355,23.151Z" transform="translate(-50.861 -23.15)" fill="#365e7d"/>
  <path id="Path_9401" data-name="Path 9401" d="M64.736,33.723a10.573,10.573,0,0,1,8.095-10.307A10.417,10.417,0,0,0,60.075,33.723v3.139a2.52,2.52,0,0,1,.679-.1h3.982Z" transform="translate(-50.861 -23.15)" fill="#2b4d66"/>
  <path id="Path_9402" data-name="Path 9402" d="M299.121,143.05h-2.8l-.172.185v1.652c0,1.476-.871,2.316-2.183,2.993-1.8.929-2.342,6.2,1.044,7.916l.962.145,6.735-2.607v-3.818Z" transform="translate(-247.668 -124.661)" fill="#365e7d"/>
  <path id="Path_9403" data-name="Path 9403" d="M298.624,147.879a3.694,3.694,0,0,0,2.04-2.046l-1.542-2.783h-2.8l-.172.185v1.652c0,1.476-.871,2.316-2.183,2.993-1.8.929-2.342,6.2,1.044,7.916l.962.145,2.562-.992C296.448,152.763,297.06,148.685,298.624,147.879Z" transform="translate(-247.669 -124.661)" fill="#2b4d66"/>
  <path id="Path_9404" data-name="Path 9404" d="M417.7,147.319c-1.316-.678-2.182-1.519-2.182-2.992v-1.678l-.275-.26h-2.942l-3.378,6.83v3.456l6.952,2.706.647-.2C419.841,153.42,419.488,148.239,417.7,147.319Z" transform="translate(-346.209 -124.101)" fill="#365e7d"/>
  <path id="Path_9405" data-name="Path 9405" d="M291.108,218.366l-8.275-3.2-.738.327H269.323l-.912-.323-8.255,3.2A7.116,7.116,0,0,0,256,224.811V232.5h6.4v7.466h26.458V232.5h6.4v-7.691a7.093,7.093,0,0,0-4.155-6.445Z" transform="translate(-216.737 -185.712)" fill="#ffd064"/>
  <path id="Path_9406" data-name="Path 9406" d="M435.27,111.4l-.232-.233h-2.77v4.854l.153.316h2.091a2.526,2.526,0,0,0,.758-4.936Z" transform="translate(-365.97 -97.669)" fill="#ffcebe"/>
  <path id="Path_9407" data-name="Path 9407" d="M305.88,111.3v0a2.525,2.525,0,0,0,.679,4.957h2.183l.24-.28v-4.9h-2.923Z" transform="translate(-257.403 -97.588)" fill="#ffcebe"/>
  <path id="Path_9408" data-name="Path 9408" d="M434.741,111.168h-2.474v4.854l.153.316h2.091c.078,0,.155,0,.231-.012Z" transform="translate(-365.97 -97.669)" fill="#ffb1a0"/>
  <path id="Path_9409" data-name="Path 9409" d="M306.506,113.729a2.525,2.525,0,0,1,1.847-2.431v0l.179-.225h-2.474l-.179.225v0a2.525,2.525,0,0,0,.679,4.957h2.183l.014-.016A2.526,2.526,0,0,1,306.506,113.729Z" transform="translate(-257.402 -97.586)" fill="#ffb1a0"/>
  <path id="Path_9410" data-name="Path 9410" d="M470.255,327.194v7.624h5.018a1.385,1.385,0,0,0,1.385-1.385v-6.239Z" transform="translate(-398.131 -280.562)" fill="#ffcebe"/>
  <path id="Path_9411" data-name="Path 9411" d="M348.879,188.843a.768.768,0,0,1-.491-.715l0-2.574-.338-.353h-7.768l-.393.368v2.554c0,.588-.524.73-.748.816l-2.22.861a7.578,7.578,0,0,0,14.422,0Z" transform="translate(-285.244 -160.347)" fill="#ffcebe"/>
  <path id="Path_9412" data-name="Path 9412" d="M344.14,185.2h-3.86l-.394.368v2.554c0,.588-.524.73-.748.816l-2.22.861a7.465,7.465,0,0,0,7.221,5.243Z" transform="translate(-285.245 -160.347)" fill="#ffb1a0"/>
  <path id="Path_9413" data-name="Path 9413" d="M464.9,290.753V276.332a1.185,1.185,0,1,0-2.37,0v14.422Z" transform="translate(-391.591 -236.498)" fill="#ffc250"/>
  <path id="Path_9414" data-name="Path 9414" d="M373.576,89.887h-3.318l-2.607-3.239H366.1l-2.417,2.618v6.679a7.648,7.648,0,0,0,5.077,7.217,7.565,7.565,0,0,0,5.6-7.281V90.526Z" transform="translate(-307.903 -76.909)" fill="#ffdecf"/>
  <path id="Path_9415" data-name="Path 9415" d="M339.353,109.346v-6.881l-.921,1h-3.361l-.335.455v5.428a7.454,7.454,0,0,0,7.633,7.448,7.287,7.287,0,0,0,2.25-.348A7.4,7.4,0,0,1,339.353,109.346Z" transform="translate(-283.397 -90.3)" fill="#ffcebe"/>
  <path id="Path_9416" data-name="Path 9416" d="M326.355,23.151a10.518,10.518,0,0,0-10.28,10.572v3.139a2.519,2.519,0,0,1,.679-.1h4.158c.258,0,1.707-.118,1.6-.11a4.392,4.392,0,0,0,3.857-3.326.127.127,0,0,1,.247,0,4.385,4.385,0,0,0,3.815,3.318c1.312.111,1.33.117,1.567.117h4.141a2.527,2.527,0,0,1,.772.121V33.568a10.418,10.418,0,0,0-10.555-10.417Z" transform="translate(-267.598 -23.15)" fill="#365e7d"/>
  <path id="Path_9417" data-name="Path 9417" d="M320.736,33.723a10.573,10.573,0,0,1,8.095-10.307,10.417,10.417,0,0,0-12.756,10.307v3.139a2.52,2.52,0,0,1,.679-.1h3.982Z" transform="translate(-267.598 -23.15)" fill="#2b4d66"/>
  <path id="Path_9418" data-name="Path 9418" d="M171.122,255h-2.8l-.172.185v1.652c0,1.476-.871,2.316-2.183,2.993-1.8.929-2.342,6.2,1.044,7.916l.962.145,6.735-2.607V261.46Z" transform="translate(-139.3 -219.437)" fill="#365e7d"/>
  <path id="Path_9419" data-name="Path 9419" d="M170.624,259.826a3.694,3.694,0,0,0,2.04-2.046L171.122,255h-2.8l-.172.185v1.652c0,1.476-.871,2.316-2.183,2.993-1.8.928-2.342,6.2,1.044,7.916l.962.145,2.562-.992C168.448,264.71,169.06,260.632,170.624,259.826Z" transform="translate(-139.3 -219.438)" fill="#2b4d66"/>
  <path id="Path_9420" data-name="Path 9420" d="M289.7,259.266c-1.316-.678-2.182-1.519-2.182-2.992v-1.678l-.275-.26h-2.942l-3.378,6.83v3.456l6.952,2.706.647-.2c3.316-1.765,2.962-6.946,1.179-7.865Z" transform="translate(-237.841 -218.878)" fill="#365e7d"/>
  <path id="Path_9421" data-name="Path 9421" d="M163.108,330.312l-8.275-3.2-.738.327H141.323l-.912-.323-8.255,3.2A7.115,7.115,0,0,0,128,336.757v7.691h6.4v7.466h26.458v-7.466h6.4v-7.691A7.093,7.093,0,0,0,163.108,330.312Z" transform="translate(-108.368 -280.489)" fill="#ff7f87"/>
  <path id="Path_9422" data-name="Path 9422" d="M133.38,343.465a6.512,6.512,0,0,1,2.6-5.139l-3.828,1.484A7.115,7.115,0,0,0,128,346.255v7.691h5.38Z" transform="translate(-108.368 -289.987)" fill="#ff636e"/>
  <path id="Path_9423" data-name="Path 9423" d="M307.27,223.347l-.232-.233h-2.77v4.854l.153.316h2.091a2.526,2.526,0,0,0,.758-4.936Z" transform="translate(-257.602 -192.445)" fill="#ffcebe"/>
  <path id="Path_9424" data-name="Path 9424" d="M177.88,223.243v0a2.525,2.525,0,0,0,.679,4.957h2.183l.24-.28v-4.9h-2.923Z" transform="translate(-149.034 -192.365)" fill="#ffcebe"/>
  <path id="Path_9425" data-name="Path 9425" d="M306.741,223.114h-2.474v4.854l.153.316h2.091c.078,0,.155,0,.231-.012Z" transform="translate(-257.601 -192.445)" fill="#ffb1a0"/>
  <path id="Path_9426" data-name="Path 9426" d="M178.507,225.675a2.525,2.525,0,0,1,1.847-2.431v0l.179-.225h-2.474l-.179.225v0a2.525,2.525,0,0,0,.679,4.957h2.183l.014-.016A2.526,2.526,0,0,1,178.507,225.675Z" transform="translate(-149.034 -192.363)" fill="#ffb1a0"/>
  <path id="Path_9427" data-name="Path 9427" d="M134.4,439.141H128v6.239a1.385,1.385,0,0,0,1.385,1.385H134.4Z" transform="translate(-108.368 -375.34)" fill="#ffb1a0"/>
  <path id="Path_9428" data-name="Path 9428" d="M342.255,439.141v7.624h5.018a1.385,1.385,0,0,0,1.385-1.385v-6.239Z" transform="translate(-289.763 -375.34)" fill="#ffcebe"/>
  <path id="Path_9429" data-name="Path 9429" d="M220.878,300.789a.768.768,0,0,1-.491-.715l0-2.574-.338-.353h-7.768l-.394.368v2.554c0,.588-.525.729-.748.816l-2.22.861a7.578,7.578,0,0,0,14.422,0Z" transform="translate(-176.875 -255.124)" fill="#ffcebe"/>
  <path id="Path_9430" data-name="Path 9430" d="M216.139,297.147h-3.86l-.394.368v2.554c0,.588-.525.73-.748.816l-2.22.861a7.465,7.465,0,0,0,7.221,5.243v-9.843Z" transform="translate(-176.876 -255.124)" fill="#ffb1a0"/>
  <path id="Path_9431" data-name="Path 9431" d="M164.389,402.7V388.278a1.185,1.185,0,0,0-2.37,0V402.7Z" transform="translate(-137.17 -331.275)" fill="#ff636e"/>
  <path id="Path_9432" data-name="Path 9432" d="M336.9,402.7V388.278a1.185,1.185,0,0,0-2.37,0V402.7Z" transform="translate(-283.223 -331.275)" fill="#ff636e"/>
  <path id="Path_9433" data-name="Path 9433" d="M245.576,201.833h-3.318l-2.607-3.239H238.1l-2.417,2.618v6.679a7.648,7.648,0,0,0,5.077,7.217,7.565,7.565,0,0,0,5.6-7.281v-5.355Z" transform="translate(-199.534 -171.686)" fill="#ffdecf"/>
  <path id="Path_9434" data-name="Path 9434" d="M211.353,221.292v-6.881l-.921,1h-3.361l-.335.455v5.428a7.454,7.454,0,0,0,7.633,7.448,7.285,7.285,0,0,0,2.25-.348A7.4,7.4,0,0,1,211.353,221.292Z" transform="translate(-175.029 -185.077)" fill="#ffcebe"/>
  <path id="Path_9435" data-name="Path 9435" d="M198.355,135.1a10.518,10.518,0,0,0-10.281,10.572v3.139a2.519,2.519,0,0,1,.679-.1h4.158c.258,0,1.707-.118,1.6-.11a4.392,4.392,0,0,0,3.857-3.326.127.127,0,0,1,.247,0,4.385,4.385,0,0,0,3.815,3.318c1.312.111,1.33.117,1.567.117h4.141a2.527,2.527,0,0,1,.772.121v-3.32A10.418,10.418,0,0,0,198.355,135.1Z" transform="translate(-159.23 -117.928)" fill="#365e7d"/>
  <path id="Path_9436" data-name="Path 9436" d="M192.736,145.67a10.573,10.573,0,0,1,8.095-10.307,10.417,10.417,0,0,0-12.756,10.307v3.139a2.519,2.519,0,0,1,.679-.1h3.982Z" transform="translate(-159.23 -117.928)" fill="#2b4d66"/>
</svg>
