<svg id="Group_54563" data-name="Group 54563" xmlns="http://www.w3.org/2000/svg" width="76.16" height="76.16" viewBox="0 0 76.16 76.16">
  <path id="Path_9320" data-name="Path 9320" d="M76.159,38.079a38.054,38.054,0,0,1-26.533,36.3,37.318,37.318,0,0,1-5.49,1.3.117.117,0,0,1-.025,0q-1.384.221-2.8.34-.3.025-.6.046c-.285.019-.571.035-.858.048q-.881.042-1.772.042-.914,0-1.815-.044-.408-.018-.816-.048c-.2-.014-.406-.028-.608-.045q-1.448-.121-2.864-.352c-.451-.073-.9-.152-1.345-.241a37.612,37.612,0,0,1-5.614-1.571q-1.574-.573-3.081-1.281-.512-.241-1.02-.5-1.3-.657-2.541-1.411A38.081,38.081,0,1,1,76.159,38.079Zm0,0" transform="translate(0 0.001)" fill="#8dde34"/>
  <path id="Path_9321" data-name="Path 9321" d="M49.33,273.153v26.014a37.616,37.616,0,0,1-5.614-1.571q-1.574-.574-3.081-1.281-.512-.241-1.02-.5-1.3-.657-2.541-1.411a38.191,38.191,0,0,1-15.109-17.136v-4.116a10.322,10.322,0,0,1,7.645-9.969c.162-.044.323-.084.488-.118a9.968,9.968,0,0,1,1.343-.2c.278-.022.56-.034.844-.034h6.722a10.263,10.263,0,0,1,2.189.234c.04.008.081.017.121.026.119.027.238.056.354.087l.009,0a10.332,10.332,0,0,1,7.649,9.971Zm0,0" transform="translate(-18.698 -223.736)" fill="#2ba1cf"/>
  <path id="Path_9322" data-name="Path 9322" d="M74.678,273.153v26.014a37.609,37.609,0,0,1-5.614-1.571q-1.574-.573-3.081-1.281-.512-.241-1.02-.5-1.3-.657-2.541-1.411a38.279,38.279,0,0,1-10.68-9.631v-11.62a10.322,10.322,0,0,1,7.645-9.969c.162-.044.324-.084.488-.118a10.005,10.005,0,0,1,1.343-.2c.278-.021.56-.034.844-.034h2.292a10.264,10.264,0,0,1,2.189.234c.04.008.081.017.121.026.119.027.238.056.354.087l.009,0a10.332,10.332,0,0,1,7.649,9.971Zm0,0" transform="translate(-44.046 -223.736)" fill="#66baed"/>
  <path id="Path_9323" data-name="Path 9323" d="M85.323,264.4l-.024.117-3.088,14.361a3,3,0,0,1-2.922,2.382h-.052a3,3,0,0,1-2.922-2.382l-3.088-14.359L73.2,264.4Zm0,0" transform="translate(-62.314 -225.069)" fill="#f2f0ec"/>
  <path id="Path_9324" data-name="Path 9324" d="M79.262,258.661l-4.647,2.582L73.2,254.669l2.887-1.7" transform="translate(-62.314 -215.34)" fill="#d8d5d0"/>
  <path id="Path_9325" data-name="Path 9325" d="M113.941,258.661l4.647,2.582L120,254.669l-2.887-1.7" transform="translate(-96.992 -215.34)" fill="#d8d5d0"/>
  <path id="Path_9326" data-name="Path 9326" d="M20.676,77.631V62.066a13.874,13.874,0,1,1,27.749,0V77.631" transform="translate(-17.6 -41.022)" fill="#cc7a3b"/>
  <path id="Path_9327" data-name="Path 9327" d="M96.559,236.1v4.519a3.682,3.682,0,0,1-7.364,0V236.1Zm0,0" transform="translate(-75.927 -200.984)" fill="#eab599"/>
  <path id="Path_9328" data-name="Path 9328" d="M109.2,264.563v.286a3.682,3.682,0,0,1-2.593,3.517,3.681,3.681,0,0,1-2.563-3.038q.369.023.741.023a12.723,12.723,0,0,0,4.415-.789Zm0,0" transform="translate(-88.563 -225.209)" fill="#f6caae"/>
  <path id="Path_9329" data-name="Path 9329" d="M6.849,166.721a3.424,3.424,0,1,1-2.876-3.38,3.424,3.424,0,0,1,2.876,3.38Zm0,0" transform="translate(0 -139.006)" fill="#f6caae"/>
  <path id="Path_9330" data-name="Path 9330" d="M26.983,166.973a3.424,3.424,0,0,1-2.876,3.381,12.8,12.8,0,0,1,0-6.761,3.424,3.424,0,0,1,2.876,3.38Zm0,0" transform="translate(-20.134 -139.259)" fill="#eab599"/>
  <path id="Path_9331" data-name="Path 9331" d="M17.241,179.313a1.224,1.224,0,1,1-1.224-1.224A1.224,1.224,0,0,1,17.241,179.313Zm0,0" transform="translate(-12.592 -151.599)" fill="#eab599"/>
  <path id="Path_9332" data-name="Path 9332" d="M49.83,112.441v11.771a12.692,12.692,0,0,1-6.748,3.358l-.063.01a12.581,12.581,0,0,1-1.983.154,12.74,12.74,0,0,1-12.74-12.74v-4.852a12.839,12.839,0,0,1,.13-1.83,8.074,8.074,0,0,0,10.147-.653,7.216,7.216,0,0,0,1.915-2.992,8.408,8.408,0,0,0,2.63,5.249,9.4,9.4,0,0,0,6.712,2.524Zm0,0" transform="translate(-24.088 -89.099)" fill="#eab599"/>
  <path id="Path_9333" data-name="Path 9333" d="M72.535,112.441v11.771a12.692,12.692,0,0,1-6.748,3.358l-.063.01a12.742,12.742,0,0,1-10.755-12.586v-4.852q0-.193.007-.385a7.983,7.983,0,0,0,6.3-2.1,7.214,7.214,0,0,0,1.915-2.991,8.408,8.408,0,0,0,2.63,5.249A9.4,9.4,0,0,0,72.535,112.441Zm0,0" transform="translate(-46.792 -89.099)" fill="#f6caae"/>
  <path id="Path_9334" data-name="Path 9334" d="M103.561,190.235H100.67a.623.623,0,1,1,0-1.247h2.891a.623.623,0,0,1,0,1.247Zm0,0" transform="translate(-85.165 -160.876)" fill="#eab599"/>
  <path id="Path_9335" data-name="Path 9335" d="M94.5,213.214a6.435,6.435,0,0,1-3.106-.8.567.567,0,1,1,.546-.993,5.288,5.288,0,0,0,5.12,0,.567.567,0,1,1,.546.993,6.435,6.435,0,0,1-3.106.8Zm0,0" transform="translate(-77.545 -179.91)" fill="#eab599"/>
  <path id="Path_9336" data-name="Path 9336" d="M154.084,187.49A1.587,1.587,0,1,1,152.5,185.9,1.587,1.587,0,0,1,154.084,187.49Zm0,0" transform="translate(-128.462 -158.249)" fill="#eab599"/>
  <path id="Path_9337" data-name="Path 9337" d="M58.826,187.49a1.587,1.587,0,1,1-1.587-1.587A1.587,1.587,0,0,1,58.826,187.49Zm0,0" transform="translate(-47.374 -158.249)" fill="#eab599"/>
  <path id="Path_9338" data-name="Path 9338" d="M325.18,268.322v4.767a38.231,38.231,0,0,1-18.521,18.71,38.005,38.005,0,0,1-10.084,3.1.116.116,0,0,1-.025,0v-26.58a10.8,10.8,0,0,1,9.915-10.76c.292-.025.586-.035.883-.035h7.032a10.781,10.781,0,0,1,10.8,10.8Zm0,0" transform="translate(-252.438 -219.219)" fill="#bfd5de"/>
  <path id="Path_9339" data-name="Path 9339" d="M356.74,268.323v4.767a38.231,38.231,0,0,1-18.521,18.71,37.669,37.669,0,0,1-4.594,1.795V268.323a10.8,10.8,0,0,1,10.8-10.8h1.517A10.8,10.8,0,0,1,356.74,268.323Zm0,0" transform="translate(-283.998 -219.22)" fill="#dde8ed"/>
  <path id="Path_9340" data-name="Path 9340" d="M280.728,156.962a3.58,3.58,0,1,1-3.009-3.537A3.583,3.583,0,0,1,280.728,156.962Zm0,0" transform="translate(-232.87 -130.564)" fill="#d3a489"/>
  <path id="Path_9341" data-name="Path 9341" d="M379.094,283.711l-2.9,4.65-2.9-4.65" transform="translate(-317.769 -241.509)" fill="#f74f4f"/>
  <path id="Path_9342" data-name="Path 9342" d="M374.363,321.18l-3.9,4.921-3.9-4.921,3.9-14.344Zm0,0" transform="translate(-312.037 -261.195)" fill="#f74f4f"/>
  <path id="Path_9343" data-name="Path 9343" d="M301.8,157.225a3.583,3.583,0,0,1-3.009,3.537,13.4,13.4,0,0,1,0-7.074A3.583,3.583,0,0,1,301.8,157.225Zm0,0" transform="translate(-253.938 -130.827)" fill="#bf8e75"/>
  <path id="Path_9344" data-name="Path 9344" d="M291.6,170.14a1.28,1.28,0,1,1-1.281-1.28A1.281,1.281,0,0,1,291.6,170.14Zm0,0" transform="translate(-246.048 -143.742)" fill="#bf8e75"/>
  <path id="Path_9345" data-name="Path 9345" d="M356.5,253.151l-4.861,2.7-1.479-6.879,3.02-1.779" transform="translate(-298.071 -210.425)" fill="#bfd5de"/>
  <path id="Path_9346" data-name="Path 9346" d="M392.777,253.151l4.862,2.7,1.479-6.879L396.1,247.2" transform="translate(-334.352 -210.425)" fill="#bfd5de"/>
  <path id="Path_9347" data-name="Path 9347" d="M463.828,156.962a3.58,3.58,0,1,0,3.009-3.537A3.583,3.583,0,0,0,463.828,156.962Zm0,0" transform="translate(-394.834 -130.564)" fill="#d3a489"/>
  <path id="Path_9348" data-name="Path 9348" d="M463.828,157.225a3.583,3.583,0,0,0,3.009,3.537,13.4,13.4,0,0,0,0-7.074A3.583,3.583,0,0,0,463.828,157.225Zm0,0" transform="translate(-394.834 -130.827)" fill="#bf8e75"/>
  <path id="Path_9349" data-name="Path 9349" d="M481.866,170.14a1.281,1.281,0,1,1-1.281-1.28A1.281,1.281,0,0,1,481.866,170.14Zm0,0" transform="translate(-408.008 -143.742)" fill="#bf8e75"/>
  <path id="Path_9350" data-name="Path 9350" d="M329.828,88.253a13.331,13.331,0,0,1-11.191,13.158,13.17,13.17,0,0,1-2.139.172,13.329,13.329,0,0,1-13.33-13.33c0-3.483,1.21-8.713,3.4-11.088,2.436-2.644,6.053-2.243,9.932-2.243a13.172,13.172,0,0,1,2.139.173,13.331,13.331,0,0,1,11.191,13.158Zm0,0" transform="translate(-258.072 -63.759)" fill="#bf8e75"/>
  <path id="Path_9351" data-name="Path 9351" d="M374.589,229.559v4.728a3.853,3.853,0,0,1-7.705,0v-4.728Zm0,0" transform="translate(-312.31 -195.412)" fill="#bf8e75"/>
  <path id="Path_9352" data-name="Path 9352" d="M387.81,259.328v.3a2.785,2.785,0,1,1-5.4.5q.386.023.776.024a13.241,13.241,0,0,0,2.139-.172A13.1,13.1,0,0,0,387.81,259.328Zm0,0" transform="translate(-325.531 -220.753)" fill="#d3a489"/>
  <path id="Path_9353" data-name="Path 9353" d="M354.315,89.361a13.331,13.331,0,0,1-11.191,13.158,13.331,13.331,0,0,1,0-26.316,13.335,13.335,0,0,1,11.125,11.829q.065.656.066,1.329Zm0,0" transform="translate(-282.558 -64.868)" fill="#d3a489"/>
  <path id="Path_9354" data-name="Path 9354" d="M372.426,197.632a6.733,6.733,0,0,1-3.25-.839.593.593,0,1,1,.571-1.039,5.536,5.536,0,0,0,5.357,0,.593.593,0,0,1,.571,1.039A6.736,6.736,0,0,1,372.426,197.632Zm0,0" transform="translate(-313.999 -166.573)" fill="#bf8e75"/>
  <path id="Path_9355" data-name="Path 9355" d="M381.907,177.578h-3.024a.652.652,0,1,1,0-1.3h3.024a.652.652,0,1,1,0,1.3Zm0,0" transform="translate(-321.969 -150.053)" fill="#bf8e75"/>
  <path id="Path_9356" data-name="Path 9356" d="M422.289,327.727H428.1v1.779h-5.811Zm0,0" transform="translate(-359.474 -278.978)" fill="#bfd5de"/>
  <path id="Path_9357" data-name="Path 9357" d="M387.539,49.329a8.079,8.079,0,0,1,7.486,7.657l.038.771h2.323l1.251,8.319,3.03-.938-.407-8.152a8.079,8.079,0,0,0-8.1-7.678Zm0,0" transform="translate(-329.893 -41.974)" fill="#2a2f4f"/>
  <path id="Path_9358" data-name="Path 9358" d="M411.419,27.816a8.234,8.234,0,0,1-11.645,11.645Zm0,0" transform="translate(-340.308 -23.679)" fill="#3d4159"/>
  <path id="Path_9359" data-name="Path 9359" d="M317.438,57.753H307.332l-1.252,8.32-3.03-.938.406-8.153a8.08,8.08,0,0,1,8.1-7.678l14.6.055,1.93,3.473" transform="translate(-257.972 -41.971)" fill="#3d4159"/>
  <path id="Path_9360" data-name="Path 9360" d="M317.175,49.329a8.079,8.079,0,0,0-7.486,7.657l-.038.771h-2.322l-1.252,8.319-3.03-.938.407-8.152a8.079,8.079,0,0,1,8.1-7.678Zm0,0" transform="translate(-257.969 -41.974)" fill="#2a2f4f"/>
  <path id="Path_9361" data-name="Path 9361" d="M179.761,399.059v2.855a38.179,38.179,0,0,1-32.284,0v-2.853A12.179,12.179,0,0,1,156.5,387.3c.19-.051.381-.1.575-.14a12.033,12.033,0,0,1,1.584-.233c.329-.027.661-.041,1-.041h7.93a12.2,12.2,0,0,1,2.583.274c.048.009.1.02.143.031.14.033.28.067.418.1l.011,0a12.188,12.188,0,0,1,9.023,11.765Zm0,0" transform="translate(-125.54 -329.334)" fill="#3d4159"/>
  <path id="Path_9362" data-name="Path 9362" d="M222.225,388.723l-.03.138-3.884,18.063q-.3.025-.6.046c-.285.019-.571.035-.858.048q-.881.042-1.772.042-.914,0-1.815-.044-.408-.018-.816-.048c-.2-.014-.406-.028-.608-.045l-3.883-18.061-.029-.14Zm0,0" transform="translate(-176.997 -330.901)" fill="#66baed"/>
  <path id="Path_9363" data-name="Path 9363" d="M240.557,416.422l-3.269,5.242-3.268-5.242" transform="translate(-199.209 -354.48)" fill="#3d4159"/>
  <path id="Path_9364" data-name="Path 9364" d="M243.57,452.742c-.285.019-.571.035-.858.048q-.881.042-1.772.042-.914,0-1.815-.044-.408-.018-.816-.048l2.632-10.247Zm0,0" transform="translate(-202.861 -376.672)" fill="#3d4159"/>
  <path id="Path_9365" data-name="Path 9365" d="M215.071,381.959l-5.482,3.046-1.668-7.756,3.406-2.006" transform="translate(-176.993 -319.426)" fill="#2ba1cf"/>
  <path id="Path_9366" data-name="Path 9366" d="M255.988,381.959l5.482,3.046,1.668-7.756-3.406-2.006" transform="translate(-217.91 -319.426)" fill="#2ba1cf"/>
  <path id="Path_9367" data-name="Path 9367" d="M273.493,399.191h1.739L272.2,406.58a37.843,37.843,0,0,1-4.285.439l5.336-18.16.041-.135,3.751,1.225Zm0,0" transform="translate(-228.058 -330.901)" fill="#2a2f4f"/>
  <path id="Path_9368" data-name="Path 9368" d="M191.558,407.016a37.729,37.729,0,0,1-4.288-.444l-3.034-7.381h1.739l-3.545-9.243,3.752-1.225.041.135Zm0,0" transform="translate(-155.294 -330.901)" fill="#2a2f4f"/>
  <path id="Path_9369" data-name="Path 9369" d="M235.474,355.352v5.331a4.344,4.344,0,0,1-8.689,0v-5.331Zm0,0" transform="translate(-193.051 -302.494)" fill="#eab599"/>
  <path id="Path_9370" data-name="Path 9370" d="M250.381,388.922v.338a4.345,4.345,0,0,1-3.06,4.15,4.343,4.343,0,0,1-3.024-3.585q.436.027.875.027a14.975,14.975,0,0,0,5.209-.93Zm0,0" transform="translate(-207.958 -331.07)" fill="#f6caae"/>
  <path id="Path_9371" data-name="Path 9371" d="M129.631,273.486a4.041,4.041,0,1,1-3.393-3.988A4.041,4.041,0,0,1,129.631,273.486Zm0,0" transform="translate(-103.47 -229.365)" fill="#f6caae"/>
  <path id="Path_9372" data-name="Path 9372" d="M153.39,273.785A4.041,4.041,0,0,1,150,277.773a15.115,15.115,0,0,1,0-7.977A4.041,4.041,0,0,1,153.39,273.785Zm0,0" transform="translate(-127.229 -229.664)" fill="#eab599"/>
  <path id="Path_9373" data-name="Path 9373" d="M141.9,288.346a1.444,1.444,0,1,1-1.444-1.444A1.444,1.444,0,0,1,141.9,288.346Zm0,0" transform="translate(-118.331 -244.226)" fill="#eab599"/>
  <path id="Path_9374" data-name="Path 9374" d="M336.1,273.486A4.041,4.041,0,1,0,339.5,269.5,4.041,4.041,0,0,0,336.1,273.486Zm0,0" transform="translate(-286.11 -229.365)" fill="#f6caae"/>
  <path id="Path_9375" data-name="Path 9375" d="M336.1,273.785a4.041,4.041,0,0,0,3.393,3.988,15.116,15.116,0,0,0,0-7.977A4.041,4.041,0,0,0,336.1,273.785Zm0,0" transform="translate(-286.11 -229.664)" fill="#eab599"/>
  <path id="Path_9376" data-name="Path 9376" d="M185,157.669v5.724a15.032,15.032,0,0,1-12.62,14.837l-.073.012a14.771,14.771,0,0,1-2.339.182,15.031,15.031,0,0,1-15.031-15.031v-5.724a15.023,15.023,0,0,1,15.031-15.032h0A15.021,15.021,0,0,1,185,157.669Zm0,0" transform="translate(-131.894 -121.419)" fill="#eab599"/>
  <path id="Path_9377" data-name="Path 9377" d="M356.447,288.346A1.444,1.444,0,1,1,355,286.9,1.444,1.444,0,0,1,356.447,288.346Zm0,0" transform="translate(-300.967 -244.226)" fill="#eab599"/>
  <path id="Path_9378" data-name="Path 9378" d="M211.788,158.71v5.724a15.032,15.032,0,0,1-12.619,14.837l-.074.012a15.034,15.034,0,0,1-12.689-14.849V158.71a15.035,15.035,0,0,1,12.692-14.85A15.034,15.034,0,0,1,211.788,158.71Zm0,0" transform="translate(-158.678 -122.46)" fill="#f6caae"/>
  <path id="Path_9379" data-name="Path 9379" d="M243.728,292.241h-3.411a.736.736,0,1,1,0-1.471h3.411a.736.736,0,0,1,0,1.471Zm0,0" transform="translate(-203.944 -247.518)" fill="#eab599"/>
  <path id="Path_9380" data-name="Path 9380" d="M233.035,319.348a7.593,7.593,0,0,1-3.665-.947.669.669,0,0,1,.644-1.172,6.237,6.237,0,0,0,6.041,0,.669.669,0,0,1,.644,1.172A7.6,7.6,0,0,1,233.035,319.348Zm0,0" transform="translate(-194.956 -269.971)" fill="#eab599"/>
  <path id="Path_9381" data-name="Path 9381" d="M185,139.512v5.863h-2.8v-4.592l-20.2-3.752-4.273-.794v9.139h-2.8v-5.864a12.1,12.1,0,0,1,12.1-12.1H172.9c.159,0,.318,0,.478.011A12.1,12.1,0,0,1,185,139.512Zm0,0" transform="translate(-131.89 -108.457)" fill="#2a2f4f"/>
  <path id="Path_9382" data-name="Path 9382" d="M225.465,139.576v5.863h-2.8v-4.592l-20.2-3.752a11.587,11.587,0,0,1,22.993,2.481Zm0,0" transform="translate(-172.355 -108.521)" fill="#3d4159"/>
</svg>
