<svg id="Group_54562" data-name="Group 54562" xmlns="http://www.w3.org/2000/svg" width="77.211" height="80.678" viewBox="0 0 77.211 80.678">
  <path id="Path_9281" data-name="Path 9281" d="M79.108,85.5a38.605,38.605,0,1,0-58.926.093Z" transform="translate(-11.001 -18.535)" fill="#ff4155"/>
  <path id="Path_9282" data-name="Path 9282" d="M188.248,379.922c-5.025,8.5-13.128,8.579-13.128,8.579s-8.1-.075-13.121-8.569c-.115.14-.234.275-.36.4q-1.011.233-2,.511a1.9,1.9,0,0,1,.886.784c3.09,5.278,8.478,11.582,14.609,11.582s11.518-6.3,14.608-11.582a1.906,1.906,0,0,1,.878-.781q-.992-.277-2.008-.514C188.487,380.2,188.366,380.065,188.248,379.922Z" transform="translate(-136.221 -320.056)" fill="#fcad6d"/>
  <path id="Path_9283" data-name="Path 9283" d="M170.55,387.5A17.353,17.353,0,0,1,162,379.986c-.115.14-.234.275-.36.4q-1.011.234-2,.511a1.9,1.9,0,0,1,.886.784,31.077,31.077,0,0,0,7.384,8.782,3.549,3.549,0,0,0,.4-.175A5.563,5.563,0,0,0,170.55,387.5Z" transform="translate(-136.22 -320.11)" fill="#fd995b"/>
  <path id="Path_9284" data-name="Path 9284" d="M152.723,16.13c0-4.307-2.481-6.091-4.122-6.8a3.369,3.369,0,0,1-1.8-1.824c-.718-1.779-2.749-4.863-8.426-6.747-8.347-2.77-15.767,2.86-19.756,3.932a5.934,5.934,0,0,1-5.788-2,.96.96,0,0,0-1.561.272,15.261,15.261,0,0,0-.969,9.952.328.328,0,0,1-.434.384c-.333-.114-.633-.221-.874-.308a.311.311,0,0,0-.414.375,15.721,15.721,0,0,0,2.758,5.638,2.621,2.621,0,0,1,.688,1.452,16.467,16.467,0,0,0,.684,3.219,18.307,18.307,0,0,1,.927,4.748c0,.019,0,.03,0,.032H150.97c0-.008,0-.035.006-.078a17.708,17.708,0,0,1,.909-4.659,22.831,22.831,0,0,0,.837-7.591Z" transform="translate(-93.19 0)" fill="#41416b"/>
  <path id="Path_9285" data-name="Path 9285" d="M123.789,22.5s3.468-4.154,1.052-8.843,3.426-8.39,3.426-8.39c-4.017,1.176-7.386,3.252-9.65,3.861a5.933,5.933,0,0,1-5.788-2,.96.96,0,0,0-1.561.272,15.261,15.261,0,0,0-.969,9.952.328.328,0,0,1-.434.384c-.333-.114-.633-.221-.874-.308a.311.311,0,0,0-.414.375,15.72,15.72,0,0,0,2.758,5.638,2.621,2.621,0,0,1,.688,1.452,16.471,16.471,0,0,0,.684,3.219,18.308,18.308,0,0,1,.927,4.748c0,.019,0,.03,0,.032h7.873Z" transform="translate(-93.19 -4.436)" fill="#35355e"/>
  <path id="Path_9286" data-name="Path 9286" d="M363.389,177.215c-.837-.767-2.5-.378-3.226.092a10.133,10.133,0,0,1,.031,2.984l-.851,6.2q0,.749-.045,1.471c2.075.626,3.105-1.237,3.279-2.515a9.523,9.523,0,0,1,.366-1.622C363.5,182.1,365.487,179.137,363.389,177.215Z" transform="translate(-304.416 -148.924)" fill="#fcad6d"/>
  <path id="Path_9287" data-name="Path 9287" d="M361.813,211.643a2.31,2.31,0,0,1-1.871-.956l-.6,4.364q0,.749-.045,1.471c2.075.626,3.105-1.237,3.279-2.515a9.506,9.506,0,0,1,.367-1.622c.143-.446.382-.975.622-1.547A2.308,2.308,0,0,1,361.813,211.643Z" transform="translate(-304.416 -177.488)" fill="#fd995b"/>
  <path id="Path_9288" data-name="Path 9288" d="M150.05,180.872h0Z" transform="translate(-128.14 -152.371)" fill="#41416b"/>
  <path id="Path_9289" data-name="Path 9289" d="M125.451,177.215c.837-.767,2.5-.378,3.226.092a10.125,10.125,0,0,0-.03,2.984l.851,6.2c0,.5.016.99.045,1.471-2.075.626-3.105-1.237-3.279-2.515a9.52,9.52,0,0,0-.366-1.622C125.345,182.1,123.354,179.137,125.451,177.215Z" transform="translate(-106.625 -148.924)" fill="#fcad6d"/>
  <path id="Path_9290" data-name="Path 9290" d="M181.937,103.278a4.454,4.454,0,0,1-.673-2.718c.042-.577.069-1.271.055-2.022-.006-.1-.009-.206-.009-.322-.008-.219-.02-.441-.036-.666a7.1,7.1,0,0,0-2.141-4.3,1.828,1.828,0,0,0-2.166-.29c-10.626,5.86-19.433,3.695-24.175,1.561a1.008,1.008,0,0,0-1.388.688,17.928,17.928,0,0,0-.347,5.379,4.411,4.411,0,0,1-.675,2.695,8.231,8.231,0,0,0-.719,1.436,9.908,9.908,0,0,0-.561,4.944l.851,6.2c0,.011,0,.022,0,.033.875,2.552,2.646,6.211,5.809,7.249l.04.011a6,6,0,0,1,4,3.964c.881,2.705,3.383,3.424,6.357,3.424s5.475-.72,6.356-3.423a6,6,0,0,1,4-3.965l.04-.011c3.164-1.039,4.935-4.7,5.81-7.25,0-.011,0-.021,0-.032l.851-6.2a9.914,9.914,0,0,0-.543-4.9A8.231,8.231,0,0,0,181.937,103.278Z" transform="translate(-127.26 -78.114)" fill="#f9ba8f"/>
  <path id="Path_9291" data-name="Path 9291" d="M131.106,211.643a2.31,2.31,0,0,0,1.871-.956l.6,4.364c0,.5.016.99.045,1.471-2.075.626-3.105-1.237-3.279-2.515a9.509,9.509,0,0,0-.367-1.622c-.143-.446-.382-.975-.622-1.547A2.309,2.309,0,0,0,131.106,211.643Z" transform="translate(-110.705 -177.488)" fill="#fd995b"/>
  <path id="Path_9292" data-name="Path 9292" d="M156.2,118.772a11.751,11.751,0,0,1,1.015-6.38,5.333,5.333,0,0,0,.535-2.695,24.391,24.391,0,0,1,.118-4.406,25.32,25.32,0,0,1-5.059-1.658,1.01,1.01,0,0,0-1.4.684,17.931,17.931,0,0,0-.347,5.379,4.412,4.412,0,0,1-.675,2.695,9.641,9.641,0,0,0-1.28,6.38l.851,6.2c0,.011,0,.022,0,.033.875,2.552,2.646,6.21,5.809,7.249l.04.012a5.743,5.743,0,0,1,2.378,1.374,28.2,28.2,0,0,1-1.315-8.667Z" transform="translate(-127.267 -87.228)" fill="#fcad6d"/>
  <path id="Path_9293" data-name="Path 9293" d="M238.627,288.24l-1.719.678a.925.925,0,0,1-.606.025l-1.981-.6-1.981.6a.925.925,0,0,1-.606-.025l-1.719-.678a.924.924,0,0,1,.678-1.72l1.42.56,1.932-.583a.918.918,0,0,1,.551,0l1.931.582,1.42-.56a.924.924,0,0,1,.678,1.72Z" transform="translate(-195.012 -241.318)" fill="#fcad6d"/>
  <path id="Path_9294" data-name="Path 9294" d="M183.414,223.253s-1.488,8.027-6.385,9.634l-.039.011a5.869,5.869,0,0,0-3.914,3.88c-.863,2.646-3.309,3.35-6.22,3.35s-5.358-.7-6.22-3.351a5.867,5.867,0,0,0-3.914-3.879l-.039-.011c-4.9-1.608-6.385-9.634-6.385-9.634C146.533,256.818,166.855,257,166.855,257S187.179,256.818,183.414,223.253Z" transform="translate(-127.956 -188.074)" fill="#41416b"/>
  <path id="Path_9295" data-name="Path 9295" d="M252.951,311.872h-1.186a.924.924,0,0,0,0,1.848h1.186a.924.924,0,1,0,0-1.848Z" transform="translate(-213.048 -262.729)" fill="#fcad6d"/>
  <path id="Path_9296" data-name="Path 9296" d="M189.737,260.487l.039.011a5.707,5.707,0,0,1,3.083,2.219l.864-.574a2.873,2.873,0,0,1,1.677-.49,12.26,12.26,0,0,0,4.6-.813.9.9,0,0,1,.648,0,12.26,12.26,0,0,0,4.6.813,2.873,2.873,0,0,1,1.677.49l.321.213a5.669,5.669,0,0,1,2.805-1.858l.039-.011a5.854,5.854,0,0,0,1.294-.613c-1.407-2.407-4.631-5.788-11.057-3.457-6.741-2.445-9.958,1.4-11.251,3.8A5.708,5.708,0,0,0,189.737,260.487Z" transform="translate(-161.011 -215.353)" fill="#41416b"/>
  <path id="Path_9297" data-name="Path 9297" d="M97.983,404.8a38.522,38.522,0,0,0,29.636-13.867,11.95,11.95,0,0,1-3.01-1.46,53.657,53.657,0,0,0-10.028-4.638,1.851,1.851,0,0,0-2.153.829c-2.992,5.11-8.208,11.213-14.144,11.213s-11.152-6.1-14.144-11.213a1.851,1.851,0,0,0-2.153-.829,53.64,53.64,0,0,0-10.028,4.638c-1.544.87-2.29,1.4-3.534,1.553A38.52,38.52,0,0,0,97.983,404.8Z" transform="translate(-59.377 -324.126)" fill="#fff5ee"/>
  <path id="Path_9298" data-name="Path 9298" d="M84.14,385.669a1.851,1.851,0,0,0-2.153-.829,53.643,53.643,0,0,0-10.028,4.638c-1.544.87-2.29,1.4-3.534,1.553a38.784,38.784,0,0,0,11.2,9.138c3.545-4.04,10.352-5.067,11.837-5.863h0A29.807,29.807,0,0,1,84.14,385.669Z" transform="translate(-59.377 -324.127)" fill="#fce6d6"/>
  <path id="Path_9299" data-name="Path 9299" d="M195.025,256.214a8.21,8.21,0,0,0-5.955,4.495,5.674,5.674,0,0,0,.667.267l.039.011a5.708,5.708,0,0,1,3.083,2.219l.864-.574a2.872,2.872,0,0,1,1.677-.49,10.451,10.451,0,0,0,1.241-.037c-3.637-2.187-1.616-5.89-1.615-5.892Z" transform="translate(-161.011 -215.841)" fill="#35355e"/>
  <path id="Path_9300" data-name="Path 9300" d="M166.118,247.725c-3.219-4.021,1.147-7.6,1.147-7.6l0-.005c-.135,0-.271.005-.408.005-2.91,0-5.358-.7-6.22-3.351a5.868,5.868,0,0,0-3.914-3.879l-.039-.011c-4.9-1.608-6.385-9.634-6.385-9.634C146.532,256.818,166.854,257,166.854,257S170.483,253.177,166.118,247.725Z" transform="translate(-127.955 -188.074)" fill="#35355e"/>
</svg>
