<svg id="Group_54566" data-name="Group 54566" xmlns="http://www.w3.org/2000/svg" width="78.526" height="81.363" viewBox="0 0 78.526 81.363">
  <ellipse id="Ellipse_170" data-name="Ellipse 170" cx="39.263" cy="39.263" rx="39.263" ry="39.263" transform="translate(0 2.837)" fill="#8dde34"/>
  <path id="Path_9462" data-name="Path 9462" d="M80.235,13.4a4.071,4.071,0,0,0-4.775,3.216l7.991,1.559A4.07,4.07,0,0,0,80.235,13.4Z" transform="translate(-32.35 -13.32)" fill="#5081d1"/>
  <path id="Path_9463" data-name="Path 9463" d="M18.214,69.167S5.969,77.9,3.482,80.938a4.259,4.259,0,0,0,.782,6.042c4.6,3.31,9.124-1.506,12.115-4.564,8.239,2.124,14.164,8.655,17.972,10.662,7.724,4.069,12.637-8.3,15.932-12.421C36.618,72.35,27.914,70.2,18.214,69.167Z" transform="translate(0.894 -38.789)" fill="#ffe0d7"/>
  <path id="Path_9464" data-name="Path 9464" d="M68.876,51.288a6.325,6.325,0,0,1-6.185,5.467c-1.387.011-2.877.005-4.248-.054a3.4,3.4,0,0,0-2.807,1.267c-2.622,3.285-9.7,11.4-16.373,12.5a7.659,7.659,0,0,1-4.944-.718c-3.808-2.007-9.737-8.54-17.972-10.667C10.19,57.5,5.6,58.359,2.629,61.182a4.332,4.332,0,0,1,.821-3.574c2.486-3.041,11.4-13.506,11.4-13.506C16.179,25.744,28.76,15.73,46.177,18.45c8.447,1.316,15.1,5.82,18.451,10.71C69.491,36.253,70.046,43.009,68.876,51.288Z" transform="translate(0.909 -15.459)" fill="#5b9ee8"/>
  <path id="Path_9465" data-name="Path 9465" d="M57.029,77.927a3.322,3.322,0,0,0-1.393,1.028c-2.622,3.285-9.7,11.4-16.373,12.5a7.659,7.659,0,0,1-4.944-.718C30.512,88.73,24.583,82.2,16.348,80.07,10.19,78.487,5.6,79.347,2.629,82.17A4.332,4.332,0,0,1,3.451,78.6c2.486-3.041,11.4-13.506,11.4-13.506a25.823,25.823,0,0,1,13.31-.359C38.764,67.222,44.9,73.858,57.029,77.927Z" transform="translate(0.909 -36.446)" fill="#5081d1"/>
  <path id="Path_9466" data-name="Path 9466" d="M66.67,78.054a.8.8,0,0,1-.259-.042A78.1,78.1,0,0,1,52,71.178c-4.578-2.6-8.9-5.053-14.389-6.342a25.149,25.149,0,0,0-12.851.335.816.816,0,0,1-.544-1.539,26.448,26.448,0,0,1,13.769-.384C43.7,64.59,48.128,67.1,52.811,69.76a76.824,76.824,0,0,0,14.122,6.7.816.816,0,0,1-.259,1.589Z" transform="translate(-8.732 -35.757)" fill="#345aad"/>
</svg>
