<svg xmlns="http://www.w3.org/2000/svg" width="47.609" height="35.149" viewBox="0 0 47.609 35.149">
  <g id="gift-card" transform="translate(0 -67)">
    <g id="Group_54430" data-name="Group 54430" transform="translate(0 67)">
      <path id="Path_9068" data-name="Path 9068" d="M43.325,102.149H4.284A4.289,4.289,0,0,1,0,97.865V71.284A4.289,4.289,0,0,1,4.284,67H18.405l5.16,2.556L26.193,67H43.325a4.289,4.289,0,0,1,4.284,4.284V88.961l-2.93.9,2.93,6.932v1.07A4.289,4.289,0,0,1,43.325,102.149Z" transform="translate(0 -67)" fill="#ff4a4a"/>
    </g>
    <path id="Path_9069" data-name="Path 9069" d="M279.8,71.284A4.289,4.289,0,0,0,275.521,67H258.388L256,69.323v32.826h19.521a4.289,4.289,0,0,0,4.284-4.284V96.8l-2.93-6.932,2.93-.9Z" transform="translate(-232.195 0)" fill="#d01273"/>
    <path id="Path_9070" data-name="Path 9070" d="M196.7,67l29.318,29.8V88.81L204.481,67Z" transform="translate(-178.413 0)" fill="#ffd845" fill-rule="evenodd"/>
    <g id="Group_54431" data-name="Group 54431" transform="translate(10.95 79.526)">
      <path id="Path_9071" data-name="Path 9071" d="M119.151,218.755a1.4,1.4,0,0,1-1.207-2.092l8.229-14.254a1.395,1.395,0,1,1,2.416,1.395l-8.229,14.254A1.394,1.394,0,0,1,119.151,218.755Z" transform="translate(-117.757 -201.711)" fill="#fff4f4"/>
    </g>
    <g id="Group_54432" data-name="Group 54432" transform="translate(5.581 80.284)">
      <path id="Path_9072" data-name="Path 9072" d="M64.191,218.227a4.184,4.184,0,1,1,3.631-2.092A4.158,4.158,0,0,1,64.191,218.227Zm.009-5.578a1.394,1.394,0,1,0,.695.187A1.4,1.4,0,0,0,64.2,212.649Z" transform="translate(-60.015 -209.86)" fill="#fff4f4"/>
    </g>
    <path id="Path_9073" data-name="Path 9073" d="M258.264,67H256v5.6L279.8,96.8V88.81Z" transform="translate(-232.195 0)" fill="#ffb454" fill-rule="evenodd"/>
    <g id="Group_54433" data-name="Group 54433" transform="translate(19.527 87.537)">
      <path id="Path_9074" data-name="Path 9074" d="M214.175,296.231a4.2,4.2,0,1,1,1.09-.144A4.209,4.209,0,0,1,214.175,296.231Zm.009-5.581a1.394,1.394,0,1,0,.7.187A1.4,1.4,0,0,0,214.184,290.65Z" transform="translate(-209.995 -287.861)" fill="#fff4f4"/>
    </g>
    <g id="Group_54435" data-name="Group 54435" transform="translate(25.774 71.231)">
      <path id="Path_9075" data-name="Path 9075" d="M326.987,112.5a3.491,3.491,0,0,0-3.487,3.487,4.875,4.875,0,0,0,1.379,2.854c.306.345,1.362,1.47,2.108,1.47s1.8-1.125,2.108-1.47a4.875,4.875,0,0,0,1.379-2.854A3.491,3.491,0,0,0,326.987,112.5Z" transform="translate(-319.193 -112.5)" fill="#ffef4a"/>
      <path id="Path_9076" data-name="Path 9076" d="M329.1,198.549c-.306-.345-1.362-1.47-2.108-1.47s-1.8,1.125-2.108,1.47A4.875,4.875,0,0,0,323.5,201.4a3.487,3.487,0,1,0,6.974,0A4.875,4.875,0,0,0,329.1,198.549Z" transform="translate(-319.193 -189.214)" fill="#ffef4a"/>
      <g id="Group_54434" data-name="Group 54434" transform="translate(0 4.556)">
        <path id="Path_9077" data-name="Path 9077" d="M365.148,161.495a4.875,4.875,0,0,0-2.854,1.379c-.345.306-1.47,1.362-1.47,2.108s1.125,1.8,1.47,2.108a4.875,4.875,0,0,0,2.854,1.379,3.487,3.487,0,0,0,0-6.974Z" transform="translate(-353.046 -161.495)" fill="#ffef4a"/>
        <path id="Path_9078" data-name="Path 9078" d="M283.522,162.874a4.875,4.875,0,0,0-2.854-1.379,3.487,3.487,0,1,0,0,6.974,4.875,4.875,0,0,0,2.854-1.379c.345-.306,1.47-1.362,1.47-2.108S283.866,163.18,283.522,162.874Z" transform="translate(-277.181 -161.495)" fill="#ffef4a"/>
      </g>
    </g>
    <path id="Path_9079" data-name="Path 9079" d="M259.949,290.974a4.181,4.181,0,0,0-3.95-3.1v2.791a1.395,1.395,0,0,1,0,2.784v2.791a4.2,4.2,0,0,0,.991-.141,4.184,4.184,0,0,0,2.959-5.125Z" transform="translate(-232.194 -200.336)" fill="#f6efea"/>
  </g>
</svg>
