<svg xmlns="http://www.w3.org/2000/svg" width="29.231" height="25.978" viewBox="0 0 29.231 25.978">
  <path id="Icon_awesome-edit" data-name="Icon awesome-edit" d="M20.431,4.224,25.009,8.8a.5.5,0,0,1,0,.7L13.925,20.585l-4.709.523a.987.987,0,0,1-1.091-1.091l.523-4.709L19.731,4.224A.5.5,0,0,1,20.431,4.224Zm8.221-1.162L26.176.586a1.985,1.985,0,0,0-2.8,0l-1.8,1.8a.5.5,0,0,0,0,.7L26.156,7.66a.5.5,0,0,0,.7,0l1.8-1.8a1.985,1.985,0,0,0,0-2.8ZM19.487,17.571v5.166H3.248V6.5H14.91a.624.624,0,0,0,.431-.178l2.03-2.03a.609.609,0,0,0-.431-1.04H2.436A2.437,2.437,0,0,0,0,5.686V23.549a2.437,2.437,0,0,0,2.436,2.436H20.3a2.437,2.437,0,0,0,2.436-2.436V15.541a.61.61,0,0,0-1.04-.431l-2.03,2.03A.624.624,0,0,0,19.487,17.571Z" transform="translate(0 -0.007)" fill="#1f272d"/>
</svg>
