<svg xmlns="http://www.w3.org/2000/svg" width="18.295" height="18.116" viewBox="0 0 18.295 18.116">
  <g id="party" transform="translate(-0.001 -2.501)">
    <path id="Path_10146" data-name="Path 10146" d="M35.24,45.948l.022-.009c.065-.03.166-.068.22-.089l.045-.018h0a1.175,1.175,0,0,0,.74-.869,2.454,2.454,0,0,0-.209-1.37,8.135,8.135,0,0,1,3.237.473,1.692,1.692,0,0,0,.522.088,1.167,1.167,0,0,0,.8-.3,1.213,1.213,0,0,0,.345-1.168,1.38,1.38,0,0,0-1-1,6.442,6.442,0,0,0-4.921.175c-.2-.278-.425-.553-.652-.819l3.694-3.068.018-.017a.637.637,0,0,0,0-.9l-1.149-1.147a.637.637,0,0,0-.9,0l-.017.018-1.127,1.355a.268.268,0,0,0,.412.343l1.117-1.343a.1.1,0,0,1,.135.006l1.149,1.147a.1.1,0,0,1,.006.135l-3.695,3.068q-.155-.169-.311-.33l-.007-.007q-.17-.164-.348-.327L34.509,38.6a.268.268,0,1,0-.412-.343l-1.129,1.357c-.248-.211-.5-.415-.762-.607a6.414,6.414,0,0,0,.452-4.952,1.379,1.379,0,0,0-.953-1.05,1.214,1.214,0,0,0-1.185.286,1.275,1.275,0,0,0-.278,1.311,8.173,8.173,0,0,1,.291,3.4,2.565,2.565,0,0,0-1.475-.252,1.175,1.175,0,0,0-.869.739l-.018.045c-.021.054-.06.155-.089.22l-.009.022-.339.954v0L27.16,41.35l0,.006-.824,2.316,0,.006-.25.7-1.127,3.167a1.2,1.2,0,0,0,.169,1.349.921.921,0,0,0,.718.289,1.909,1.909,0,0,0,.632-.12l3.162-1.124.71-.252.006,0,2.316-.824.007,0,1.609-.572h0Zm4.57-3.754a.837.837,0,0,1,.633.611.686.686,0,0,1-.185.653.787.787,0,0,1-.8.1,8.724,8.724,0,0,0-3.645-.485,8.607,8.607,0,0,0-.46-.77A5.99,5.99,0,0,1,39.81,42.194Zm-9.05-7.727a.785.785,0,0,1,.137-.791.687.687,0,0,1,.663-.152.836.836,0,0,1,.578.662,5.95,5.95,0,0,1-.371,4.513c-.243-.163-.485-.312-.724-.441A8.66,8.66,0,0,0,30.76,34.468Zm-2.185,4.508c.036-.079.075-.183.1-.239l.012-.03v0a.636.636,0,0,1,.483-.42,2.436,2.436,0,0,1,1.442.352.265.265,0,0,0,.042.021,8.533,8.533,0,0,1,1.028.632.268.268,0,0,0,.031.023l0,0a14.511,14.511,0,0,1,1.63,1.368q.239.247.458.494l0,0,.007.007a13.583,13.583,0,0,1,.92,1.15.267.267,0,0,0,.028.04,8.243,8.243,0,0,1,.647,1.071.264.264,0,0,0,.024.048,2.326,2.326,0,0,1,.312,1.36.636.636,0,0,1-.42.483h0l-.03.012c-.057.022-.161.062-.24.1l-.673.239a9.7,9.7,0,0,0-1.936-3.046.268.268,0,0,0-.4.355,8.786,8.786,0,0,1,1.832,2.871l-1.151.409a12.454,12.454,0,0,0-2.126-2.84l-.007-.007A12.459,12.459,0,0,0,27.746,41.3l.409-1.15a9.167,9.167,0,0,1,3.015,1.959.268.268,0,0,0,.359-.4,9.63,9.63,0,0,0-3.195-2.066Zm1.787,8.138a14.745,14.745,0,0,0-1.557-1.89l-.007-.007a14.749,14.749,0,0,0-1.891-1.556l.658-1.848a11.994,11.994,0,0,1,4.646,4.644Zm-.9.318-.95.337a15.8,15.8,0,0,0-1.054-1.2l-.007-.007a15.8,15.8,0,0,0-1.2-1.053l.334-.941.136-.381a14.434,14.434,0,0,1,1.7,1.416,14.428,14.428,0,0,1,1.417,1.7ZM26.294,48.56c-.365.129-.654.12-.774-.025a.269.269,0,0,0-.036-.036c-.145-.119-.154-.408-.025-.773l.6-1.687c.345.278.687.58,1.02.9s.623.674.9,1.019Z" transform="translate(-23.946 -29.371)" fill="#00aeef"/>
    <path id="Path_10147" data-name="Path 10147" d="M381.689,4.693l.676.478a.27.27,0,0,1,.015.056l.145.782a.4.4,0,0,0,.22.34.307.307,0,0,0,.117.023.5.5,0,0,0,.288-.12l.627-.483a.161.161,0,0,1,.065-.018l.786.1a.412.412,0,0,0,.4-.117.4.4,0,0,0,.022-.4l-.267-.75a.265.265,0,0,1-.015-.055l.347-.754a.408.408,0,0,0,.02-.407.406.406,0,0,0-.377-.157l-.83.016-.6-.577a.364.364,0,0,0-.659.176h0l-.226.8-.728.4a.406.406,0,0,0-.247.324A.409.409,0,0,0,381.689,4.693Zm1.036-.611a.427.427,0,0,0,.229-.3l.167-.588.422.409.016.015a.429.429,0,0,0,.341.143h.008l.622-.012-.256.557a.579.579,0,0,0,0,.454l.189.53-.549-.073a.666.666,0,0,0-.463.123l-.44.339-.1-.553a.589.589,0,0,0-.228-.394l-.5-.354Z" transform="translate(-367.836)" fill="#00aeef"/>
    <path id="Path_10148" data-name="Path 10148" d="M274.946,7.525l.568.329a.488.488,0,0,0,.243.064.569.569,0,0,0,.436-.218l1.048-1.261a.459.459,0,0,0,.1-.377.537.537,0,0,0-.26-.366l-1.045-.6a.54.54,0,0,0-.448-.039.458.458,0,0,0-.276.27l-.569,1.536A.532.532,0,0,0,274.946,7.525Zm.295-.478.547-1.476,1,.577-1.007,1.212a.117.117,0,0,1-.019.018l-.526-.3A.119.119,0,0,1,275.241,7.046Z" transform="translate(-264.881 -2.43)" fill="#00aeef"/>
    <path id="Path_10149" data-name="Path 10149" d="M436.943,134.885a.623.623,0,0,0-.471-.218H434.89a.623.623,0,0,0-.471.218.511.511,0,0,0-.119.421l.363,2.119a.611.611,0,0,0,.59.548h.858a.611.611,0,0,0,.59-.549l.361-2.118A.511.511,0,0,0,436.943,134.885Zm-.771,2.449c-.009.05-.035.1-.062.1h-.858c-.03,0-.054-.06-.062-.1l-.36-2.106a.092.092,0,0,1,.06-.026h1.582a.093.093,0,0,1,.06.025Z" transform="translate(-418.773 -127.443)" fill="#00aeef"/>
    <path id="Path_10150" data-name="Path 10150" d="M1.511,141.365a.575.575,0,0,0,.147-.019l.828-.222a.609.609,0,0,0,.429-.683l-.2-2.141a.511.511,0,0,0-.225-.376.621.621,0,0,0-.51-.088l-1.527.409a.622.622,0,0,0-.4.332.511.511,0,0,0-.006.438l.9,1.953a.633.633,0,0,0,.565.4Zm-.92-2.6h0l1.528-.41a.09.09,0,0,1,.063.009l.2,2.128c0,.05-.007.108-.034.115l-.828.222c-.03.008-.069-.044-.087-.084L.539,138.8a.092.092,0,0,1,.051-.039Z" transform="translate(0 -130.48)" fill="#00aeef"/>
    <path id="Path_10151" data-name="Path 10151" d="M294.876,418.153l-1.616-1.144a.582.582,0,0,0-.77.029l-.558.558a.581.581,0,0,0-.029.77l1.145,1.615a.492.492,0,0,0,.367.206l.048,0a.6.6,0,0,0,.418-.173l1.03-1.03a.6.6,0,0,0,.171-.466A.491.491,0,0,0,294.876,418.153Zm-.344.453-1.03,1.03a.063.063,0,0,1-.03.015l-1.132-1.6a.115.115,0,0,1-.029-.08l.559-.559h0a.145.145,0,0,1,.075.031l1.6,1.131A.063.063,0,0,1,294.531,418.607Z" transform="translate(-281.346 -399.571)" fill="#00aeef"/>
    <path id="Path_10152" data-name="Path 10152" d="M36.457,5.565a.2.2,0,0,1-.018.072l-.29.814a.415.415,0,0,0,.02.417.422.422,0,0,0,.412.118l.85-.114a.193.193,0,0,1,.088.023l.683.527a.507.507,0,0,0,.295.124.315.315,0,0,0,.119-.024.417.417,0,0,0,.226-.351L39,6.324a.185.185,0,0,1,.022-.074l.74-.523a.418.418,0,0,0,.229-.353.42.42,0,0,0-.256-.331l-.8-.44-.249-.873a.373.373,0,0,0-.677-.182l-.638.617-.015.015-.91-.017a.42.42,0,0,0-.389.159.417.417,0,0,0,.024.421Zm.905-.848a.435.435,0,0,0,.362-.148l.5-.487.193.675a.44.44,0,0,0,.239.307l.624.344-.572.4a.608.608,0,0,0-.24.413l-.117.637-.508-.392a.717.717,0,0,0-.413-.133.551.551,0,0,0-.071,0l-.635.085.217-.61a.606.606,0,0,0,0-.476L36.65,4.7Z" transform="translate(-34.718 -0.857)" fill="#00aeef"/>
    <path id="Path_10153" data-name="Path 10153" d="M400.412,358.968l-.887-.219-.466-.779a.429.429,0,0,0-.35-.247h0a.43.43,0,0,0-.351.246h0l-.456.762-.011.018-.887.219a.363.363,0,0,0-.2.655l.58.7a.21.21,0,0,1,0,.075l-.069.863a.415.415,0,0,0,.126.4.424.424,0,0,0,.43.009l.793-.33a.19.19,0,0,1,.091,0l.8.332a.615.615,0,0,0,.23.055.318.318,0,0,0,.2-.065.416.416,0,0,0,.128-.4l-.07-.863a.2.2,0,0,1,0-.075l.58-.7a.418.418,0,0,0,.131-.4A.422.422,0,0,0,400.412,358.968Zm-.788,1.01a.6.6,0,0,0-.124.461l.052.647-.593-.247a.7.7,0,0,0-.5,0l-.592.247.052-.648a.6.6,0,0,0-.124-.46l-.45-.542.693-.171a.437.437,0,0,0,.312-.237l.36-.6.347.58.013.021a.437.437,0,0,0,.312.237l.694.172Z" transform="translate(-382.481 -342.529)" fill="#00aeef"/>
  </g>
</svg>
