<svg xmlns="http://www.w3.org/2000/svg" width="50.657" height="50.659" viewBox="0 0 50.657 50.659">
  <g id="confetti" transform="translate(-0.009 0)">
    <path id="Path_9019" data-name="Path 9019" d="M33.892,173.239,2.131,188.377a1.484,1.484,0,0,1-1.984-1.966l15.138-32.552a1.485,1.485,0,0,1,2.419-.4c10.182,10.668,6.4,6.7,16.622,17.414A1.485,1.485,0,0,1,33.892,173.239Z" transform="translate(0 -137.863)" fill="#ffdd54"/>
    <path id="Path_9020" data-name="Path 9020" d="M38.283,255.968a1.485,1.485,0,0,1-.435,2.365L6.087,273.471a1.485,1.485,0,0,1-1.688-.29l25.742-25.742Z" transform="translate(-3.956 -222.956)" fill="#ffb454"/>
    <path id="Path_9021" data-name="Path 9021" d="M172.6,171.106v.792a1.485,1.485,0,0,1-1.484,1.484,18.127,18.127,0,0,1-18.107-18.107v-.792A1.485,1.485,0,0,1,154.493,153,18.126,18.126,0,0,1,172.6,171.106Z" transform="translate(-137.862 -137.86)" fill="#ffb454"/>
    <path id="Path_9022" data-name="Path 9022" d="M220.95,223.115v.792a1.485,1.485,0,0,1-1.484,1.484,18.048,18.048,0,0,1-12.8-5.309l9.362-9.362A18.04,18.04,0,0,1,220.95,223.115Z" transform="translate(-186.212 -189.869)" fill="#ff8659"/>
    <path id="Path_9023" data-name="Path 9023" d="M123.977,362.486a1.484,1.484,0,1,1-1.338-1.477A1.488,1.488,0,0,1,123.977,362.486Z" transform="translate(-109.028 -325.284)" fill="#acceff"/>
    <path id="Path_9024" data-name="Path 9024" d="M127.926,366.292a1.486,1.486,0,0,1-2.527,1.2l2.1-2.1A1.5,1.5,0,0,1,127.926,366.292Z" transform="translate(-112.983 -329.236)" fill="#989dec"/>
    <path id="Path_9025" data-name="Path 9025" d="M146.493,291.97a1.484,1.484,0,1,1,1.477-1.338A1.488,1.488,0,0,1,146.493,291.97Z" transform="translate(-130.653 -260.407)" fill="#ff5e90"/>
    <path id="Path_9026" data-name="Path 9026" d="M186.493,339.97a1.484,1.484,0,1,1,1.477-1.338A1.488,1.488,0,0,1,186.493,339.97Z" transform="translate(-166.695 -303.658)" fill="#00a763"/>
    <path id="Path_9027" data-name="Path 9027" d="M215.12,1.013a1.485,1.485,0,0,0-1.679,1.259L213,5.335c0,.013.045-.06-.66,1a1.779,1.779,0,0,1-1.086.206,4.372,4.372,0,0,0-4.057,5.993,1.484,1.484,0,1,0,2.756-1.1,1.4,1.4,0,0,1,1.3-1.922h.358a4.392,4.392,0,0,0,4.326-3.752l.438-3.063a1.484,1.484,0,0,0-1.259-1.679Z" transform="translate(-186.405 -0.898)" fill="#ff5e90"/>
    <path id="Path_9028" data-name="Path 9028" d="M383,130.119a1.484,1.484,0,0,0-1.8-1.08l-1.188.3a4.09,4.09,0,0,0-3.1,3.973v1.623a1.127,1.127,0,0,1-1.437,1.084,4.1,4.1,0,0,0-4.89,2.325l-1.469,3.427a1.484,1.484,0,1,0,2.728,1.169l1.469-3.426a1.13,1.13,0,0,1,1.346-.64,4.094,4.094,0,0,0,5.221-3.938V133.31a1.126,1.126,0,0,1,.854-1.094l1.188-.3A1.484,1.484,0,0,0,383,130.119Z" transform="translate(-332.477 -116.231)" fill="#00a763"/>
    <path id="Path_9029" data-name="Path 9029" d="M338.493,11.97a1.484,1.484,0,1,1,1.477-1.338A1.488,1.488,0,0,1,338.493,11.97Z" transform="translate(-303.656 -8.111)" fill="#ff5e90"/>
    <path id="Path_9030" data-name="Path 9030" d="M258.493,123.97a1.484,1.484,0,1,1,1.477-1.338A1.488,1.488,0,0,1,258.493,123.97Z" transform="translate(-231.572 -109.03)" fill="#ffdd54"/>
    <path id="Path_9031" data-name="Path 9031" d="M194.493,3.97a1.484,1.484,0,1,1,1.477-1.338A1.488,1.488,0,0,1,194.493,3.97Z" transform="translate(-173.904 -0.903)" fill="#ace233"/>
    <path id="Path_9032" data-name="Path 9032" d="M370.493,147.961a1.484,1.484,0,1,1,1.477-1.339A1.488,1.488,0,0,1,370.493,147.961Z" transform="translate(-332.49 -130.646)" fill="#00a763"/>
    <path id="Path_9033" data-name="Path 9033" d="M458.493,75.961a1.484,1.484,0,1,1,1.477-1.338A1.488,1.488,0,0,1,458.493,75.961Z" transform="translate(-411.783 -65.77)" fill="#ffb454"/>
    <path id="Path_9034" data-name="Path 9034" d="M426.493,275.97a1.484,1.484,0,1,1,1.477-1.338A1.488,1.488,0,0,1,426.493,275.97Z" transform="translate(-382.949 -245.99)" fill="#d01273"/>
    <path id="Path_9035" data-name="Path 9035" d="M329.815,2.953l-4.3.624a2.533,2.533,0,0,0-1.984,1.387l-1.884,3.767a5.476,5.476,0,0,1-4.925,3.043,2.539,2.539,0,0,0-2.512,2.9l.136.95a1.484,1.484,0,1,1-2.939.42l-.136-.95a5.508,5.508,0,0,1,5.451-6.285A2.524,2.524,0,0,0,319,7.4l1.883-3.767a5.5,5.5,0,0,1,4.227-3L329.39.016a1.484,1.484,0,0,1,.425,2.937Z" transform="translate(-280.419)" fill="#acceff"/>
  </g>
</svg>
