<svg xmlns="http://www.w3.org/2000/svg" width="20.865" height="17.605" viewBox="0 0 20.865 17.605">
  <g id="XMLID_1227_" transform="translate(0 -40)">
    <g id="XMLID_1114_" transform="translate(0 40)">
      <path id="XMLID_1119_" d="M18.828,40H12.272a.408.408,0,1,0,0,.815h6.556a1.224,1.224,0,0,1,1.223,1.223V51.9H.815V42.038a1.224,1.224,0,0,1,1.223-1.223H8.6A.408.408,0,1,0,8.6,40H2.038A2.04,2.04,0,0,0,0,42.038v13.53A2.04,2.04,0,0,0,2.038,57.6h16.79a2.04,2.04,0,0,0,2.038-2.038V42.038A2.04,2.04,0,0,0,18.828,40Zm0,16.79H2.038A1.224,1.224,0,0,1,.815,55.567V52.715H20.05v2.853A1.224,1.224,0,0,1,18.828,56.79Z" transform="translate(0 -40)" fill="#00aeef"/>
      <path id="XMLID_1192_" d="M71.148,372a1.223,1.223,0,1,0,1.223,1.223A1.224,1.224,0,0,0,71.148,372Zm0,1.63a.408.408,0,1,1,.408-.408A.408.408,0,0,1,71.148,373.63Z" transform="translate(-67.075 -358.47)" fill="#00aeef"/>
      <path id="XMLID_1245_" d="M183.547,392H173.4a.408.408,0,1,0,0,.815h10.151a.408.408,0,1,0,0-.815Z" transform="translate(-165.939 -377.655)" fill="#00aeef"/>
      <path id="XMLID_1248_" d="M204.885,138.276v2.471a1.16,1.16,0,0,0,1.743,1.007l2.14-1.236a1.162,1.162,0,0,0,0-2.013l-2.14-1.236a1.162,1.162,0,0,0-1.743,1.007Zm.815,0a.341.341,0,0,1,.174-.3.358.358,0,0,1,.175-.048.34.34,0,0,1,.172.048l2.14,1.236a.347.347,0,0,1,0,.6l-2.14,1.236a.347.347,0,0,1-.521-.3v-2.471Z" transform="translate(-196.535 -133.154)" fill="#00aeef"/>
      <path id="XMLID_1249_" d="M246.538,40.815a.407.407,0,1,0-.289-.119A.411.411,0,0,0,246.538,40.815Z" transform="translate(-236.1 -40)" fill="#00aeef"/>
    </g>
  </g>
</svg>
