<svg xmlns="http://www.w3.org/2000/svg" width="17.051" height="15.644" viewBox="0 0 17.051 15.644">
  <path id="Icon_material-favorite-border" data-name="Icon material-favorite-border" d="M15.362,4.5a5.105,5.105,0,0,0-3.837,1.782A5.105,5.105,0,0,0,7.689,4.5,4.644,4.644,0,0,0,3,9.189c0,3.223,2.9,5.849,7.289,9.839l1.236,1.117,1.236-1.125c4.391-3.981,7.289-6.607,7.289-9.83A4.644,4.644,0,0,0,15.362,4.5ZM11.611,17.757l-.085.085-.085-.085c-4.058-3.675-6.735-6.1-6.735-8.568A2.914,2.914,0,0,1,7.689,6.205a3.333,3.333,0,0,1,3.044,2.012h1.594a3.312,3.312,0,0,1,3.035-2.012,2.914,2.914,0,0,1,2.984,2.984C18.346,11.653,15.669,14.083,11.611,17.757Z" transform="translate(-3 -4.5)"/>
</svg>
