<svg xmlns="http://www.w3.org/2000/svg" width="90.358" height="96.219" viewBox="0 0 90.358 96.219">
  <g id="Group_54285" data-name="Group 54285" transform="translate(-821 402)">
    <circle id="Ellipse_128" data-name="Ellipse 128" cx="45.179" cy="45.179" r="45.179" transform="translate(821 -396.139)" fill="#ff3bab"/>
    <g id="youth" transform="translate(821 -402)">
      <path id="Path_8744" data-name="Path 8744" d="M44.115,143.05H40.888l-.2.212v1.9c0,1.7-1,2.665-2.512,3.443-2.072,1.068-2.695,7.131,1.2,9.108l1.107.167,7.749-3v-4.394Z" transform="translate(-30.087 -121.89)" fill="#365e7d"/>
      <path id="Path_8745" data-name="Path 8745" d="M43.541,148.607a4.251,4.251,0,0,0,2.348-2.354l-1.774-3.2H40.888l-.2.212v1.9c0,1.7-1,2.665-2.512,3.443-2.072,1.068-2.695,7.131,1.2,9.108l1.107.167,2.948-1.141C41.038,154.227,41.742,149.535,43.541,148.607Z" transform="translate(-30.087 -121.89)" fill="#2b4d66"/>
      <path id="Path_8746" data-name="Path 8746" d="M163.028,148.062c-1.514-.781-2.511-1.748-2.511-3.443v-1.931l-.316-.3h-3.385l-3.887,7.859v3.977l8,3.113.744-.225C165.487,155.082,165.08,149.12,163.028,148.062Z" transform="translate(-125.939 -121.346)" fill="#365e7d"/>
      <path id="Path_8747" data-name="Path 8747" d="M40.4,218.849l-9.522-3.688-.85.377H15.33l-1.05-.372-9.5,3.683A8.188,8.188,0,0,0,0,226.265v8.849H7.367v8.591H37.812v-8.591h7.367v-8.849a8.162,8.162,0,0,0-4.781-7.417Z" transform="translate(0 -181.275)" fill="#ffafe2"/>
      <path id="Path_8748" data-name="Path 8748" d="M6.191,232.294a7.493,7.493,0,0,1,3-5.914l-4.4,1.708A8.188,8.188,0,0,0,0,235.5v8.849H6.191Z" transform="translate(0 -190.514)" fill="#ff94d5"/>
      <path id="Path_8749" data-name="Path 8749" d="M179.722,111.437l-.267-.269h-3.187v5.585l.176.364h2.406a2.907,2.907,0,0,0,.872-5.68Z" transform="translate(-145.16 -95.635)" fill="#ffcebe"/>
      <path id="Path_8750" data-name="Path 8750" d="M50.158,111.331v0a2.905,2.905,0,0,0,.781,5.7h2.512l.276-.322v-5.644H50.364Z" transform="translate(-39.556 -95.556)" fill="#ffcebe"/>
      <g id="Group_54271" data-name="Group 54271" transform="translate(0 15.516)">
        <path id="Path_8751" data-name="Path 8751" d="M179.114,111.168h-2.847v5.585l.176.364h2.406c.09,0,.178-.005.266-.013Z" transform="translate(-145.159 -111.151)" fill="#ffb1a0"/>
        <path id="Path_8752" data-name="Path 8752" d="M50.88,114.13a2.906,2.906,0,0,1,2.126-2.8v0l.206-.258H50.364l-.206.258v0a2.906,2.906,0,0,0,.781,5.7h2.512l.016-.019A2.906,2.906,0,0,1,50.88,114.13Z" transform="translate(-39.556 -111.071)" fill="#ffb1a0"/>
        <path id="Path_8753" data-name="Path 8753" d="M7.367,327.194H0v7.179a1.593,1.593,0,0,0,1.593,1.593H7.367Z" transform="translate(0 -289.052)" fill="#ffb1a0"/>
      </g>
      <path id="Path_8754" data-name="Path 8754" d="M214.255,327.194v8.773h5.774a1.593,1.593,0,0,0,1.593-1.593v-7.179Z" transform="translate(-176.443 -273.536)" fill="#ffcebe"/>
      <path id="Path_8755" data-name="Path 8755" d="M94.681,189.391a.884.884,0,0,1-.565-.822l0-2.962-.389-.406H84.786l-.453.424v2.939c0,.677-.6.839-.861.939l-2.554.99a8.72,8.72,0,0,0,16.6,0Z" transform="translate(-66.638 -156.602)" fill="#ffcebe"/>
      <path id="Path_8756" data-name="Path 8756" d="M89.228,185.2H84.787l-.453.424v2.939c0,.677-.6.839-.861.939l-2.554.99a8.59,8.59,0,0,0,8.309,6.034Z" transform="translate(-66.638 -156.602)" fill="#ffb1a0"/>
      <path id="Path_8757" data-name="Path 8757" d="M36.746,293.1V276.51a1.363,1.363,0,1,0-2.727,0V293.1Z" transform="translate(-28.015 -230.674)" fill="#ff94d5"/>
      <path id="Path_8758" data-name="Path 8758" d="M209.257,293.1V276.51a1.363,1.363,0,1,0-2.727,0V293.1Z" transform="translate(-170.081 -230.674)" fill="#ff636e"/>
      <path id="Path_8759" data-name="Path 8759" d="M119.067,90.375h-3.818l-3-3.727h-1.788l-2.781,3.013v7.685a8.8,8.8,0,0,0,5.842,8.3,8.7,8.7,0,0,0,6.438-8.378V91.11Z" transform="translate(-88.677 -75.442)" fill="#ffdecf"/>
      <path id="Path_8760" data-name="Path 8760" d="M84.048,110.382v-7.917l-1.059,1.148H79.121l-.385.523v6.246a8.578,8.578,0,0,0,8.783,8.57,8.385,8.385,0,0,0,2.589-.4A8.514,8.514,0,0,1,84.048,110.382Z" transform="translate(-64.841 -88.467)" fill="#ffcebe"/>
      <path id="Path_8761" data-name="Path 8761" d="M71.9,23.151a12.1,12.1,0,0,0-11.83,12.165v3.612a2.9,2.9,0,0,1,.782-.109h4.785c.3,0,1.964-.136,1.842-.126a5.054,5.054,0,0,0,4.438-3.827.146.146,0,0,1,.284,0,5.046,5.046,0,0,0,4.389,3.818c1.51.128,1.53.135,1.8.135h4.765a2.907,2.907,0,0,1,.888.139v-3.82A11.988,11.988,0,0,0,71.9,23.151Z" transform="translate(-49.473 -23.15)" fill="#365e7d"/>
      <g id="Group_54272" data-name="Group 54272" transform="translate(10.602 0)">
        <path id="Path_8762" data-name="Path 8762" d="M65.438,35.316a12.166,12.166,0,0,1,9.314-11.86,11.987,11.987,0,0,0-14.678,11.86v3.612a2.9,2.9,0,0,1,.782-.109h4.582Z" transform="translate(-60.075 -23.15)" fill="#2b4d66"/>
      </g>
      <path id="Path_8763" data-name="Path 8763" d="M300.114,143.05h-3.227l-.2.212v1.9c0,1.7-1,2.665-2.511,3.443-2.072,1.068-2.695,7.131,1.2,9.108l1.107.167,7.749-3v-4.394Z" transform="translate(-240.908 -121.89)" fill="#365e7d"/>
      <path id="Path_8764" data-name="Path 8764" d="M299.541,148.607a4.251,4.251,0,0,0,2.348-2.354l-1.774-3.2h-3.227l-.2.212v1.9c0,1.7-1,2.665-2.512,3.443-2.072,1.068-2.695,7.131,1.2,9.108l1.107.167,2.948-1.141C297.038,154.227,297.742,149.535,299.541,148.607Z" transform="translate(-240.908 -121.89)" fill="#2b4d66"/>
      <path id="Path_8765" data-name="Path 8765" d="M419.027,148.062c-1.514-.781-2.511-1.748-2.511-3.443v-1.931l-.316-.3h-3.385l-3.887,7.859v3.977l8,3.113.744-.225C421.486,155.082,421.079,149.12,419.027,148.062Z" transform="translate(-336.759 -121.346)" fill="#365e7d"/>
      <path id="Path_8766" data-name="Path 8766" d="M296.4,218.849l-9.522-3.688-.85.377h-14.7l-1.05-.372-9.5,3.683A8.188,8.188,0,0,0,256,226.265v8.849h7.367v8.591h30.445v-8.591h7.367v-8.849a8.162,8.162,0,0,0-4.781-7.417Z" transform="translate(-210.821 -181.275)" fill="#ffd064"/>
      <path id="Path_8767" data-name="Path 8767" d="M435.722,111.437l-.267-.269h-3.187v5.585l.176.364h2.406a2.907,2.907,0,0,0,.873-5.68Z" transform="translate(-355.981 -95.635)" fill="#ffcebe"/>
      <path id="Path_8768" data-name="Path 8768" d="M306.158,111.331v0a2.905,2.905,0,0,0,.781,5.7h2.512l.276-.322v-5.644h-3.363Z" transform="translate(-250.377 -95.556)" fill="#ffcebe"/>
      <path id="Path_8769" data-name="Path 8769" d="M435.114,111.168h-2.847v5.585l.176.364h2.406c.09,0,.178-.005.266-.013Z" transform="translate(-355.98 -95.635)" fill="#ffb1a0"/>
      <path id="Path_8770" data-name="Path 8770" d="M306.879,114.13a2.906,2.906,0,0,1,2.126-2.8v0l.206-.258h-2.847l-.206.258v0a2.906,2.906,0,0,0,.781,5.7h2.512l.016-.019A2.906,2.906,0,0,1,306.879,114.13Z" transform="translate(-250.376 -95.555)" fill="#ffb1a0"/>
      <path id="Path_8771" data-name="Path 8771" d="M470.255,327.194v8.773h5.774a1.593,1.593,0,0,0,1.594-1.593v-7.179Z" transform="translate(-387.264 -273.536)" fill="#ffcebe"/>
      <path id="Path_8772" data-name="Path 8772" d="M350.681,189.391a.884.884,0,0,1-.565-.822l0-2.962-.389-.406h-8.939l-.453.424v2.939c0,.677-.6.839-.861.939l-2.554.99a8.72,8.72,0,0,0,16.6,0Z" transform="translate(-277.458 -156.602)" fill="#ffcebe"/>
      <path id="Path_8773" data-name="Path 8773" d="M345.228,185.2h-4.441l-.453.424v2.939c0,.677-.6.839-.861.939l-2.554.99a8.59,8.59,0,0,0,8.309,6.034Z" transform="translate(-277.459 -156.602)" fill="#ffb1a0"/>
      <path id="Path_8774" data-name="Path 8774" d="M465.257,293.1V276.51a1.363,1.363,0,1,0-2.727,0V293.1Z" transform="translate(-380.902 -230.674)" fill="#ffc250"/>
      <path id="Path_8775" data-name="Path 8775" d="M375.067,90.375h-3.818l-3-3.727h-1.788l-2.781,3.013v7.685a8.8,8.8,0,0,0,5.842,8.3,8.7,8.7,0,0,0,6.438-8.378V91.11Z" transform="translate(-299.498 -75.442)" fill="#ffdecf"/>
      <path id="Path_8776" data-name="Path 8776" d="M340.048,110.382v-7.917l-1.059,1.148h-3.868l-.385.523v6.246a8.578,8.578,0,0,0,8.783,8.57,8.385,8.385,0,0,0,2.589-.4A8.514,8.514,0,0,1,340.048,110.382Z" transform="translate(-275.661 -88.467)" fill="#ffcebe"/>
      <path id="Path_8777" data-name="Path 8777" d="M327.9,23.151a12.1,12.1,0,0,0-11.83,12.165v3.612a2.9,2.9,0,0,1,.782-.109h4.785c.3,0,1.964-.136,1.842-.126a5.054,5.054,0,0,0,4.438-3.827.146.146,0,0,1,.284,0,5.046,5.046,0,0,0,4.389,3.818c1.51.128,1.53.135,1.8.135h4.765a2.908,2.908,0,0,1,.888.139v-3.82A11.988,11.988,0,0,0,327.9,23.151Z" transform="translate(-260.294 -23.15)" fill="#365e7d"/>
      <g id="Group_54273" data-name="Group 54273" transform="translate(55.781 0)">
        <path id="Path_8778" data-name="Path 8778" d="M321.438,35.316a12.166,12.166,0,0,1,9.315-11.86,11.987,11.987,0,0,0-14.678,11.86v3.612a2.9,2.9,0,0,1,.782-.109h4.582Z" transform="translate(-316.075 -23.15)" fill="#2b4d66"/>
      </g>
      <path id="Path_8779" data-name="Path 8779" d="M172.115,255h-3.227l-.2.213v1.9c0,1.7-1,2.665-2.511,3.444-2.072,1.068-2.695,7.131,1.2,9.108l1.107.167,7.749-3v-4.394Z" transform="translate(-135.498 -214.08)" fill="#365e7d"/>
      <path id="Path_8780" data-name="Path 8780" d="M171.541,260.554a4.251,4.251,0,0,0,2.348-2.354l-1.774-3.2h-3.227l-.2.213v1.9c0,1.7-1,2.665-2.511,3.443-2.072,1.068-2.695,7.131,1.2,9.108l1.107.167,2.948-1.141C169.038,266.174,169.742,261.481,171.541,260.554Z" transform="translate(-135.498 -214.08)" fill="#2b4d66"/>
      <path id="Path_8781" data-name="Path 8781" d="M291.027,260.009c-1.514-.781-2.511-1.748-2.511-3.443v-1.931l-.316-.3h-3.385l-3.887,7.859v3.977l8,3.113.744-.225c3.815-2.031,3.408-7.992,1.356-9.05Z" transform="translate(-231.349 -213.535)" fill="#365e7d"/>
      <path id="Path_8782" data-name="Path 8782" d="M168.4,330.795l-9.522-3.688-.85.377h-14.7l-1.05-.372-9.5,3.683A8.188,8.188,0,0,0,128,338.211v8.849h7.367v8.591h30.445v-8.591h7.367v-8.849A8.162,8.162,0,0,0,168.4,330.795Z" transform="translate(-105.41 -273.464)" fill="#ff7f87"/>
      <path id="Path_8783" data-name="Path 8783" d="M134.191,344.24a7.493,7.493,0,0,1,3-5.914l-4.4,1.708A8.187,8.187,0,0,0,128,347.45V356.3h6.191Z" transform="translate(-105.41 -282.703)" fill="#ff636e"/>
      <path id="Path_8784" data-name="Path 8784" d="M307.722,223.383l-.267-.269h-3.187V228.7l.176.364h2.406a2.907,2.907,0,0,0,.873-5.68Z" transform="translate(-250.57 -187.824)" fill="#ffcebe"/>
      <path id="Path_8785" data-name="Path 8785" d="M178.158,223.277v0a2.905,2.905,0,0,0,.781,5.7h2.512l.276-.322v-5.644h-3.363Z" transform="translate(-144.966 -187.746)" fill="#ffcebe"/>
      <path id="Path_8786" data-name="Path 8786" d="M307.114,223.114h-2.847V228.7l.176.364h2.406c.09,0,.178-.005.266-.013Z" transform="translate(-250.57 -187.824)" fill="#ffb1a0"/>
      <path id="Path_8787" data-name="Path 8787" d="M178.879,226.076a2.906,2.906,0,0,1,2.126-2.8v0l.206-.258h-2.847l-.206.258v0a2.906,2.906,0,0,0,.781,5.7h2.512l.016-.019A2.906,2.906,0,0,1,178.879,226.076Z" transform="translate(-144.966 -187.744)" fill="#ffb1a0"/>
      <path id="Path_8788" data-name="Path 8788" d="M135.367,439.141H128v7.179a1.593,1.593,0,0,0,1.593,1.593h5.774Z" transform="translate(-105.41 -365.727)" fill="#ffb1a0"/>
      <path id="Path_8789" data-name="Path 8789" d="M342.255,439.141v8.773h5.774a1.593,1.593,0,0,0,1.593-1.593v-7.179Z" transform="translate(-281.853 -365.727)" fill="#ffcebe"/>
      <path id="Path_8790" data-name="Path 8790" d="M222.68,301.337a.884.884,0,0,1-.565-.822l0-2.962-.389-.406h-8.939l-.453.424v2.939c0,.677-.6.839-.861.939l-2.554.99a8.72,8.72,0,0,0,16.6,0Z" transform="translate(-172.047 -248.792)" fill="#ffcebe"/>
      <path id="Path_8791" data-name="Path 8791" d="M217.227,297.147h-4.441l-.453.424v2.939c0,.677-.6.84-.861.939l-2.554.99a8.59,8.59,0,0,0,8.309,6.034V297.147Z" transform="translate(-172.048 -248.792)" fill="#ffb1a0"/>
      <path id="Path_8792" data-name="Path 8792" d="M164.746,405.051V388.457a1.364,1.364,0,1,0-2.727,0v16.594Z" transform="translate(-133.426 -322.864)" fill="#ff636e"/>
      <path id="Path_8793" data-name="Path 8793" d="M337.257,405.051V388.457a1.364,1.364,0,0,0-2.727,0v16.594Z" transform="translate(-275.492 -322.864)" fill="#ff636e"/>
      <path id="Path_8794" data-name="Path 8794" d="M247.067,202.321h-3.818l-3-3.727h-1.788l-2.781,3.013v7.685a8.8,8.8,0,0,0,5.842,8.3,8.7,8.7,0,0,0,6.438-8.378v-6.162Z" transform="translate(-194.088 -167.632)" fill="#ffdecf"/>
      <path id="Path_8795" data-name="Path 8795" d="M212.048,222.328v-7.917l-1.059,1.148h-3.868l-.385.523v6.246a8.578,8.578,0,0,0,8.783,8.57,8.383,8.383,0,0,0,2.589-.4A8.514,8.514,0,0,1,212.048,222.328Z" transform="translate(-170.251 -180.657)" fill="#ffcebe"/>
      <path id="Path_8796" data-name="Path 8796" d="M199.9,135.1a12.1,12.1,0,0,0-11.83,12.165v3.612a2.9,2.9,0,0,1,.782-.109h4.785c.3,0,1.964-.136,1.842-.126a5.054,5.054,0,0,0,4.438-3.827.146.146,0,0,1,.284,0,5.046,5.046,0,0,0,4.389,3.818c1.51.128,1.53.135,1.8.135h4.765a2.907,2.907,0,0,1,.888.139v-3.82A11.988,11.988,0,0,0,199.9,135.1Z" transform="translate(-154.883 -115.341)" fill="#365e7d"/>
      <g id="Group_54274" data-name="Group 54274" transform="translate(33.192 19.757)">
        <path id="Path_8797" data-name="Path 8797" d="M193.438,147.263a12.166,12.166,0,0,1,9.314-11.86,11.986,11.986,0,0,0-14.678,11.86v3.612a2.9,2.9,0,0,1,.782-.109h4.582Z" transform="translate(-188.075 -135.097)" fill="#2b4d66"/>
      </g>
    </g>
  </g>
</svg>
