<svg id="boy_1_" data-name="boy (1)" xmlns="http://www.w3.org/2000/svg" width="94.958" height="94.958" viewBox="0 0 94.958 94.958">
  <path id="Path_1080" data-name="Path 1080" d="M56.438,21.993a45.446,45.446,0,0,0-19.526,86.48H75.963a45.446,45.446,0,0,0-19.526-86.48Z" transform="translate(-8.958 -17.915)" fill="#49b1f7"/>
  <path id="Path_1081" data-name="Path 1081" d="M.313,96.426c1.564-4.9,6.263-7.037,8.812-6.746,1.765.2,2.932,2.841,3.483,4.446a1.176,1.176,0,0,0,1.5.728c1.193-.421,2.974-.745,3.551.77.738,1.94-2.7,5.155-3.331,7.789A10.8,10.8,0,0,1,11.354,106a2.317,2.317,0,0,0-1.094,2.727c.9,2.742,2.686,7.619,4.544,9.477a3.831,3.831,0,0,1,.953,4.323,4.5,4.5,0,0,1-2.45,2.436,21.588,21.588,0,0,1-4.417-5.81,44.761,44.761,0,0,1-3.628-9.582A3.789,3.789,0,0,0,4.447,108C2.879,106.206-1.145,101,.313,96.426Z" transform="translate(0 -73.027)" fill="#eab599"/>
  <path id="Path_1082" data-name="Path 1082" d="M57.945,175.162c-1.879-1.879-3.658-6.681-4.612-9.587a2.583,2.583,0,0,1,1.223-3.056,11.01,11.01,0,0,0,3.388-3.176h0a3.267,3.267,0,0,0-.234,2.409,31.932,31.932,0,0,0,5.739,10.768,2.67,2.67,0,0,0,.893.709c.966.467,2.01.92,3.134,1.346l-4.837,11.218q-1.037-.537-2.118-1.163a21.562,21.562,0,0,1-4.1-3.118A3.812,3.812,0,0,0,57.945,175.162Z" transform="translate(-43.338 -129.79)" fill="#f6caae"/>
  <path id="Path_1083" data-name="Path 1083" d="M433.662,96.426c-1.564-4.9-6.263-7.037-8.812-6.746-1.765.2-2.932,2.841-3.483,4.446a1.176,1.176,0,0,1-1.5.728c-1.193-.421-2.974-.745-3.551.77-.738,1.94,2.7,5.155,3.331,7.789A10.8,10.8,0,0,0,422.622,106a2.317,2.317,0,0,1,1.094,2.727c-.9,2.742-2.686,7.619-4.544,9.477a3.831,3.831,0,0,0-.953,4.323,4.5,4.5,0,0,0,2.45,2.436,21.586,21.586,0,0,0,4.417-5.81,44.754,44.754,0,0,0,3.628-9.582,3.788,3.788,0,0,1,.815-1.564c1.568-1.8,5.592-7.006,4.134-11.579Z" transform="translate(-339.017 -73.027)" fill="#eab599"/>
  <path id="Path_1084" data-name="Path 1084" d="M391.372,175.162c1.879-1.879,3.658-6.681,4.612-9.587a2.583,2.583,0,0,0-1.223-3.056,11.01,11.01,0,0,1-3.388-3.176h0a3.267,3.267,0,0,1,.234,2.409,31.934,31.934,0,0,1-5.739,10.768,2.67,2.67,0,0,1-.893.709c-.966.467-2.01.92-3.134,1.346l4.837,11.218q1.037-.537,2.118-1.163a21.571,21.571,0,0,0,4.1-3.118A3.812,3.812,0,0,1,391.372,175.162Z" transform="translate(-311.02 -129.789)" fill="#f6caae"/>
  <path id="Path_1085" data-name="Path 1085" d="M243.477,249.936a39.583,39.583,0,0,0-4.217-9.832,1.33,1.33,0,0,0-1.591-.545,52.5,52.5,0,0,1-18.6,3.057h-8.49l1.87,7.76a10.562,10.562,0,0,0-3.6,2.043c-1.757,1.509-3.853,4.338-3.853,9.254,0,.058,0,.118,0,.177h27.842c-.186-1.538-.4-3.1-.648-4.682a1.863,1.863,0,0,1,1.363-2.1,46.492,46.492,0,0,0,9.257-3.594A1.328,1.328,0,0,0,243.477,249.936Z" transform="translate(-166.975 -195.061)" fill="#ff4155"/>
  <path id="Path_1086" data-name="Path 1086" d="M126.65,250.57l-1.916-7.954H123.7a52.5,52.5,0,0,1-18.6-3.057,1.33,1.33,0,0,0-1.591.545,39.582,39.582,0,0,0-4.217,9.832,1.328,1.328,0,0,0,.668,1.541,46.476,46.476,0,0,0,9.257,3.594,1.863,1.863,0,0,1,1.363,2.1c-.248,1.579-.462,3.145-.648,4.683h9.2c0-.059,0-.118,0-.177C119.139,252.361,126.65,250.57,126.65,250.57Z" transform="translate(-80.84 -195.061)" fill="#e80054"/>
  <path id="Path_1087" data-name="Path 1087" d="M233.125,409.364H204.339a35.054,35.054,0,0,0,1.357,9.642,16.034,16.034,0,0,0,7.1,9.377c.375.009.75.016,1.127.016a45.259,45.259,0,0,0,19.526-4.4C233.453,419.472,233.395,413.762,233.125,409.364Z" transform="translate(-166.441 -333.441)" fill="#ff4155"/>
  <path id="Path_1088" data-name="Path 1088" d="M160.938,409.364h-9.9c-.27,4.4-.328,10.108-.321,14.636a45.244,45.244,0,0,0,18.98,4.392C162.5,424.342,161.1,416.555,160.938,409.364Z" transform="translate(-122.765 -333.441)" fill="#e80054"/>
  <path id="Path_1089" data-name="Path 1089" d="M204.32,362.59c-.051,1.876-.106,3.938-.053,6.059h28.792c-.177-2.931-.447-6.145-.855-9.487H204.385C204.385,360.219,204.354,361.371,204.32,362.59Z" transform="translate(-166.365 -292.549)" fill="#deeeff"/>
  <path id="Path_1090" data-name="Path 1090" d="M162.429,359.16h-9.18c-.408,3.343-.678,6.556-.855,9.488h9.914C162.222,365.2,162.429,361.875,162.429,359.16Z" transform="translate(-124.13 -292.548)" fill="#bec8f7"/>
  <path id="Path_1091" data-name="Path 1091" d="M223.342,200.378a7.458,7.458,0,0,1-7.436-7.436v-7.651a7.436,7.436,0,0,1,14.872,0v7.651A7.458,7.458,0,0,1,223.342,200.378Z" transform="translate(-175.863 -144.87)" fill="#7c382a"/>
  <path id="Path_1092" data-name="Path 1092" d="M234.952,6.2a6.6,6.6,0,0,1-1.7-1.286c-1.836-1.938-7.427-6.566-17.328-4.293l.284.153.016.008c.032.014,3.158,1.463,3.213,3.442.033,1.188-1.053,2.369-3.227,3.51-2.07,1.087-3.214,2.487-3.4,4.163-.357,3.222,2.939,6.354,3.623,6.966l-1.117,7.548h24.867c.907-2.983,3.991-15.317-5.233-20.212Z" transform="translate(-173.321 -0.003)" fill="#45304c"/>
  <path id="Path_1093" data-name="Path 1093" d="M156.266,21.043s-7.987-6.786-.39-10.774,0-7.452,0-7.452A28.545,28.545,0,0,0,153,3.592C140.281,7.721,135.008,15,141.052,28.7h14.082Z" transform="translate(-112.855 -2.295)" fill="#34243a"/>
  <path id="Path_1094" data-name="Path 1094" d="M346.405,136.957a3.1,3.1,0,0,0-4.039-.421,28.212,28.212,0,0,1-.62,3.033,8.662,8.662,0,0,0-.264,2.819,18.449,18.449,0,0,1-.267,4.7c2.426,1.1,3.194-.048,3.434-.961a7.227,7.227,0,0,1,.82-1.941C346.524,142.465,348.2,139.046,346.405,136.957Z" transform="translate(-277.932 -110.756)" fill="#eab599"/>
  <path id="Path_1095" data-name="Path 1095" d="M144.462,142.387a8.658,8.658,0,0,0-.264-2.819,28.162,28.162,0,0,1-.62-3.033,3.1,3.1,0,0,0-4.039.421c-1.791,2.089-.119,5.508.935,7.23a7.232,7.232,0,0,1,.82,1.941c.24.913,1.008,2.065,3.434.961A18.452,18.452,0,0,1,144.462,142.387Z" transform="translate(-113.017 -110.756)" fill="#eab599"/>
  <path id="Path_1096" data-name="Path 1096" d="M241.861,92.148a16.244,16.244,0,0,1-7.887-7.229,2.419,2.419,0,0,0-3.1-.98,43.44,43.44,0,0,1-9.933,3.1c-.038.035-.078.068-.115.1a7.843,7.843,0,0,0-2.052,3.315,4.32,4.32,0,0,0-.14,1.95,30.61,30.61,0,0,0,.643,3.1,9.388,9.388,0,0,1,.286,3.057c-.244,3.353.072,11.69,8.368,16.411a18.9,18.9,0,0,0,3.077,1.4,17.455,17.455,0,0,0,3.282-1.457c7.584-4.355,7.881-12,7.658-15.089a8.693,8.693,0,0,1,.261-2.822,28.1,28.1,0,0,0,.642-3.182A1.578,1.578,0,0,0,241.861,92.148Z" transform="translate(-178.039 -68.191)" fill="#f6caae"/>
  <g id="Group_54024" data-name="Group 54024" transform="translate(30.187 18.747)">
    <path id="Path_1097" data-name="Path 1097" d="M182.511,128.943c-8.179-4.656-8.492-12.876-8.251-16.182a9.261,9.261,0,0,0-.282-3.014,30.175,30.175,0,0,1-.634-3.057,4.258,4.258,0,0,1,.138-1.923,7.734,7.734,0,0,1,2.023-3.269,5.576,5.576,0,0,1,.481-.413,45.848,45.848,0,0,1-7.613.869,5.329,5.329,0,0,0-3.541,1.482,7.233,7.233,0,0,0-1.892,3.057,3.982,3.982,0,0,0-.129,1.8,28.2,28.2,0,0,0,.593,2.859,8.658,8.658,0,0,1,.263,2.819c-.226,3.092.067,10.779,7.716,15.133a17.623,17.623,0,0,0,14.451,1.324A18.647,18.647,0,0,1,182.511,128.943Z" transform="translate(-162.764 -101.086)" fill="#eab599"/>
  </g>
  <path id="Path_1098" data-name="Path 1098" d="M20.037,294.206a8.418,8.418,0,0,0-7.531-1.418,45.346,45.346,0,0,0,15.378,29.249,17.412,17.412,0,0,0,4.018-10.8C31.9,301.191,28.362,300.148,20.037,294.206Z" transform="translate(-10.187 -238.203)" fill="#73c3f9"/>
  <path id="Path_1099" data-name="Path 1099" d="M414.616,292.768a8.419,8.419,0,0,0-7.464,1.438c-8.325,5.942-11.865,6.985-11.865,17.035a17.4,17.4,0,0,0,3.99,10.76A45.345,45.345,0,0,0,414.616,292.768Z" transform="translate(-321.975 -238.203)" fill="#73c3f9"/>
  <g id="Group_54025" data-name="Group 54025" transform="translate(51.568 26.961)">
    <path id="Path_1100" data-name="Path 1100" d="M283.3,148.828a1.276,1.276,0,0,1-.9-.365,1.4,1.4,0,0,0-2.186,0,1.28,1.28,0,1,1-1.791-1.83,3.932,3.932,0,0,1,5.769,0,1.281,1.281,0,0,1-.9,2.2Z" transform="translate(-278.047 -145.373)" fill="#e8ac8d"/>
  </g>
  <g id="Group_54026" data-name="Group 54026" transform="translate(36.852 26.961)">
    <path id="Path_1101" data-name="Path 1101" d="M203.956,148.828a1.276,1.276,0,0,1-.9-.365,1.4,1.4,0,0,0-2.186,0,1.28,1.28,0,1,1-1.791-1.83,3.932,3.932,0,0,1,5.769,0,1.281,1.281,0,0,1-.9,2.2Z" transform="translate(-198.698 -145.373)" fill="#e8ac8d"/>
  </g>
  <path id="Path_1102" data-name="Path 1102" d="M219.927,206.325a2.132,2.132,0,0,0,.076.2,7.264,7.264,0,0,0,1.659,2.309h9.911a7.271,7.271,0,0,0,1.659-2.309,2.124,2.124,0,0,0,.076-.2Z" transform="translate(-179.138 -168.059)" fill="#f6caae"/>
  <path id="Path_1103" data-name="Path 1103" d="M234.236,209.92a7.226,7.226,0,0,0,4.956-1.962,5.886,5.886,0,0,0-9.911,0A7.225,7.225,0,0,0,234.236,209.92Z" transform="translate(-186.756 -167.182)" fill="#eab599"/>
  <path id="Path_1104" data-name="Path 1104" d="M230.8,191.325h-9.357a2.118,2.118,0,0,0-1.942,2.967h13.241A2.118,2.118,0,0,0,230.8,191.325Z" transform="translate(-178.646 -155.841)" fill="#e8ac8d"/>
</svg>
