<svg xmlns="http://www.w3.org/2000/svg" width="18.5" height="18.5" viewBox="0 0 18.5 18.5">
  <g id="document_1_" data-name="document (1)" transform="translate(-0.006)">
    <g id="Group_54192" data-name="Group 54192" transform="translate(0.006)">
      <g id="Group_54191" data-name="Group 54191">
        <path id="Path_8547" data-name="Path 8547" d="M351,204.8h-.389a.292.292,0,0,0,0,.584H351a.292.292,0,1,0,0-.584Z" transform="translate(-337.662 -197.4)" fill="#00aeef"/>
        <path id="Path_8548" data-name="Path 8548" d="M130.779,248.208a.292.292,0,0,0-.292-.292h-6.232a.292.292,0,1,0,0,.584h6.232A.292.292,0,0,0,130.779,248.208Z" transform="translate(-119.484 -238.958)" fill="#00aeef"/>
        <path id="Path_8549" data-name="Path 8549" d="M124.255,409.6a.292.292,0,0,0,0,.584h1.558a.292.292,0,0,0,0-.584Z" transform="translate(-119.484 -394.8)" fill="#00aeef"/>
        <path id="Path_8550" data-name="Path 8550" d="M12.489,15.735a1.071,1.071,0,0,0,1.714,0l4.089-5.453A1.071,1.071,0,1,0,16.578,9l-.214.286V1.071A1.072,1.072,0,0,0,15.293,0H2.83A1.072,1.072,0,0,0,1.759,1.071v.1H1.077A1.072,1.072,0,0,0,.006,2.239V16.261a1.072,1.072,0,0,0,1.071,1.071h.682v.1A1.072,1.072,0,0,0,2.83,18.5H15.293a1.072,1.072,0,0,0,1.071-1.071V14.313a.292.292,0,1,0-.584,0v3.116a.487.487,0,0,1-.487.487H2.83a.487.487,0,0,1-.487-.487V4.966a.292.292,0,0,0-.584,0V16.747H1.077a.487.487,0,0,1-.487-.487V2.239a.487.487,0,0,1,.487-.487h.682V3.8a.292.292,0,0,0,.584,0V1.071A.487.487,0,0,1,2.83.584H15.293a.487.487,0,0,1,.487.487v8.958a.3.3,0,0,0,0,.03l-2.436,3.248-.9-1.194A1.071,1.071,0,1,0,10.736,13.4Zm-1.378-3.048a.487.487,0,0,1,.481-.418.5.5,0,0,1,.07,0,.484.484,0,0,1,.321.19l1.129,1.506a.292.292,0,0,0,.467,0l3.466-4.622a.487.487,0,0,1,.779.584l-4.089,5.453h0a.487.487,0,0,1-.779,0L11.2,13.047A.484.484,0,0,1,11.111,12.686Z" transform="translate(-0.006)" fill="#00aeef"/>
        <path id="Path_8551" data-name="Path 8551" d="M128.831,366.776a.292.292,0,0,0-.292-.292h-4.284a.292.292,0,1,0,0,.584h4.284A.292.292,0,0,0,128.831,366.776Z" transform="translate(-119.484 -353.242)" fill="#00aeef"/>
        <path id="Path_8552" data-name="Path 8552" d="M183.539,140.126a.292.292,0,0,0,0,.584h4.284a.292.292,0,1,0,0-.584Z" transform="translate(-176.626 -135.063)" fill="#00aeef"/>
        <path id="Path_8553" data-name="Path 8553" d="M124.255,205.384h6.232a.292.292,0,1,0,0-.584h-6.232a.292.292,0,1,0,0,.584Z" transform="translate(-119.484 -197.4)" fill="#00aeef"/>
        <path id="Path_8554" data-name="Path 8554" d="M132.823,97.011h-8.568a.292.292,0,1,0,0,.584h8.568a.292.292,0,0,0,0-.584Z" transform="translate(-119.484 -93.506)" fill="#00aeef"/>
        <path id="Path_8555" data-name="Path 8555" d="M351,247.916h-.389a.292.292,0,0,0,0,.584H351a.292.292,0,1,0,0-.584Z" transform="translate(-337.662 -238.958)" fill="#00aeef"/>
      </g>
    </g>
  </g>
</svg>
