<svg xmlns="http://www.w3.org/2000/svg" width="712" height="484.43" viewBox="0 0 712 484.43">
  <g id="Group_55243" data-name="Group 55243" transform="translate(-265.793 -644)">
    <g id="_1" data-name="1" transform="translate(265.793 644)">
      <g id="Group_54632" data-name="Group 54632" transform="translate(0 13.749)">
        <path id="Path_9485" data-name="Path 9485" d="M490.59,494.843a273.769,273.769,0,0,0,59.405-170.7c0-151.862-123.121-274.97-275-274.97S0,172.285,0,324.146a273.772,273.772,0,0,0,59.405,170.7Z" transform="translate(98.025 -25.339)" fill="#e1f5fc"/>
        <circle id="Ellipse_178" data-name="Ellipse 178" cx="23.761" cy="23.761" r="23.761" transform="translate(547.478 47.521) rotate(-89.821)" fill="#e1f5fc"/>
        <g id="Group_55241" data-name="Group 55241" transform="translate(0 250.766)">
          <g id="Group_54686" data-name="Group 54686" transform="translate(34.241)">
            <g id="Group_54683" data-name="Group 54683" transform="translate(0 44.5)">
              <g id="Group_54682" data-name="Group 54682" transform="translate(13.099)">
                <g id="Group_54677" data-name="Group 54677" transform="translate(53.454 45.247)">
                  <g id="Group_54676" data-name="Group 54676">
                    <rect id="Rectangle_9867" data-name="Rectangle 9867" width="45.18" height="58.011" fill="#ffa305"/>
                    <path id="Path_9621" data-name="Path 9621" d="M525.56,575.832v-58h26.526l-.411,58Z" transform="translate(-480.38 -517.83)" fill="#de7f04"/>
                  </g>
                  <rect id="Rectangle_9868" data-name="Rectangle 9868" width="6.755" height="13.2" transform="translate(16.875)" fill="#ffc766"/>
                </g>
                <g id="Group_54678" data-name="Group 54678" transform="translate(32.601 45.247)">
                  <path id="Path_9622" data-name="Path 9622" d="M446.87,575.832v-58h20.853l-.327,58Z" transform="translate(-446.87 -517.83)" fill="#de7f04"/>
                </g>
                <g id="Group_54680" data-name="Group 54680">
                  <g id="Group_54679" data-name="Group 54679">
                    <rect id="Rectangle_9869" data-name="Rectangle 9869" width="33.474" height="45.247" transform="translate(22.464)" fill="#de7f04"/>
                    <path id="Path_9623" data-name="Path 9623" d="M434.386,509.157V463.91H408.02l.344,45.247Z" transform="translate(-408.02 -463.91)" fill="#ffa305"/>
                  </g>
                  <rect id="Rectangle_9870" data-name="Rectangle 9870" width="5.27" height="10.296" transform="translate(37.502)" fill="#ffc766"/>
                </g>
                <g id="Group_54681" data-name="Group 54681" transform="translate(55.72)">
                  <rect id="Rectangle_9871" data-name="Rectangle 9871" width="33.474" height="45.247" transform="translate(22.464)" fill="#ffa305"/>
                  <path id="Path_9624" data-name="Path 9624" d="M496.884,509.157V463.91H474.42l.352,45.247Z" transform="translate(-474.42 -463.91)" fill="#ffa305"/>
                </g>
                <rect id="Rectangle_9872" data-name="Rectangle 9872" width="20.081" height="45.247" transform="translate(91.577)" fill="#de7f04"/>
              </g>
              <rect id="Rectangle_9873" data-name="Rectangle 9873" width="46.8" height="58.011" transform="translate(0 45.247)" fill="#ffa305"/>
              <rect id="Rectangle_9874" data-name="Rectangle 9874" width="6.755" height="13.2" transform="translate(20.022 45.247)" fill="#ffc766"/>
            </g>
            <rect id="Rectangle_9875" data-name="Rectangle 9875" width="5.27" height="10.296" transform="translate(83.874 44.5)" fill="#ffc766"/>
            <g id="Group_54685" data-name="Group 54685" transform="translate(37.955)">
              <g id="Group_54684" data-name="Group 54684">
                <rect id="Rectangle_9876" data-name="Rectangle 9876" width="33.474" height="45.247" transform="translate(22.464)" fill="#de7f04"/>
                <path id="Path_9625" data-name="Path 9625" d="M464.015,456.127V410.88H437.64l.352,45.247Z" transform="translate(-437.64 -410.88)" fill="#ffa305"/>
              </g>
              <rect id="Rectangle_9877" data-name="Rectangle 9877" width="5.27" height="10.296" transform="translate(37.51)" fill="#ffc766"/>
            </g>
          </g>
          <g id="Group_54701" data-name="Group 54701" transform="translate(0 16.061)">
            <g id="Group_54700" data-name="Group 54700">
              <g id="Group_54687" data-name="Group 54687" transform="translate(16.188 175.218)">
                <circle id="Ellipse_182" data-name="Ellipse 182" cx="13.645" cy="13.645" r="13.645" transform="translate(133.045 27.289) rotate(-89.667)" fill="#4d4d4d"/>
                <circle id="Ellipse_183" data-name="Ellipse 183" cx="8.241" cy="8.241" r="8.241" transform="matrix(0.01, -1, 1, 0.01, 138.403, 21.903)" fill="#bdbdbd"/>
                <circle id="Ellipse_184" data-name="Ellipse 184" cx="13.645" cy="13.645" r="13.645" transform="matrix(0.006, -1, 1, 0.006, 99.563, 27.291)" fill="#4d4d4d"/>
                <circle id="Ellipse_185" data-name="Ellipse 185" cx="8.241" cy="8.241" r="8.241" transform="translate(104.985 21.877) rotate(-89.459)" fill="#bdbdbd"/>
                <circle id="Ellipse_186" data-name="Ellipse 186" cx="13.645" cy="13.645" r="13.645" transform="matrix(0.006, -1, 1, 0.006, 25.14, 27.303)" fill="#4d4d4d"/>
                <circle id="Ellipse_187" data-name="Ellipse 187" cx="8.241" cy="8.241" r="8.241" transform="translate(30.556 21.884) rotate(-89.46)" fill="#bdbdbd"/>
                <circle id="Ellipse_188" data-name="Ellipse 188" cx="13.645" cy="13.645" r="13.645" transform="matrix(0.006, -1, 1, 0.006, 0, 27.295)" fill="#4d4d4d"/>
                <circle id="Ellipse_189" data-name="Ellipse 189" cx="8.241" cy="8.241" r="8.241" transform="translate(5.418 21.878) rotate(-89.449)" fill="#bdbdbd"/>
              </g>
              <path id="Path_9626" data-name="Path 9626" d="M544.822,647.669l8.2-4.087V631.54h11.605V645.4l-16.389,8.19C543.118,655.414,540.844,649.5,544.822,647.669Z" transform="translate(-382.357 -462.433)" fill="#4d4d4d"/>
              <path id="Path_9627" data-name="Path 9627" d="M504.922,647.669l8.2-4.087V631.54h11.606V645.4l-16.389,8.19C503.218,655.414,500.944,649.5,504.922,647.669Z" transform="translate(-375.94 -462.433)" fill="#4d4d4d"/>
              <path id="Path_9628" data-name="Path 9628" d="M416.232,647.669l8.2-4.087V631.54h11.606V645.4l-16.389,8.19C414.528,655.414,412.254,649.5,416.232,647.669Z" transform="translate(-361.674 -462.433)" fill="#4d4d4d"/>
              <path id="Path_9629" data-name="Path 9629" d="M386.272,647.669l8.2-4.087V631.54h11.606V645.4l-16.389,8.19C384.568,655.414,382.294,649.5,386.272,647.669Z" transform="translate(-356.856 -462.433)" fill="#4d4d4d"/>
              <g id="Group_54691" data-name="Group 54691" transform="translate(64.664 37.334)">
                <g id="Group_54690" data-name="Group 54690">
                  <g id="Group_54688" data-name="Group 54688">
                    <path id="Path_9630" data-name="Path 9630" d="M446.971,569.544a1.961,1.961,0,0,1-.646-.327,1.468,1.468,0,0,1-.587-.839l-17.06-92.542c-.076-.411.176-.688.629-.688l140.475-.638a1.6,1.6,0,0,1,1.007.445,1.375,1.375,0,0,1,.5.923l.252,93.1a.549.549,0,0,1-.613.545l-123.574.076A2.083,2.083,0,0,1,446.971,569.544Zm-15.835-92.4,16.649,90.528,121.686.017L569.2,476.4Z" transform="translate(-428.664 -474.51)" fill="#4d4d4d"/>
                    <path id="Path_9631" data-name="Path 9631" d="M437.2,513.957l-.638-1.192,134.768-1.485.545,1.124Z" transform="translate(-429.934 -480.424)" fill="#4d4d4d"/>
                    <path id="Path_9632" data-name="Path 9632" d="M444.084,551.474l-.6-1.175,129.054-1.259.529,1.108Z" transform="translate(-431.047 -486.498)" fill="#4d4d4d"/>
                  </g>
                  <g id="Group_54689" data-name="Group 54689" transform="translate(11.874 0.69)">
                    <path id="Path_9633" data-name="Path 9633" d="M460.257,569.166a.537.537,0,0,1-.386-.369l-17.052-92.559c-.034-.168.109-.26.311-.2a.61.61,0,0,1,.428.4l17.035,92.525c.034.16-.109.26-.3.21C460.273,569.174,460.265,569.166,460.257,569.166Z" transform="translate(-442.814 -475.443)" fill="#4d4d4d"/>
                    <path id="Path_9634" data-name="Path 9634" d="M472.775,569.154a.537.537,0,0,1-.386-.369l-15.5-92.626c-.025-.168.117-.252.319-.2a.613.613,0,0,1,.42.4l15.482,92.584c.025.159-.109.252-.31.2A.031.031,0,0,1,472.775,569.154Z" transform="translate(-445.078 -475.431)" fill="#4d4d4d"/>
                    <path id="Path_9635" data-name="Path 9635" d="M485.312,569.133a.533.533,0,0,1-.386-.378l-13.947-92.676c-.025-.168.117-.252.319-.193a.6.6,0,0,1,.411.4l13.938,92.643c.025.159-.118.252-.311.2C485.321,569.142,485.312,569.133,485.312,569.133Z" transform="translate(-447.344 -475.419)" fill="#4d4d4d"/>
                    <path id="Path_9636" data-name="Path 9636" d="M497.861,569.125a.52.52,0,0,1-.378-.378l-12.394-92.727c-.025-.159.117-.243.319-.185a.6.6,0,0,1,.4.4l12.377,92.693c.025.159-.117.243-.31.193Z" transform="translate(-449.613 -475.411)" fill="#4d4d4d"/>
                    <path id="Path_9637" data-name="Path 9637" d="M510.421,569.1a.533.533,0,0,1-.378-.378L499.21,475.942c-.017-.159.126-.243.319-.176a.574.574,0,0,1,.395.4l10.825,92.752c.008.159-.134.243-.327.185Z" transform="translate(-451.885 -475.399)" fill="#4d4d4d"/>
                    <path id="Path_9638" data-name="Path 9638" d="M522.99,569.094a.533.533,0,0,1-.378-.378l-9.273-92.844c-.017-.16.126-.235.327-.176h0a.548.548,0,0,1,.378.4L523.3,568.91c.025.16-.117.243-.31.185Z" transform="translate(-454.158 -475.388)" fill="#4d4d4d"/>
                    <path id="Path_9639" data-name="Path 9639" d="M535.583,569.084h0a.5.5,0,0,1-.369-.386l-7.7-92.895c-.017-.159.134-.235.327-.168h0a.578.578,0,0,1,.378.4l7.7,92.861C535.91,569.058,535.767,569.134,535.583,569.084Z" transform="translate(-456.437 -475.378)" fill="#4d4d4d"/>
                    <path id="Path_9640" data-name="Path 9640" d="M548.184,569.064h0a.516.516,0,0,1-.369-.386l-6.134-92.953c-.008-.159.126-.227.327-.159a.565.565,0,0,1,.369.4l6.126,92.92C548.5,569.039,548.368,569.123,548.184,569.064Z" transform="translate(-458.716 -475.366)" fill="#4d4d4d"/>
                    <path id="Path_9641" data-name="Path 9641" d="M560.8,569.052h-.008a.507.507,0,0,1-.352-.386l-4.565-93.012c-.008-.159.143-.227.327-.159a.537.537,0,0,1,.361.4l4.548,92.979C561.115,569.027,560.972,569.1,560.8,569.052Z" transform="translate(-460.998 -475.355)" fill="#4d4d4d"/>
                    <path id="Path_9642" data-name="Path 9642" d="M573.418,569.032c-.008,0-.008,0-.017-.008a.5.5,0,0,1-.344-.386l-2.987-93.062c-.008-.151.143-.227.327-.151a.541.541,0,0,1,.352.4l2.979,93.037C573.737,569.015,573.6,569.091,573.418,569.032Z" transform="translate(-463.282 -475.343)" fill="#4d4d4d"/>
                    <path id="Path_9643" data-name="Path 9643" d="M586.064,569.022a.029.029,0,0,1-.017-.008.483.483,0,0,1-.336-.386l-1.4-93.121c0-.151.151-.218.336-.143a.542.542,0,0,1,.344.4l1.393,93.088C586.374,569.005,586.24,569.073,586.064,569.022Z" transform="translate(-465.573 -475.333)" fill="#4d4d4d"/>
                  </g>
                </g>
              </g>
              <g id="Group_54695" data-name="Group 54695" transform="translate(0 37.955)">
                <g id="Group_54694" data-name="Group 54694">
                  <g id="Group_54692" data-name="Group 54692">
                    <path id="Path_9644" data-name="Path 9644" d="M369.131,569.689a1.252,1.252,0,0,1-.378-.361,2.46,2.46,0,0,1-.4-.94l-16.724-91.955c-.067-.361.034-.6.243-.613l65.656-.571a.844.844,0,0,1,.545.394,1.97,1.97,0,0,1,.369.814L434.8,569.126c.067.369-.017.613-.218.613l-65.253.017A.518.518,0,0,1,369.131,569.689Zm-16.246-92.1,16.481,90.016,64.112.084-15.919-90.755Z" transform="translate(-351.605 -475.25)" fill="#4d4d4d"/>
                    <path id="Path_9645" data-name="Path 9645" d="M359.083,515.494l-.4-1.133,65.337-1.4.453,1.066Z" transform="translate(-352.743 -481.315)" fill="#4d4d4d"/>
                    <path id="Path_9646" data-name="Path 9646" d="M365.829,552.937l-.419-1.208,65.152-1.259.47,1.141Z" transform="translate(-353.826 -487.349)" fill="#4d4d4d"/>
                  </g>
                  <g id="Group_54693" data-name="Group 54693" transform="translate(5.587 0.618)">
                    <path id="Path_9647" data-name="Path 9647" d="M375.942,569.215a.655.655,0,0,1-.252-.419l-17.421-92.014c-.025-.151.034-.227.126-.185a.573.573,0,0,1,.235.361l17.463,92.03c.034.184-.025.285-.134.235A.029.029,0,0,1,375.942,569.215Z" transform="translate(-358.263 -476.083)" fill="#4d4d4d"/>
                    <path id="Path_9648" data-name="Path 9648" d="M382.4,569.2a.656.656,0,0,1-.252-.42l-17.3-92.072c-.025-.151.033-.227.134-.176a.533.533,0,0,1,.227.361l17.345,92.08c.033.176-.025.285-.134.227C382.412,569.213,382.412,569.2,382.4,569.2Z" transform="translate(-359.321 -476.073)" fill="#4d4d4d"/>
                    <path id="Path_9649" data-name="Path 9649" d="M388.885,569.2a.656.656,0,0,1-.252-.419l-17.194-92.123c-.025-.143.034-.218.134-.168a.534.534,0,0,1,.227.361l17.228,92.139c.034.176-.025.277-.134.227C388.885,569.205,388.885,569.205,388.885,569.2Z" transform="translate(-360.381 -476.065)" fill="#4d4d4d"/>
                    <path id="Path_9650" data-name="Path 9650" d="M395.367,569.2a.678.678,0,0,1-.252-.42l-17.077-92.181c-.025-.143.034-.218.134-.168a.534.534,0,0,1,.227.361l17.11,92.2c.034.168-.025.269-.143.21Z" transform="translate(-361.443 -476.055)" fill="#4d4d4d"/>
                    <path id="Path_9651" data-name="Path 9651" d="M401.86,569.185a.677.677,0,0,1-.252-.428l-16.959-92.232c-.025-.143.034-.218.134-.159a.555.555,0,0,1,.227.361L402,568.975c.025.176-.034.269-.143.21Z" transform="translate(-362.506 -476.045)" fill="#4d4d4d"/>
                    <path id="Path_9652" data-name="Path 9652" d="M408.354,569.175a.644.644,0,0,1-.252-.428l-16.833-92.29c-.025-.143.034-.21.134-.151h0a.577.577,0,0,1,.227.361l16.875,92.307c.025.168-.042.26-.151.2Z" transform="translate(-363.571 -476.035)" fill="#4d4d4d"/>
                    <path id="Path_9653" data-name="Path 9653" d="M414.855,569.166h0a.734.734,0,0,1-.26-.428L397.879,476.4c-.025-.143.034-.21.134-.151h0a.576.576,0,0,1,.227.361L415,568.973C415.031,569.141,414.964,569.224,414.855,569.166Z" transform="translate(-364.634 -476.025)" fill="#4d4d4d"/>
                    <path id="Path_9654" data-name="Path 9654" d="M421.378,569.156h0a.7.7,0,0,1-.26-.428l-16.6-92.4c-.025-.143.034-.2.134-.143a.576.576,0,0,1,.227.361l16.64,92.416C421.545,569.131,421.478,569.223,421.378,569.156Z" transform="translate(-365.702 -476.015)" fill="#4d4d4d"/>
                    <path id="Path_9655" data-name="Path 9655" d="M427.89,569.147h0a.741.741,0,0,1-.26-.436l-16.481-92.442c-.025-.134.033-.2.134-.134a.535.535,0,0,1,.218.361l16.523,92.475C428.058,569.13,428,569.214,427.89,569.147Z" transform="translate(-366.768 -476.006)" fill="#4d4d4d"/>
                    <path id="Path_9656" data-name="Path 9656" d="M434.423,569.144a.008.008,0,0,1-.008-.009.725.725,0,0,1-.252-.428L417.8,476.2c-.025-.134.034-.2.134-.134a.59.59,0,0,1,.218.361l16.406,92.534C434.582,569.119,434.523,569.2,434.423,569.144Z" transform="translate(-367.838 -475.995)" fill="#4d4d4d"/>
                    <path id="Path_9657" data-name="Path 9657" d="M440.955,569.136l-.008-.008a.726.726,0,0,1-.252-.428l-16.246-92.559c-.025-.134.034-.193.134-.126a.614.614,0,0,1,.218.361l16.28,92.584C441.115,569.119,441.056,569.195,440.955,569.136Z" transform="translate(-368.908 -475.987)" fill="#4d4d4d"/>
                  </g>
                </g>
              </g>
              <g id="Group_54699" data-name="Group 54699" transform="translate(140.806 37.133)">
                <g id="Group_54698" data-name="Group 54698">
                  <g id="Group_54696" data-name="Group 54696">
                    <path id="Path_9658" data-name="Path 9658" d="M521.389,569.5a.937.937,0,0,1-.31-.369,2.233,2.233,0,0,1-.243-.948L519.4,475.428c-.008-.369.134-.613.344-.613l65.186-.545c.151,0,.327.151.47.394a1.72,1.72,0,0,1,.235.822l.957,93.465c0,.378-.118.613-.319.613l-64.7-.008A.3.3,0,0,1,521.389,569.5Zm-.94-92.895,1.511,90.788,63.549.117-.831-91.544Z" transform="translate(-519.399 -474.27)" fill="#4d4d4d"/>
                    <path id="Path_9659" data-name="Path 9659" d="M520.348,514.836l-.218-1.141,65.009-1.385.269,1.082Z" transform="translate(-519.517 -480.388)" fill="#4d4d4d"/>
                    <path id="Path_9660" data-name="Path 9660" d="M520.868,552.607l-.218-1.225,64.808-1.242.277,1.158Z" transform="translate(-519.601 -486.473)" fill="#4d4d4d"/>
                  </g>
                  <g id="Group_54697" data-name="Group 54697" transform="translate(5.505 0.618)">
                    <path id="Path_9661" data-name="Path 9661" d="M528.251,569.022a.547.547,0,0,1-.176-.419l-2.115-92.811c0-.151.067-.235.159-.185a.439.439,0,0,1,.168.361l2.157,92.827c.008.185-.076.294-.176.235A.03.03,0,0,1,528.251,569.022Z" transform="translate(-525.96 -475.101)" fill="#4d4d4d"/>
                    <path id="Path_9662" data-name="Path 9662" d="M534.663,569.012a.546.546,0,0,1-.176-.419l-2-92.869c0-.151.067-.227.159-.176a.438.438,0,0,1,.168.361l2.031,92.878c0,.185-.076.285-.176.235A.008.008,0,0,1,534.663,569.012Z" transform="translate(-527.01 -475.091)" fill="#4d4d4d"/>
                    <path id="Path_9663" data-name="Path 9663" d="M541.078,569.012a.567.567,0,0,1-.176-.428l-1.871-92.92c0-.151.067-.227.159-.168a.451.451,0,0,1,.168.361l1.9,92.937c.008.176-.076.277-.185.218Z" transform="translate(-528.062 -475.082)" fill="#4d4d4d"/>
                    <path id="Path_9664" data-name="Path 9664" d="M547.512,569a.538.538,0,0,1-.176-.428l-1.745-92.978c0-.143.067-.218.159-.168a.451.451,0,0,1,.168.361l1.779,93c0,.185-.084.285-.185.218Z" transform="translate(-529.117 -475.072)" fill="#4d4d4d"/>
                    <path id="Path_9665" data-name="Path 9665" d="M553.944,569a.569.569,0,0,1-.185-.428l-1.62-93.029c0-.143.067-.218.159-.159a.492.492,0,0,1,.168.361l1.653,93.046c.008.176-.076.268-.176.21Z" transform="translate(-530.171 -475.064)" fill="#4d4d4d"/>
                    <path id="Path_9666" data-name="Path 9666" d="M560.388,568.993a.569.569,0,0,1-.185-.428l-1.494-93.088c0-.143.067-.21.159-.151h0a.491.491,0,0,1,.168.361l1.527,93.1c0,.176-.076.268-.176.2Z" transform="translate(-531.228 -475.055)" fill="#4d4d4d"/>
                    <path id="Path_9667" data-name="Path 9667" d="M566.842,568.991h0a.573.573,0,0,1-.185-.436l-1.368-93.138c0-.143.067-.21.151-.151h0a.487.487,0,0,1,.159.361L567,568.79C567.019,568.966,566.943,569.05,566.842,568.991Z" transform="translate(-532.286 -475.045)" fill="#4d4d4d"/>
                    <path id="Path_9668" data-name="Path 9668" d="M573.3,568.981h0a.574.574,0,0,1-.185-.436l-1.242-93.2c0-.143.067-.2.159-.143a.5.5,0,0,1,.159.361l1.275,93.222C573.473,568.956,573.4,569.048,573.3,568.981Z" transform="translate(-533.344 -475.035)" fill="#4d4d4d"/>
                    <path id="Path_9669" data-name="Path 9669" d="M579.772,568.982h0a.6.6,0,0,1-.185-.436L578.48,475.3c0-.134.067-.2.151-.143a.5.5,0,0,1,.159.361l1.15,93.272C579.94,568.957,579.865,569.041,579.772,568.982Z" transform="translate(-534.408 -475.027)" fill="#4d4d4d"/>
                    <path id="Path_9670" data-name="Path 9670" d="M586.247,568.97a.008.008,0,0,1-.008-.009.583.583,0,0,1-.176-.436l-.982-93.306c0-.134.067-.2.151-.134a.518.518,0,0,1,.159.361l1.024,93.331C586.406,568.953,586.339,569.028,586.247,568.97Z" transform="translate(-535.469 -475.015)" fill="#4d4d4d"/>
                    <path id="Path_9671" data-name="Path 9671" d="M592.721,568.97l-.008-.009a.633.633,0,0,1-.176-.436l-.856-93.364c0-.134.067-.193.151-.126a.518.518,0,0,1,.159.361l.89,93.39C592.888,568.953,592.813,569.028,592.721,568.97Z" transform="translate(-536.531 -475.007)" fill="#4d4d4d"/>
                  </g>
                </g>
              </g>
              <path id="Path_9672" data-name="Path 9672" d="M598.424,562.755a1.966,1.966,0,0,0,1.964-1.964v-115.8a9.193,9.193,0,0,1,9.181-9.18h27.683a1.964,1.964,0,1,0,0-3.927H609.568a13.126,13.126,0,0,0-13.108,13.108v115.8A1.966,1.966,0,0,0,598.424,562.755Z" transform="translate(-390.989 -430.319)" fill="#4d4d4d"/>
              <path id="Path_9673" data-name="Path 9673" d="M522.074,562.755a1.966,1.966,0,0,0,1.964-1.964v-115.8a9.193,9.193,0,0,1,9.18-9.18H560.9a1.964,1.964,0,1,0,0-3.927H533.218a13.126,13.126,0,0,0-13.108,13.108v115.8A1.966,1.966,0,0,0,522.074,562.755Z" transform="translate(-378.708 -430.319)" fill="#4d4d4d"/>
              <path id="Path_9674" data-name="Path 9674" d="M443.55,624.669H555.729a18.419,18.419,0,1,0,0-36.839h-119.4a1.964,1.964,0,0,0,0,3.927h119.4a14.5,14.5,0,1,1,0,28.993H443.55a1.959,1.959,0,1,0,0,3.919Z" transform="translate(-364.918 -455.403)" fill="#4d4d4d"/>
              <path id="Path_9675" data-name="Path 9675" d="M389.89,624.669H502.069a18.419,18.419,0,1,0,0-36.839h-119.4a1.964,1.964,0,0,0,0,3.927h119.4a14.5,14.5,0,1,1,0,28.993H389.89a1.959,1.959,0,1,0,0,3.919Z" transform="translate(-356.287 -455.403)" fill="#4d4d4d"/>
              <path id="Path_9676" data-name="Path 9676" d="M565.609,437.018h60.755a3.5,3.5,0,0,0,3.5-3.5h0a3.5,3.5,0,0,0-3.5-3.5H565.609a3.5,3.5,0,0,0-3.5,3.5h0A3.5,3.5,0,0,0,565.609,437.018Z" transform="translate(-385.464 -430.02)" fill="#4d4d4d"/>
            </g>
          </g>
        </g>
      </g>
      <g id="Group_54655" data-name="Group 54655" transform="translate(190.947 0)">
        <g id="Group_54634" data-name="Group 54634" transform="translate(60.567)">
          <path id="Path_9491" data-name="Path 9491" d="M434.409,23.808C430.77,2.25,397.567-7.482,398.218,6.588l-152.2.891c-10.542.062-19.09,9.545-19.1,21.192L226.6,428.93c-.009,12.066,8.687,21.931,19.432,22.023l155.377,1.333a12.435,12.435,0,0,0,5.613,5.406c17.819.38,26.365-8.419,29.488-18.367a23.952,23.952,0,0,0,1.545-8.731c-.622-5.211-2.516-401.731-3.643-406.786Z" transform="translate(-206.897 0)" fill="#4d4d4d"/>
          <g id="Group_54633" data-name="Group 54633" transform="translate(0 0.057)">
            <path id="Path_9492" data-name="Path 9492" d="M399.283,457.773l-178.35-1.149c-11.13-.072-20.132-10.2-20.111-22.619l.669-411.631C201.511,10.4,210.37.678,221.285.642L396.17.075c11-.036,20,9.675,20.089,21.7l3.17,413.534c.1,12.473-8.926,22.536-20.145,22.464Z" transform="translate(-200.822 -0.074)" fill="#4d4d4d"/>
            <path id="Path_9493" data-name="Path 9493" d="M402.674,455.625a16.079,16.079,0,0,1-2.253.141l-178.3-1.349c-9.563-.072-17.38-8.955-17.364-19.791l.616-411.179C205.393,13,213.086,4.467,222.467,4.426l174.874-.761c.273,0,.55,0,.822.017a16.548,16.548,0,0,1,11.587,5.639,19.763,19.763,0,0,1,4.927,13.091L417.8,436.365c.074,9.811-6.407,18.091-15.13,19.26Z" transform="translate(-201.75 -0.921)" fill="#0d0d0d"/>
            <path id="Path_9494" data-name="Path 9494" d="M410.372,30.916l2.508,412.512-200.358-1.2.512-411.31Z" transform="translate(-203.579 -7.344)" fill="#fff"/>
          </g>
        </g>
        <g id="Group_54636" data-name="Group 54636" transform="translate(0 21.805)">
          <g id="Group_54635" data-name="Group 54635">
            <path id="Path_9495" data-name="Path 9495" d="M292.43,116.781l22.136-.18L385.71,29.006l-22.235.182Z" transform="translate(-161.846 -28.641)" fill="#8dde34"/>
            <path id="Path_9496" data-name="Path 9496" d="M321.392,116.545l22.121-.181,71.259-87.6-22.236.182Z" transform="translate(-168.672 -28.585)" fill="#f1e3e0"/>
            <path id="Path_9497" data-name="Path 9497" d="M350.335,116.307l22.137-.18,71.342-87.6-22.22.182Z" transform="translate(-175.494 -28.529)" fill="#ff3bab"/>
            <path id="Path_9498" data-name="Path 9498" d="M263.489,117.019l22.12-.181,71.045-87.593-22.218.182Z" transform="translate(-155.025 -28.698)" fill="#f1e3e0"/>
            <path id="Path_9499" data-name="Path 9499" d="M205.587,117.493l22.12-.181,70.847-87.59-22.218.182Z" transform="translate(-141.378 -28.81)" fill="#f1e3e0"/>
            <path id="Path_9500" data-name="Path 9500" d="M121.577,118.186l19.957-.163,70.549-87.585-20.029.164Z" transform="translate(-121.577 -28.979)" fill="#ff3bab"/>
            <path id="Path_9501" data-name="Path 9501" d="M147.688,117.967l22.118-.181L240.455,30.2l-22.218.182Z" transform="translate(-127.731 -28.923)" fill="#f1e3e0"/>
            <path id="Path_9502" data-name="Path 9502" d="M234.528,117.255l22.135-.18,70.946-87.592-22.234.182Z" transform="translate(-148.199 -28.754)" fill="#ffc800"/>
            <path id="Path_9503" data-name="Path 9503" d="M176.627,117.729l22.134-.18,70.748-87.588-22.234.182Z" transform="translate(-134.552 -28.866)" fill="#12b5ff"/>
          </g>
          <path id="Path_9504" data-name="Path 9504" d="M350.333,143.32l-.008,13.334c-.008,14.129,22.1,13.949,22.122-.181l.023-13.335Z" transform="translate(-175.491 -55.542)" fill="#e23196"/>
          <path id="Path_9505" data-name="Path 9505" d="M321.392,143.557l.007,13.334c.007,14.129,22.1,13.949,22.106-.18l.008-13.334-22.121.181Z" transform="translate(-168.672 -55.598)" fill="#f1c5bc"/>
          <path id="Path_9506" data-name="Path 9506" d="M292.43,143.793l.022,13.334c.023,14.129,22.129,13.949,22.121-.181l-.007-13.334Z" transform="translate(-161.846 -55.653)" fill="#7fc92d"/>
          <path id="Path_9507" data-name="Path 9507" d="M263.489,144.03l.037,13.334c.039,14.129,22.128,13.949,22.105-.18l-.022-13.334Z" transform="translate(-155.025 -55.709)" fill="#f1c5bc"/>
          <path id="Path_9508" data-name="Path 9508" d="M234.528,144.266l.052,13.333c.055,14.128,22.159,13.948,22.12-.181l-.037-13.334Z" transform="translate(-148.199 -55.765)" fill="#dbb428"/>
          <path id="Path_9509" data-name="Path 9509" d="M205.587,144.5l.067,13.333c.071,14.128,22.159,13.948,22.1-.18l-.052-13.333-22.119.181Z" transform="translate(-141.378 -55.821)" fill="#f1c5bc"/>
          <path id="Path_9510" data-name="Path 9510" d="M176.627,144.739l.082,13.333c.087,14.128,22.19,13.948,22.12-.181l-.067-13.333-22.135.181Z" transform="translate(-134.552 -55.876)" fill="#129ad8"/>
          <path id="Path_9511" data-name="Path 9511" d="M147.688,144.976l.1,13.333c.1,14.128,22.19,13.947,22.1-.18l-.082-13.333-22.118.181Z" transform="translate(-127.731 -55.932)" fill="#f1c5bc"/>
          <path id="Path_9512" data-name="Path 9512" d="M121.577,145.195l.11,13.332c.117,14.127,20.046,13.965,19.943-.163l-.1-13.333-19.957.163Z" transform="translate(-121.577 -55.988)" fill="#e23196"/>
          <path id="Path_9513" data-name="Path 9513" d="M378.764,116.127l-1.733.24,73.172-.648-.1-87.19Z" transform="translate(-181.786 -28.529)" fill="#f1e3e0"/>
        </g>
        <g id="Group_54654" data-name="Group 54654" transform="translate(69.51 143.884)">
          <path id="Path_9514" data-name="Path 9514" d="M403.245,410.236l-175.234-.177v-2.318l175.234.187Z" transform="translate(-216.173 -239.986)" fill="#04f2f5"/>
          <path id="Path_9515" data-name="Path 9515" d="M403.245,495l-175.234-.177v-2.317l175.234.186Z" transform="translate(-216.173 -259.965)" fill="#04f2f5"/>
          <path id="Path_9516" data-name="Path 9516" d="M403.245,323.643l-175.234-.219v-1.91l175.234.227Z" transform="translate(-216.173 -219.663)" fill="#04f2f5"/>
          <g id="Group_54638" data-name="Group 54638" transform="translate(18.413)">
            <path id="Path_9517" data-name="Path 9517" d="M389.617,208.2l-143.626-.841a9.548,9.548,0,0,1-9.378-9.613,9.4,9.4,0,0,1,9.378-9.5l143.626.945a9.472,9.472,0,0,1,9.271,9.56A9.331,9.331,0,0,1,389.617,208.2ZM245.991,188.89a8.781,8.781,0,0,0-8.755,8.865,8.914,8.914,0,0,0,8.755,8.974l143.626.845a8.711,8.711,0,0,0,8.655-8.818,8.843,8.843,0,0,0-8.655-8.925Z" transform="translate(-236.613 -188.255)" fill="#04f2f5"/>
            <path id="Path_9518" data-name="Path 9518" d="M432.191,189.873l-14.943-.1v18.385l14.943.088a9.011,9.011,0,0,0,8.963-9.132A9.147,9.147,0,0,0,432.191,189.873Z" transform="translate(-279.187 -188.613)" fill="#04f2f5"/>
            <g id="Group_54637" data-name="Group 54637" transform="translate(142.824 3.562)">
              <path id="Path_9519" data-name="Path 9519" d="M428.124,202.433a4.589,4.589,0,0,1-3.285-1.414,4.847,4.847,0,0,1,0-6.731,4.531,4.531,0,0,1,3.285-1.373,4.589,4.589,0,0,1,3.284,1.415h0a4.847,4.847,0,0,1,0,6.729,4.531,4.531,0,0,1-3.284,1.374Zm0-8.37a3.438,3.438,0,0,0-2.493,1.042,3.678,3.678,0,0,0,0,5.107,3.482,3.482,0,0,0,2.493,1.073,3.437,3.437,0,0,0,2.492-1.042,3.678,3.678,0,0,0,0-5.106,3.482,3.482,0,0,0-2.492-1.074Z" transform="translate(-423.48 -192.915)" fill="#4489c8"/>
              <path id="Path_9520" data-name="Path 9520" d="M436.337,206.975l-3.521-3.66.792-.807,3.52,3.66Z" transform="translate(-425.681 -195.176)" fill="#4489c8"/>
              <path id="Path_9521" data-name="Path 9521" d="M438.13,208.022h0a.991.991,0,0,1-1.426-.009l-2.949-3.04,1.426-1.453,2.949,3.04A1.051,1.051,0,0,1,438.13,208.022Z" transform="translate(-425.902 -195.414)" fill="#4489c8"/>
            </g>
          </g>
          <path id="Path_9522" data-name="Path 9522" d="M285.761,295.177l-49.148-.232V244.753l49.148.287Z" transform="translate(-218.2 -201.571)" fill="#04f2f5"/>
          <path id="Path_9523" data-name="Path 9523" d="M360.644,295.551l-49.023-.232V245.192l49.023.287Z" transform="translate(-235.879 -201.674)" fill="#f1e3e0"/>
          <path id="Path_9524" data-name="Path 9524" d="M433.666,295.915l-48.9-.231V245.619l48.9.286Z" transform="translate(-253.119 -201.775)" fill="#f1e3e0"/>
          <path id="Path_9525" data-name="Path 9525" d="M285.761,383.263l-49.148-.158V332.913l49.148.213Z" transform="translate(-218.2 -222.35)" fill="#f1e3e0"/>
          <path id="Path_9526" data-name="Path 9526" d="M360.644,383.524l-49.023-.157V333.239l49.023.212Z" transform="translate(-235.879 -222.427)" fill="#f1e3e0"/>
          <path id="Path_9527" data-name="Path 9527" d="M433.666,383.778l-48.9-.158V333.556l48.9.212Z" transform="translate(-253.119 -222.501)" fill="#f1e3e0"/>
          <path id="Path_9528" data-name="Path 9528" d="M285.761,469.814l-49.148-.085V419.537l49.148.14Z" transform="translate(-218.2 -242.766)" fill="#f1e3e0"/>
          <path id="Path_9529" data-name="Path 9529" d="M360.644,469.964l-49.023-.085V419.751l49.023.14Z" transform="translate(-235.879 -242.817)" fill="#f1e3e0"/>
          <path id="Path_9530" data-name="Path 9530" d="M433.666,470.109l-48.9-.085V419.96l48.9.14Z" transform="translate(-253.119 -242.866)" fill="#f1e3e0"/>
          <g id="Group_54643" data-name="Group 54643" transform="translate(27.397 53.713)">
            <path id="Path_9531" data-name="Path 9531" d="M277.425,286l-1.095-.335c.023-.08,1.921-8.389,2.073-11.551a13.051,13.051,0,0,0-3.37-9.75,15.61,15.61,0,0,0-11.405-4.668,14.392,14.392,0,0,0-10.825,4.228,13.25,13.25,0,0,0-3.263,10.035c.175,3.191,1.772,11.22,1.789,11.3l-1.12.227c-.066-.333-1.631-8.193-1.81-11.469a14.393,14.393,0,0,1,3.574-10.9,15.5,15.5,0,0,1,11.656-4.588,16.748,16.748,0,0,1,12.232,5.035,14.21,14.21,0,0,1,3.684,10.612A100.668,100.668,0,0,1,277.425,286Z" transform="translate(-248.368 -258.532)" fill="#03abb0"/>
            <g id="Group_54640" data-name="Group 54640" transform="translate(1.879 17.515)">
              <g id="Group_54639" data-name="Group 54639" transform="translate(0 1.401)">
                <path id="Path_9532" data-name="Path 9532" d="M250.856,286.1l1.493,8.125a1.724,1.724,0,0,0,1.792,1.425l-2.1-11.534a1.736,1.736,0,0,0-1.185,1.983Z" transform="translate(-250.826 -283.479)" fill="#03abb0"/>
                <path id="Path_9533" data-name="Path 9533" d="M254.717,295.433l3.211-.6-2.122-11.553-3.211.6a1.7,1.7,0,0,0-.179.044l2.1,11.534A1.7,1.7,0,0,0,254.717,295.433Z" transform="translate(-251.201 -283.281)" fill="#03abb0"/>
              </g>
              <path id="Path_9534" data-name="Path 9534" d="M259.49,295.54h0a1.819,1.819,0,0,1-2.109-1.482l-1.917-10.435a1.831,1.831,0,0,1,1.443-2.144h0a1.82,1.82,0,0,1,2.109,1.483l1.917,10.434A1.831,1.831,0,0,1,259.49,295.54Z" transform="translate(-251.912 -281.448)" fill="#fff"/>
            </g>
            <g id="Group_54642" data-name="Group 54642" transform="translate(19.895 17.583)">
              <g id="Group_54641" data-name="Group 54641" transform="translate(2.306 1.427)">
                <path id="Path_9535" data-name="Path 9535" d="M285.37,286.426l-1.69,8.064a1.7,1.7,0,0,1-1.824,1.36l2.381-11.448A1.756,1.756,0,0,1,285.37,286.426Z" transform="translate(-278.462 -283.639)" fill="#03abb0"/>
                <path id="Path_9536" data-name="Path 9536" d="M280.608,295.584l-3.192-.712,2.4-11.468,3.192.713a1.718,1.718,0,0,1,.178.05l-2.381,11.448a1.669,1.669,0,0,1-.2-.031Z" transform="translate(-277.415 -283.404)" fill="#03abb0"/>
              </g>
              <path id="Path_9537" data-name="Path 9537" d="M275.827,295.539h0a1.8,1.8,0,0,0,2.143-1.406l2.171-10.358a1.854,1.854,0,0,0-1.388-2.195h0a1.8,1.8,0,0,0-2.143,1.406l-2.172,10.359A1.853,1.853,0,0,0,275.827,295.539Z" transform="translate(-274.398 -281.537)" fill="#fff"/>
            </g>
          </g>
          <g id="Group_54644" data-name="Group 54644" transform="translate(27.492 191.27)">
            <path id="Path_9538" data-name="Path 9538" d="M283.018,463.817c-.25-5.049-11.546-8.23-11.546-8.23s-10.339-11.377-14.663-17.08c-7.36,2.87-9.115,6.428-8.018,12.622,3.587-3.046,9.706,2.553,17.143,12.653l17.083.034Z" transform="translate(-248.492 -438.508)" fill="#7fc92d"/>
            <path id="Path_9539" data-name="Path 9539" d="M248.884,454.493l2.454,13.165,1.184,0c.328-5.924,1.067-12.639,4.988-10.49C257.509,451.886,248.884,451.866,248.884,454.493Z" transform="translate(-248.585 -441.871)" fill="#7fc92d"/>
          </g>
          <g id="Group_54646" data-name="Group 54646" transform="translate(141.915 116.389)">
            <g id="Group_54645" data-name="Group 54645">
              <path id="Path_9540" data-name="Path 9540" d="M416.856,342.606a8.906,8.906,0,0,1-.429-2.042l-.55,0a7.658,7.658,0,0,1-.247,1.641,3.24,3.24,0,0,1-2.752,2.592,3.276,3.276,0,0,1-2.752-2.615,7.681,7.681,0,0,1-.247-1.643l-.55,0a8.863,8.863,0,0,1-.43,2.038,10.7,10.7,0,0,1-2.626,4.08l.877,8.229,5.488.021.479,0,5.487.021.876-8.22a10.813,10.813,0,0,1-2.624-4.1Z" transform="translate(-400.103 -340.535)" fill="#129ad8"/>
              <path id="Path_9541" data-name="Path 9541" d="M423.743,380.91c-2.44,2.5-22.506,2.683-25.543-.087,1.37-7.782,3.163-15.3,7.045-21.517l11.46.045c3.472,5.391,5.454,13.158,7.039,21.559Z" transform="translate(-398.2 -344.959)" fill="#129ad8"/>
            </g>
            <path id="Path_9542" data-name="Path 9542" d="M414.063,361.176c-4.641-.018-6.838-2-6.929-2.088a.177.177,0,0,1-.012-.246.169.169,0,0,1,.241-.012c.022.02,2.2,1.98,6.7,2h.007c4.006.013,4.558-1.634,4.563-1.65a.17.17,0,0,1,.213-.115.175.175,0,0,1,.115.215c-.022.078-.6,1.914-4.891,1.9h-.007Z" transform="translate(-400.293 -344.836)" fill="#4489c8"/>
            <path id="Path_9543" data-name="Path 9543" d="M415.427,364.872a.477.477,0,0,1-.372-.212c-.838-1.049,1.252-3.026,1.494-3.248l.375-.345-.092.507c-.131.725-.614,3.106-1.305,3.284A.386.386,0,0,1,415.427,364.872Zm.957-2.806c-.649.694-1.5,1.827-1.065,2.375.034.042.083.093.122.081C415.727,364.447,416.121,363.276,416.384,362.065Z" transform="translate(-402.126 -345.374)" fill="#4489c8"/>
            <path id="Path_9544" data-name="Path 9544" d="M416.983,360.982l.01-.427c0-.1.069-2.563,1.013-3.385a1.056,1.056,0,0,1,.867-.263.61.61,0,0,1,.558.4c.292.9-1.738,2.971-2.148,3.377Zm1.735-3.738a.72.72,0,0,0-.49.191,4.646,4.646,0,0,0-.866,2.672c.858-.906,1.9-2.215,1.743-2.691-.011-.032-.043-.131-.278-.164A.789.789,0,0,0,418.718,357.244Z" transform="translate(-402.627 -344.391)" fill="#4489c8"/>
            <path id="Path_9545" data-name="Path 9545" d="M420.414,364.609a.172.172,0,0,1-.154-.1,5.364,5.364,0,0,0-3.136-2.707.176.176,0,0,1-.122-.213.17.17,0,0,1,.209-.124,5.635,5.635,0,0,1,3.358,2.893.176.176,0,0,1-.079.233A.17.17,0,0,1,420.414,364.609Z" transform="translate(-402.63 -345.467)" fill="#4489c8"/>
          </g>
          <g id="Group_54648" data-name="Group 54648" transform="translate(87.649 49.894)">
            <g id="Group_54647" data-name="Group 54647">
              <path id="Path_9546" data-name="Path 9546" d="M345.856,255.606a8.908,8.908,0,0,1-.43-2.042l-.549,0a7.647,7.647,0,0,1-.247,1.641,3.24,3.24,0,0,1-2.752,2.592,3.275,3.275,0,0,1-2.752-2.615,7.681,7.681,0,0,1-.247-1.643l-.55,0a8.863,8.863,0,0,1-.43,2.038,10.7,10.7,0,0,1-2.626,4.08l.876,8.229,5.488.021.479,0,5.487.021.876-8.219A10.812,10.812,0,0,1,345.856,255.606Z" transform="translate(-329.103 -253.535)" fill="#ffc800"/>
              <path id="Path_9547" data-name="Path 9547" d="M352.743,293.91c-2.44,2.5-22.506,2.683-25.543-.087,1.37-7.782,3.163-15.3,7.045-21.517l11.46.044c3.472,5.391,5.454,13.159,7.039,21.559Z" transform="translate(-327.2 -257.959)" fill="#ffc800"/>
            </g>
            <path id="Path_9548" data-name="Path 9548" d="M343.063,274.176c-4.641-.018-6.838-2-6.929-2.088a.177.177,0,0,1-.012-.246.168.168,0,0,1,.241-.012c.022.02,2.2,1.98,6.7,2h.007c4.006.013,4.558-1.634,4.563-1.65a.17.17,0,0,1,.213-.115.175.175,0,0,1,.115.215c-.022.078-.6,1.914-4.891,1.9h-.007Z" transform="translate(-329.293 -257.836)" fill="#4489c8"/>
            <path id="Path_9549" data-name="Path 9549" d="M344.427,277.872a.477.477,0,0,1-.372-.212c-.838-1.049,1.252-3.026,1.494-3.248l.375-.345-.092.507c-.131.725-.614,3.106-1.305,3.284A.392.392,0,0,1,344.427,277.872Zm.957-2.806c-.649.694-1.5,1.826-1.065,2.375.034.042.083.093.122.081C344.726,277.447,345.121,276.276,345.384,275.065Z" transform="translate(-331.126 -258.374)" fill="#4489c8"/>
            <path id="Path_9550" data-name="Path 9550" d="M345.983,273.982l.01-.427c0-.1.069-2.563,1.013-3.385a1.056,1.056,0,0,1,.867-.263.61.61,0,0,1,.558.4c.292.9-1.738,2.971-2.148,3.377Zm1.735-3.738a.72.72,0,0,0-.489.191,4.645,4.645,0,0,0-.866,2.672c.858-.906,1.9-2.215,1.743-2.691-.01-.032-.043-.131-.278-.164A.8.8,0,0,0,347.718,270.244Z" transform="translate(-331.627 -257.391)" fill="#4489c8"/>
            <path id="Path_9551" data-name="Path 9551" d="M349.414,277.609a.171.171,0,0,1-.154-.1,5.365,5.365,0,0,0-3.137-2.707.176.176,0,0,1-.122-.214.171.171,0,0,1,.208-.124,5.636,5.636,0,0,1,3.358,2.893.176.176,0,0,1-.079.233A.168.168,0,0,1,349.414,277.609Z" transform="translate(-331.63 -258.467)" fill="#4489c8"/>
          </g>
          <g id="Group_54649" data-name="Group 54649" transform="translate(81.608 123.731)">
            <path id="Path_9552" data-name="Path 9552" d="M336.258,350.281a16.169,16.169,0,0,0,8.5-.14c3.234,4-2.463,5.9-6.019,5.035S336.258,350.281,336.258,350.281Z" transform="translate(-323.257 -350.141)" fill="#fff"/>
            <path id="Path_9553" data-name="Path 9553" d="M343.323,350.141a4.1,4.1,0,0,1-1.873,2.65c-2.42,1.425-5.545-.1-6.625-2.51a23.163,23.163,0,0,0-4.8,1.068v27.567l19.037.065V351.426a22.14,22.14,0,0,0-5.742-1.285Z" transform="translate(-321.825 -350.141)" fill="#7fc92d"/>
            <path id="Path_9554" data-name="Path 9554" d="M327.5,351.722l-8.2,6.457,5.394,7.227,8.03-6.086Z" transform="translate(-319.296 -350.513)" fill="#7fc92d"/>
            <path id="Path_9555" data-name="Path 9555" d="M353.407,351.822l8.2,6.518-5.388,7.181-8.033-6.145Z" transform="translate(-326.106 -350.537)" fill="#7fc92d"/>
          </g>
          <g id="Group_54650" data-name="Group 54650" transform="translate(138.167 54.179)">
            <path id="Path_9556" data-name="Path 9556" d="M410.258,259.281a16.169,16.169,0,0,0,8.5-.14c3.234,4-2.463,5.9-6.019,5.035S410.258,259.281,410.258,259.281Z" transform="translate(-397.257 -259.141)" fill="#fff"/>
            <path id="Path_9557" data-name="Path 9557" d="M417.323,259.141a4.1,4.1,0,0,1-1.873,2.65c-2.42,1.425-5.545-.1-6.625-2.51a23.167,23.167,0,0,0-4.8,1.068v27.567l19.037.065V260.426a22.14,22.14,0,0,0-5.742-1.285Z" transform="translate(-395.826 -259.141)" fill="#ff3bab"/>
            <path id="Path_9558" data-name="Path 9558" d="M401.5,260.722l-8.2,6.457,5.394,7.226,8.03-6.086Z" transform="translate(-393.296 -259.513)" fill="#ff3bab"/>
            <path id="Path_9559" data-name="Path 9559" d="M427.407,260.822l8.2,6.518-5.388,7.181-8.033-6.145Z" transform="translate(-400.106 -259.537)" fill="#ff3bab"/>
          </g>
          <g id="Group_54651" data-name="Group 54651" transform="translate(78.37 190.371)">
            <path id="Path_9560" data-name="Path 9560" d="M320.575,456.742a39.018,39.018,0,0,0,6.95,1.271,105.41,105.41,0,0,0,14.894.5c4.694-.187,8.614-.739,10.09-1.7,0,0,3.134-19-15.331-19.469-.207-.006-.418-.009-.63-.009C317.369,437.283,320.575,456.742,320.575,456.742Z" transform="translate(-316.312 -437.332)" fill="#ffc800"/>
            <path id="Path_9561" data-name="Path 9561" d="M329.7,458.013a105.4,105.4,0,0,0,14.894.5c2.608-17.259-4.842-20.982-5.242-21.17l-.016-.008-.614,0c-9.729,5.53-9.255,17.926-9.022,20.681Z" transform="translate(-318.49 -437.331)" fill="#fff"/>
            <path id="Path_9562" data-name="Path 9562" d="M349.261,463.518s-5.222,8.866-29.463,6.812c-10.377-.879-.475-7.6-.475-7.6,6.533,1.608,19.113,2.37,29.938.79Z" transform="translate(-315.06 -443.317)" fill="#129ad8"/>
          </g>
          <g id="Group_54653" data-name="Group 54653" transform="translate(138.624 190.519)">
            <g id="Group_54652" data-name="Group 54652">
              <path id="Path_9563" data-name="Path 9563" d="M405.56,444.3l11.169.027a11.707,11.707,0,0,1,11.623,11.751c-.015,2.6-.825,4.9-2.779,6.1l-29.446-.06c-1.86-.888-2.577-3.973-2.082-7.665A11.644,11.644,0,0,1,405.56,444.3Z" transform="translate(-393.894 -439.122)" fill="#ff3bab"/>
              <path id="Path_9564" data-name="Path 9564" d="M410.925,443.01l.008-.1a4.245,4.245,0,0,1,8.467.021l.008.1,1.441,0-.019-.224a5.679,5.679,0,0,0-11.329-.028l-.019.224Z" transform="translate(-397.568 -437.525)" fill="#ff3bab"/>
            </g>
            <path id="Path_9565" data-name="Path 9565" d="M414.3,464.239l-2.762-.006V453.179l2.762.007Z" transform="translate(-398.052 -441.214)" fill="#fff"/>
            <path id="Path_9566" data-name="Path 9566" d="M421.453,464.254l-2.761-.005V453.2l2.761.006Z" transform="translate(-399.738 -441.218)" fill="#fff"/>
          </g>
          <rect id="Rectangle_9860" data-name="Rectangle 9860" width="200.358" height="22.001" transform="translate(0 270.255)" fill="#e4e4e4"/>
          <path id="Path_9567" data-name="Path 9567" d="M352.646,560.85H340.573v-8.721l6.036-4.6,6.036,4.6Z" transform="translate(-242.703 -272.933)" fill="#fff"/>
          <rect id="Rectangle_9861" data-name="Rectangle 9861" width="14.957" height="7.968" transform="translate(23.502 277.272)" fill="#fff"/>
          <rect id="Rectangle_9862" data-name="Rectangle 9862" width="14.957" height="7.968" transform="translate(170.992 277.272)" fill="#fff"/>
        </g>
      </g>
      <rect id="Rectangle_9863" data-name="Rectangle 9863" width="207.056" height="16.205" transform="translate(289.132 452.02)" fill="#0d0d0d"/>
      <rect id="Rectangle_9864" data-name="Rectangle 9864" width="236.32" height="16.205" transform="translate(198.739 452.02)" fill="#4d4d4d"/>
      <rect id="Rectangle_9865" data-name="Rectangle 9865" width="271.094" height="16.205" transform="translate(151.21 468.225)" fill="#4d4d4d"/>
      <rect id="Rectangle_9866" data-name="Rectangle 9866" width="95.05" height="16.205" transform="translate(401.137 468.225)" fill="#0d0d0d"/>
      <g id="Group_54668" data-name="Group 54668" transform="translate(178.98 169.296)">
        <g id="Group_54666" data-name="Group 54666" transform="translate(0 12.556)">
          <g id="Group_54658" data-name="Group 54658" transform="translate(83.454 86.85)">
            <path id="Path_9568" data-name="Path 9568" d="M239.195,388.751c-5.179,15.179-1.991,47.373-9.377,68.6-11.461,32.934-5.768,47.45-11,72.851l12.07.915C242.1,481.249,267.206,410.641,270.3,394.582s-26.244-18.215-31.106-5.831Z" transform="translate(-215.983 -358.451)" fill="#014a91"/>
            <path id="Path_9569" data-name="Path 9569" d="M270.186,407.312c.5,5.913,8.552,39.931,3.921,56.172-7.315,25.652-3.5,70.451-3.5,70.451l9.72-.064c9.465-41.59,22.374-102.226,21.345-140.533-1.427-16.1-34.511-21.734-31.487,13.974Z" transform="translate(-227.955 -358.446)" fill="#014a91"/>
            <ellipse id="Ellipse_179" data-name="Ellipse 179" cx="25.784" cy="19.583" rx="25.784" ry="19.583" transform="translate(22.148 15.84)" fill="#014a91"/>
            <g id="Group_54656" data-name="Group 54656" transform="translate(39.624 133.664)">
              <path id="Path_9570" data-name="Path 9570" d="M283.521,589.047a17,17,0,0,0-3.171-1.087l-2.09-9.228L289.124,528.4l-20.7-1.955.052,48.831-1.523,5.644s7.064,10.525,8.682,10.525,7.874.124,8.863.124C284.51,590.944,284.414,589.544,283.521,589.047Z" transform="translate(-266.951 -526.445)" fill="#a64b30"/>
              <path id="Path_9571" data-name="Path 9571" d="M266.951,597.582l1.472,11.157h.667l4.924-11.6Z" transform="translate(-266.951 -543.107)" fill="#a64b30"/>
            </g>
            <g id="Group_54657" data-name="Group 54657" transform="translate(0 131.229)">
              <path id="Path_9572" data-name="Path 9572" d="M231.378,588.3a16.092,16.092,0,0,0-3.1-1.086l-1.522-9.228,13.841-52.6-19.174-2.12-4.24,51.266-2.07,5.2s6.616,10.966,8.234,10.966,7.866.124,8.856.124c.052-.625.042-2.025-.82-2.522Z" transform="translate(-215.108 -523.259)" fill="#a64b30"/>
              <path id="Path_9573" data-name="Path 9573" d="M215.108,597.141l.985,11.6h.666l5.639-11.6Z" transform="translate(-215.108 -540.673)" fill="#a64b30"/>
            </g>
            <path id="Path_9574" data-name="Path 9574" d="M255.2,362.281a46.732,46.732,0,0,0-10.767,22.932s8.4,6.433,23.505,6.49c7.609.029,23.763-1.915,27.718-6.35a118.683,118.683,0,0,0-6.173-25.464C285.581,348.925,260.9,347.87,255.2,362.281Z" transform="translate(-222.019 -351.563)" fill="#014a91"/>
            <path id="Path_9575" data-name="Path 9575" d="M265.69,397.49a54.658,54.658,0,0,0,1.82-11.14L251.983,385a105.558,105.558,0,0,0-1.116,10.733l6.623,4.99,8.2-3.235Z" transform="translate(-223.536 -359.444)" fill="#0d64b8"/>
            <path id="Path_9576" data-name="Path 9576" d="M295.526,398.99a54.663,54.663,0,0,0,1.223-11.221l-15.577-.517a105.557,105.557,0,0,0-.541,10.777l6.879,4.629,8.016-3.668Z" transform="translate(-230.549 -359.974)" fill="#0d64b8"/>
          </g>
          <g id="Group_54665" data-name="Group 54665">
            <path id="Path_9577" data-name="Path 9577" d="M247.279,301.884s-13.395-9.861-39.993,34.192c-3.378,5.6-14.877,32.379-14.877,32.379l6.9,4.509,20.634-29.237S261.281,309.132,247.279,301.884Z" transform="translate(-126.304 -252.782)" fill="#f7a58e"/>
            <g id="Group_54663" data-name="Group 54663" transform="translate(0 119.424)">
              <g id="Group_54660" data-name="Group 54660">
                <path id="Path_9578" data-name="Path 9578" d="M182.318,410.758a.189.189,0,0,1-.093-.316c.074-.077,7.374-7.71,7.036-12.075a2.647,2.647,0,0,0-1.052-1.991c-4.353-3.305-15.491,8.234-15.6,8.351a.189.189,0,0,1-.274-.262c.467-.488,11.486-11.9,16.105-8.39a3.011,3.011,0,0,1,1.2,2.263c.351,4.534-6.835,12.049-7.141,12.367a.189.189,0,0,1-.18.053Z" transform="translate(-121.56 -394.47)" fill="#103558"/>
                <path id="Path_9579" data-name="Path 9579" d="M177.386,407.867a.189.189,0,0,1-.065-.34c.093-.065,9.33-6.574,9.407-10.532a2.04,2.04,0,0,0-.882-1.754c-4.376-3.324-18.06,6.517-18.2,6.617a.19.19,0,0,1-.222-.307c.572-.414,14.051-10.1,18.649-6.612A2.427,2.427,0,0,1,187.107,397c-.081,4.149-9.182,10.564-9.569,10.835A.189.189,0,0,1,177.386,407.867Z" transform="translate(-120.397 -394.182)" fill="#103558"/>
                <g id="Group_54659" data-name="Group 54659" transform="translate(0.068 1.413)">
                  <path id="Path_9580" data-name="Path 9580" d="M145.027,396.031l-39.019,46.323,13.532,8.962,32.6-50.577Z" transform="translate(-106.008 -396.031)" fill="#f05b5b"/>
                  <path id="Path_9581" data-name="Path 9581" d="M157.952,403.632l-34.327,49.431,22.217,14.714,30.14-52.2Z" transform="translate(-110.16 -397.823)" fill="#e54547"/>
                  <path id="Path_9582" data-name="Path 9582" d="M154.1,400.577l-31.853,40.649,1.119,11.162,34.316-49.438Z" transform="translate(-109.836 -397.102)" fill="#f1696a"/>
                </g>
                <path id="Path_9583" data-name="Path 9583" d="M118.4,453.761l-12.481,2.155,13.533,8.962Z" transform="translate(-105.919 -408.224)" fill="#f05b5b"/>
              </g>
              <g id="Group_54662" data-name="Group 54662" transform="translate(20.533 11.714)">
                <g id="Group_54661" data-name="Group 54661" transform="translate(0.076)">
                  <path id="Path_9584" data-name="Path 9584" d="M165.523,409.508l-32.64,52.5,14.981,7.074,25.529-55.862Z" transform="translate(-132.883 -409.508)" fill="#4cc3d1"/>
                  <path id="Path_9585" data-name="Path 9585" d="M179.831,415.508l-27.445,54.957,24.6,11.615,22.81-57.146Z" transform="translate(-137.48 -410.922)" fill="#26bdc5"/>
                  <path id="Path_9586" data-name="Path 9586" d="M175.1,413.1l-26.231,45.724,2.764,11.112,27.433-54.964Z" transform="translate(-136.651 -410.354)" fill="#6fcbd8"/>
                </g>
                <path id="Path_9587" data-name="Path 9587" d="M145.077,472.921l-12.293,4L147.766,484Z" transform="translate(-132.784 -424.454)" fill="#4cc3d1"/>
              </g>
            </g>
            <path id="Path_9588" data-name="Path 9588" d="M197.531,393.32l-2.488,4.373s2.134,2.121,1.2,3.525c-2.649,2.953-9.246,1.913-10.611.721s-2.688-4.295-1.638-6.624,6.34-6.039,6.34-6.039S196.81,390.679,197.531,393.32Z" transform="translate(-124.232 -273.601)" fill="#f7a58e"/>
            <path id="Path_9589" data-name="Path 9589" d="M279.681,306.455l-18.945.585,3.928-31.837,15.156-.468Z" transform="translate(-142.408 -246.605)" fill="#f7a58e"/>
            <g id="Group_54664" data-name="Group 54664" transform="translate(114.018)">
              <path id="Path_9590" data-name="Path 9590" d="M288.789,253.986c1.577,12.74-1.1,22.315-10.375,23.279s-22.2-10-23.215-19.786,5.677-18.5,14.953-19.461,17.429,6.207,18.637,15.968Z" transform="translate(-255.098 -237.931)" fill="#f7a58e"/>
              <path id="Path_9591" data-name="Path 9591" d="M293.1,261.982a3.462,3.462,0,1,1-4.052-2.747A3.461,3.461,0,0,1,293.1,261.982Z" transform="translate(-262.436 -242.937)" fill="#f7a58e"/>
            </g>
            <path id="Path_9592" data-name="Path 9592" d="M292.211,322.095c-.081,3.574-.361,29.834-.361,29.834s-22.011-1.375-36.656-1.626c-6.692-27.994-14.928-41.291,1.505-50.6C279.939,290.971,292.311,309.635,292.211,322.095Z" transform="translate(-139.195 -251.96)" fill="#0386c2"/>
            <path id="Path_9593" data-name="Path 9593" d="M283.155,297.833c-17.028,5.612-23.493,1.554-23.493,1.554C263.327,296.539,277,294.5,283.155,297.833Z" transform="translate(-142.155 -251.643)" fill="#f7a58e"/>
            <path id="Path_9594" data-name="Path 9594" d="M205.467,419.522a.189.189,0,0,1-.143-.152c-.023-.133-2.384-13.379-6.922-19.165a.189.189,0,0,1,.3-.234c4.6,5.861,6.973,19.2,7,19.333a.19.19,0,0,1-.154.219.187.187,0,0,1-.076,0Z" transform="translate(-127.707 -276.105)" fill="#103558"/>
            <path id="Path_9595" data-name="Path 9595" d="M190.633,414.023a.188.188,0,0,1-.087-.047c-.074-.071-7.43-7.145-7.164-14.839a.189.189,0,0,1,.379.013c-.26,7.525,6.973,14.481,7.046,14.55a.189.189,0,0,1-.174.322Z" transform="translate(-124.175 -275.883)" fill="#103558"/>
          </g>
        </g>
        <g id="Group_54667" data-name="Group 54667" transform="translate(128.489 42.826)">
          <path id="Path_9596" data-name="Path 9596" d="M389.767,284.341c2.986-3.2,4.914-6.168,4.336-6.718s-3.448,1.522-6.495,4.664c-2.1,2.2.546,3.454,2.159,2.054Z" transform="translate(-300.617 -277.535)" fill="#f7a58e"/>
          <path id="Path_9597" data-name="Path 9597" d="M362.363,282.45l-7.308,5.891-9.169,6.044c-7.021,4.629-15.451,8.79-19.571,11.508,0,0-13.661-4.976-27.042-8.358-10.7-2.705-21.349-3.02-23.184,1.861-3.773,10.034,7.983,15.247,26.949,18.4l.005-.015c9.627,1.651,21.1,3,24.552.995a106.793,106.793,0,0,0,23.487-17.941c2.6-2.709,4.919-5.224,6.733-7.256a4.13,4.13,0,0,0,.956.275s5.727-.519,6.794-3.807c.917-3.574-2.91-7.31-3.2-7.592Z" transform="translate(-274.35 -278.693)" fill="#f7a58e"/>
          <path id="Path_9598" data-name="Path 9598" d="M304.118,301.427s1.98,3.8.5,11.769a18.559,18.559,0,0,1-4.069,8.586c-9.693-1.416-28.357-6.1-26.377-18.375s29.941-1.98,29.941-1.98Z" transform="translate(-274.031 -282.214)" fill="#0386c2"/>
        </g>
        <path id="Path_9599" data-name="Path 9599" d="M256.21,297.385s-13.788,2.173-24.217,15.876a43.543,43.543,0,0,0,15.294,14.766s15.736-11.142,17.3-20.408S256.21,297.385,256.21,297.385Z" transform="translate(-135.634 -239.388)" fill="#0386c2"/>
        <path id="Path_9600" data-name="Path 9600" d="M281.872,242.545c.135-7.851-5.845-9.792-5.845-9.792,2.62-8.956-9.3-14.688-20.6-8.942,0,0-4.57-2.638-12.329,2.111-10.584,6.238-9.493,19.352-9.493,19.352-12.234,3.533-17.053,14.522-13.494,24.376,0,0-14.259,5.436-11.816,19.905s14.477,15.939,14.477,15.939,3.314,21.55,19.664,19.79,17.11-15.087,17.11-15.087,13.374,4.684,19.218-10.091-8.315-22.956-8.315-22.956,8.585-3.853,8.445-13.138a14.7,14.7,0,0,0-5.8-11.517c5.42-2.95,8.7-5.59,8.779-9.95Z" transform="translate(-129.982 -221.503)" fill="#0d0d0d"/>
      </g>
      <g id="Group_54673" data-name="Group 54673" transform="translate(62.463 105.611)">
        <g id="Group_54669" data-name="Group 54669" transform="translate(0 80.148)">
          <path id="Path_9601" data-name="Path 9601" d="M529.491,327.384l2.172,6.854h7.029L533,338.473l2.172,6.853-5.686-4.235-5.686,4.235,2.172-6.853-5.687-4.236h7.03Z" transform="translate(-520.289 -327.384)" fill="#fdda6d"/>
          <path id="Path_9602" data-name="Path 9602" d="M562.473,327.384l2.172,6.854h7.029l-5.687,4.236,2.172,6.853-5.687-4.235-5.686,4.235,2.171-6.853-5.686-4.236H560.3Z" transform="translate(-528.063 -327.384)" fill="#fdda6d"/>
          <path id="Path_9603" data-name="Path 9603" d="M595.455,327.384l2.171,6.854h7.029l-5.687,4.236,2.172,6.853-5.686-4.235-5.686,4.235,2.171-6.853-5.686-4.236h7.029Z" transform="translate(-535.836 -327.384)" fill="#fdda6d"/>
          <path id="Path_9604" data-name="Path 9604" d="M628.436,327.384l2.172,6.854h7.029l-5.686,4.236,2.171,6.853-5.686-4.235-5.687,4.235,2.172-6.853-5.686-4.236h7.029Z" transform="translate(-543.61 -327.384)" fill="#fdda6d"/>
        </g>
        <g id="Group_54672" data-name="Group 54672" transform="translate(27.276)">
          <g id="Group_54670" data-name="Group 54670" transform="translate(5.281)">
            <ellipse id="Ellipse_180" data-name="Ellipse 180" cx="14.903" cy="14.93" rx="14.903" ry="14.93" fill="#029a65"/>
            <path id="Path_9605" data-name="Path 9605" d="M589.753,231.833c-3.744,1.164-8.424,5.393-11.067,10.024a7.038,7.038,0,0,0-4.271-3.562l-2.776,3.745a8.611,8.611,0,0,1,5.56,5.418h3.364c.961-2.9,3.524-9.866,10.095-14.4a5.368,5.368,0,0,0-.9-1.222Z" transform="translate(-564.949 -224.716)" fill="#fff"/>
          </g>
          <g id="Group_54671" data-name="Group 54671" transform="translate(0 32.39)">
            <path id="Path_9606" data-name="Path 9606" d="M588.744,291.832H562.262a1.213,1.213,0,0,1-1.154-.848l-5.073-15.924a1.23,1.23,0,0,1,.175-1.093,1.21,1.21,0,0,1,.98-.5h36.627a1.209,1.209,0,0,1,.98.5,1.229,1.229,0,0,1,.175,1.093L589.9,290.984A1.213,1.213,0,0,1,588.744,291.832Zm-25.6-2.444h24.713l4.294-13.481h-33.3Z" transform="translate(-555.977 -266.918)" fill="#0d0d0d"/>
            <path id="Path_9607" data-name="Path 9607" d="M588.663,296.555H566.079a1.222,1.222,0,0,1,0-2.443h21.7a2.207,2.207,0,0,0,2.251-2.121,2.152,2.152,0,0,0-.888-2.178l7.625-24.063a1.213,1.213,0,0,1,1.155-.85h7.886a1.222,1.222,0,0,1,0,2.444h-7l-6.989,22.335C593.673,292.756,591.144,296.555,588.663,296.555Z" transform="translate(-558.072 -264.9)" fill="#0d0d0d"/>
            <path id="Path_9608" data-name="Path 9608" d="M574.426,310.806a2.788,2.788,0,1,1-2.788-2.81A2.8,2.8,0,0,1,574.426,310.806Z" transform="translate(-559.011 -275.057)" fill="#0d0d0d"/>
            <path id="Path_9609" data-name="Path 9609" d="M592.789,310.806A2.789,2.789,0,1,1,590,308,2.8,2.8,0,0,1,592.789,310.806Z" transform="translate(-563.339 -275.057)" fill="#0d0d0d"/>
            <path id="Path_9610" data-name="Path 9610" d="M582.01,291.832a1.217,1.217,0,0,1-1.212-1.222V274.686a1.213,1.213,0,1,1,2.425,0V290.61A1.217,1.217,0,0,1,582.01,291.832Z" transform="translate(-561.827 -266.918)" fill="#0d0d0d"/>
            <path id="Path_9611" data-name="Path 9611" d="M572.062,291.832a1.215,1.215,0,0,1-1.181-.952l-3.586-15.924a1.213,1.213,0,1,1,2.365-.541l3.586,15.924a1.222,1.222,0,0,1-.914,1.462A1.2,1.2,0,0,1,572.062,291.832Z" transform="translate(-558.637 -266.918)" fill="#0d0d0d"/>
            <path id="Path_9612" data-name="Path 9612" d="M590.489,291.832a1.206,1.206,0,0,1-.176-.013,1.22,1.22,0,0,1-1.025-1.385l2.3-15.924a1.213,1.213,0,1,1,2.4.352l-2.3,15.924a1.216,1.216,0,0,1-1.2,1.046Z" transform="translate(-563.825 -266.918)" fill="#0d0d0d"/>
            <path id="Path_9613" data-name="Path 9613" d="M592.071,286.454H560.548a1.222,1.222,0,0,1,0-2.444h31.523a1.222,1.222,0,0,1,0,2.444Z" transform="translate(-556.768 -269.404)" fill="#0d0d0d"/>
          </g>
        </g>
      </g>
      <g id="Group_54675" data-name="Group 54675" transform="translate(164.768 188.888)">
        <g id="Group_54674" data-name="Group 54674">
          <path id="Path_9614" data-name="Path 9614" d="M153.549,280.184c-8.645-.068-25.691-.151-57.319-.151a8.9,8.9,0,0,1-8.9-8.9v-15.1a8.9,8.9,0,0,1,8.9-8.9h56.356a8.9,8.9,0,0,1,8.9,8.9v16.28a7.865,7.865,0,0,1-7.926,7.871Z" transform="translate(-87.326 -247.137)" fill="#fff"/>
          <path id="Path_9615" data-name="Path 9615" d="M106.955,267.824a3.022,3.022,0,1,1-3.022-3.021A3.021,3.021,0,0,1,106.955,267.824Z" transform="translate(-90.528 -251.301)" fill="#b3b3b3"/>
          <path id="Path_9616" data-name="Path 9616" d="M127.6,267.824a3.022,3.022,0,1,1-3.022-3.021A3.021,3.021,0,0,1,127.6,267.824Z" transform="translate(-95.394 -251.301)" fill="#b3b3b3"/>
          <path id="Path_9617" data-name="Path 9617" d="M148.245,267.824a3.022,3.022,0,1,1-3.021-3.021A3.021,3.021,0,0,1,148.245,267.824Z" transform="translate(-100.26 -251.301)" fill="#b3b3b3"/>
          <path id="Path_9618" data-name="Path 9618" d="M168.89,267.824a3.022,3.022,0,1,1-3.022-3.021A3.021,3.021,0,0,1,168.89,267.824Z" transform="translate(-105.126 -251.301)" fill="#b3b3b3"/>
        </g>
        <path id="Path_9619" data-name="Path 9619" d="M139.041,282.628V296.36l-17.484-13.217Z" transform="translate(-95.394 -255.502)" fill="#fff"/>
      </g>
    </g>
    <g id="Group_55239" data-name="Group 55239" transform="translate(760.378 882.226)">
      <g id="Group_54709" data-name="Group 54709" transform="translate(0 0)">
        <path id="Path_9702" data-name="Path 9702" d="M895.806,412.685s8.808-.533,13.338,7.284-1.155,15.092-1.155,15.092,16.288.352,18.189,15.624-12.036,17.525-12.036,17.525S919.8,479.885,906.326,489s-26.619-7.644-26.619-7.644-11.233,4.359-20.253-6.792.893-22.408.893-22.408-6.612-4.809-5.162-16.509,10.9-11.954,10.9-11.954-4.457-6.956.483-12.06,12.806-.639,12.806-.639,2.343-8.857,8.611-7.644S895.806,412.685,895.806,412.685Z" transform="translate(-826.795 -377.104)" fill="#0d0d0d"/>
        <path id="Path_9703" data-name="Path 9703" d="M861.94,431.081l-18.263-18.557.016-32.109-6.03-.795s-4.94,29.2-4.924,35.4c.016,5.506,18.5,29.454,18.5,29.454Z" transform="translate(-822.777 -372.838)" fill="#ffa88f"/>
        <path id="Path_9704" data-name="Path 9704" d="M886.812,443.511c-5.768-4.867-22.416-2.6-22.416-2.6s-10.864,8.922-11.757,15.518c-.639,4.736,2.114,31.093,2.114,31.093h26.7l10.094-27.7C891.54,459.831,892.58,448.377,886.812,443.511Z" transform="translate(-826.355 -383.817)" fill="#029e73"/>
        <path id="Path_9705" data-name="Path 9705" d="M892.051,533.559c2.188,12.863,4.719,33.8,5.743,48.372,6.964,30.577,5.317,36.509,8,55.041-2.925,2.269-7.234.729-7.234.729-4.924-12.585-12.576-33.616-14.518-51.576-4.6-14.92-9.439-30.667-14.461-46.971l-.369-.934C864.964,524.006,888.708,515.51,892.051,533.559Z" transform="translate(-829.275 -398.8)" fill="#ffa88f"/>
        <path id="Path_9706" data-name="Path 9706" d="M852.1,497.93a124.411,124.411,0,0,0-5.416,22.777c-2.081,13.846-8.906,110.722-8.906,110.722l7.579.041c4.056-16.591,12.1-29.807,11.11-51.166L875.7,521.551l-9.422-23.621Z" transform="translate(-823.688 -394.215)" fill="#ffa88f"/>
        <path id="Path_9707" data-name="Path 9707" d="M891.562,432.73l18.713-17.451L902.8,381.613l6.448-1.983s15.772,31.994,15.764,38.2C925,423.34,898.4,449.018,898.4,449.018,894.209,451,887.957,441.742,891.562,432.73Z" transform="translate(-833.211 -372.839)" fill="#ffa88f"/>
        <path id="Path_9708" data-name="Path 9708" d="M867.651,408.35c-4.424,8.087-4.981,15.952,1.893,19.762s16.034.344,20.45-7.743,2.433-17.738-4.441-21.548S872.075,400.263,867.651,408.35Z" transform="translate(-828.488 -376.079)" fill="#ffa88f"/>
        <path id="Path_9709" data-name="Path 9709" d="M872.813,430.99h10.028l.4,10.807c0,2.237-5.178,5.391-9.381,5.137-3.269-.188-5.449-2.483-4.392-4.834Z" transform="translate(-829.365 -382.12)" fill="#ffa88f"/>
        <path id="Path_9710" data-name="Path 9710" d="M841.54,565.925c3.2-42.031,11.241-67.995,11.241-67.995h26.685c4.719,3.7,9.012,10.151,11.741,17.042,1.868,5.465,9.34,29.323,12.232,50.953C882.342,573.561,844.252,570.759,841.54,565.925Z" transform="translate(-824.367 -394.215)" fill="#029e73"/>
        <path id="Path_9711" data-name="Path 9711" d="M883.679,493.03l-1.3,4.736H854.789l-.229-4.736Z" transform="translate(-826.72 -393.329)" fill="#0d0d0d"/>
        <g id="Group_54707" data-name="Group 54707" transform="translate(0 237.214)">
          <path id="Path_9712" data-name="Path 9712" d="M821.08,668.531c0-.1,4.5-.1,9.3-.074,5.53.016,12.421.074,12.421.074a25.042,25.042,0,0,0-.484-7.62l-8.668-.041a58.148,58.148,0,0,0-6.612,1.688c-.279.082-.573.147-.877.221C819.425,664.336,821.08,668.727,821.08,668.531Z" transform="translate(-820.638 -660.87)" fill="#994803"/>
          <path id="Path_9713" data-name="Path 9713" d="M821.08,668.9c0-.1,4.5-.1,9.3-.074a4.308,4.308,0,0,0,.229-1.384,4.862,4.862,0,0,0-3.572-4.515c-.279.074-.573.148-.877.221C819.425,664.708,821.08,669.1,821.08,668.9Z" transform="translate(-820.638 -661.242)" fill="#994803"/>
          <rect id="Rectangle_9879" data-name="Rectangle 9879" width="22.457" height="1.368" transform="translate(0 6.301)" fill="#994803"/>
        </g>
        <g id="Group_54708" data-name="Group 54708" transform="translate(67.626 237.271)">
          <path id="Path_9714" data-name="Path 9714" d="M903.459,668.6c.131.008,2.327-.024,5.063-.049,4.441-.041,10.282-.074,10.831.049,1.548-3.736-1.663-5.661-4.621-6.718-1.262-.442-2.474-.737-3.253-.942l-7.529.041A24.833,24.833,0,0,0,903.459,668.6Z" transform="translate(-903.164 -660.94)" fill="#994803"/>
          <rect id="Rectangle_9880" data-name="Rectangle 9880" width="16.632" height="1.368" transform="translate(0 6.309)" fill="#994803"/>
        </g>
        <path id="Path_9715" data-name="Path 9715" d="M909.56,668.749c4.44-.041,10.282-.074,10.831.049,1.548-3.736-1.663-5.661-4.621-6.718a6.144,6.144,0,0,0-5.285,1.745A4.255,4.255,0,0,0,909.56,668.749Z" transform="translate(-836.584 -423.866)" fill="#994803"/>
        <path id="Path_9716" data-name="Path 9716" d="M877.281,401.658c.2-.279-2.245,10.143,12.249,16.64,8.922-6.1,6.481-25.333-9.627-21.45-1.942-3.457-11.192-5.309-14.068,3.146-7.521.991-7.349,8.152-2.4,7.759C863.427,407.754,872.325,408.721,877.281,401.658Z" transform="translate(-827.688 -375.425)" fill="#0d0d0d"/>
        <path id="Path_9717" data-name="Path 9717" d="M891.8,423.061a2.761,2.761,0,1,0,2.761-2.761A2.762,2.762,0,0,0,891.8,423.061Z" transform="translate(-833.449 -380.188)" fill="#ffa88f"/>
        <path id="Path_9718" data-name="Path 9718" d="M844.289,379.637s2.368-.573,3.015-4.621.745-3.113.745-3.113-2.228-1.147-3.408,3.531a7.819,7.819,0,0,0-5.711,1.974s-.876.4-.4,1.712S843.862,380.268,844.289,379.637Z" transform="translate(-823.798 -371.421)" fill="#ffa88f"/>
        <path id="Path_9719" data-name="Path 9719" d="M904.447,380.115s-3.482-1.163-4.867-8.414c2.237-1.589,3.122,2.614,3.122,2.614s8.545-.721,8.193,3.818S904.447,380.115,904.447,380.115Z" transform="translate(-834.854 -371.342)" fill="#ffa88f"/>
      </g>
    </g>
    <g id="Group_55240" data-name="Group 55240" transform="translate(707.262 803.136)">
      <g id="Group_54717" data-name="Group 54717">
        <path id="Path_9733" data-name="Path 9733" d="M764.009,315.246a35.762,35.762,0,0,1-8.136,1.712l-.008,2.188a30.673,30.673,0,0,1,6.538.983c5.743,1.532,10.069,5.85,10.323,10.962-.3,5.113-4.662,9.43-10.422,10.962a30.237,30.237,0,0,1-6.546.983l-.008,2.188a35.282,35.282,0,0,1,8.119,1.712A42.672,42.672,0,0,1,780.125,357.4l32.781-3.49.082-21.859.008-1.909.082-21.851-32.74-3.49A43.08,43.08,0,0,1,764.009,315.246Z" transform="translate(-755.75 -280.229)" fill="#129ad8"/>
        <path id="Path_9734" data-name="Path 9734" d="M911.562,274.81c9.955,9.717,10.684,89.649-.344,101.75-31-5.457-60.949-12.6-85.708-28.062l.18-45.652C847.164,289.025,878.1,281.127,911.562,274.81Z" transform="translate(-768.355 -274.81)" fill="#129ad8"/>
      </g>
      <path id="Path_9735" data-name="Path 9735" d="M833.1,327.743c-.074,18.484-7.98,27.234-8.316,27.6a.706.706,0,0,1-.983.049.669.669,0,0,1-.049-.959c.082-.082,7.89-8.767,7.955-26.685v-.025c.057-15.96-6.505-18.156-6.571-18.181a.679.679,0,0,1-.459-.844.7.7,0,0,1,.86-.459c.311.09,7.62,2.376,7.562,19.483C833.1,327.727,833.1,327.735,833.1,327.743Z" transform="translate(-768.004 -280.846)" fill="#fff"/>
      <path id="Path_9736" data-name="Path 9736" d="M847.207,333.026a1.906,1.906,0,0,1-.844,1.483c-4.178,3.335-12.052-4.99-12.937-5.948l-1.376-1.491,2.024.369c2.892.524,12.372,2.442,13.084,5.2A1.336,1.336,0,0,1,847.207,333.026Zm-11.175-3.818c2.761,2.589,7.275,5.989,9.455,4.244.172-.131.369-.328.319-.483C845.52,331.83,840.849,330.257,836.032,329.208Z" transform="translate(-769.536 -284.253)" fill="#fff"/>
      <path id="Path_9737" data-name="Path 9737" d="M834.944,328.311l-1.925-.041c-.467-.008-11.536-.311-15.231-4.564a4.756,4.756,0,0,1-1.188-3.9,2.753,2.753,0,0,1,1.8-2.515c4.047-1.319,13.371,7.824,15.2,9.668Zm-16.82-7.808a3.244,3.244,0,0,0,.86,2.2c2.368,2.72,8.726,3.613,12.028,3.892-4.072-3.859-9.971-8.545-12.109-7.849-.148.049-.59.188-.737,1.254A2.634,2.634,0,0,0,818.123,320.5Z" transform="translate(-766.736 -282.463)" fill="#fff"/>
      <path id="Path_9738" data-name="Path 9738" d="M846.064,312.393a.69.69,0,0,1-.393.614A21.4,21.4,0,0,0,834.889,325.5a.708.708,0,0,1-.852.492.673.673,0,0,1-.492-.828,22.424,22.424,0,0,1,11.52-13.371.7.7,0,0,1,.926.311A.577.577,0,0,1,846.064,312.393Z" transform="translate(-769.802 -281.48)" fill="#04f2f5"/>
    </g>
    <rect id="Rectangle_10174" data-name="Rectangle 10174" width="72.72" height="72.712" transform="translate(882.693 704.524)" fill="#db6704"/>
    <rect id="Rectangle_10175" data-name="Rectangle 10175" width="10.17" height="17.326" transform="translate(913.968 704.68)" fill="#ff851c"/>
    <rect id="Rectangle_10176" data-name="Rectangle 10176" width="18.509" height="14.96" transform="translate(933.668 759.664)" fill="#ffcfa6"/>
    <g id="Group_55242" data-name="Group 55242" transform="translate(882.291 697.103)">
      <path id="Path_9818" data-name="Path 9818" d="M702.716,379.193l-1.947-1.438c-.156-.025-.567-.074-.994-.123-5.8-.69-13.7-1.881-15.379-4.3a1.722,1.722,0,0,1-.287-1.438,2.317,2.317,0,0,1,1.52-1.758c4.034-1.454,14.59,6.2,15.51,6.884a.311.311,0,0,1,.14.132Zm-15.863-8.437a2.733,2.733,0,0,0-.937.148,1.573,1.573,0,0,0-1.01,1.191.917.917,0,0,0,.164.78c1.076,1.561,5.89,2.867,14.319,3.894C696.029,374.437,690.007,370.756,686.853,370.756Z" transform="translate(-664.187 -369.957)"/>
      <rect id="Rectangle_9890" data-name="Rectangle 9890" width="0.813" height="72.712" transform="translate(36.36 7.421)" fill="#fff"/>
      <path id="Path_9819" data-name="Path 9819" d="M704.62,377.45s19.076-11.074,21.754-5.537S704.62,377.45,704.62,377.45Z" transform="translate(-667.857 -370.029)" fill="none" stroke="#000" stroke-miterlimit="10" stroke-width="1.506"/>
      <path id="Path_9820" data-name="Path 9820" d="M704.62,378.99S725,392.734,720.1,398.164,704.62,378.99,704.62,378.99Z" transform="translate(-667.857 -371.569)" fill="none" stroke="#fff" stroke-miterlimit="10" stroke-width="1.506"/>
      <path id="Path_9821" data-name="Path 9821" d="M732.8,410.525H660.273a.4.4,0,0,1,0-.805H732.8a.4.4,0,1,1,0,.805Z" transform="translate(-659.87 -377.054)" fill="#fff"/>
    </g>
    <circle id="Ellipse_292" data-name="Ellipse 292" cx="17.367" cy="17.367" r="17.367" transform="matrix(0.004, -1, 1, 0.004, 942.923, 1079.026)" fill="#e1f5fc"/>
  </g>
</svg>
