<svg xmlns="http://www.w3.org/2000/svg" width="21.963" height="18.152" viewBox="0 0 21.963 18.152">
  <g id="Icon_feather-users" data-name="Icon feather-users" transform="translate(0.5 0.5)">
    <path id="Path_8467" data-name="Path 8467" d="M16.746,28.217V26.311A3.811,3.811,0,0,0,12.934,22.5H5.311A3.811,3.811,0,0,0,1.5,26.311v1.906" transform="translate(-1.5 -11.066)" fill="none" stroke="#10a4fa" stroke-linecap="round" stroke-linejoin="round" stroke-width="1"/>
    <path id="Path_8468" data-name="Path 8468" d="M15.123,8.311A3.811,3.811,0,1,1,11.311,4.5,3.811,3.811,0,0,1,15.123,8.311Z" transform="translate(-3.689 -4.5)" fill="none" stroke="#10a4fa" stroke-linecap="round" stroke-linejoin="round" stroke-width="1"/>
    <path id="Path_8469" data-name="Path 8469" d="M32.859,28.288V26.383A3.811,3.811,0,0,0,30,22.7" transform="translate(-11.895 -11.137)" fill="none" stroke="#10a4fa" stroke-linecap="round" stroke-linejoin="round" stroke-width="1"/>
    <path id="Path_8470" data-name="Path 8470" d="M24,4.7a3.811,3.811,0,0,1,0,7.385" transform="translate(-9.707 -4.571)" fill="none" stroke="#10a4fa" stroke-linecap="round" stroke-linejoin="round" stroke-width="1"/>
  </g>
</svg>
