<svg id="man" xmlns="http://www.w3.org/2000/svg" width="91.667" height="95.784" viewBox="0 0 91.667 95.784">
  <path id="Path_949" data-name="Path 949" d="M91.861,97.394A45.834,45.834,0,1,0,21.9,97.5Z" transform="translate(-11.001 -17.886)" fill="#ff4155"/>
  <path id="Path_950" data-name="Path 950" d="M193.6,379.922c-5.966,10.1-15.586,10.185-15.586,10.185s-9.611-.089-15.578-10.173c-.137.166-.278.327-.428.477-.8.185-1.589.388-2.369.606a2.261,2.261,0,0,1,1.052.931c3.669,6.266,10.065,13.75,17.344,13.75s13.675-7.484,17.344-13.75a2.263,2.263,0,0,1,1.043-.927q-1.178-.329-2.384-.61C193.888,380.257,193.744,380.092,193.6,379.922Z" transform="translate(-131.835 -308.847)" fill="#fcad6d"/>
  <path id="Path_951" data-name="Path 951" d="M172.592,388.9a20.6,20.6,0,0,1-10.153-8.919c-.137.166-.278.327-.428.477q-1.2.277-2.369.607a2.261,2.261,0,0,1,1.052.931,36.9,36.9,0,0,0,8.766,10.426,4.213,4.213,0,0,0,.472-.208A6.6,6.6,0,0,0,172.592,388.9Z" transform="translate(-131.835 -308.899)" fill="#fd995b"/>
  <path id="Path_952" data-name="Path 952" d="M160.991,19.15c0-5.113-2.946-7.232-4.894-8.074a4,4,0,0,1-2.139-2.165c-.853-2.113-3.263-5.773-10-8.01-9.91-3.289-18.72,3.4-23.455,4.668-3.114.837-5.561-1.01-6.872-2.373a1.14,1.14,0,0,0-1.853.323c-1.023,2.358-2.515,6.994-1.15,11.816a.389.389,0,0,1-.515.456c-.4-.136-.751-.262-1.037-.366a.37.37,0,0,0-.491.446c1.153,3.564,2.271,5.6,3.274,6.694a3.112,3.112,0,0,1,.817,1.723,19.552,19.552,0,0,0,.812,3.822,21.735,21.735,0,0,1,1.1,5.637c0,.022,0,.036,0,.038h44.323c0-.009,0-.041.007-.092A21.023,21.023,0,0,1,160,28.162a27.106,27.106,0,0,0,.994-9.012Z" transform="translate(-90.311 0)" fill="#41416b"/>
  <path id="Path_953" data-name="Path 953" d="M126.639,25.726s4.118-4.932,1.249-10.5,4.068-9.961,4.068-9.961c-4.769,1.4-8.769,3.861-11.456,4.584-3.114.837-5.561-1.01-6.872-2.373a1.14,1.14,0,0,0-1.853.323c-1.023,2.358-2.515,6.994-1.15,11.816a.389.389,0,0,1-.515.456c-.4-.136-.751-.262-1.037-.366a.37.37,0,0,0-.491.446c1.153,3.564,2.271,5.6,3.274,6.694a3.112,3.112,0,0,1,.817,1.723,19.556,19.556,0,0,0,.812,3.822,21.736,21.736,0,0,1,1.1,5.637c0,.022,0,.036,0,.038h9.347Z" transform="translate(-90.311 -4.281)" fill="#35355e"/>
  <path id="Path_954" data-name="Path 954" d="M364.155,177.3c-.994-.911-2.974-.449-3.83.109a12.03,12.03,0,0,1,.036,3.542l-1.01,7.358c0,.593-.019,1.175-.053,1.747,2.463.743,3.687-1.469,3.893-2.986a11.309,11.309,0,0,1,.435-1.926C364.281,183.093,366.645,179.578,364.155,177.3Z" transform="translate(-294.14 -143.708)" fill="#fcad6d"/>
  <g id="Group_54015" data-name="Group 54015" transform="translate(65.158 39.415)">
    <path id="Path_955" data-name="Path 955" d="M362.284,211.821a2.743,2.743,0,0,1-2.222-1.134l-.711,5.182c0,.593-.019,1.175-.053,1.747,2.463.743,3.687-1.468,3.893-2.986a11.286,11.286,0,0,1,.435-1.926c.169-.529.453-1.158.738-1.837A2.741,2.741,0,0,1,362.284,211.821Z" transform="translate(-359.298 -210.687)" fill="#fd995b"/>
  </g>
  <path id="Path_956" data-name="Path 956" d="M150.05,180.872h0Z" transform="translate(-124.037 -147.035)" fill="#41416b"/>
  <path id="Path_957" data-name="Path 957" d="M125.627,177.3c.994-.911,2.974-.449,3.83.109a12.021,12.021,0,0,0-.036,3.542l1.01,7.358c0,.593.019,1.175.053,1.747-2.463.743-3.687-1.469-3.893-2.986a11.3,11.3,0,0,0-.435-1.926C125.5,183.093,123.137,179.578,125.627,177.3Z" transform="translate(-103.276 -143.708)" fill="#fcad6d"/>
  <path id="Path_958" data-name="Path 958" d="M188.1,105.253a5.288,5.288,0,0,1-.8-3.227c.05-.685.082-1.51.065-2.4-.007-.117-.011-.244-.011-.383-.009-.259-.024-.524-.043-.791a8.424,8.424,0,0,0-2.542-5.111A2.17,2.17,0,0,0,182.2,93c-12.616,6.957-23.072,4.387-28.7,1.853a1.2,1.2,0,0,0-1.648.817,21.285,21.285,0,0,0-.412,6.386,5.237,5.237,0,0,1-.8,3.2,9.773,9.773,0,0,0-.854,1.705,11.763,11.763,0,0,0-.666,5.87l1.01,7.359c0,.013,0,.026,0,.039,1.039,3.03,3.141,7.373,6.9,8.606l.047.014a7.119,7.119,0,0,1,4.749,4.706c1.047,3.212,4.017,4.065,7.547,4.065s6.5-.854,7.547-4.064a7.121,7.121,0,0,1,4.749-4.707l.048-.014c3.756-1.233,5.859-5.578,6.9-8.607,0-.013,0-.025,0-.038l1.01-7.358a11.77,11.77,0,0,0-.644-5.816,9.768,9.768,0,0,0-.875-1.761Z" transform="translate(-123.189 -75.378)" fill="#f9ba8f"/>
  <g id="Group_54016" data-name="Group 54016" transform="translate(22.141 39.415)">
    <path id="Path_959" data-name="Path 959" d="M131.434,211.821a2.743,2.743,0,0,0,2.222-1.134l.711,5.182c0,.593.019,1.175.053,1.747-2.463.743-3.687-1.468-3.893-2.986a11.286,11.286,0,0,0-.435-1.926c-.169-.529-.453-1.158-.738-1.837A2.742,2.742,0,0,0,131.434,211.821Z" transform="translate(-129.354 -210.687)" fill="#fd995b"/>
  </g>
  <path id="Path_960" data-name="Path 960" d="M157.543,121.623a13.952,13.952,0,0,1,1.2-7.574,6.332,6.332,0,0,0,.635-3.2,28.959,28.959,0,0,1,.14-5.231,30.061,30.061,0,0,1-6.006-1.968,1.2,1.2,0,0,0-1.658.812,21.289,21.289,0,0,0-.412,6.387,5.238,5.238,0,0,1-.8,3.2,11.446,11.446,0,0,0-1.52,7.574l1.011,7.359c0,.013,0,.026,0,.039,1.039,3.03,3.141,7.373,6.9,8.606l.047.014a6.818,6.818,0,0,1,2.824,1.631,33.479,33.479,0,0,1-1.561-10.29Z" transform="translate(-123.195 -84.173)" fill="#fcad6d"/>
  <path id="Path_971" data-name="Path 971" d="M240.349,288.574l-2.041.8a1.1,1.1,0,0,1-.719.03l-2.352-.709-2.352.709a1.1,1.1,0,0,1-.719-.03l-2.041-.8a1.1,1.1,0,0,1,.805-2.042l1.686.665,2.293-.692a1.089,1.089,0,0,1,.654,0l2.293.691,1.686-.665a1.1,1.1,0,0,1,.805,2.042Z" transform="translate(-188.568 -232.866)" fill="#fcad6d"/>
  <path id="Path_974" data-name="Path 974" d="M189.7,223.253s-1.766,9.53-7.581,11.438l-.046.013a6.967,6.967,0,0,0-4.647,4.606c-1.024,3.141-3.928,3.977-7.385,3.977s-6.361-.835-7.385-3.978a6.966,6.966,0,0,0-4.647-4.605l-.046-.013c-5.815-1.909-7.58-11.438-7.58-11.438-4.469,39.85,19.658,40.07,19.658,40.07S194.171,263.1,189.7,223.253Z" transform="translate(-123.86 -181.487)" fill="#41416b"/>
  <path id="Path_975" data-name="Path 975" d="M253.346,311.872h-1.409a1.1,1.1,0,1,0,0,2.194h1.409a1.1,1.1,0,0,0,0-2.194Z" transform="translate(-205.972 -253.528)" fill="#fcad6d"/>
  <path id="Path_976" data-name="Path 976" d="M189.862,261.4l.046.013a6.775,6.775,0,0,1,3.66,2.634l1.026-.681a3.411,3.411,0,0,1,1.99-.581,14.556,14.556,0,0,0,5.459-.965,1.065,1.065,0,0,1,.769,0,14.557,14.557,0,0,0,5.459.965,3.411,3.411,0,0,1,1.991.581l.381.253a6.73,6.73,0,0,1,3.33-2.206l.046-.013a6.946,6.946,0,0,0,1.536-.727c-1.67-2.857-5.5-6.872-13.127-4.1-8-2.9-11.823,1.657-13.357,4.515A6.778,6.778,0,0,0,189.862,261.4Z" transform="translate(-155.757 -207.81)" fill="#41416b"/>
  <path id="Path_978" data-name="Path 978" d="M103.517,408.558A45.735,45.735,0,0,0,138.7,392.095a14.186,14.186,0,0,1-3.574-1.733,63.7,63.7,0,0,0-11.905-5.507,2.2,2.2,0,0,0-2.556.984c-3.552,6.067-9.745,13.313-16.792,13.313s-13.24-7.246-16.792-13.313a2.2,2.2,0,0,0-2.556-.984,63.678,63.678,0,0,0-11.905,5.507c-1.833,1.033-2.719,1.661-4.2,1.844A45.732,45.732,0,0,0,103.517,408.558Z" transform="translate(-57.683 -312.774)" fill="#fff5ee"/>
  <path id="Path_979" data-name="Path 979" d="M87.082,385.84a2.2,2.2,0,0,0-2.556-.984,63.69,63.69,0,0,0-11.905,5.507c-1.833,1.033-2.719,1.661-4.2,1.844a46.045,46.045,0,0,0,13.3,10.848c4.209-4.8,12.29-6.016,14.053-6.961h0A35.387,35.387,0,0,1,87.082,385.84Z" transform="translate(-57.683 -312.775)" fill="#fce6d6"/>
  <g id="Group_54019" data-name="Group 54019" transform="translate(25.972 41.766)">
    <path id="Path_980" data-name="Path 980" d="M196.14,256.214a9.747,9.747,0,0,0-7.07,5.337,6.735,6.735,0,0,0,.792.317l.046.013a6.777,6.777,0,0,1,3.66,2.634l1.026-.681a3.411,3.411,0,0,1,1.99-.581,12.386,12.386,0,0,0,1.473-.044c-4.318-2.6-1.919-6.993-1.918-6.995Z" transform="translate(-181.729 -250.048)" fill="#35355e"/>
    <path id="Path_981" data-name="Path 981" d="M169.167,252.308c-3.822-4.774,1.362-9.02,1.362-9.02l0-.006c-.16,0-.322.006-.485.006-3.455,0-6.361-.835-7.385-3.978a6.966,6.966,0,0,0-4.647-4.605l-.046-.013c-5.815-1.909-7.58-11.438-7.58-11.438-4.469,39.85,19.658,40.07,19.658,40.07S174.35,258.78,169.167,252.308Z" transform="translate(-149.831 -223.253)" fill="#35355e"/>
  </g>
</svg>
