<svg xmlns="http://www.w3.org/2000/svg" width="21.073" height="17.113" viewBox="0 0 21.073 17.113">
  <g id="shop_1_" data-name="shop (1)" transform="translate(0 -48.096)">
    <g id="Group_54918" data-name="Group 54918" transform="translate(0 48.096)">
      <g id="Group_54917" data-name="Group 54917" transform="translate(0 0)">
        <path id="Path_9969" data-name="Path 9969" d="M20.1,64.592h-.351V55.435a2.865,2.865,0,0,0,1.32-2.411.309.309,0,0,0-.041-.153l-2.449-4.286a.971.971,0,0,0-.841-.488H3.331a.971.971,0,0,0-.841.488L.041,52.87A.309.309,0,0,0,0,53.024a2.865,2.865,0,0,0,1.32,2.411v9.158H.969a.309.309,0,1,0,0,.617H20.1a.309.309,0,1,0,0-.617ZM.639,53.332h.99a.309.309,0,1,0,0-.617H.841L3.026,48.89a.352.352,0,0,1,.3-.177H17.742a.352.352,0,0,1,.3.177l2.185,3.825h-.788a.309.309,0,1,0,0,.617h.99a2.248,2.248,0,0,1-4.453,0h2.144a.309.309,0,1,0,0-.617H2.948a.309.309,0,1,0,0,.617H5.092a2.248,2.248,0,0,1-4.453,0Zm14.681,0a2.248,2.248,0,0,1-4.453,0Zm-5.114,0a2.248,2.248,0,0,1-4.453,0Zm7.28,11.26H14.144V63.56h3.342Zm0-1.65H14.144V57.291h3.342Zm1.65,1.65H18.1V56.983a.309.309,0,0,0-.309-.309H13.836a.309.309,0,0,0-.309.309v7.609H1.937V55.734a2.863,2.863,0,0,0,3.485-1.417,2.865,2.865,0,0,0,5.114,0,2.865,2.865,0,0,0,5.114,0,2.863,2.863,0,0,0,3.485,1.417Z" transform="translate(0 -48.096)" fill="#10a4fa"/>
      </g>
    </g>
    <g id="Group_54920" data-name="Group 54920" transform="translate(2.969 56.674)">
      <g id="Group_54919" data-name="Group 54919" transform="translate(0 0)">
        <path id="Path_9970" data-name="Path 9970" d="M81.362,256.516H72.454a.309.309,0,0,0-.309.309v6.269a.309.309,0,0,0,.309.309h8.908a.309.309,0,0,0,.309-.309v-6.269A.309.309,0,0,0,81.362,256.516Zm-.309,6.268H72.762v-5.651h8.291Z" transform="translate(-72.145 -256.516)" fill="#10a4fa"/>
      </g>
    </g>
  </g>
</svg>
