<svg xmlns="http://www.w3.org/2000/svg" width="24.167" height="16.97" viewBox="0 0 24.167 16.97">
  <g id="brand-image" transform="translate(0 -109.559)">
    <path id="Path_8574" data-name="Path 8574" d="M23.077,109.559H7.046a.444.444,0,0,0,0,.869H23.077a.432.432,0,0,1,.382.468v2.761H9.266c-2.1,0-3.806,2.1-3.806,4.672v.03c0,2.576,1.707,4.672,3.806,4.672h6.693a.444.444,0,0,0,0-.869H9.266c-1.708,0-3.1-1.706-3.1-3.8v-.03c0-2.1,1.39-3.8,3.1-3.8H23.459v7.636H17.374a.444.444,0,0,0,0,.869h6.084v2.161a.432.432,0,0,1-.382.468H3.768a.344.344,0,0,1-.255-.12L.835,122.59a.522.522,0,0,1-.127-.349v-8.25a.525.525,0,0,1,.121-.342l2.688-3.1a.346.346,0,0,1,.261-.127H5.63a.444.444,0,0,0,0-.869H3.778a.987.987,0,0,0-.745.362l-2.688,3.1a1.5,1.5,0,0,0-.344.976v8.25a1.491,1.491,0,0,0,.362,1l2.679,2.95a.984.984,0,0,0,.728.342H23.077a1.234,1.234,0,0,0,1.09-1.338V110.9a1.234,1.234,0,0,0-1.089-1.337Z" transform="translate(0 0)" fill="#00aeef"/>
    <path id="Path_8580" data-name="Path 8580" d="M31.078,223.976a1.97,1.97,0,1,0,1.97-1.97A1.972,1.972,0,0,0,31.078,223.976Zm3.07,0a1.1,1.1,0,1,1-1.1-1.1A1.1,1.1,0,0,1,34.148,223.976Z" transform="translate(-22.277 -105.932)" fill="#00aeef"/>
  </g>
</svg>
