<svg id="_3973477" data-name="3973477" xmlns="http://www.w3.org/2000/svg" width="283.315" height="185.646" viewBox="0 0 283.315 185.646">
  <g id="Background_Complete" transform="translate(0)">
    <g id="Group_55280" data-name="Group 55280" transform="translate(215.582 20.788)">
      <path id="Path_10320" data-name="Path 10320" d="M537.035,67.883,532.6,89.339l-2.85-2.781L524.9,90.018l-3.707-4.6-8.318,6.046-7.1-11.885-7.928,4.642L494.7,79.885l-10.066,5.671-3.029-6.483L488.662,44.9l37.828,7.81Z" transform="translate(-474.216 -44.9)" fill="#ebebeb"/>
      <path id="Path_10321" data-name="Path 10321" d="M575.567,61.77l10.546,15.17-13.119-2.709Z" transform="translate(-523.292 -53.96)" fill="#dbdbdb"/>
      <path id="Path_10322" data-name="Path 10322" d="M523.088,138.24l-6.5,31.48L465.642,159.2l6.449-31.23,3.029,6.483,10.066-5.671,3.142,4.335,7.928-4.643,7.1,11.885,8.318-6.046,3.707,4.6,4.853-3.459Z" transform="translate(-465.642 -89.513)" fill="#ebebeb"/>
    </g>
    <g id="Group_55281" data-name="Group 55281" transform="translate(144.058)">
      <path id="Path_10323" data-name="Path 10323" d="M367.2,65.826l-51.923,3.214L311.154,2.386,349.707,0l14.156,11.873Z" transform="translate(-311.154)" fill="#ebebeb"/>
      <path id="Path_10324" data-name="Path 10324" d="M394.425,0l14.157,11.873-13.37.827Z" transform="translate(-355.872)" fill="#dbdbdb"/>
      <path id="Path_10325" data-name="Path 10325" d="M355.561,63.361l-.2-1.5c-.524-3.116.33-6.6,3.038-10.248,2.441-3.224,3.766-5.57,3.62-8.183-.166-2.962-2.135-4.832-5.8-4.685a10.337,10.337,0,0,0-5.764,2.129l-1.6-3.581a15.251,15.251,0,0,1,8.174-2.788c6.678-.374,9.928,3.58,10.175,7.993.221,3.949-1.826,6.918-4.428,10.384-2.386,3.163-3.172,5.77-2.832,8.722l.142,1.507Zm-.822,8.2a3.439,3.439,0,0,1,3.279-3.854,3.64,3.64,0,1,1-3.279,3.854Z" transform="translate(-331.402 -18.515)" fill="#dbdbdb"/>
    </g>
    <g id="Group_55282" data-name="Group 55282" transform="translate(21.24 15.939)">
      <path id="Path_10326" data-name="Path 10326" d="M63,69.632l-5.225-2.37-.725,1.6a1.364,1.364,0,0,1-1.191.793,8.012,8.012,0,0,0-.854.084,1.363,1.363,0,0,1-1.319-.546l-1.023-1.428L48,71.108l1.023,1.427a1.363,1.363,0,0,1,.093,1.425,7.978,7.978,0,0,0-.354.782,1.364,1.364,0,0,1-1.134.872l-1.748.171.563,5.71,1.754-.175a1.365,1.365,0,0,1,1.28.64q.114.177.237.35t.255.337a1.361,1.361,0,0,1,.194,1.411l-.73,1.612,5.225,2.37.728-1.6a1.364,1.364,0,0,1,1.192-.792,7.975,7.975,0,0,0,.851-.082,1.363,1.363,0,0,1,1.318.546l1.023,1.428,4.665-3.343L63.41,82.766a1.363,1.363,0,0,1-.093-1.424,7.94,7.94,0,0,0,.352-.779,1.364,1.364,0,0,1,1.134-.874l1.752-.173-.563-5.709-1.753.173a1.362,1.362,0,0,1-1.276-.638q-.114-.178-.239-.352t-.255-.337a1.367,1.367,0,0,1-.195-1.418l.726-1.6Zm-2.964,5.282a4.7,4.7,0,1,1-6.557-1.086A4.7,4.7,0,0,1,60.036,74.914Z" transform="translate(-45.877 -52.06)" fill="#ebebeb"/>
      <path id="Path_10327" data-name="Path 10327" d="M586.639,235.98l-3.481,2.009.616,1.066a.955.955,0,0,1-.034,1,5.587,5.587,0,0,0-.3.521.955.955,0,0,1-.849.529h-1.23v4.021h1.23a.955.955,0,0,1,.849.529,5.575,5.575,0,0,0,.3.521.956.956,0,0,1,.034,1l-.616,1.065,3.481,2.009.616-1.07a.957.957,0,0,1,.887-.468q.147.007.3.007t.3-.007a.953.953,0,0,1,.883.465l.62,1.073,3.481-2.009-.616-1.068a.955.955,0,0,1,.035-1,5.572,5.572,0,0,0,.3-.518.955.955,0,0,1,.849-.528h1.231v-4.021h-1.231a.955.955,0,0,1-.849-.528,5.568,5.568,0,0,0-.3-.518.956.956,0,0,1-.035-1l.616-1.068-3.481-2.009-.617,1.069a.955.955,0,0,1-.884.466q-.148-.008-.3-.008t-.3.008a.958.958,0,0,1-.887-.468l-.616-1.067Zm1.8,3.843a3.292,3.292,0,1,1-3.294,3.291A3.29,3.29,0,0,1,588.438,239.823Z" transform="translate(-333.442 -142.665)" fill="#ebebeb"/>
      <path id="Path_10328" data-name="Path 10328" d="M100.377,34.891l-3.193,2.441.748.977a.955.955,0,0,1,.1,1,5.573,5.573,0,0,0-.231.555.955.955,0,0,1-.774.634l-1.22.159.519,3.987,1.22-.159a.955.955,0,0,1,.91.415,5.571,5.571,0,0,0,.365.477.955.955,0,0,1,.163.989L98.507,47.5l3.711,1.543.473-1.141a.957.957,0,0,1,.819-.578q.147-.012.294-.031t.292-.046a.953.953,0,0,1,.936.347l.753.984,3.193-2.441-.749-.98a.955.955,0,0,1-.094-1,5.583,5.583,0,0,0,.231-.553.955.955,0,0,1,.774-.633l1.22-.159-.519-3.987-1.22.159a.955.955,0,0,1-.91-.414,5.562,5.562,0,0,0-.364-.475.955.955,0,0,1-.164-.989l.473-1.139-3.712-1.543-.473,1.139a.955.955,0,0,1-.817.576q-.148.012-.3.031t-.292.046a.958.958,0,0,1-.94-.349l-.748-.979Zm2.28,3.579a3.292,3.292,0,1,1-2.842,3.688A3.29,3.29,0,0,1,102.657,38.47Z" transform="translate(-72.688 -34.426)" fill="#ebebeb"/>
    </g>
    <g id="Group_55288" data-name="Group 55288" transform="translate(0 64.91)">
      <g id="Group_55283" data-name="Group 55283" transform="translate(10.618)">
        <path id="Path_10329" data-name="Path 10329" d="M44.025,196.151a126.694,126.694,0,0,0-.184-13.443,171.178,171.178,0,0,0-4.211-27.387c-1.174-5.068-2.62-10.05-4.127-15.027-.046-.15-.285-.108-.244.049,4.66,17.545,8.482,35.651,8.219,53.889-.074,5.1-.665,10.118-1.149,15.19-.013.136.21.19.241.05a76.215,76.215,0,0,0,1.455-13.321Z" transform="translate(-29.55 -140.201)" fill="#ebebeb"/>
        <path id="Path_10330" data-name="Path 10330" d="M28.643,140.508s-7.059,17.916-5.478,22.128A8.079,8.079,0,0,0,28,167.745s-4.319,6.166-1.3,11.949,9.723,5.51,10.169,12.067c0,0,.374-27.417-8.228-51.253Z" transform="translate(-22.934 -140.366)" fill="#ebebeb"/>
        <path id="Path_10331" data-name="Path 10331" d="M41.525,184.819a.138.138,0,0,0-.007-.094,164.087,164.087,0,0,0-6.847-36.042c-.011-.035-.068-.023-.058.012q2.1,7.861,3.706,15.808a7.8,7.8,0,0,0-3.369-1.879.019.019,0,0,0-.013.036,8.926,8.926,0,0,1,3.479,2.325q.309,1.557.6,3.118c-1.577-1.763-3.765-2.638-5.954-3.469-.031-.012-.047.036-.017.048a14.374,14.374,0,0,1,6.1,4.088q.808,4.46,1.418,8.95a8.531,8.531,0,0,0-4.209-2.412c-.049-.012-.076.061-.027.075a8.9,8.9,0,0,1,4.269,2.734.12.12,0,0,0,.026.02q.212,1.579.4,3.162a10.873,10.873,0,0,0-2.95-1.78c-.029-.012-.044.033-.016.045a10.138,10.138,0,0,1,2.955,1.956c.012.011.025.01.038.015.118,1,.235,2.007.336,3.013a14.343,14.343,0,0,0-5.987-4.275c-.046-.018-.07.053-.026.072a15.6,15.6,0,0,1,5.9,4.54.131.131,0,0,0,.149.047q.229,2.313.4,4.633c0,.021.036.023.035,0q-.134-2.374-.328-4.748Z" transform="translate(-28.355 -144.745)" fill="#fff"/>
        <path id="Path_10332" data-name="Path 10332" d="M34.179,173.441a8.824,8.824,0,0,0-4.241-1.322c-.035,0-.038.049,0,.054a16.782,16.782,0,0,1,4.193,1.37C34.188,173.568,34.231,173.477,34.179,173.441Z" transform="translate(-26.68 -157.342)" fill="#fff"/>
        <path id="Path_10333" data-name="Path 10333" d="M37.252,214.682a8.924,8.924,0,0,0-3.183-1.089c-.039-.006-.042.054,0,.06a11.936,11.936,0,0,1,3.149,1.1c.044.021.08-.051.039-.076Z" transform="translate(-28.897 -179.614)" fill="#fff"/>
      </g>
      <g id="Group_55284" data-name="Group 55284" transform="translate(25.472 22.18)">
        <path id="Path_10334" data-name="Path 10334" d="M73.195,188.895a47.972,47.972,0,0,0-8.17,7.142,29.336,29.336,0,0,0-5.73,9.717,72.638,72.638,0,0,0-4.268,23.24,56.455,56.455,0,0,0,1.258,13.069.124.124,0,0,0,.244-.046,73.308,73.308,0,0,1,.128-22.845c1.214-7.412,3.118-15.475,7.829-21.5a59.535,59.535,0,0,1,8.926-8.527c.166-.14-.046-.371-.217-.25Z" transform="translate(-55.018 -188.513)" fill="#ebebeb"/>
        <path id="Path_10335" data-name="Path 10335" d="M57.281,223.252a43.941,43.941,0,0,1,5.955-7.613c3.531-3.53,6.505-6.039,6.964-8.374s-3.537-4.054-3.537-4.054,4.887.877,6.224-1.173,1.983-13.929,1.983-13.929-8.89,6.347-13.032,15.244-4.557,19.9-4.557,19.9Z" transform="translate(-56.233 -188.109)" fill="#ebebeb"/>
        <path id="Path_10336" data-name="Path 10336" d="M71.746,194.634c-3.741,3.674-7.5,7.589-9.708,12.415a47.679,47.679,0,0,0-1.964,5.119.077.077,0,0,0,0,.008c-.113.351-.229.7-.336,1.055a.129.129,0,0,0-.018.058,100.757,100.757,0,0,0-2.525,10.974c0,.024.031.036.036.012.383-1.853.805-3.725,1.278-5.59a.129.129,0,0,0,.053-.01,7.78,7.78,0,0,1,2.333-.592c.053,0,.049-.1,0-.095a8.738,8.738,0,0,0-2.307.421c.431-1.682.9-3.36,1.425-5.014a24.791,24.791,0,0,1,5.273-.689c.018,0,.021-.028,0-.029a19.94,19.94,0,0,0-5.184.44c.092-.284.187-.566.282-.848a26.754,26.754,0,0,1,3.509-.595c.021,0,.02-.038,0-.038a17.045,17.045,0,0,0-3.435.417c.484-1.431,1.006-2.842,1.586-4.217a25.54,25.54,0,0,1,1.678-3.259,21.423,21.423,0,0,1,2.846-.507c.027,0,.024-.046,0-.047a7.677,7.677,0,0,0-2.661.263c.468-.755.959-1.495,1.485-2.211h0a15.039,15.039,0,0,1,6.053-.468c.035.007.048-.053.013-.062a12.74,12.74,0,0,0-5.8.166c.211-.28.426-.557.644-.833a13.233,13.233,0,0,1,3.725-.585.021.021,0,0,0,0-.041,9.719,9.719,0,0,0-3.473.308c1.648-2.048,3.469-3.971,5.268-5.873.084-.088.019-.14-.07-.053Z" transform="translate(-56.186 -191.589)" fill="#fff"/>
        <path id="Path_10337" data-name="Path 10337" d="M86.3,212.07a8.136,8.136,0,0,0-1.768-.062.064.064,0,0,0,.006.126c.585.017,1.17-.027,1.756.005A.035.035,0,0,0,86.3,212.07Z" transform="translate(-70.842 -200.929)" fill="#fff"/>
        <path id="Path_10338" data-name="Path 10338" d="M71.4,237.062a8.013,8.013,0,0,0-2.74.55c-.022.008-.01.044.013.039.9-.216,1.82-.3,2.734-.454C71.482,237.185,71.479,237.062,71.4,237.062Z" transform="translate(-62.338 -214.397)" fill="#fff"/>
        <path id="Path_10339" data-name="Path 10339" d="M69.069,228.46a5.824,5.824,0,0,0-1.163.105.035.035,0,0,0,0,.069,5.823,5.823,0,0,0,1.166-.055A.061.061,0,0,0,69.069,228.46Z" transform="translate(-61.924 -209.776)" fill="#fff"/>
      </g>
      <g id="Group_55285" data-name="Group 55285" transform="translate(0 34.965)">
        <path id="Path_10340" data-name="Path 10340" d="M.763,216.15a40.379,40.379,0,0,1,8.262,3.891,24.69,24.69,0,0,1,6.883,6.539A61.134,61.134,0,0,1,24.734,244.4a47.518,47.518,0,0,1,2,10.868.1.1,0,0,1-.208.019,61.7,61.7,0,0,0-5.384-18.459c-2.7-5.718-6.1-11.8-11.3-15.589A50.117,50.117,0,0,0,.645,216.4c-.167-.075-.048-.31.118-.253Z" transform="translate(-0.303 -215.947)" fill="#ebebeb"/>
        <path id="Path_10341" data-name="Path 10341" d="M22.357,240.1a36.976,36.976,0,0,0-6.579-4.784c-3.674-2.041-6.66-3.384-7.572-5.167s1.926-4.1,1.926-4.1-3.752,1.839-5.308.489S0,215.722,0,215.722s8.661,3.082,14.07,9.325S22.357,240.1,22.357,240.1Z" transform="translate(0 -215.722)" fill="#ebebeb"/>
        <path id="Path_10342" data-name="Path 10342" d="M26.392,240.558c-4.332-8.131-10.112-15.487-18.033-20.342,0,0-.007,0,0,.005a39.821,39.821,0,0,1,5.8,4.537,9.184,9.184,0,0,0-4.657.983.027.027,0,0,0,.024.049,12.766,12.766,0,0,1,4.791-.81.094.094,0,0,0,.054-.02q.422.4.833.811a14.767,14.767,0,0,0-2.488.33.018.018,0,0,0,.007.034,12.718,12.718,0,0,1,2.628-.217,54.421,54.421,0,0,1,4.085,4.639,4.153,4.153,0,0,0-1.74.126.033.033,0,0,0,.013.066,9.325,9.325,0,0,1,1.857-.026c.237.3.477.6.709.908a16.8,16.8,0,0,0-5.257.511.021.021,0,0,0,.008.041,21.154,21.154,0,0,1,5.4-.351c.221.293.43.595.647.891a11.407,11.407,0,0,0-3.129.358c-.039.01-.028.072.012.063a11.966,11.966,0,0,1,3.239-.252c.932,1.284,1.825,2.6,2.682,3.925a2.922,2.922,0,0,0-1.373.083.019.019,0,0,0,.007.038,5.967,5.967,0,0,1,1.486.07q1.157,1.8,2.232,3.634C26.283,240.743,26.449,240.666,26.392,240.558Z" transform="translate(-4.486 -218.135)" fill="#fff"/>
        <path id="Path_10343" data-name="Path 10343" d="M29.824,249.564a6.711,6.711,0,0,0-2.516.308.019.019,0,0,0,.007.037,19.365,19.365,0,0,1,2.5-.256C29.873,249.65,29.883,249.569,29.824,249.564Z" transform="translate(-14.657 -233.885)" fill="#fff"/>
        <path id="Path_10344" data-name="Path 10344" d="M15.063,228.164a4.325,4.325,0,0,0-1.161.067c-.045.007-.031.074.013.069.381-.041.758-.026,1.14-.038a.049.049,0,0,0,.008-.1Z" transform="translate(-7.451 -222.395)" fill="#fff"/>
      </g>
      <g id="Group_55287" data-name="Group 55287" transform="translate(13.977 58.755)">
        <g id="Group_55286" data-name="Group 55286" transform="translate(0 1.816)">
          <path id="Path_10345" data-name="Path 10345" d="M49.741,296.687H30.19l2.788-20.421.712-5.236H46.241l.712,5.236Z" transform="translate(-30.19 -271.03)" fill="#dbdbdb"/>
          <path id="Path_10346" data-name="Path 10346" d="M50.187,276.266H36.211l.712-5.236H49.474Z" transform="translate(-33.423 -271.03)" fill="#c7c7c7"/>
        </g>
        <rect id="Rectangle_10224" data-name="Rectangle 10224" width="16.14" height="4.434" transform="translate(1.705)" fill="#dbdbdb"/>
      </g>
    </g>
  </g>
  <g id="Floor" transform="translate(1.548 150.925)">
    <path id="Path_10347" data-name="Path 10347" d="M3.344,326.2c90.181-.283,191.344-.286,281.524,0-90.181.286-191.344.283-281.524,0h0Z" transform="translate(-3.344 -325.986)" fill="#263238"/>
  </g>
  <g id="Shadow" transform="translate(10.481 156.552)">
    <ellipse id="Ellipse_296" data-name="Ellipse 296" cx="132.755" cy="14.547" rx="132.755" ry="14.547" fill="#ebebeb"/>
  </g>
  <g id="Folder" transform="translate(74.801 46.571)">
    <g id="Group_55333" data-name="Group 55333">
      <g id="Group_55330" data-name="Group 55330" transform="translate(20.581)">
        <g id="Group_55328" data-name="Group 55328">
          <path id="Path_10447" data-name="Path 10447" d="M347.078,242.142H206.018l20.4-115.676H367.474Z" transform="translate(-206.018 -114.486)" fill="#0c86bc"/>
          <path id="Path_10448" data-name="Path 10448" d="M298.352,100.591H252.186l-2.112,11.98h49.4Z" transform="translate(-229.677 -100.591)" fill="#0c86bc"/>
        </g>
      </g>
      <g id="Group_55331" data-name="Group 55331" transform="translate(25.994 0.858)">
        <path id="Path_10451" data-name="Path 10451" d="M243.6,106.473a8.622,8.622,0,0,1,0-4.029,8.621,8.621,0,0,1,0,4.029Z" transform="translate(-231.485 -102.444)" fill="#263238"/>
        <path id="Path_10452" data-name="Path 10452" d="M232.679,109.662a8.622,8.622,0,0,1-2.015-3.489,8.621,8.621,0,0,1,2.015,3.489Z" transform="translate(-224.667 -104.446)" fill="#263238"/>
        <path id="Path_10453" data-name="Path 10453" d="M224.577,118.021a8.622,8.622,0,0,1-3.489-2.014,8.621,8.621,0,0,1,3.489,2.014Z" transform="translate(-219.524 -109.727)" fill="#263238"/>
        <path id="Path_10454" data-name="Path 10454" d="M221.739,129.036a8.622,8.622,0,0,1-4.029,0,8.62,8.62,0,0,1,4.029,0Z" transform="translate(-217.71 -116.596)" fill="#263238"/>
        <path id="Path_10455" data-name="Path 10455" d="M224.928,138.174a8.622,8.622,0,0,1-3.489,2.015,8.621,8.621,0,0,1,3.489-2.015Z" transform="translate(-219.712 -121.632)" fill="#263238"/>
        <path id="Path_10456" data-name="Path 10456" d="M233.287,144.566a8.622,8.622,0,0,1-2.015,3.489,8.621,8.621,0,0,1,2.015-3.489Z" transform="translate(-224.993 -125.064)" fill="#263238"/>
        <path id="Path_10457" data-name="Path 10457" d="M244.3,146.777a8.622,8.622,0,0,1,0,4.029,8.621,8.621,0,0,1,0-4.029Z" transform="translate(-231.862 -126.252)" fill="#263238"/>
        <path id="Path_10458" data-name="Path 10458" d="M253.44,144.215a8.622,8.622,0,0,1,2.015,3.489,8.62,8.62,0,0,1-2.015-3.489Z" transform="translate(-236.898 -124.876)" fill="#263238"/>
        <path id="Path_10459" data-name="Path 10459" d="M259.832,137.565a8.623,8.623,0,0,1,3.489,2.014,8.621,8.621,0,0,1-3.489-2.014Z" transform="translate(-240.33 -121.305)" fill="#263238"/>
        <path id="Path_10460" data-name="Path 10460" d="M262.043,128.334a8.622,8.622,0,0,1,4.029,0,8.621,8.621,0,0,1-4.029,0Z" transform="translate(-241.518 -116.219)" fill="#263238"/>
        <path id="Path_10461" data-name="Path 10461" d="M259.481,117.413a8.622,8.622,0,0,1,3.489-2.015,8.621,8.621,0,0,1-3.489,2.015Z" transform="translate(-240.142 -109.401)" fill="#263238"/>
        <path id="Path_10462" data-name="Path 10462" d="M252.832,109.311a8.622,8.622,0,0,1,2.014-3.489,8.621,8.621,0,0,1-2.014,3.489Z" transform="translate(-236.571 -104.257)" fill="#263238"/>
      </g>
      <path id="Path_10463" data-name="Path 10463" d="M323,247.013H181.635L161.564,135.537H302.928Z" transform="translate(-161.564 -119.358)" fill="#12b5ff"/>
      <g id="Group_55332" data-name="Group 55332" transform="translate(43.11 72.574)">
        <circle id="Ellipse_297" data-name="Ellipse 297" cx="5.876" cy="5.876" r="5.876" fill="#263238"/>
        <circle id="Ellipse_298" data-name="Ellipse 298" cx="5.876" cy="5.876" r="5.876" transform="translate(46.448)" fill="#263238"/>
        <path id="Path_10464" data-name="Path 10464" d="M314.893,275.857l-.322-.615c-.029-.056-3.065-5.666-9.172-5.666-5.57,0-6.928,5.283-6.983,5.507l-.165.673-1.347-.326.162-.674c.016-.066,1.655-6.57,8.333-6.57,6.962,0,10.265,6.148,10.4,6.41l.323.615-1.23.645Z" transform="translate(-277.354 -263.168)" fill="#263238"/>
      </g>
    </g>
  </g>
  <g id="Fly" transform="translate(226.854 12.98)">
    <g id="Group_55340" data-name="Group 55340">
      <g id="Group_55334" data-name="Group 55334" transform="translate(0 6.444)">
        <path id="Path_10465" data-name="Path 10465" d="M489.987,268.335q.452-.1.9-.212" transform="translate(-489.987 -163.412)" fill="none" stroke="#263238" stroke-width="1"/>
        <path id="Path_10466" data-name="Path 10466" d="M494.608,146.667c7.082-2.391,13.012-7.962,13.57-14.471,1.23-14.352-16.249-22.28-14.443-38.865,1.722-15.82,18.316-16.949,24.969-14.762,7.347,2.415,4.83,9.477-1.823,8.566-11.533-1.58-18.782-14.118-13.3-28.34,4.092-10.626,14.294-14.633,18.438-15.855" transform="translate(-491.93 -42.483)" fill="none" stroke="#263238" stroke-width="1" stroke-dasharray="0 0 4.004 4.004"/>
        <path id="Path_10467" data-name="Path 10467" d="M556.9,42.163c.573-.148.9-.209.9-.209" transform="translate(-525.918 -41.954)" fill="none" stroke="#263238" stroke-width="1"/>
      </g>
      <g id="Group_55339" data-name="Group 55339" transform="translate(27.372)">
        <path id="Path_10468" data-name="Path 10468" d="M565.716,33.993c-1.182-3.659-9.089-2.344-7.545,2.436S566.9,37.652,565.716,33.993Z" transform="translate(-553.868 -30.107)" fill="#263238"/>
        <g id="Group_55336" data-name="Group 55336">
          <path id="Path_10469" data-name="Path 10469" d="M549.11,30.447c.059-1.6,2.292-2.84,5.448-2.27a17.691,17.691,0,0,1,6.128,2.7,17.634,17.634,0,0,1-6.31,2.246C551.186,33.455,549.05,32.059,549.11,30.447Z" transform="translate(-549.108 -28.036)" fill="#ebebeb"/>
          <g id="Group_55335" data-name="Group 55335" transform="translate(1.761 0.99)">
            <path id="Path_10470" data-name="Path 10470" d="M562.728,33.742c-1.639.011-3.275-.044-4.911-.094-1.636-.07-3.272-.135-4.9-.267,1.639-.012,3.275.044,4.911.094,1.636.07,3.271.135,4.9.267Z" transform="translate(-552.912 -31.896)" fill="#263238"/>
            <path id="Path_10471" data-name="Path 10471" d="M555.963,30.174a13.017,13.017,0,0,1,1.354.745,12.85,12.85,0,0,1,1.262.892,12.838,12.838,0,0,1-1.354-.745,13.012,13.012,0,0,1-1.262-.892Z" transform="translate(-554.551 -30.174)" fill="#263238"/>
            <path id="Path_10472" data-name="Path 10472" d="M562.072,33.836a14.3,14.3,0,0,1-1.314.949,14.145,14.145,0,0,1-1.408.8,14.112,14.112,0,0,1,1.314-.949,14.307,14.307,0,0,1,1.408-.8Z" transform="translate(-556.369 -32.141)" fill="#263238"/>
            <path id="Path_10473" data-name="Path 10473" d="M566.257,31.884a3.284,3.284,0,0,1,.653.415,3.243,3.243,0,0,1,.544.55,3.243,3.243,0,0,1-.653-.415,3.286,3.286,0,0,1-.544-.55Z" transform="translate(-560.079 -31.092)" fill="#263238"/>
          </g>
        </g>
        <g id="Group_55338" data-name="Group 55338" transform="translate(2.622 4.821)">
          <path id="Path_10474" data-name="Path 10474" d="M555.158,45.563c.986,1.267,3.52.963,5.746-1.345a17.691,17.691,0,0,0,3.395-5.77,17.636,17.636,0,0,0-6.431,1.869C555.084,41.909,554.167,44.29,555.158,45.563Z" transform="translate(-554.772 -38.448)" fill="#ebebeb"/>
          <g id="Group_55337" data-name="Group 55337" transform="translate(1.776 0)">
            <path id="Path_10475" data-name="Path 10475" d="M566.359,38.448c-1.336.949-2.631,1.951-3.929,2.948-1.286,1.013-2.575,2.023-3.822,3.085,1.336-.949,2.631-1.951,3.929-2.948C563.822,40.52,565.111,39.51,566.359,38.448Z" transform="translate(-558.608 -38.448)" fill="#263238"/>
            <path id="Path_10476" data-name="Path 10476" d="M562.959,48.984a13.005,13.005,0,0,0,.662-1.4,12.834,12.834,0,0,0,.5-1.462,12.831,12.831,0,0,0-.662,1.4A13.006,13.006,0,0,0,562.959,48.984Z" transform="translate(-560.944 -42.571)" fill="#263238"/>
            <path id="Path_10477" data-name="Path 10477" d="M564.585,43.882a14.31,14.31,0,0,0-1.621,0,14.137,14.137,0,0,0-1.612.172,14.124,14.124,0,0,0,1.621,0A14.311,14.311,0,0,0,564.585,43.882Z" transform="translate(-560.081 -41.353)" fill="#263238"/>
            <path id="Path_10478" data-name="Path 10478" d="M570.31,43.171a3.288,3.288,0,0,0,.287-.719,3.249,3.249,0,0,0,.12-.764,3.247,3.247,0,0,0-.287.719A3.286,3.286,0,0,0,570.31,43.171Z" transform="translate(-564.892 -40.188)" fill="#263238"/>
          </g>
        </g>
        <path id="Path_10479" data-name="Path 10479" d="M572.6,33.29a1.387,1.387,0,1,1,.894-1.746A1.387,1.387,0,0,1,572.6,33.29Z" transform="translate(-560.747 -29.403)" fill="#455a64"/>
        <path id="Path_10480" data-name="Path 10480" d="M574.436,38.992a1.387,1.387,0,1,1,.894-1.746A1.387,1.387,0,0,1,574.436,38.992Z" transform="translate(-561.736 -32.466)" fill="#455a64"/>
      </g>
    </g>
  </g>
  <g id="Speech_Bubble" transform="translate(89.698 5.484)">
    <g id="Group_55343" data-name="Group 55343">
      <g id="Group_55341" data-name="Group 55341">
        <path id="Path_10481" data-name="Path 10481" d="M219.634,24.807a11.536,11.536,0,0,1-19.28,7.3l-5.773.847,2.888-4.991a11.54,11.54,0,1,1,22.164-3.155Z" transform="translate(-194.193 -11.964)" fill="#fff"/>
        <path id="Path_10482" data-name="Path 10482" d="M219.183,24.689a11.619,11.619,0,0,1-2.329,5.85,12.86,12.86,0,0,1-1.046,1.2,12.976,12.976,0,0,1-1.218,1.031,11.38,11.38,0,0,1-2.784,1.55,11.513,11.513,0,0,1-3.107.741,11.351,11.351,0,0,1-1.6.031,10.14,10.14,0,0,1-1.6-.166,11.643,11.643,0,0,1-5.709-2.819l.136.042-5.767.885-.418.064.212-.369,2.871-5-.013.2a11.668,11.668,0,0,1,.711-10.285,11.8,11.8,0,0,1,3.614-3.848,11.738,11.738,0,0,1,10.143-1.366,11.787,11.787,0,0,1,4.45,2.729A11.607,11.607,0,0,1,219.183,24.689Zm0,0A11.415,11.415,0,0,0,206.1,12.2a11.339,11.339,0,0,0-4.766,1.883,11.887,11.887,0,0,0-3.453,3.766,11.391,11.391,0,0,0-1.465,4.883,11.528,11.528,0,0,0,.812,5.027l.042.1-.055.094-2.905,4.981-.207-.3,5.778-.809.08-.011.057.053a11.366,11.366,0,0,0,5.526,2.846,9.923,9.923,0,0,0,1.565.19,11.171,11.171,0,0,0,1.579,0,11.378,11.378,0,0,0,3.082-.679,10.742,10.742,0,0,0,2.783-1.5A12.9,12.9,0,0,0,215.77,31.7a12.8,12.8,0,0,0,1.05-1.192A11.6,11.6,0,0,0,219.183,24.689Z" transform="translate(-193.742 -11.845)" fill="#263238"/>
      </g>
      <g id="Group_55342" data-name="Group 55342" transform="translate(8.323 5.102)">
        <path id="Path_10483" data-name="Path 10483" d="M211.718,34.787a1.122,1.122,0,0,1,1.129-1.186,1.188,1.188,0,0,1,0,2.373A1.122,1.122,0,0,1,211.718,34.787Zm.478-2.737-.268-9.185h1.837L213.5,32.05Z" transform="translate(-211.718 -22.865)" fill="#ffc727"/>
        <path id="Path_10484" data-name="Path 10484" d="M221.225,34.787a1.122,1.122,0,0,1,1.129-1.186,1.188,1.188,0,0,1,0,2.373A1.122,1.122,0,0,1,221.225,34.787Zm.478-2.737-.268-9.185h1.837L223,32.05Z" transform="translate(-216.823 -22.865)" fill="#ffc727"/>
        <path id="Path_10485" data-name="Path 10485" d="M230.732,34.787a1.122,1.122,0,0,1,1.129-1.186,1.188,1.188,0,0,1,0,2.373A1.122,1.122,0,0,1,230.732,34.787Zm.478-2.737-.268-9.185h1.837l-.268,9.185Z" transform="translate(-221.929 -22.865)" fill="#ffc727"/>
      </g>
    </g>
  </g>
</svg>
