<svg xmlns="http://www.w3.org/2000/svg" width="35.931" height="43.117" viewBox="0 0 35.931 43.117">
  <g id="bell" transform="translate(0 0)">
    <g id="Group_53950" data-name="Group 53950" transform="translate(14.372 0)">
      <path id="Path_933" data-name="Path 933" d="M16.288,7.51a.9.9,0,0,1-.9-.9V3.593a1.8,1.8,0,0,0-3.593,0V6.611a.9.9,0,0,1-1.8,0V3.593a3.593,3.593,0,0,1,7.186,0V6.611A.9.9,0,0,1,16.288,7.51Z" transform="translate(-10 0)" fill="#8b8b8b"/>
    </g>
    <g id="Group_53951" data-name="Group 53951" transform="translate(11.678 35.931)">
      <path id="Path_934" data-name="Path 934" d="M14.788,27.186A6.3,6.3,0,0,1,8.5,20.9a.9.9,0,1,1,1.8,0,4.491,4.491,0,0,0,8.983,0,.9.9,0,1,1,1.8,0A6.3,6.3,0,0,1,14.788,27.186Z" transform="translate(-8.5 -20)" fill="#8b8b8b"/>
    </g>
    <g id="Group_53952" data-name="Group 53952" transform="translate(0 5.39)">
      <path id="Path_935" data-name="Path 935" d="M35.236,35.338H4.695a2.695,2.695,0,0,1-1.752-4.743A12.49,12.49,0,0,0,7.39,21.034V15.576a12.576,12.576,0,0,1,25.152,0v5.458a12.476,12.476,0,0,0,4.432,9.549,2.7,2.7,0,0,1-1.737,4.755ZM19.965,4.8A10.79,10.79,0,0,0,9.186,15.576v5.458A14.273,14.273,0,0,1,4.118,31.955a.9.9,0,0,0,.577,1.586H35.236a.9.9,0,0,0,.584-1.581,14.284,14.284,0,0,1-5.075-10.927V15.576A10.79,10.79,0,0,0,19.965,4.8Z" transform="translate(-2 -3)" fill="#8b8b8b"/>
    </g>
  </g>
</svg>
