<svg xmlns="http://www.w3.org/2000/svg" width="20.064" height="19.337" viewBox="0 0 20.064 19.337">
  <g id="offer_1_" data-name="offer (1)" transform="translate(0 0)">
    <path id="Path_8515" data-name="Path 8515" d="M26.443,16.5a1.645,1.645,0,0,1-.45-1.386l.066-.467a2.59,2.59,0,0,0-2.126-2.928l-.464-.083a1.649,1.649,0,0,1-1.179-.856l-.222-.415a2.589,2.589,0,0,0-3.442-1.117l-.424.205a1.648,1.648,0,0,1-1.457,0l-.422-.207a2.592,2.592,0,0,0-3.442,1.117l-.222.415a1.647,1.647,0,0,1-1.179.856l-.464.083a2.59,2.59,0,0,0-2.126,2.928l.066.467a1.645,1.645,0,0,1-.45,1.386l-.328.337a2.588,2.588,0,0,0,0,3.618l.328.339a1.645,1.645,0,0,1,.45,1.386l-.066.467a2.59,2.59,0,0,0,2.126,2.928l.464.083a1.649,1.649,0,0,1,1.179.856l.222.415a2.589,2.589,0,0,0,3.442,1.117l.422-.2a1.648,1.648,0,0,1,1.457,0l.422.207a2.592,2.592,0,0,0,3.442-1.117l.222-.415a1.647,1.647,0,0,1,1.179-.856l.464-.083a2.59,2.59,0,0,0,2.126-2.928l-.066-.467a1.645,1.645,0,0,1,.45-1.386l.328-.337a2.588,2.588,0,0,0,0-3.618Zm-.351,3.3-.328.337a2.589,2.589,0,0,0-.707,2.173l.066.467a1.652,1.652,0,0,1-1.355,1.867l-.464.083a2.578,2.578,0,0,0-1.848,1.344l-.222.415a1.653,1.653,0,0,1-2.195.714L18.618,27a2.582,2.582,0,0,0-2.287,0l-.422.207a1.651,1.651,0,0,1-2.195-.714l-.222-.415a2.587,2.587,0,0,0-1.848-1.344l-.464-.083a1.652,1.652,0,0,1-1.355-1.867l.066-.467a2.579,2.579,0,0,0-.707-2.173L8.856,19.8a1.651,1.651,0,0,1,0-2.308l.328-.337a2.589,2.589,0,0,0,.707-2.173l-.066-.467a1.652,1.652,0,0,1,1.355-1.867l.464-.083a2.578,2.578,0,0,0,1.848-1.344l.222-.415a1.651,1.651,0,0,1,1.461-.884,1.675,1.675,0,0,1,.733.17l.422.207a2.582,2.582,0,0,0,2.287,0l.422-.207a1.651,1.651,0,0,1,2.195.714l.222.415A2.587,2.587,0,0,0,23.3,12.57l.464.083a1.652,1.652,0,0,1,1.355,1.867l-.066.467a2.579,2.579,0,0,0,.707,2.173l.328.339a1.651,1.651,0,0,1,0,2.308Z" transform="translate(-7.442 -8.984)" fill="#00aeef"/>
    <path id="Path_8516" data-name="Path 8516" d="M41.144,33.643a.472.472,0,0,0-.667,0l-6.834,6.834a.471.471,0,1,0,.665.667l6.834-6.834A.47.47,0,0,0,41.144,33.643Z" transform="translate(-27.361 -27.725)" fill="#00aeef"/>
    <path id="Path_8517" data-name="Path 8517" d="M35.374,31.723a2,2,0,1,0-1.417-.587A2,2,0,0,0,35.374,31.723Zm-.75-2.753a1.058,1.058,0,1,1-.311.75A1.057,1.057,0,0,1,34.624,28.97Z" transform="translate(-27.258 -23.302)" fill="#00aeef"/>
    <path id="Path_8518" data-name="Path 8518" d="M50.223,55.877a2,2,0,1,0,3.42,1.417,2,2,0,0,0-3.42-1.417Zm2.166,2.166a1.058,1.058,0,1,1,.311-.75A1.063,1.063,0,0,1,52.389,58.043Z" transform="translate(-39.691 -44.375)" fill="#00aeef"/>
  </g>
</svg>
