<svg xmlns="http://www.w3.org/2000/svg" width="58.882" height="61.646" viewBox="0 0 58.882 61.646">
  <g id="Group_53965" data-name="Group 53965" transform="translate(-236.858 -42.482)">
    <g id="offer" transform="translate(236.858 42.482)">
      <g id="Icons" transform="translate(0 0)">
        <path id="Path_936" data-name="Path 936" d="M42.527,57.841c0,3.033-4.805,6.79-3.916,9.526.92,2.837,7.044,3.044,8.765,5.405,1.735,2.384.051,8.27,2.438,10,2.361,1.719,7.431-1.689,10.267-.768,2.735.887,4.82,6.654,7.857,6.654S73.055,82.9,75.8,82.009c2.837-.921,7.906,2.487,10.266.768,2.384-1.734.7-7.62,2.438-10,1.718-2.361,7.845-2.574,8.766-5.405.889-2.736-3.918-6.493-3.918-9.526s4.806-6.79,3.918-9.526c-.921-2.835-7.044-3.043-8.766-5.4-1.735-2.384-.051-8.264-2.438-10.006-2.36-1.718-7.429,1.691-10.266.769-2.736-.889-4.82-6.654-7.857-6.654s-5.117,5.766-7.857,6.654c-2.837.921-7.906-2.487-10.267-.769-2.384,1.735-.7,7.622-2.438,10.006-1.718,2.361-7.845,2.574-8.765,5.4C37.722,51.051,42.527,54.809,42.527,57.841Z" transform="translate(-38.494 -27.017)" fill="#ff3bab"/>
        <path id="Path_948" data-name="Path 948" d="M20.562,0A20.562,20.562,0,1,1,0,20.562,20.562,20.562,0,0,1,20.562,0Z" transform="translate(8.875 10.262)" fill="#12b5ff"/>
        <circle id="Ellipse_80" data-name="Ellipse 80" cx="16.316" cy="16.316" r="16.316" transform="translate(13.12 14.507)" fill="#e82d86"/>
        <path id="Path_937" data-name="Path 937" d="M72.837,84.506c-1.539,1.9-3.059,4.14-4.949,4.14-3.033,0-5.117-5.767-7.857-6.656-2.835-.921-7.9,2.487-10.266.769-2.384-1.735-.7-7.622-2.438-10.006-1.718-2.36-7.845-2.567-8.766-5.4-.889-2.737,3.918-6.493,3.918-9.526s-4.806-6.79-3.918-9.526c.921-2.837,7.044-3.044,8.766-5.4,1.735-2.384.051-8.264,2.438-10.006,2.361-1.718,7.431,1.691,10.266.769C62.774,32.768,64.855,27,67.888,27c1.89,0,3.41,2.238,4.949,4.14a27.373,27.373,0,0,0,0,53.364Z" transform="translate(-38.451 -27)" fill="#ffc800"/>
        <path id="Path_938" data-name="Path 938" d="M108.217,137.239a27.274,27.274,0,0,0,7.089,18.379,20.568,20.568,0,0,1,0-36.758A27.274,27.274,0,0,0,108.217,137.239Z" transform="translate(-95.095 -106.416)" fill="#ffe600"/>
        <circle id="Ellipse_81" data-name="Ellipse 81" cx="2.102" cy="2.102" r="2.102" transform="translate(51.598 20.177)" fill="#ea5ca6"/>
        <circle id="Ellipse_82" data-name="Ellipse 82" cx="1.276" cy="1.276" r="1.276" transform="translate(52.424 25.235)" fill="#ea5ca6"/>
      </g>
    </g>
    <text id="_" data-name="%" transform="translate(257 81)" fill="#fff" font-size="22" font-family="OpenSans, Open Sans"><tspan x="0" y="0">%</tspan></text>
  </g>
</svg>
