<svg xmlns="http://www.w3.org/2000/svg" width="25.318" height="24.213" viewBox="0 0 25.318 24.213">
  <g id="Icon_feather-shopping-cart" data-name="Icon feather-shopping-cart" transform="translate(0.5 0.5)">
    <path id="Path_3" data-name="Path 3" d="M14.211,31.105A1.105,1.105,0,1,1,13.105,30,1.105,1.105,0,0,1,14.211,31.105Z" transform="translate(-4.262 -8.998)" fill="none" stroke="#00aeef" stroke-linecap="round" stroke-linejoin="round" stroke-width="1"/>
    <path id="Path_4" data-name="Path 4" d="M30.711,31.105A1.105,1.105,0,1,1,29.605,30,1.105,1.105,0,0,1,30.711,31.105Z" transform="translate(-8.603 -8.998)" fill="none" stroke="#00aeef" stroke-linecap="round" stroke-linejoin="round" stroke-width="1"/>
    <path id="Path_5" data-name="Path 5" d="M1.5,1.5H5.921L8.884,16.3a2.211,2.211,0,0,0,2.211,1.78H21.839A2.211,2.211,0,0,0,24.05,16.3l1.769-9.274H7.027" transform="translate(-1.5 -1.5)" fill="none" stroke="#00aeef" stroke-linecap="round" stroke-linejoin="round" stroke-width="1"/>
  </g>
</svg>
