<svg xmlns="http://www.w3.org/2000/svg" width="33" height="33" viewBox="0 0 33 33">
  <g id="Group_54850" data-name="Group 54850" transform="translate(-352 -569)">
    <path id="Path_1105" data-name="Path 1105" d="M16.5,0A16.5,16.5,0,1,1,0,16.5,16.5,16.5,0,0,1,16.5,0Z" transform="translate(352 569)" fill="#fff"/>
    <path id="Icon_ionic-ios-arrow-down" data-name="Icon ionic-ios-arrow-down" d="M8.688,3,2.115,9.574a1.237,1.237,0,0,1-1.754,0,1.253,1.253,0,0,1,0-1.76L7.808.362A1.24,1.24,0,0,1,9.521.326l7.5,7.483a1.242,1.242,0,1,1-1.754,1.76Z" transform="translate(373.674 577.06) rotate(90)" fill="#ff3b6a"/>
  </g>
</svg>
