<svg xmlns="http://www.w3.org/2000/svg" width="17.737" height="21.285" viewBox="0 0 17.737 21.285">
  <g id="pie-chart" transform="translate(-2)">
    <path id="Path_9080" data-name="Path 9080" d="M17.52,21.285H4.217A2.22,2.22,0,0,1,2,19.068V2.217A2.22,2.22,0,0,1,4.217,0h13.3a2.22,2.22,0,0,1,2.217,2.217v16.85A2.22,2.22,0,0,1,17.52,21.285ZM4.217.887a1.332,1.332,0,0,0-1.33,1.33v16.85a1.332,1.332,0,0,0,1.33,1.33h13.3a1.332,1.332,0,0,0,1.33-1.33V2.217A1.332,1.332,0,0,0,17.52.887Z" fill="#00aeef"/>
    <path id="Path_9081" data-name="Path 9081" d="M18.217,11.887H16.443a.443.443,0,0,1,0-.887h1.774a.443.443,0,0,1,0,.887Z" transform="translate(-1.584 -1.245)" fill="#00aeef"/>
    <path id="Path_9082" data-name="Path 9082" d="M18.217,8.887H16.443a.443.443,0,0,1,0-.887h1.774a.443.443,0,0,1,0,.887Z" transform="translate(-1.584 -0.905)" fill="#00aeef"/>
    <path id="Path_9083" data-name="Path 9083" d="M18.217,14.887H16.443a.443.443,0,0,1,0-.887h1.774a.443.443,0,0,1,0,.887Z" transform="translate(-1.584 -1.584)" fill="#00aeef"/>
    <path id="Path_9084" data-name="Path 9084" d="M18.217,17.887H16.443a.443.443,0,0,1,0-.887h1.774a.443.443,0,0,1,0,.887Z" transform="translate(-1.584 -1.923)" fill="#00aeef"/>
    <path id="Path_9085" data-name="Path 9085" d="M16.973,20.887H5.443a.443.443,0,0,1,0-.887H16.973a.443.443,0,1,1,0,.887Z" transform="translate(-0.339 -2.263)" fill="#00aeef"/>
    <path id="Path_9086" data-name="Path 9086" d="M9.434,16.869a4.434,4.434,0,1,1,4.434-4.434A4.439,4.439,0,0,1,9.434,16.869Zm0-7.982a3.547,3.547,0,1,0,3.547,3.547A3.551,3.551,0,0,0,9.434,8.887Z" transform="translate(-0.339 -0.905)" fill="#00aeef"/>
    <path id="Path_9087" data-name="Path 9087" d="M6.761,15.7a.443.443,0,0,1-.314-.756L9.14,12.251V8.443a.443.443,0,0,1,.887,0v3.991a.447.447,0,0,1-.129.314L7.075,15.57A.445.445,0,0,1,6.761,15.7Z" transform="translate(-0.489 -0.905)" fill="#00aeef"/>
  </g>
</svg>
