<svg xmlns="http://www.w3.org/2000/svg" width="22.752" height="22.412" viewBox="0 0 22.752 22.412">
  <path id="return_1_" data-name="return (1)" d="M22.752,3.081a.33.33,0,0,0-.047-.168L21.192.363A.745.745,0,0,0,20.554,0H8.19a.745.745,0,0,0-.637.362L6.033,2.913a.33.33,0,0,0-.047.168v7.773L.167,16.188a.515.515,0,0,0-.007.752l5.61,5.33a.515.515,0,0,0,.869-.373V19.375a10.431,10.431,0,0,0,3.581-1.248H21.9a.85.85,0,0,0,.849-.849V3.081ZM15.61.667l.364,2.083H12.988L13.316.667Zm-2.678,2.75h3.105V7.863L14.683,6.855a.333.333,0,0,0-.4,0L12.932,7.863ZM8.125.7A.076.076,0,0,1,8.19.667h4.451L12.313,2.75H6.906Zm13.96,16.574a.183.183,0,0,1-.183.183H11.2a8.8,8.8,0,0,0,1.417-1.392,13.026,13.026,0,0,0,2.491-5.8.333.333,0,0,0-.6-.259,8.486,8.486,0,0,1-5.318,3.7.333.333,0,1,0,.144.651,8.7,8.7,0,0,0,4.774-2.782,11.2,11.2,0,0,1-2.01,4.073,8.845,8.845,0,0,1-5.845,3.111.333.333,0,0,0-.286.33v2.454L.737,16.57l5.235-4.8v2.554a.333.333,0,0,0,.333.333h.016c.557,0,1.092-.026,1.59-.075a.333.333,0,1,0-.066-.663c-.377.037-.777.06-1.194.068V3.417h5.613V8.527a.333.333,0,0,0,.532.267l1.687-1.257,1.687,1.257a.333.333,0,0,0,.532-.267V3.417h2.865a.333.333,0,1,0,0-.667H16.65L16.286.667h4.268A.076.076,0,0,1,20.619.7L21.834,2.75h-.821a.333.333,0,0,0,0,.667h1.073Zm0,0" transform="translate(0 0)" fill="#00aeef"/>
</svg>
