<svg xmlns="http://www.w3.org/2000/svg" width="111.368" height="98.283" viewBox="0 0 111.368 98.283">
  <g id="Group_54761" data-name="Group 54761" transform="translate(0)">
    <g id="_2" data-name="2" transform="translate(0 0)">
      <g id="Group_54716" data-name="Group 54716" transform="translate(0 0)">
        <g id="Group_54715" data-name="Group 54715">
          <path id="Path_9620" data-name="Path 9620" d="M455.515,207.941a55.25,55.25,0,1,0-86.629,0Z" transform="translate(-356.083 -109.966)" fill="#e1f5fc"/>
          <ellipse id="Ellipse_181" data-name="Ellipse 181" cx="3.843" cy="3.843" rx="3.843" ry="3.843" transform="translate(10.12 8.525)" fill="#e1f5fc"/>
          <g id="Group_54702" data-name="Group 54702" transform="translate(0 55.903)">
            <g id="Group_54686" data-name="Group 54686" transform="translate(6.623)">
              <g id="Group_54683" data-name="Group 54683" transform="translate(0 8.607)">
                <g id="Group_54682" data-name="Group 54682" transform="translate(2.533)">
                  <g id="Group_54677" data-name="Group 54677" transform="translate(10.339 8.751)">
                    <g id="Group_54676" data-name="Group 54676">
                      <rect id="Rectangle_9867" data-name="Rectangle 9867" width="8.738" height="11.22" fill="#ffa305"/>
                      <path id="Path_9621" data-name="Path 9621" d="M525.56,529.048V517.83h5.13l-.08,11.218Z" transform="translate(-516.822 -517.83)" fill="#de7f04"/>
                    </g>
                    <rect id="Rectangle_9868" data-name="Rectangle 9868" width="1.307" height="2.553" transform="translate(3.264)" fill="#ffc766"/>
                  </g>
                  <g id="Group_54678" data-name="Group 54678" transform="translate(6.305 8.751)">
                    <path id="Path_9622" data-name="Path 9622" d="M446.87,529.048V517.83H450.9l-.063,11.218Z" transform="translate(-446.87 -517.83)" fill="#de7f04"/>
                  </g>
                  <g id="Group_54680" data-name="Group 54680">
                    <g id="Group_54679" data-name="Group 54679">
                      <rect id="Rectangle_9869" data-name="Rectangle 9869" width="6.474" height="8.751" transform="translate(4.345)" fill="#de7f04"/>
                      <path id="Path_9623" data-name="Path 9623" d="M413.119,472.661V463.91h-5.1l.067,8.751Z" transform="translate(-408.02 -463.91)" fill="#ffa305"/>
                    </g>
                    <rect id="Rectangle_9870" data-name="Rectangle 9870" width="1.019" height="1.991" transform="translate(7.253)" fill="#ffc766"/>
                  </g>
                  <g id="Group_54681" data-name="Group 54681" transform="translate(10.777)">
                    <rect id="Rectangle_9871" data-name="Rectangle 9871" width="6.474" height="8.751" transform="translate(4.345)" fill="#ffa305"/>
                    <path id="Path_9624" data-name="Path 9624" d="M478.765,472.661V463.91H474.42l.068,8.751Z" transform="translate(-474.42 -463.91)" fill="#ffa305"/>
                  </g>
                  <rect id="Rectangle_9872" data-name="Rectangle 9872" width="3.884" height="8.751" transform="translate(17.712)" fill="#de7f04"/>
                </g>
                <rect id="Rectangle_9873" data-name="Rectangle 9873" width="9.051" height="11.22" transform="translate(0 8.751)" fill="#ffa305"/>
                <rect id="Rectangle_9874" data-name="Rectangle 9874" width="1.307" height="2.553" transform="translate(3.872 8.751)" fill="#ffc766"/>
              </g>
              <rect id="Rectangle_9875" data-name="Rectangle 9875" width="1.019" height="1.991" transform="translate(16.222 8.607)" fill="#ffc766"/>
              <g id="Group_54685" data-name="Group 54685" transform="translate(7.341)">
                <g id="Group_54684" data-name="Group 54684">
                  <rect id="Rectangle_9876" data-name="Rectangle 9876" width="6.474" height="8.751" transform="translate(4.345)" fill="#de7f04"/>
                  <path id="Path_9625" data-name="Path 9625" d="M442.741,419.631V410.88h-5.1l.068,8.751Z" transform="translate(-437.64 -410.88)" fill="#ffa305"/>
                </g>
                <rect id="Rectangle_9877" data-name="Rectangle 9877" width="1.019" height="1.991" transform="translate(7.255)" fill="#ffc766"/>
              </g>
            </g>
            <g id="Group_54701" data-name="Group 54701" transform="translate(0 3.106)">
              <g id="Group_54700" data-name="Group 54700">
                <g id="Group_54687" data-name="Group 54687" transform="translate(3.131 33.889)">
                  <ellipse id="Ellipse_182" data-name="Ellipse 182" cx="2.639" cy="2.639" rx="2.639" ry="2.639" transform="translate(25.732 5.278) rotate(-89.667)" fill="#4d4d4d"/>
                  <ellipse id="Ellipse_183" data-name="Ellipse 183" cx="1.594" cy="1.594" rx="1.594" ry="1.594" transform="matrix(0.01, -1, 1, 0.01, 26.768, 4.236)" fill="#bdbdbd"/>
                  <ellipse id="Ellipse_184" data-name="Ellipse 184" cx="2.639" cy="2.639" rx="2.639" ry="2.639" transform="matrix(0.006, -1, 1, 0.006, 19.256, 5.278)" fill="#4d4d4d"/>
                  <ellipse id="Ellipse_185" data-name="Ellipse 185" cx="1.594" cy="1.594" rx="1.594" ry="1.594" transform="translate(20.305 4.231) rotate(-89.459)" fill="#bdbdbd"/>
                  <ellipse id="Ellipse_186" data-name="Ellipse 186" cx="2.639" cy="2.639" rx="2.639" ry="2.639" transform="matrix(0.006, -1, 1, 0.006, 4.862, 5.281)" fill="#4d4d4d"/>
                  <ellipse id="Ellipse_187" data-name="Ellipse 187" cx="1.594" cy="1.594" rx="1.594" ry="1.594" transform="translate(5.91 4.233) rotate(-89.46)" fill="#bdbdbd"/>
                  <ellipse id="Ellipse_188" data-name="Ellipse 188" cx="2.639" cy="2.639" rx="2.639" ry="2.639" transform="matrix(0.006, -1, 1, 0.006, 0, 5.279)" fill="#4d4d4d"/>
                  <ellipse id="Ellipse_189" data-name="Ellipse 189" cx="1.594" cy="1.594" rx="1.594" ry="1.594" transform="translate(1.048 4.231) rotate(-89.449)" fill="#bdbdbd"/>
                </g>
                <path id="Path_9626" data-name="Path 9626" d="M543.188,634.659l1.586-.79V631.54h2.245v2.681l-3.17,1.584C542.859,636.157,542.419,635.013,543.188,634.659Z" transform="translate(-511.766 -598.833)" fill="#4d4d4d"/>
                <path id="Path_9627" data-name="Path 9627" d="M503.288,634.659l1.586-.79V631.54h2.245v2.681l-3.17,1.584C502.959,636.157,502.519,635.013,503.288,634.659Z" transform="translate(-478.342 -598.833)" fill="#4d4d4d"/>
                <path id="Path_9628" data-name="Path 9628" d="M414.6,634.659l1.586-.79V631.54h2.245v2.681l-3.17,1.584C414.269,636.157,413.829,635.013,414.6,634.659Z" transform="translate(-404.047 -598.833)" fill="#4d4d4d"/>
                <path id="Path_9629" data-name="Path 9629" d="M384.638,634.659l1.586-.79V631.54h2.245v2.681l-3.17,1.584C384.309,636.157,383.869,635.013,384.638,634.659Z" transform="translate(-378.949 -598.833)" fill="#4d4d4d"/>
                <g id="Group_54691" data-name="Group 54691" transform="translate(12.507 7.221)">
                  <g id="Group_54690" data-name="Group 54690">
                    <g id="Group_54688" data-name="Group 54688">
                      <path id="Path_9630" data-name="Path 9630" d="M432.2,492.89a.38.38,0,0,1-.125-.063.284.284,0,0,1-.114-.162l-3.3-17.9c-.015-.08.034-.133.122-.133l27.169-.123a.308.308,0,0,1,.195.086.266.266,0,0,1,.1.179l.049,18.007a.106.106,0,0,1-.119.105l-23.9.015A.4.4,0,0,1,432.2,492.89Zm-3.063-17.871,3.22,17.509,23.535,0-.052-17.657Z" transform="translate(-428.664 -474.51)" fill="#4d4d4d"/>
                      <path id="Path_9631" data-name="Path 9631" d="M436.683,511.8l-.123-.23,26.065-.287.105.218Z" transform="translate(-435.279 -505.312)" fill="#4d4d4d"/>
                      <path id="Path_9632" data-name="Path 9632" d="M443.6,549.511l-.117-.227,24.96-.243.1.214Z" transform="translate(-441.075 -536.944)" fill="#4d4d4d"/>
                    </g>
                    <g id="Group_54689" data-name="Group 54689" transform="translate(2.297 0.134)">
                      <path id="Path_9633" data-name="Path 9633" d="M446.188,494.034a.1.1,0,0,1-.075-.071l-3.3-17.9c-.006-.032.021-.05.06-.039a.118.118,0,0,1,.083.078l3.295,17.9c.006.031-.021.05-.058.041Z" transform="translate(-442.814 -475.907)" fill="#4d4d4d"/>
                      <path id="Path_9634" data-name="Path 9634" d="M459.96,493.971a.1.1,0,0,1-.075-.071l-3-17.915c0-.032.023-.049.062-.039a.119.119,0,0,1,.081.078l2.994,17.907c0,.031-.021.049-.06.039A.006.006,0,0,1,459.96,493.971Z" transform="translate(-454.603 -475.844)" fill="#4d4d4d"/>
                      <path id="Path_9635" data-name="Path 9635" d="M473.749,493.906a.1.1,0,0,1-.075-.073l-2.7-17.924c0-.032.023-.049.062-.037a.116.116,0,0,1,.079.078l2.7,17.918c0,.031-.023.049-.06.039C473.751,493.908,473.749,493.906,473.749,493.906Z" transform="translate(-466.406 -475.781)" fill="#4d4d4d"/>
                      <path id="Path_9636" data-name="Path 9636" d="M487.557,493.864a.1.1,0,0,1-.073-.073l-2.4-17.934c0-.031.023-.047.062-.036a.116.116,0,0,1,.078.078l2.394,17.928c0,.031-.023.047-.06.037Z" transform="translate(-478.226 -475.739)" fill="#4d4d4d"/>
                      <path id="Path_9637" data-name="Path 9637" d="M501.377,493.8a.1.1,0,0,1-.073-.073l-2.1-17.946c0-.031.024-.047.062-.034a.111.111,0,0,1,.076.078l2.094,17.939c0,.031-.026.047-.063.036Z" transform="translate(-490.056 -475.676)" fill="#4d4d4d"/>
                      <path id="Path_9638" data-name="Path 9638" d="M515.205,493.744a.1.1,0,0,1-.073-.073l-1.793-17.957c0-.031.024-.045.063-.034h0a.106.106,0,0,1,.073.078l1.79,17.95c0,.031-.023.047-.06.036Z" transform="translate(-501.892 -475.621)" fill="#4d4d4d"/>
                      <path id="Path_9639" data-name="Path 9639" d="M529.07,493.689h0a.1.1,0,0,1-.071-.075l-1.49-17.967c0-.031.026-.045.063-.032h0a.112.112,0,0,1,.073.078l1.488,17.96C529.133,493.684,529.106,493.7,529.07,493.689Z" transform="translate(-513.762 -475.566)" fill="#4d4d4d"/>
                      <path id="Path_9640" data-name="Path 9640" d="M542.937,493.628h0a.1.1,0,0,1-.071-.075l-1.186-17.978c0-.031.024-.044.063-.031a.11.11,0,0,1,.071.078L543,493.594C543,493.623,542.973,493.639,542.937,493.628Z" transform="translate(-525.634 -475.506)" fill="#4d4d4d"/>
                      <path id="Path_9641" data-name="Path 9641" d="M556.822,493.569h0a.1.1,0,0,1-.068-.075L555.87,475.5c0-.031.028-.044.063-.031a.1.1,0,0,1,.07.078l.88,17.983C556.884,493.564,556.856,493.579,556.822,493.569Z" transform="translate(-537.521 -475.447)" fill="#4d4d4d"/>
                      <path id="Path_9642" data-name="Path 9642" d="M570.717,493.5l0,0a.1.1,0,0,1-.067-.075l-.578-18c0-.029.028-.044.063-.029a.1.1,0,0,1,.068.078l.576,17.994C570.779,493.5,570.753,493.516,570.717,493.5Z" transform="translate(-549.416 -475.385)" fill="#4d4d4d"/>
                      <path id="Path_9643" data-name="Path 9643" d="M584.649,493.453l0,0a.094.094,0,0,1-.065-.075l-.271-18.011c0-.029.029-.042.065-.028a.1.1,0,0,1,.067.078l.269,18C584.709,493.45,584.683,493.463,584.649,493.453Z" transform="translate(-561.345 -475.333)" fill="#4d4d4d"/>
                    </g>
                  </g>
                </g>
                <g id="Group_54695" data-name="Group 54695" transform="translate(0 7.341)">
                  <g id="Group_54694" data-name="Group 54694">
                    <g id="Group_54692" data-name="Group 54692">
                      <path id="Path_9644" data-name="Path 9644" d="M354.995,493.515a.241.241,0,0,1-.073-.07.475.475,0,0,1-.078-.182l-3.235-17.785c-.013-.07.006-.117.047-.118l12.7-.11a.163.163,0,0,1,.105.076.381.381,0,0,1,.071.157l3.165,17.923c.013.071,0,.118-.042.118l-12.62,0A.1.1,0,0,1,354.995,493.515ZM351.853,475.7l3.188,17.41,12.4.016-3.079-17.553Z" transform="translate(-351.605 -475.25)" fill="#4d4d4d"/>
                      <path id="Path_9645" data-name="Path 9645" d="M358.758,513.45l-.078-.219,12.637-.271.088.206Z" transform="translate(-357.532 -506.84)" fill="#4d4d4d"/>
                      <path id="Path_9646" data-name="Path 9646" d="M365.491,550.947l-.081-.234,12.6-.243.091.221Z" transform="translate(-363.17 -538.262)" fill="#4d4d4d"/>
                    </g>
                    <g id="Group_54693" data-name="Group 54693" transform="translate(1.081 0.12)">
                      <path id="Path_9647" data-name="Path 9647" d="M361.682,494.5a.127.127,0,0,1-.049-.081l-3.369-17.8c0-.029.006-.044.024-.036a.11.11,0,0,1,.045.07l3.378,17.8c.006.036,0,.055-.026.045Z" transform="translate(-358.263 -476.489)" fill="#4d4d4d"/>
                      <path id="Path_9648" data-name="Path 9648" d="M368.24,494.447a.127.127,0,0,1-.049-.081l-3.347-17.808c0-.029.006-.044.026-.034a.1.1,0,0,1,.044.07l3.355,17.809c.006.034,0,.055-.026.044C368.241,494.449,368.241,494.447,368.24,494.447Z" transform="translate(-363.775 -476.435)" fill="#4d4d4d"/>
                      <path id="Path_9649" data-name="Path 9649" d="M374.808,494.405a.127.127,0,0,1-.049-.081l-3.326-17.817c0-.028.006-.042.026-.032a.1.1,0,0,1,.044.07l3.332,17.821c.007.034,0,.054-.026.044C374.808,494.407,374.808,494.407,374.808,494.405Z" transform="translate(-369.296 -476.393)" fill="#4d4d4d"/>
                      <path id="Path_9650" data-name="Path 9650" d="M381.386,494.357a.131.131,0,0,1-.049-.081l-3.3-17.829c0-.028.006-.042.026-.033a.1.1,0,0,1,.044.07l3.309,17.832c.006.032,0,.052-.028.041Z" transform="translate(-374.824 -476.342)" fill="#4d4d4d"/>
                      <path id="Path_9651" data-name="Path 9651" d="M387.973,494.3a.131.131,0,0,1-.049-.083l-3.28-17.838c0-.028.006-.042.026-.031a.107.107,0,0,1,.044.07L388,494.261c0,.034-.007.052-.028.041Z" transform="translate(-380.362 -476.288)" fill="#4d4d4d"/>
                      <path id="Path_9652" data-name="Path 9652" d="M394.569,494.25a.124.124,0,0,1-.049-.083l-3.256-17.85c0-.028.007-.041.026-.029h0a.111.111,0,0,1,.044.07l3.264,17.853c0,.032-.008.05-.029.039Z" transform="translate(-385.907 -476.236)" fill="#4d4d4d"/>
                      <path id="Path_9653" data-name="Path 9653" d="M401.158,494.2h0a.142.142,0,0,1-.05-.083l-3.233-17.86c0-.028.007-.041.026-.029h0a.111.111,0,0,1,.044.07l3.241,17.864C401.192,494.2,401.179,494.212,401.158,494.2Z" transform="translate(-391.444 -476.186)" fill="#4d4d4d"/>
                      <path id="Path_9654" data-name="Path 9654" d="M407.775,494.149h0a.134.134,0,0,1-.05-.083l-3.21-17.871c0-.028.007-.039.026-.028a.111.111,0,0,1,.044.07l3.218,17.874C407.807,494.144,407.794,494.162,407.775,494.149Z" transform="translate(-397.007 -476.134)" fill="#4d4d4d"/>
                      <path id="Path_9655" data-name="Path 9655" d="M414.382,494.1h0a.143.143,0,0,1-.05-.084l-3.188-17.879c0-.026.007-.039.026-.026a.1.1,0,0,1,.042.07l3.2,17.885C414.415,494.1,414.4,494.116,414.382,494.1Z" transform="translate(-402.561 -476.089)" fill="#4d4d4d"/>
                      <path id="Path_9656" data-name="Path 9656" d="M421.009,494.046a0,0,0,0,1,0,0,.141.141,0,0,1-.049-.083l-3.165-17.892c0-.026.007-.039.026-.026a.115.115,0,0,1,.042.07l3.173,17.9C421.04,494.041,421.029,494.057,421.009,494.046Z" transform="translate(-408.131 -476.03)" fill="#4d4d4d"/>
                      <path id="Path_9657" data-name="Path 9657" d="M427.637,494l0,0a.14.14,0,0,1-.049-.083l-3.142-17.9c0-.026.007-.037.026-.024a.119.119,0,0,1,.042.07l3.149,17.907C427.667,494,427.656,494.014,427.637,494Z" transform="translate(-413.702 -475.987)" fill="#4d4d4d"/>
                    </g>
                  </g>
                </g>
                <g id="Group_54699" data-name="Group 54699" transform="translate(27.233 7.182)">
                  <g id="Group_54698" data-name="Group 54698">
                    <g id="Group_54696" data-name="Group 54696">
                      <path id="Path_9658" data-name="Path 9658" d="M519.784,492.688a.181.181,0,0,1-.06-.071.431.431,0,0,1-.047-.183l-.278-17.939c0-.071.026-.118.067-.118l12.607-.106c.029,0,.063.029.091.076a.333.333,0,0,1,.046.159l.185,18.077c0,.073-.023.119-.062.119l-12.513,0A.057.057,0,0,1,519.784,492.688Zm-.182-17.967.292,17.559,12.291.023-.161-17.705Z" transform="translate(-519.4 -474.27)" fill="#4d4d4d"/>
                      <path id="Path_9659" data-name="Path 9659" d="M520.172,512.8l-.042-.221,12.573-.268.052.209Z" transform="translate(-520.011 -506.136)" fill="#4d4d4d"/>
                      <path id="Path_9660" data-name="Path 9660" d="M520.692,550.617l-.042-.237,12.534-.24.054.224Z" transform="translate(-520.447 -537.826)" fill="#4d4d4d"/>
                    </g>
                    <g id="Group_54697" data-name="Group 54697" transform="translate(1.065 0.12)">
                      <path id="Path_9661" data-name="Path 9661" d="M526.4,493.663a.106.106,0,0,1-.034-.081l-.409-17.95c0-.029.013-.045.031-.036a.085.085,0,0,1,.033.07l.417,17.954c0,.036-.015.057-.034.045Z" transform="translate(-525.96 -475.497)" fill="#4d4d4d"/>
                      <path id="Path_9662" data-name="Path 9662" d="M532.91,493.611a.106.106,0,0,1-.034-.081l-.386-17.962c0-.029.013-.044.031-.034a.084.084,0,0,1,.033.07l.393,17.963c0,.036-.015.055-.034.045A0,0,0,0,1,532.91,493.611Z" transform="translate(-531.43 -475.446)" fill="#4d4d4d"/>
                      <path id="Path_9663" data-name="Path 9663" d="M539.426,493.567a.11.11,0,0,1-.034-.083l-.362-17.971c0-.029.013-.044.031-.033a.088.088,0,0,1,.032.07l.368,17.975c0,.034-.015.054-.036.042Z" transform="translate(-536.909 -475.4)" fill="#4d4d4d"/>
                      <path id="Path_9664" data-name="Path 9664" d="M545.962,493.512a.1.1,0,0,1-.034-.083l-.338-17.983c0-.028.013-.042.031-.032a.087.087,0,0,1,.033.07L546,493.47c0,.036-.016.055-.036.042Z" transform="translate(-542.404 -475.346)" fill="#4d4d4d"/>
                      <path id="Path_9665" data-name="Path 9665" d="M552.489,493.476a.111.111,0,0,1-.036-.083L552.14,475.4c0-.028.013-.042.031-.031a.1.1,0,0,1,.033.07l.32,18c0,.034-.015.052-.034.041Z" transform="translate(-547.891 -475.308)" fill="#4d4d4d"/>
                      <path id="Path_9666" data-name="Path 9666" d="M559.035,493.425a.11.11,0,0,1-.036-.083l-.289-18c0-.028.013-.041.031-.029h0a.1.1,0,0,1,.032.07l.3,18.007c0,.034-.015.052-.034.039Z" transform="translate(-553.395 -475.256)" fill="#4d4d4d"/>
                      <path id="Path_9667" data-name="Path 9667" d="M565.59,493.376h0a.111.111,0,0,1-.036-.084l-.265-18.014c0-.028.013-.041.029-.029h0a.094.094,0,0,1,.031.07l.271,18.019C565.624,493.371,565.61,493.387,565.59,493.376Z" transform="translate(-558.907 -475.206)" fill="#4d4d4d"/>
                      <path id="Path_9668" data-name="Path 9668" d="M572.146,493.324h0a.111.111,0,0,1-.036-.084l-.24-18.025c0-.028.013-.039.031-.028a.1.1,0,0,1,.031.07l.247,18.03C572.18,493.32,572.165,493.337,572.146,493.324Z" transform="translate(-564.419 -475.154)" fill="#4d4d4d"/>
                      <path id="Path_9669" data-name="Path 9669" d="M578.73,493.285h0a.117.117,0,0,1-.036-.084l-.214-18.035c0-.026.013-.039.029-.028a.1.1,0,0,1,.031.07l.222,18.04C578.762,493.28,578.748,493.3,578.73,493.285Z" transform="translate(-569.956 -475.114)" fill="#4d4d4d"/>
                      <path id="Path_9670" data-name="Path 9670" d="M585.306,493.222a0,0,0,0,1,0,0,.113.113,0,0,1-.034-.084l-.19-18.046c0-.026.013-.039.029-.026a.1.1,0,0,1,.031.07l.2,18.051C585.336,493.218,585.323,493.233,585.306,493.222Z" transform="translate(-575.485 -475.05)" fill="#4d4d4d"/>
                      <path id="Path_9671" data-name="Path 9671" d="M591.881,493.18l0,0a.123.123,0,0,1-.034-.084l-.166-18.057c0-.026.013-.037.029-.024a.1.1,0,0,1,.031.07l.172,18.062C591.914,493.177,591.9,493.191,591.881,493.18Z" transform="translate(-581.014 -475.007)" fill="#4d4d4d"/>
                    </g>
                  </g>
                </g>
                <path id="Path_9672" data-name="Path 9672" d="M596.84,457.192a.38.38,0,0,0,.38-.38v-22.4A1.778,1.778,0,0,1,599,432.64h5.354a.38.38,0,0,0,0-.76H599a2.538,2.538,0,0,0-2.535,2.535v22.4A.38.38,0,0,0,596.84,457.192Z" transform="translate(-556.72 -431.578)" fill="#4d4d4d"/>
                <path id="Path_9673" data-name="Path 9673" d="M520.49,457.192a.38.38,0,0,0,.38-.38v-22.4a1.778,1.778,0,0,1,1.776-1.776H528a.38.38,0,1,0,0-.76h-5.354a2.539,2.539,0,0,0-2.535,2.535v22.4A.38.38,0,0,0,520.49,457.192Z" transform="translate(-492.762 -431.578)" fill="#4d4d4d"/>
                <path id="Path_9674" data-name="Path 9674" d="M436.146,594.955h21.7a3.562,3.562,0,1,0,0-7.125H434.75a.38.38,0,1,0,0,.76h23.092a2.8,2.8,0,1,1,0,5.608h-21.7a.379.379,0,1,0,0,.758Z" transform="translate(-420.937 -562.217)" fill="#4d4d4d"/>
                <path id="Path_9675" data-name="Path 9675" d="M382.486,594.955h21.7a3.562,3.562,0,1,0,0-7.125H381.09a.38.38,0,0,0,0,.76h23.092a2.8,2.8,0,1,1,0,5.608h-21.7a.379.379,0,1,0,0,.758Z" transform="translate(-375.986 -562.217)" fill="#4d4d4d"/>
                <path id="Path_9676" data-name="Path 9676" d="M562.787,431.374h11.751a.677.677,0,0,0,.677-.677h0a.677.677,0,0,0-.677-.677H562.787a.677.677,0,0,0-.677.677h0A.677.677,0,0,0,562.787,431.374Z" transform="translate(-527.945 -430.02)" fill="#4d4d4d"/>
              </g>
            </g>
          </g>
          <path id="Path_9677" data-name="Path 9677" d="M560.2,71.861c-.044-5.9,11.153-6.768,11.022-3.663l20.1.07a4.5,4.5,0,0,1,4.2,4.7l-.265,85.589a4.381,4.381,0,0,1-4.176,4.541l-21.292.107a2.579,2.579,0,0,1-1.2,1.112c-5.958-.047-8.665-2.394-8.69-5.414C559.676,158.346,559.957,72.972,560.2,71.861Z" transform="translate(-526.024 -66.437)" fill="#4d4d4d"/>
          <g id="Group_54703" data-name="Group 54703" transform="translate(38.581 0.013)">
            <path id="Path_9678" data-name="Path 9678" d="M593.657,164.4l26.2-.029a4.508,4.508,0,0,0,4.327-4.66l.318-88.028a4.626,4.626,0,0,0-4.343-4.825l-26.273-.341a4.559,4.559,0,0,0-4.406,4.747l-.156,88.441A4.527,4.527,0,0,0,593.657,164.4Z" transform="translate(-589.32 -66.518)" fill="#4d4d4d"/>
            <path id="Path_9679" data-name="Path 9679" d="M595.951,166.895a3.676,3.676,0,0,0,.482.032l26.19-.071a3.935,3.935,0,0,0,3.736-4.079l.312-87.933a4.038,4.038,0,0,0-3.751-4.221l-26.265-.383c-.06,0-.122,0-.182,0a3.608,3.608,0,0,0-2.551,1.222,4.3,4.3,0,0,0-1.071,2.874l-.161,88.53A3.953,3.953,0,0,0,595.951,166.895Z" transform="translate(-592.143 -69.636)" fill="#0d0d0d"/>
            <path id="Path_9680" data-name="Path 9680" d="M601.125,98.4l-.175,88.2,31.056,0,.3-87.947Z" transform="translate(-599.062 -93.226)" fill="#fff"/>
          </g>
          <g id="Group_54705" data-name="Group 54705" transform="translate(40.616 5.188)">
            <g id="Group_54704" data-name="Group 54704" transform="translate(0.015)">
              <path id="Path_9681" data-name="Path 9681" d="M660.114,112.654l-3.506-.029L645.34,98.75l3.522.029Z" transform="translate(-638.298 -98.693)" fill="#12b5ff"/>
              <path id="Path_9682" data-name="Path 9682" d="M638.43,112.483l-3.5-.029L623.64,98.58l3.522.028Z" transform="translate(-620.12 -98.551)" fill="#f1e3e0"/>
              <path id="Path_9683" data-name="Path 9683" d="M616.757,112.3l-3.506-.028L601.95,98.4l3.52.029Z" transform="translate(-601.95 -98.4)" fill="#ff3bab"/>
              <path id="Path_9684" data-name="Path 9684" d="M681.8,112.833l-3.5-.028L667.04,98.93l3.519.029Z" transform="translate(-656.476 -98.844)" fill="#f1e3e0"/>
              <path id="Path_9685" data-name="Path 9685" d="M725.146,113.193l-3.5-.029L710.42,99.29l3.52.029Z" transform="translate(-692.815 -99.146)" fill="#f1e3e0"/>
              <path id="Path_9686" data-name="Path 9686" d="M789.826,113.719l-3.162-.026L775.49,99.82l3.173.026Z" transform="translate(-747.324 -99.59)" fill="#ff3bab"/>
              <path id="Path_9687" data-name="Path 9687" d="M768.495,113.543l-3.5-.029L753.8,99.64l3.52.029Z" transform="translate(-729.155 -99.439)" fill="#f1e3e0"/>
              <path id="Path_9688" data-name="Path 9688" d="M703.463,113.013l-3.506-.029L688.72,99.11l3.522.029Z" transform="translate(-674.637 -98.995)" fill="#ffc800"/>
              <path id="Path_9689" data-name="Path 9689" d="M746.821,113.371l-3.506-.028L732.11,99.47l3.52.028Z" transform="translate(-710.985 -99.296)" fill="#8dde34"/>
            </g>
            <path id="Path_9690" data-name="Path 9690" d="M675.086,183.909l0,2.112c0,2.238-3.5,2.209-3.5-.029l0-2.112Z" transform="translate(-660.264 -170.007)" fill="#e23196"/>
            <path id="Path_9691" data-name="Path 9691" d="M696.684,184.089l0,2.112c0,2.238-3.5,2.209-3.5-.029l0-2.112Z" transform="translate(-678.359 -170.157)" fill="#f1c5bc"/>
            <path id="Path_9692" data-name="Path 9692" d="M718.267,184.269l0,2.112c0,2.238-3.506,2.209-3.5-.029l0-2.112Z" transform="translate(-696.436 -170.308)" fill="#129ad8"/>
            <path id="Path_9693" data-name="Path 9693" d="M739.857,184.439l-.007,2.112c-.006,2.238-3.505,2.209-3.5-.029l0-2.112Z" transform="translate(-714.522 -170.451)" fill="#f1c5bc"/>
            <path id="Path_9694" data-name="Path 9694" d="M761.432,184.619l-.008,2.112c-.008,2.238-3.51,2.209-3.5-.029l.007-2.112Z" transform="translate(-732.591 -170.601)" fill="#dbb428"/>
            <path id="Path_9695" data-name="Path 9695" d="M783.022,184.8l-.011,2.112c-.011,2.238-3.51,2.209-3.5-.029l.008-2.112Z" transform="translate(-750.677 -170.752)" fill="#f1c5bc"/>
            <path id="Path_9696" data-name="Path 9696" d="M804.6,184.969l-.013,2.112c-.013,2.238-3.515,2.209-3.5-.029l.011-2.112Z" transform="translate(-768.746 -170.895)" fill="#7fc92d"/>
            <path id="Path_9697" data-name="Path 9697" d="M826.2,185.149l-.015,2.112a1.752,1.752,0,0,1-3.5-.029l.013-2.112Z" transform="translate(-786.841 -171.045)" fill="#f1c5bc"/>
            <path id="Path_9698" data-name="Path 9698" d="M847.426,185.326l-.018,2.112a1.582,1.582,0,1,1-3.158-.026l.015-2.112Z" transform="translate(-804.91 -171.196)" fill="#e23196"/>
            <path id="Path_9699" data-name="Path 9699" d="M613.176,112.275l.274.037-11.59-.1.015-13.81Z" transform="translate(-601.86 -98.4)" fill="#f1e3e0"/>
          </g>
          <path id="Path_9700" data-name="Path 9700" d="M570.749,157.174h0a.88.88,0,0,0,.906-.867l.192-22.347a.921.921,0,0,0-.9-.922h0a.891.891,0,0,0-.912.88l-.178,22.347A.911.911,0,0,0,570.749,157.174Z" transform="translate(-534.437 -122.229)" fill="#0d0d0d"/>
          <g id="Group_54710" data-name="Group 54710" transform="translate(63.528 28.174)">
            <g id="Group_54706" data-name="Group 54706">
              <rect id="Rectangle_9878" data-name="Rectangle 9878" width="4.845" height="26.742" fill="#f1e3e0"/>
              <path id="Path_9701" data-name="Path 9701" d="M755.33,276.687h0a.509.509,0,0,1-.51-.51V255.22a.51.51,0,0,1,.51-.51h0a.509.509,0,0,1,.51.51v20.956A.509.509,0,0,1,755.33,276.687Z" transform="translate(-752.906 -252.327)" fill="#0d0d0d"/>
            </g>
            <g id="Group_54709" data-name="Group 54709" transform="translate(1.914 4.244)">
              <path id="Path_9702" data-name="Path 9702" d="M863.065,405.1a3.01,3.01,0,0,1,2.642,1.443,2.8,2.8,0,0,1-.229,2.99s3.227.07,3.6,3.1A2.947,2.947,0,0,1,866.7,416.1s1.121,2.313-1.548,4.118-5.273-1.514-5.273-1.514a3.606,3.606,0,0,1-4.012-1.345c-1.785-2.209.177-4.439.177-4.439a3.449,3.449,0,0,1-1.023-3.27,2.394,2.394,0,0,1,2.159-2.368,2.027,2.027,0,0,1,.1-2.389c.979-1.011,2.537-.127,2.537-.127s.464-1.754,1.706-1.514S863.065,405.1,863.065,405.1Z" transform="translate(-838.721 -380.987)" fill="#0d0d0d"/>
              <path id="Path_9703" data-name="Path 9703" d="M838.524,389.814l-3.618-3.676,0-6.361-1.194-.157s-.979,5.784-.975,7.013c0,1.091,3.665,5.835,3.665,5.835Z" transform="translate(-820.094 -361.209)" fill="#ffa88f"/>
              <path id="Path_9704" data-name="Path 9704" d="M859.331,441c-1.143-.964-4.441-.514-4.441-.514s-2.152,1.767-2.329,3.074c-.127.938.419,6.159.419,6.159h5.289l2-5.487S860.474,441.968,859.331,441Z" transform="translate(-836.682 -412.111)" fill="#029e73"/>
              <path id="Path_9705" data-name="Path 9705" d="M873.327,525.339c.434,2.548.935,6.695,1.138,9.582,1.38,6.057,1.053,7.232,1.584,10.9a1.68,1.68,0,0,1-1.433.145,43.806,43.806,0,0,1-2.876-10.217c-.91-2.956-1.87-6.075-2.864-9.3l-.073-.185C867.962,523.446,872.665,521.763,873.327,525.339Z" transform="translate(-850.219 -481.576)" fill="#ffa88f"/>
              <path id="Path_9706" data-name="Path 9706" d="M840.617,497.93a24.638,24.638,0,0,0-1.073,4.512c-.412,2.743-1.764,21.933-1.764,21.933l1.5.008c.8-3.287,2.4-5.9,2.2-10.136l3.809-11.639-1.867-4.679Z" transform="translate(-824.316 -460.317)" fill="#ffa88f"/>
              <path id="Path_9707" data-name="Path 9707" d="M890.7,390.149l3.707-3.457-1.48-6.669,1.277-.393s3.124,6.338,3.123,7.568c0,1.091-5.271,6.177-5.271,6.177C891.223,393.768,889.984,391.934,890.7,390.149Z" transform="translate(-868.466 -361.217)" fill="#ffa88f"/>
              <path id="Path_9708" data-name="Path 9708" d="M865,399.7c-.876,1.6-.987,3.16.375,3.915a3.069,3.069,0,0,0,4.051-1.534,3.114,3.114,0,0,0-.88-4.268C867.187,397.055,865.877,398.094,865,399.7Z" transform="translate(-846.57 -376.236)" fill="#ffa88f"/>
              <path id="Path_9709" data-name="Path 9709" d="M869.917,430.99H871.9l.08,2.141c0,.443-1.026,1.068-1.858,1.018-.648-.037-1.079-.492-.87-.958Z" transform="translate(-850.637 -404.241)" fill="#ffa88f"/>
              <path id="Path_9710" data-name="Path 9710" d="M841.54,511.4a67.215,67.215,0,0,1,2.227-13.469h5.286a8.306,8.306,0,0,1,2.326,3.376A61.981,61.981,0,0,1,853.8,511.4C849.622,512.912,842.077,512.357,841.54,511.4Z" transform="translate(-827.465 -460.317)" fill="#029e73"/>
              <path id="Path_9711" data-name="Path 9711" d="M860.328,493.03l-.258.938h-5.465l-.045-.938Z" transform="translate(-838.372 -456.212)" fill="#0d0d0d"/>
              <g id="Group_54707" data-name="Group 54707" transform="translate(10.673 64.058)">
                <path id="Path_9712" data-name="Path 9712" d="M820.936,662.387c0-.019.891-.019,1.842-.015,1.1,0,2.46.015,2.46.015a4.949,4.949,0,0,0-.1-1.509l-1.717-.008a11.537,11.537,0,0,0-1.31.334c-.055.016-.114.029-.174.044C820.609,661.557,820.936,662.427,820.936,662.387Z" transform="translate(-820.849 -660.87)" fill="#994803"/>
                <path id="Path_9713" data-name="Path 9713" d="M820.936,664.113c0-.02.891-.02,1.842-.015a.856.856,0,0,0,.045-.274.963.963,0,0,0-.708-.894l-.174.044C820.609,663.282,820.936,664.152,820.936,664.113Z" transform="translate(-820.849 -662.595)" fill="#994803"/>
                <rect id="Rectangle_9879" data-name="Rectangle 9879" width="4.449" height="0.271" transform="translate(0 1.248)" fill="#994803"/>
              </g>
              <g id="Group_54708" data-name="Group 54708" transform="translate(24.069 64.07)">
                <path id="Path_9714" data-name="Path 9714" d="M903.384,662.457c.026,0,.461,0,1-.01.88-.008,2.037-.015,2.146.01.307-.74-.329-1.121-.915-1.331-.25-.088-.49-.146-.644-.187l-1.492.008A4.921,4.921,0,0,0,903.384,662.457Z" transform="translate(-903.326 -660.94)" fill="#994803"/>
                <rect id="Rectangle_9880" data-name="Rectangle 9880" width="3.295" height="0.271" transform="translate(0 1.25)" fill="#994803"/>
              </g>
              <path id="Path_9715" data-name="Path 9715" d="M909.233,663.363c.88-.008,2.037-.015,2.146.01.307-.74-.329-1.121-.915-1.331a1.217,1.217,0,0,0-1.047.346A.843.843,0,0,0,909.233,663.363Z" transform="translate(-884.104 -597.785)" fill="#994803"/>
              <path id="Path_9716" data-name="Path 9716" d="M863.36,395.47c.039-.055-.445,2.009,2.426,3.3,1.767-1.209,1.284-5.018-1.907-4.249a1.607,1.607,0,0,0-2.787.623c-1.49.2-1.456,1.615-.476,1.537A3.146,3.146,0,0,0,863.36,395.47Z" transform="translate(-842.864 -373.205)" fill="#0d0d0d"/>
              <path id="Path_9717" data-name="Path 9717" d="M891.8,420.847a.547.547,0,1,0,.547-.547A.547.547,0,0,0,891.8,420.847Z" transform="translate(-869.568 -395.286)" fill="#ffa88f"/>
              <path id="Path_9718" data-name="Path 9718" d="M839.557,373.335s.469-.114.6-.915.148-.617.148-.617-.442-.227-.675.7a1.549,1.549,0,0,0-1.131.391s-.174.08-.079.339S839.472,373.46,839.557,373.335Z" transform="translate(-824.825 -354.64)" fill="#ffa88f"/>
              <path id="Path_9719" data-name="Path 9719" d="M900.544,373.08s-.69-.23-.964-1.667c.443-.315.618.518.618.518s1.693-.143,1.623.756S900.544,373.08,900.544,373.08Z" transform="translate(-876.086 -354.274)" fill="#ffa88f"/>
              <rect id="Rectangle_9881" data-name="Rectangle 9881" width="0.333" height="18.254" fill="#0d0d0d"/>
            </g>
          </g>
          <rect id="Rectangle_9882" data-name="Rectangle 9882" width="14.76" height="8.177" transform="translate(44.826 28.174)" fill="#f1e3e0"/>
          <rect id="Rectangle_9883" data-name="Rectangle 9883" width="14.76" height="8.177" transform="translate(44.826 37.451)" fill="#f1e3e0"/>
          <rect id="Rectangle_9884" data-name="Rectangle 9884" width="14.76" height="8.177" transform="translate(44.826 46.712)" fill="#f1e3e0"/>
          <rect id="Rectangle_9885" data-name="Rectangle 9885" width="23.042" height="23.039" transform="translate(44.649 61.441)" fill="#f1e3e0"/>
          <g id="Group_54711" data-name="Group 54711" transform="translate(49.564 68.025)">
            <path id="Path_9720" data-name="Path 9720" d="M667.106,503.557h-8.177a.377.377,0,0,1-.357-.26l-1.566-4.879a.374.374,0,0,1,.355-.488H668.67a.374.374,0,0,1,.355.488l-1.565,4.879A.373.373,0,0,1,667.106,503.557Zm-7.9-.75h7.631l1.326-4.131H657.876Z" transform="translate(-656.988 -495.924)" fill="#025b75"/>
            <path id="Path_9721" data-name="Path 9721" d="M677.259,495.269h-6.974a.375.375,0,0,1,0-.75h6.7a.679.679,0,0,0,.695-.649.656.656,0,0,0-.275-.667l2.355-7.373a.373.373,0,0,1,.357-.26h2.435a.375.375,0,0,1,0,.75H680.39l-2.159,6.844A1.409,1.409,0,0,1,677.259,495.269Z" transform="translate(-667.813 -485.57)" fill="#025b75"/>
            <ellipse id="Ellipse_190" data-name="Ellipse 190" cx="0.86" cy="0.86" rx="0.86" ry="0.86" transform="translate(3.039 10.092)" fill="#025b75"/>
            <ellipse id="Ellipse_191" data-name="Ellipse 191" cx="0.86" cy="0.86" rx="0.86" ry="0.86" transform="translate(7.372 10.092)" fill="#025b75"/>
            <path id="Path_9722" data-name="Path 9722" d="M693.455,503.548a.375.375,0,0,1-.375-.375v-4.879a.375.375,0,1,1,.75,0v4.879A.377.377,0,0,1,693.455,503.548Z" transform="translate(-687.222 -495.916)" fill="#025b75"/>
            <path id="Path_9723" data-name="Path 9723" d="M674.884,503.551a.377.377,0,0,1-.365-.292l-1.107-4.879a.375.375,0,0,1,.73-.166l1.107,4.879a.375.375,0,0,1-.282.448A.359.359,0,0,1,674.884,503.551Z" transform="translate(-670.739 -495.918)" fill="#025b75"/>
            <path id="Path_9724" data-name="Path 9724" d="M705.78,503.562c-.018,0-.036,0-.054,0a.374.374,0,0,1-.317-.424l.709-4.879a.374.374,0,1,1,.74.107l-.709,4.879A.374.374,0,0,1,705.78,503.562Z" transform="translate(-697.548 -495.929)" fill="#025b75"/>
            <path id="Path_9725" data-name="Path 9725" d="M671.978,513.88h-9.733a.375.375,0,1,1,0-.75h9.733a.375.375,0,1,1,0,.75Z" transform="translate(-661.078 -508.657)" fill="#025b75"/>
          </g>
          <ellipse id="Ellipse_192" data-name="Ellipse 192" cx="1.847" cy="1.847" rx="1.847" ry="1.847" transform="translate(47.997 72.18) rotate(-89.546)" fill="#f13005"/>
          <g id="Group_54714" data-name="Group 54714" transform="translate(14.679 33.658)">
            <g id="Group_54713" data-name="Group 54713">
              <g id="Group_54712" data-name="Group 54712">
                <path id="Path_9726" data-name="Path 9726" d="M442.056,292.349h0v-.029A.179.179,0,0,0,442.056,292.349Z" transform="translate(-442.055 -289.317)" fill="#d9ffff"/>
                <path id="Path_9727" data-name="Path 9727" d="M442.056,292.349h0v-.029A.179.179,0,0,0,442.056,292.349Z" transform="translate(-442.055 -289.317)" fill="#d9ffff"/>
                <path id="Path_9728" data-name="Path 9728" d="M509.98,291.419v0Z" transform="translate(-498.955 -288.538)" fill="#d9ffff"/>
                <path id="Path_9729" data-name="Path 9729" d="M509.98,291.419v0Z" transform="translate(-498.955 -288.538)" fill="#d9ffff"/>
                <path id="Path_9730" data-name="Path 9730" d="M447.523,273.82a10.914,10.914,0,0,1-5.473,3.032c0,.146.013.959.063,4.705.068,5,4.9,7.351,5.617,7.674.709-.342,5.474-2.827,5.406-7.824-.05-3.746-.062-4.557-.063-4.705A10.922,10.922,0,0,1,447.523,273.82Z" transform="translate(-442.05 -273.82)" fill="#318f66"/>
                <path id="Path_9731" data-name="Path 9731" d="M453.587,296.023a9.8,9.8,0,0,1-2.347-1.651,6.389,6.389,0,0,1-2.128-4.616l-.052-3.782a10.426,10.426,0,0,0,4.356-2.365,10.41,10.41,0,0,0,4.419,2.245l.052,3.782a6.374,6.374,0,0,1-2,4.671A9.77,9.77,0,0,1,453.587,296.023Z" transform="translate(-447.922 -282.021)" fill="#40b883"/>
              </g>
            </g>
            <path id="Path_9732" data-name="Path 9732" d="M463.315,306.07a7.856,7.856,0,0,0-4.2,2.933,2.411,2.411,0,0,0-1.272-1.42l-1.112,1.159a2.952,2.952,0,0,1,1.62,2.116l1.134.154a9.678,9.678,0,0,1,4.079-4.481A1.839,1.839,0,0,0,463.315,306.07Z" transform="translate(-454.347 -300.836)" fill="#fff"/>
          </g>
        </g>
        <rect id="Rectangle_9886" data-name="Rectangle 9886" width="105.602" height="0.329" transform="translate(1.943 97.954)" fill="#03a9cc"/>
      </g>
      <g id="Group_54718" data-name="Group 54718" transform="translate(65.593 33.819)">
        <g id="Group_54717" data-name="Group 54717">
          <path id="Path_9733" data-name="Path 9733" d="M757.386,306.869a7.084,7.084,0,0,1-1.612.339l0,.433a6.078,6.078,0,0,1,1.3.195,2.555,2.555,0,0,1,2.045,2.172,2.585,2.585,0,0,1-2.065,2.172,6,6,0,0,1-1.3.195l0,.433a6.991,6.991,0,0,1,1.608.339,8.453,8.453,0,0,1,3.22,2.073l6.494-.691.016-4.33,0-.378.016-4.329-6.485-.691A8.535,8.535,0,0,1,757.386,306.869Z" transform="translate(-755.75 -299.933)" fill="#129ad8"/>
          <path id="Path_9734" data-name="Path 9734" d="M842.556,274.81c1.972,1.925,2.116,17.759-.068,20.156-6.141-1.081-12.073-2.5-16.978-5.559l.036-9.043C829.8,277.626,835.928,276.061,842.556,274.81Z" transform="translate(-814.188 -274.81)" fill="#129ad8"/>
        </g>
        <path id="Path_9735" data-name="Path 9735" d="M825.459,312.084c-.015,3.661-1.581,5.395-1.647,5.468a.14.14,0,0,1-.195.01.132.132,0,0,1-.01-.19,8.184,8.184,0,0,0,1.576-5.286v0c.011-3.162-1.289-3.6-1.3-3.6a.134.134,0,0,1-.091-.167.138.138,0,0,1,.171-.091c.062.018,1.509.471,1.5,3.86Z" transform="translate(-812.564 -302.794)" fill="#fff"/>
        <path id="Path_9736" data-name="Path 9736" d="M835.052,328.25a.378.378,0,0,1-.167.294c-.828.661-2.387-.988-2.563-1.178l-.273-.3.4.073c.573.1,2.451.484,2.592,1.031A.265.265,0,0,1,835.052,328.25Zm-2.214-.756c.547.513,1.441,1.186,1.873.841.034-.026.073-.065.063-.1C834.718,328.013,833.793,327.7,832.839,327.494Z" transform="translate(-819.666 -318.588)" fill="#fff"/>
        <path id="Path_9737" data-name="Path 9737" d="M820.194,319.37l-.381-.008c-.093,0-2.285-.062-3.017-.9a.942.942,0,0,1-.235-.773.546.546,0,0,1,.357-.5c.8-.261,2.649,1.55,3.011,1.915Zm-3.332-1.547a.642.642,0,0,0,.171.437,4.139,4.139,0,0,0,2.382.771c-.807-.764-1.975-1.693-2.4-1.555-.029.01-.117.037-.146.248A.523.523,0,0,0,816.862,317.824Z" transform="translate(-806.683 -310.288)" fill="#fff"/>
        <path id="Path_9738" data-name="Path 9738" d="M836.006,311.858a.137.137,0,0,1-.078.122,4.24,4.24,0,0,0-2.136,2.475.14.14,0,0,1-.169.1.133.133,0,0,1-.1-.164,4.442,4.442,0,0,1,2.282-2.649.138.138,0,0,1,.183.062A.115.115,0,0,1,836.006,311.858Z" transform="translate(-820.899 -305.735)" fill="#04f2f5"/>
      </g>
    </g>
    <g id="Group_54757" data-name="Group 54757" transform="translate(49.34 30.059)">
      <path id="Path_9556" data-name="Path 9556" d="M410.131,259.166a2.889,2.889,0,0,0,1.518-.025c.578.714-.44,1.054-1.075.9S410.131,259.166,410.131,259.166Z" transform="translate(-407.809 -259.141)" fill="#fff"/>
      <path id="Path_9557" data-name="Path 9557" d="M406.4,259.141a.732.732,0,0,1-.335.473.872.872,0,0,1-1.184-.448,4.134,4.134,0,0,0-.857.191v4.925l3.4.012V259.37A3.954,3.954,0,0,0,406.4,259.141Z" transform="translate(-402.563 -259.141)" fill="#ff3bab"/>
      <path id="Path_9558" data-name="Path 9558" d="M394.761,260.722l-1.465,1.154.964,1.291,1.435-1.087Z" transform="translate(-393.296 -260.506)" fill="#ff3bab"/>
      <path id="Path_9559" data-name="Path 9559" d="M423.12,260.822l1.465,1.164-.963,1.283-1.435-1.1Z" transform="translate(-418.243 -260.592)" fill="#ff3bab"/>
    </g>
    <g id="Group_54759" data-name="Group 54759" transform="translate(50.599 38.66)">
      <g id="Group_54647" data-name="Group 54647">
        <path id="Path_9546" data-name="Path 9546" d="M336.859,253.845a1.338,1.338,0,0,1-.064-.306h-.082a1.15,1.15,0,0,1-.037.246.485.485,0,0,1-.412.388.49.49,0,0,1-.412-.392,1.15,1.15,0,0,1-.037-.246h-.082a1.332,1.332,0,0,1-.064.305,1.6,1.6,0,0,1-.393.611l.131,1.232.822,0h.072l.822,0,.131-1.231A1.619,1.619,0,0,1,336.859,253.845Z" transform="translate(-334.35 -253.535)" fill="#ffc800"/>
        <path id="Path_9547" data-name="Path 9547" d="M331.025,275.541a6.329,6.329,0,0,1-3.825-.013,8.977,8.977,0,0,1,1.055-3.222l1.716.007A9.437,9.437,0,0,1,331.025,275.541Z" transform="translate(-327.2 -270.158)" fill="#ffc800"/>
      </g>
      <path id="Path_9548" data-name="Path 9548" d="M337.124,272.143a1.573,1.573,0,0,1-1.038-.313.027.027,0,0,1,0-.037.025.025,0,0,1,.036,0,1.555,1.555,0,0,0,1,.3h0c.6,0,.683-.245.683-.247a.025.025,0,0,1,.032-.017.026.026,0,0,1,.017.032c0,.012-.089.287-.732.284Z" transform="translate(-335.062 -269.696)" fill="#4489c8"/>
      <path id="Path_9549" data-name="Path 9549" d="M343.943,274.637a.071.071,0,0,1-.056-.032c-.125-.157.188-.453.224-.486l.056-.052-.014.076c-.02.109-.092.465-.2.492Zm.143-.42c-.1.1-.225.273-.159.356.005.006.012.014.018.012C343.988,274.573,344.047,274.4,344.086,274.217Z" transform="translate(-341.951 -271.717)" fill="#4489c8"/>
      <path id="Path_9550" data-name="Path 9550" d="M345.983,270.507l0-.064c0-.016.01-.384.152-.507a.158.158,0,0,1,.13-.039.091.091,0,0,1,.084.06c.044.135-.26.445-.322.506Zm.26-.56a.108.108,0,0,0-.073.029.7.7,0,0,0-.13.4c.128-.136.284-.332.261-.4,0,0-.006-.02-.042-.024Z" transform="translate(-343.833 -268.023)" fill="#4489c8"/>
      <path id="Path_9551" data-name="Path 9551" d="M346.508,274.932a.026.026,0,0,1-.023-.015.8.8,0,0,0-.47-.405.026.026,0,0,1-.018-.032.026.026,0,0,1,.031-.019.844.844,0,0,1,.5.433.026.026,0,0,1-.012.035Z" transform="translate(-343.845 -272.065)" fill="#4489c8"/>
    </g>
    <g id="Group_54760" data-name="Group 54760" transform="translate(49.323 48.655)">
      <path id="Path_9560" data-name="Path 9560" d="M320.409,440.724a6.818,6.818,0,0,0,1.214.222,18.4,18.4,0,0,0,2.6.087,4.5,4.5,0,0,0,1.763-.3s.548-3.32-2.679-3.4l-.11,0C319.849,437.323,320.409,440.724,320.409,440.724Z" transform="translate(-319.664 -437.332)" fill="#7fc92d"/>
      <path id="Path_9561" data-name="Path 9561" d="M329.631,440.945a18.413,18.413,0,0,0,2.6.087c.456-3.016-.846-3.666-.916-3.7h-.11c-1.7.966-1.617,3.132-1.576,3.614Z" transform="translate(-327.671 -437.331)" fill="#fff"/>
      <path id="Path_9562" data-name="Path 9562" d="M321.036,462.866s-.913,1.549-5.148,1.19c-1.813-.154-.083-1.328-.083-1.328A15.765,15.765,0,0,0,321.036,462.866Z" transform="translate(-315.059 -459.337)" fill="#129ad8"/>
    </g>
  </g>
</svg>
