<svg xmlns="http://www.w3.org/2000/svg" width="26.997" height="21.6" viewBox="0 0 26.997 21.6">
  <path id="Icon_awesome-store-alt" data-name="Icon awesome-store-alt" d="M13.5,16.2H5.4V9.45H2.7v10.8a1.349,1.349,0,0,0,1.35,1.35h10.8a1.349,1.349,0,0,0,1.35-1.35V9.45H13.5ZM26.773,6,23.175.6A1.357,1.357,0,0,0,22.048,0H4.954A1.344,1.344,0,0,0,3.832.6L.233,6A1.35,1.35,0,0,0,1.356,8.1h24.3A1.353,1.353,0,0,0,26.773,6ZM21.6,20.925a.677.677,0,0,0,.675.675h1.35a.677.677,0,0,0,.675-.675V9.45H21.6Z" transform="translate(-0.004)" fill="#fff"/>
</svg>
