<svg xmlns="http://www.w3.org/2000/svg" width="429.317" height="46" viewBox="0 0 429.317 46">
  <g id="Group_54853" data-name="Group 54853" transform="translate(0)">
    <path id="Path_10032" data-name="Path 10032" d="M53.653,21.132C53.653,34.862,41.64,46,26.822,46S0,34.862,0,21.132V0H53.653Z" fill="#e23196"/>
    <path id="Path_10033" data-name="Path 10033" d="M80.118,21.132C80.118,34.862,68.105,46,53.287,46S26.449,34.862,26.449,21.132V0H80.118Z" transform="translate(27.204)" fill="#f1c5bc"/>
    <path id="Path_10034" data-name="Path 10034" d="M106.567,21.132C106.567,34.862,94.554,46,79.737,46s-26.83-11.138-26.83-24.868V0h53.66Z" transform="translate(54.415)" fill="#129ad8"/>
    <path id="Path_10035" data-name="Path 10035" d="M133.034,21.132C133.034,34.862,121.023,46,106.2,46S79.359,34.862,79.359,21.132V0h53.675Z" transform="translate(81.622)" fill="#f1c5bc"/>
    <path id="Path_10036" data-name="Path 10036" d="M159.481,21.132C159.481,34.862,147.467,46,132.649,46s-26.83-11.138-26.83-24.868V0h53.663Z" transform="translate(108.836)" fill="#dbb428"/>
    <path id="Path_10037" data-name="Path 10037" d="M185.939,21.132C185.939,34.862,173.927,46,159.1,46s-26.83-11.138-26.83-24.868V0h53.666Z" transform="translate(136.045)" fill="#f1c5bc"/>
    <path id="Path_10038" data-name="Path 10038" d="M212.39,21.132C212.39,34.862,200.378,46,185.56,46s-26.83-11.138-26.83-24.868V0h53.661V21.132Z" transform="translate(163.256)" fill="#7fc92d"/>
    <path id="Path_10039" data-name="Path 10039" d="M238.853,21.132C238.853,34.862,226.829,46,212.017,46s-26.834-11.138-26.834-24.868V0h53.67V21.132Z" transform="translate(190.463)" fill="#f1c5bc"/>
  </g>
</svg>
