<svg id="checked" xmlns="http://www.w3.org/2000/svg" width="107.348" height="107.348" viewBox="0 0 107.348 107.348">
  <g id="Group_54352" data-name="Group 54352" transform="translate(25.488 13.487)">
    <g id="Group_54351" data-name="Group 54351">
      <path id="Path_9022" data-name="Path 9022" d="M200.358,65.516a4.045,4.045,0,0,0-5.721-.007L146.1,113.916,128.59,94.9a4.046,4.046,0,1,0-5.953,5.481L143,122.493a4.041,4.041,0,0,0,2.89,1.3h.086a4.05,4.05,0,0,0,2.856-1.18L200.35,71.238A4.045,4.045,0,0,0,200.358,65.516Z" transform="translate(-121.568 -64.327)" fill="#0ecb00"/>
    </g>
  </g>
  <g id="Group_54354" data-name="Group 54354">
    <g id="Group_54353" data-name="Group 54353">
      <path id="Path_9023" data-name="Path 9023" d="M103.3,49.628a4.045,4.045,0,0,0-4.046,4.046A45.582,45.582,0,1,1,53.674,8.092a4.046,4.046,0,1,0,0-8.092,53.674,53.674,0,1,0,53.674,53.674A4.046,4.046,0,0,0,103.3,49.628Z" fill="#0ecb00"/>
    </g>
  </g>
</svg>
