<svg xmlns="http://www.w3.org/2000/svg" width="21.523" height="21.523" viewBox="0 0 21.523 21.523">
  <g id="Group_54840" data-name="Group 54840" transform="translate(-32 -513)">
    <g id="call" transform="translate(32 513)">
      <path id="Path_8477" data-name="Path 8477" d="M2.152,21.523h8.609a2.154,2.154,0,0,0,2.152-2.152.359.359,0,1,0-.717,0,1.435,1.435,0,0,1-1.435,1.435H2.152A1.435,1.435,0,0,1,.717,19.371V2.152A1.435,1.435,0,0,1,2.152.717h.137l.779,1.558a1.07,1.07,0,0,0,.962.595H8.883a1.07,1.07,0,0,0,.962-.595L10.625.717h.137A1.435,1.435,0,0,1,12.2,2.152V2.87a.359.359,0,1,0,.717,0V2.152A2.154,2.154,0,0,0,10.762,0H2.152A2.154,2.154,0,0,0,0,2.152V19.371a2.154,2.154,0,0,0,2.152,2.152ZM9.2,1.954a.357.357,0,0,1-.321.2H4.031a.357.357,0,0,1-.321-.2L3.091.717H9.823Z" transform="translate(0)" fill="#009efa"/>
      <path id="Path_8478" data-name="Path 8478" d="M15.1,54.717a.359.359,0,1,0,0-.717H9.359a.359.359,0,1,0,0,.717Z" transform="translate(-5.771 -34.629)" fill="#009efa"/>
      <path id="Path_8479" data-name="Path 8479" d="M34.595,22.866a1.471,1.471,0,0,0-2.032,0l-.711.711a.092.092,0,0,1-.116.016,9.753,9.753,0,0,1-2.266-2.265.091.091,0,0,1,.016-.112L30.2,20.5a1.439,1.439,0,0,0,0-2.032l-1.027-1.028a1.471,1.471,0,0,0-2.031,0,4.432,4.432,0,0,0-1.019,4.112,6.241,6.241,0,0,0,1.835,3.075c.323.311.26.255.482.482a6.224,6.224,0,0,0,3.071,1.829,4.447,4.447,0,0,0,4.111-1.02,1.435,1.435,0,0,0,0-2.032Zm.52,2.551a3.349,3.349,0,0,1-2.467.933,5.1,5.1,0,0,1-3.7-1.741c-.366-.378-.349-.352-.487-.487A5.56,5.56,0,0,1,26.823,21.4a3.721,3.721,0,0,1,.825-3.453.717.717,0,0,1,1.017,0l1.028,1.026a.717.717,0,0,1,0,1.017l-.717.715a.8.8,0,0,0-.087,1.04,10.488,10.488,0,0,0,2.425,2.426.8.8,0,0,0,1.043-.088l.714-.715a.72.72,0,0,1,1.017,0L35.114,24.4a.717.717,0,0,1,0,1.018Z" transform="translate(-16.671 -10.925)" fill="#009efa"/>
      <path id="Path_8480" data-name="Path 8480" d="M24.5,11H14.456A2.154,2.154,0,0,0,12.3,13.152v2.3L8.376,17.543a.717.717,0,0,0,0,1.264L12.3,20.9v2.3a2.154,2.154,0,0,0,2.152,2.152H24.5A2.154,2.154,0,0,0,26.653,23.2V13.152A2.155,2.155,0,0,0,24.5,11Zm1.435,12.2A1.435,1.435,0,0,1,24.5,24.632H14.456A1.435,1.435,0,0,1,13.021,23.2V20.686a.359.359,0,0,0-.19-.316L8.716,18.174l4.116-2.2a.359.359,0,0,0,.189-.316V13.152a1.435,1.435,0,0,1,1.435-1.435H24.5a1.435,1.435,0,0,1,1.435,1.435Z" transform="translate(-5.129 -7.054)" fill="#009efa"/>
    </g>
  </g>
</svg>
