<svg xmlns="http://www.w3.org/2000/svg" width="28.758" height="32.106" viewBox="0 0 28.758 32.106">
  <path id="stopwatch" d="M55.082,7.085l-3.37-3.37a1.254,1.254,0,1,0-1.774,1.774l.8.8L49.1,7.923a13.54,13.54,0,0,0-7.485-3.1V2.508h1.129a1.254,1.254,0,1,0,0-2.508H37.978a1.254,1.254,0,0,0,0,2.508h1.129V4.823A13.67,13.67,0,1,0,50.874,9.7L52.51,8.06l.8.8a1.254,1.254,0,0,0,1.774-1.774ZM40.361,29.6A11.162,11.162,0,1,1,51.523,18.436,11.174,11.174,0,0,1,40.361,29.6Zm6.517-11.162a1.254,1.254,0,0,1-1.254,1.254H40.361a1.254,1.254,0,0,1-1.254-1.254V11.057a1.254,1.254,0,1,1,2.508,0v6.125h4.008A1.254,1.254,0,0,1,46.878,18.436Z" transform="translate(-26.691)"/>
</svg>
