<svg xmlns="http://www.w3.org/2000/svg" width="98.405" height="83.999" viewBox="0 0 98.405 83.999">
  <g id="image" transform="translate(0 -36.892)">
    <g id="Group_54330" data-name="Group 54330" transform="translate(55.362 50.92)">
      <g id="Group_54329" data-name="Group 54329" transform="translate(0 0)">
        <path id="Path_9016" data-name="Path 9016" d="M288.966,108.74a5.418,5.418,0,1,0,5.419,5.418A5.424,5.424,0,0,0,288.966,108.74Z" transform="translate(-283.548 -108.74)" fill="#00aeef"/>
      </g>
    </g>
    <g id="Group_54332" data-name="Group 54332" transform="translate(31.563 85.549)">
      <g id="Group_54331" data-name="Group 54331" transform="translate(0 0)">
        <path id="Path_9017" data-name="Path 9017" d="M179.328,286.1A17.671,17.671,0,1,0,197,303.77,17.67,17.67,0,0,0,179.328,286.1Zm9.954,19.765H181.6v7.877a2.306,2.306,0,0,1-4.612,0v-7.877h-7.648a2.306,2.306,0,0,1,0-4.613h7.648V293.8a2.306,2.306,0,0,1,4.612,0v7.452h7.68a2.306,2.306,0,0,1,0,4.613Z" transform="translate(-161.656 -286.1)" fill="#00aeef"/>
      </g>
    </g>
    <g id="Group_54334" data-name="Group 54334" transform="translate(0 36.892)">
      <g id="Group_54333" data-name="Group 54333" transform="translate(0 0)">
        <path id="Path_9018" data-name="Path 9018" d="M94.569,36.892H3.9A4.04,4.04,0,0,0,0,40.9V99.375a3.721,3.721,0,0,0,3.9,3.632H26.95a22.284,22.284,0,0,1,44.569,0h23.05A3.665,3.665,0,0,0,98.4,99.375V40.9A3.984,3.984,0,0,0,94.569,36.892ZM76.439,63.379,61.9,77.92,39.774,55.8a.767.767,0,0,0-1.086,0L24.653,69.829l-6.407-6.406a.8.8,0,0,0-1.114,0L6.919,73.607v-29.8H91.485V77.344L77.525,63.379A.766.766,0,0,0,76.439,63.379Z" transform="translate(0 -36.892)" fill="#00aeef"/>
      </g>
    </g>
  </g>
</svg>
