<svg id="woman" xmlns="http://www.w3.org/2000/svg" width="90.42" height="94.478" viewBox="0 0 90.42 94.478">
  <path id="Path_982" data-name="Path 982" d="M19.252,93.251H93.164a45.21,45.21,0,1,0-73.912,0Z" transform="translate(-10.998 -17.937)" fill="#ffc839"/>
  <path id="Path_983" data-name="Path 983" d="M194.83,349.393a14.049,14.049,0,0,0-9.995-7.625A63.445,63.445,0,0,1,174,338.652a2.072,2.072,0,0,1-1,1.212,29.42,29.42,0,0,1-14.153,3.4,33.452,33.452,0,0,1-3.5-.184c.029.065.056.129.087.195a36.111,36.111,0,0,0-9.119,2.44c-6.278,2.693-9.6,6.911-9.6,12.2v7.01a45.229,45.229,0,0,0,58.967-13.452A16.928,16.928,0,0,0,194.83,349.393Z" transform="translate(-113.522 -276.161)" fill="#72aafc"/>
  <path id="Path_984" data-name="Path 984" d="M77.625,338.172a63.022,63.022,0,0,1-11.047,3.2A14.049,14.049,0,0,0,56.584,349a16.957,16.957,0,0,0-.858,2.082A45.435,45.435,0,0,0,70.949,364.69v-7.165c0-12.642,18.857-14.409,18.857-14.409-.066-.132-.128-.262-.187-.39a28.609,28.609,0,0,1-10.969-3.255A2.077,2.077,0,0,1,77.625,338.172Z" transform="translate(-47.472 -275.77)" fill="#548bed"/>
  <path id="Path_985" data-name="Path 985" d="M253.077,300.47l-3.543-5.691a2.166,2.166,0,0,0-2.372-.951,39.158,39.158,0,0,1-9.51,1.221c-.365,0-.726-.007-1.085-.018v3.028a5.954,5.954,0,0,0-2.88,3.134,7.016,7.016,0,0,0,.546,5.477c-.19.024-.445.059-.754.106a34.356,34.356,0,0,0,4.173.252,30.393,30.393,0,0,0,14.621-3.515A2.16,2.16,0,0,0,253.077,300.47Z" transform="translate(-192.32 -239.554)" fill="#548bed"/>
  <path id="Path_986" data-name="Path 986" d="M177.528,293.818a2.166,2.166,0,0,0-2.372.951l-3.543,5.691a2.16,2.16,0,0,0,.8,3.044,29.635,29.635,0,0,0,11.623,3.386c-3.222-6.413,2.193-8.662,2.193-8.662v-3.2A39.5,39.5,0,0,1,177.528,293.818Z" transform="translate(-141.708 -239.546)" fill="#3e7fdd"/>
  <g id="Group_54020" data-name="Group 54020" transform="translate(52.283 41.753)">
    <path id="Path_987" data-name="Path 987" d="M303.617,236.666a45.329,45.329,0,0,1-1.873-10.4,37.938,37.938,0,0,1-3.688,9.012,17.174,17.174,0,0,1-3.2,3.972,33.829,33.829,0,0,0,4.381,23.631,1.144,1.144,0,0,0,2.111-.544C301.225,253.29,306.971,248.411,303.617,236.666Z" transform="translate(-294.329 -226.268)" fill="#45304c"/>
  </g>
  <path id="Path_988" data-name="Path 988" d="M223.4,7.267a19.194,19.194,0,0,1,7.436,1.419,7.525,7.525,0,1,0-14.872,0A19.194,19.194,0,0,1,223.4,7.267Z" transform="translate(-178.069)" fill="#56415e"/>
  <path id="Path_989" data-name="Path 989" d="M223.4,5.672A3.792,3.792,0,0,1,223.4,0a7.53,7.53,0,0,0-7.436,8.686A19.2,19.2,0,0,1,223.4,7.267Z" transform="translate(-178.069)" fill="#45304c"/>
  <g id="Group_54021" data-name="Group 54021" transform="translate(35.383 5.672)">
    <path id="Path_990" data-name="Path 990" d="M203.944,34.847a19.882,19.882,0,0,1,17.5,0c.412.213.81.444,1.2.69a12.712,12.712,0,0,0-19.895,0C203.134,35.291,203.532,35.06,203.944,34.847Z" transform="translate(-202.748 -30.74)" fill="#d3dcfb"/>
  </g>
  <path id="Path_991" data-name="Path 991" d="M166.972,62.9a4.623,4.623,0,0,1,.888-1.724,2.228,2.228,0,0,0,.586-1.407c.091-3.055,1.265-12.952,12.541-8.63a1.935,1.935,0,0,0,1.381,0c11.276-4.323,12.45,5.575,12.541,8.63a2.228,2.228,0,0,0,.586,1.407,4.622,4.622,0,0,1,.888,1.724h0a4.182,4.182,0,0,1,2.26-.625V54.856a15.137,15.137,0,0,0-8.215-13.448,19.883,19.883,0,0,0-17.5,0,15.137,15.137,0,0,0-8.215,13.448v7.417A4.183,4.183,0,0,1,166.972,62.9Z" transform="translate(-136.347 -32.112)" fill="#56415e"/>
  <path id="Path_992" data-name="Path 992" d="M181.678,39.38a18.811,18.811,0,0,0-8.751,2.029,15.137,15.137,0,0,0-8.215,13.448v7.417a4.183,4.183,0,0,1,2.26.625,4.623,4.623,0,0,1,.888-1.724,2.228,2.228,0,0,0,.586-1.407c.09-3,1.222-12.573,11.9-8.861-.045-.058-.087-.117-.136-.175C175.2,44.766,181.678,39.38,181.678,39.38Z" transform="translate(-136.347 -32.113)" fill="#45304c"/>
  <path id="Path_993" data-name="Path 993" d="M156.844,170.732s-.92-5.824.14-9.292c-.962-.641-2.82-.954-3.655-.137-1.711,1.673-.457,4.2.143,5.794a6.056,6.056,0,0,1,.357,1.482,2.751,2.751,0,0,0,3.126,2.62C156.918,171.043,156.88,170.89,156.844,170.732Z" transform="translate(-126.359 -131.138)" fill="#fc9460"/>
  <path id="Path_994" data-name="Path 994" d="M340.005,161.3c-.836-.817-2.694-.5-3.655.137,1.06,3.468.14,9.292.14,9.292-.036.158-.073.311-.11.466a2.75,2.75,0,0,0,3.126-2.62,6.057,6.057,0,0,1,.357-1.482C340.463,165.5,341.716,162.975,340.005,161.3Z" transform="translate(-276.313 -131.138)" fill="#ffaa7b"/>
  <path id="Path_995" data-name="Path 995" d="M236.5,107.109a2.094,2.094,0,0,1-.556-1.33c-.054-1.814-.512-6.252-3.588-8.3-2.182-1.453-5.249-1.438-9.117.045a1.805,1.805,0,0,1-1.294,0q-.7-.27-1.371-.474c-3.131,2.1-3.6,6.626-3.653,8.478a2.139,2.139,0,0,1-.569,1.36c-1.97,2.22-1.538,8.705-1.079,11.375a41.1,41.1,0,0,0,4.381,11.643,17.681,17.681,0,0,0,6.486,6.417,17.346,17.346,0,0,0,7.131-6.706,40.205,40.205,0,0,0,4.286-11.393C237.991,115.48,238.451,109.3,236.5,107.109Z" transform="translate(-177.264 -78.611)" fill="#ffc7ab"/>
  <g id="Group_54022" data-name="Group 54022" transform="translate(29.987 17.79)">
    <path id="Path_996" data-name="Path 996" d="M186.064,129.623a40.18,40.18,0,0,1-4.284-11.385c-.45-2.611-.871-8.953,1.055-11.123a2.092,2.092,0,0,0,.556-1.33c.054-1.814.512-6.253,3.588-8.3q.2-.132.407-.248c-3.485-1.182-6.275-1.1-8.3.248-3.076,2.048-3.534,6.487-3.588,8.3a2.092,2.092,0,0,1-.556,1.33c-1.926,2.171-1.5,8.512-1.055,11.123a40.193,40.193,0,0,0,4.284,11.385,17.436,17.436,0,0,0,8.214,7.22,6.231,6.231,0,0,0,4.93,0c.509-.22,1-.464,1.482-.724A17.32,17.32,0,0,1,186.064,129.623Z" transform="translate(-173.506 -96.407)" fill="#ffaa7b"/>
  </g>
  <path id="Path_997" data-name="Path 997" d="M385.345,73.383c-2.957,2.412-5.934,6.283-4.179,11.417,3.131,9.164-5.056,21.68,4.143,30.879,5.413,5.414,11.885,5.155,16.294,4.026a45.276,45.276,0,0,0-16.258-46.323Z" transform="translate(-312.433 -59.842)" fill="#ffdd40"/>
  <path id="Path_998" data-name="Path 998" d="M28.5,73.383c2.957,2.412,5.934,6.283,4.179,11.417-3.131,9.164,5.056,21.68-4.143,30.879-5.414,5.414-11.885,5.155-16.294,4.026A45.277,45.277,0,0,1,28.5,73.383Z" transform="translate(-10.998 -59.842)" fill="#ffdd40"/>
  <path id="Path_999" data-name="Path 999" d="M388.3,415.325a11.252,11.252,0,0,0-5-6.91,1.729,1.729,0,0,0-2.658,1.456v11.155A45.365,45.365,0,0,0,388.3,415.325Z" transform="translate(-312.432 -332.829)" fill="#548bed"/>
  <path id="Path_1000" data-name="Path 1000" d="M316.888,286.843c0,4.939.815,9.755,4.327,10.352,1.379-4.761,2.934-9.456.8-16.935-.052-.18-.1-.357-.149-.534C319.582,280.95,316.888,283.171,316.888,286.843Z" transform="translate(-260.443 -228.109)" fill="#56415e"/>
</svg>
